G04 MADE WITH FRITZING*
G04 WWW.FRITZING.ORG*
G04 DOUBLE SIDED*
G04 HOLES PLATED*
G04 CONTOUR ON CENTER OF CONTOUR VECTOR*
%ASAXBY*%
%FSLAX23Y23*%
%MOIN*%
%OFA0B0*%
%SFA1.0B1.0*%
%ADD10C,0.075000*%
%ADD11C,0.078000*%
%ADD12C,0.039370*%
%ADD13C,0.070000*%
%ADD14R,0.069972X0.070000*%
%ADD15C,0.024000*%
%LNCOPPER0*%
G90*
G70*
G54D10*
X1388Y1155D03*
X1205Y704D03*
X1353Y314D03*
X224Y2059D03*
G54D11*
X2194Y1557D03*
X2194Y1457D03*
X2194Y1357D03*
X2094Y757D03*
X2094Y657D03*
X2094Y557D03*
X1794Y757D03*
X1794Y657D03*
X1794Y557D03*
X1994Y357D03*
X1994Y257D03*
X1994Y157D03*
X1594Y757D03*
X1594Y657D03*
X1594Y557D03*
X1994Y1957D03*
X1894Y1957D03*
X1794Y1957D03*
X1694Y1957D03*
X1594Y1957D03*
X394Y1357D03*
X394Y1257D03*
X394Y1157D03*
X394Y1057D03*
X394Y957D03*
X394Y857D03*
X394Y757D03*
X394Y657D03*
G54D12*
X2050Y1517D03*
X418Y1565D03*
X2074Y77D03*
X2002Y1325D03*
X586Y317D03*
G54D13*
X694Y1857D03*
X694Y1757D03*
X694Y1657D03*
X694Y1557D03*
X694Y1457D03*
X694Y1357D03*
X694Y1257D03*
X694Y1157D03*
X694Y1057D03*
X694Y957D03*
X694Y857D03*
X694Y757D03*
X694Y657D03*
X694Y557D03*
X694Y457D03*
X1294Y1857D03*
X1294Y1757D03*
X1294Y1657D03*
X1294Y1557D03*
X1294Y1457D03*
X1294Y1357D03*
X1294Y1257D03*
X1294Y1157D03*
X1294Y1057D03*
X1294Y957D03*
X1294Y857D03*
X1294Y757D03*
X1294Y657D03*
X1294Y557D03*
X1294Y457D03*
G54D11*
X2294Y857D03*
X2294Y757D03*
X2294Y657D03*
X2294Y557D03*
X2194Y1157D03*
X2194Y1057D03*
X394Y457D03*
X394Y357D03*
X394Y257D03*
X194Y1757D03*
X194Y1657D03*
X194Y1557D03*
X1594Y157D03*
X1494Y157D03*
X1394Y157D03*
X1294Y157D03*
X394Y1957D03*
X394Y1857D03*
X394Y1757D03*
G54D14*
X694Y1857D03*
G54D15*
X1794Y1657D02*
X2292Y1657D01*
D02*
X1321Y1847D02*
X1794Y1657D01*
D02*
X2292Y1257D02*
X2292Y1057D01*
D02*
X2292Y1657D02*
X2292Y1257D01*
D02*
X2292Y1057D02*
X2224Y1057D01*
D02*
X665Y957D02*
X424Y957D01*
D02*
X665Y1157D02*
X424Y1157D01*
D02*
X665Y1057D02*
X424Y1057D01*
D02*
X1321Y748D02*
X1565Y667D01*
D02*
X669Y842D02*
X634Y821D01*
D02*
X634Y821D02*
X430Y389D01*
D02*
X430Y389D02*
X416Y377D01*
D02*
X1193Y357D02*
X994Y355D01*
D02*
X1372Y179D02*
X1193Y357D01*
D02*
X994Y355D02*
X714Y637D01*
D02*
X1270Y1275D02*
X1234Y1301D01*
D02*
X1234Y1301D02*
X1234Y1901D01*
D02*
X1234Y1901D02*
X1258Y1925D01*
D02*
X1258Y1925D02*
X1858Y1805D01*
D02*
X1858Y1805D02*
X1887Y1928D01*
D02*
X1265Y857D02*
X1194Y857D01*
D02*
X1194Y857D02*
X994Y457D01*
D02*
X994Y457D02*
X1964Y263D01*
D02*
X1314Y1337D02*
X1930Y713D01*
D02*
X1930Y713D02*
X2065Y667D01*
D02*
X718Y773D02*
X754Y797D01*
D02*
X754Y797D02*
X754Y1925D01*
D02*
X754Y1925D02*
X634Y1925D01*
D02*
X594Y1657D02*
X224Y1657D01*
D02*
X634Y1925D02*
X594Y1657D01*
D02*
X1624Y557D02*
X1764Y557D01*
D02*
X2064Y557D02*
X1824Y557D01*
D02*
X2021Y171D02*
X2074Y197D01*
D02*
X2074Y197D02*
X2092Y527D01*
D02*
X1624Y157D02*
X1964Y157D01*
D02*
X2165Y1148D02*
X2122Y1133D01*
D02*
X2122Y1133D02*
X2170Y605D01*
D02*
X2170Y605D02*
X2119Y573D01*
D02*
X2194Y1327D02*
X2194Y1188D01*
D02*
X2063Y1503D02*
X2174Y1380D01*
D02*
X437Y1565D02*
X665Y1558D01*
D02*
X368Y673D02*
X322Y701D01*
D02*
X322Y701D02*
X198Y1528D01*
D02*
X367Y271D02*
X322Y293D01*
D02*
X322Y293D02*
X322Y509D01*
D02*
X322Y509D02*
X381Y630D01*
D02*
X1624Y757D02*
X1764Y757D01*
D02*
X1293Y58D02*
X1496Y57D01*
D02*
X1294Y127D02*
X1293Y58D01*
D02*
X1496Y57D02*
X1896Y57D01*
D02*
X1896Y57D02*
X2055Y75D01*
D02*
X2164Y1559D02*
X2002Y1565D01*
D02*
X2002Y1565D02*
X2002Y1344D01*
D02*
X1323Y1558D02*
X2002Y1565D01*
D02*
X594Y155D02*
X1264Y157D01*
D02*
X587Y299D02*
X594Y155D01*
D02*
X2124Y557D02*
X2264Y557D01*
G36*
X1338Y1262D02*
X1338Y1246D01*
X1336Y1246D01*
X1336Y1242D01*
X1334Y1242D01*
X1334Y1238D01*
X1332Y1238D01*
X1332Y1234D01*
X1330Y1234D01*
X1330Y1232D01*
X1328Y1232D01*
X1328Y1230D01*
X1326Y1230D01*
X1326Y1226D01*
X1322Y1226D01*
X1322Y1224D01*
X1320Y1224D01*
X1320Y1222D01*
X1318Y1222D01*
X1318Y1220D01*
X1314Y1220D01*
X1314Y1218D01*
X1312Y1218D01*
X1312Y1198D01*
X1314Y1198D01*
X1314Y1196D01*
X1316Y1196D01*
X1316Y1194D01*
X1320Y1194D01*
X1320Y1192D01*
X1322Y1192D01*
X1322Y1190D01*
X1324Y1190D01*
X1324Y1188D01*
X1326Y1188D01*
X1326Y1186D01*
X1328Y1186D01*
X1328Y1184D01*
X1330Y1184D01*
X1330Y1180D01*
X1332Y1180D01*
X1332Y1178D01*
X1334Y1178D01*
X1334Y1174D01*
X1336Y1174D01*
X1336Y1168D01*
X1338Y1168D01*
X1338Y1146D01*
X1336Y1146D01*
X1336Y1142D01*
X1334Y1142D01*
X1334Y1138D01*
X1332Y1138D01*
X1332Y1134D01*
X1330Y1134D01*
X1330Y1132D01*
X1328Y1132D01*
X1328Y1130D01*
X1326Y1130D01*
X1326Y1126D01*
X1322Y1126D01*
X1322Y1124D01*
X1320Y1124D01*
X1320Y1122D01*
X1318Y1122D01*
X1318Y1120D01*
X1314Y1120D01*
X1314Y1118D01*
X1312Y1118D01*
X1312Y1098D01*
X1314Y1098D01*
X1314Y1096D01*
X1316Y1096D01*
X1316Y1094D01*
X1320Y1094D01*
X1320Y1092D01*
X1322Y1092D01*
X1322Y1090D01*
X1324Y1090D01*
X1324Y1088D01*
X1326Y1088D01*
X1326Y1086D01*
X1328Y1086D01*
X1328Y1084D01*
X1330Y1084D01*
X1330Y1080D01*
X1332Y1080D01*
X1332Y1078D01*
X1334Y1078D01*
X1334Y1074D01*
X1336Y1074D01*
X1336Y1068D01*
X1338Y1068D01*
X1338Y1046D01*
X1336Y1046D01*
X1336Y1042D01*
X1334Y1042D01*
X1334Y1038D01*
X1332Y1038D01*
X1332Y1034D01*
X1330Y1034D01*
X1330Y1032D01*
X1328Y1032D01*
X1328Y1030D01*
X1326Y1030D01*
X1326Y1026D01*
X1322Y1026D01*
X1322Y1024D01*
X1320Y1024D01*
X1320Y1022D01*
X1318Y1022D01*
X1318Y1020D01*
X1314Y1020D01*
X1314Y1018D01*
X1312Y1018D01*
X1312Y998D01*
X1314Y998D01*
X1314Y996D01*
X1316Y996D01*
X1316Y994D01*
X1320Y994D01*
X1320Y992D01*
X1322Y992D01*
X1322Y990D01*
X1324Y990D01*
X1324Y988D01*
X1326Y988D01*
X1326Y986D01*
X1328Y986D01*
X1328Y984D01*
X1330Y984D01*
X1330Y980D01*
X1332Y980D01*
X1332Y978D01*
X1334Y978D01*
X1334Y974D01*
X1336Y974D01*
X1336Y968D01*
X1338Y968D01*
X1338Y946D01*
X1336Y946D01*
X1336Y942D01*
X1334Y942D01*
X1334Y938D01*
X1332Y938D01*
X1332Y934D01*
X1330Y934D01*
X1330Y932D01*
X1328Y932D01*
X1328Y930D01*
X1326Y930D01*
X1326Y926D01*
X1322Y926D01*
X1322Y924D01*
X1320Y924D01*
X1320Y922D01*
X1318Y922D01*
X1318Y920D01*
X1314Y920D01*
X1314Y918D01*
X1312Y918D01*
X1312Y898D01*
X1314Y898D01*
X1314Y896D01*
X1316Y896D01*
X1316Y894D01*
X1320Y894D01*
X1320Y892D01*
X1322Y892D01*
X1322Y890D01*
X1324Y890D01*
X1324Y888D01*
X1326Y888D01*
X1326Y886D01*
X1328Y886D01*
X1328Y884D01*
X1330Y884D01*
X1330Y880D01*
X1332Y880D01*
X1332Y878D01*
X1334Y878D01*
X1334Y874D01*
X1336Y874D01*
X1336Y868D01*
X1338Y868D01*
X1338Y846D01*
X1336Y846D01*
X1336Y842D01*
X1334Y842D01*
X1334Y838D01*
X1332Y838D01*
X1332Y834D01*
X1330Y834D01*
X1330Y832D01*
X1328Y832D01*
X1328Y830D01*
X1326Y830D01*
X1326Y826D01*
X1322Y826D01*
X1322Y824D01*
X1320Y824D01*
X1320Y822D01*
X1318Y822D01*
X1318Y820D01*
X1314Y820D01*
X1314Y818D01*
X1312Y818D01*
X1312Y806D01*
X1604Y806D01*
X1604Y804D01*
X1610Y804D01*
X1610Y802D01*
X1614Y802D01*
X1614Y800D01*
X1618Y800D01*
X1618Y798D01*
X1620Y798D01*
X1620Y796D01*
X1624Y796D01*
X1624Y794D01*
X1626Y794D01*
X1626Y792D01*
X1628Y792D01*
X1628Y790D01*
X1630Y790D01*
X1630Y788D01*
X1632Y788D01*
X1632Y784D01*
X1634Y784D01*
X1634Y782D01*
X1636Y782D01*
X1636Y780D01*
X1752Y780D01*
X1752Y782D01*
X1754Y782D01*
X1754Y784D01*
X1756Y784D01*
X1756Y788D01*
X1758Y788D01*
X1758Y790D01*
X1760Y790D01*
X1760Y792D01*
X1762Y792D01*
X1762Y794D01*
X1764Y794D01*
X1764Y796D01*
X1768Y796D01*
X1768Y798D01*
X1770Y798D01*
X1770Y800D01*
X1774Y800D01*
X1774Y802D01*
X1778Y802D01*
X1778Y804D01*
X1784Y804D01*
X1784Y806D01*
X1790Y806D01*
X1790Y826D01*
X1788Y826D01*
X1788Y828D01*
X1786Y828D01*
X1786Y830D01*
X1784Y830D01*
X1784Y832D01*
X1782Y832D01*
X1782Y834D01*
X1780Y834D01*
X1780Y836D01*
X1778Y836D01*
X1778Y838D01*
X1776Y838D01*
X1776Y840D01*
X1774Y840D01*
X1774Y842D01*
X1772Y842D01*
X1772Y844D01*
X1770Y844D01*
X1770Y846D01*
X1768Y846D01*
X1768Y848D01*
X1766Y848D01*
X1766Y850D01*
X1764Y850D01*
X1764Y852D01*
X1762Y852D01*
X1762Y854D01*
X1760Y854D01*
X1760Y856D01*
X1758Y856D01*
X1758Y858D01*
X1756Y858D01*
X1756Y860D01*
X1754Y860D01*
X1754Y862D01*
X1752Y862D01*
X1752Y864D01*
X1750Y864D01*
X1750Y866D01*
X1748Y866D01*
X1748Y868D01*
X1746Y868D01*
X1746Y870D01*
X1744Y870D01*
X1744Y872D01*
X1742Y872D01*
X1742Y874D01*
X1740Y874D01*
X1740Y876D01*
X1738Y876D01*
X1738Y878D01*
X1736Y878D01*
X1736Y880D01*
X1734Y880D01*
X1734Y882D01*
X1732Y882D01*
X1732Y884D01*
X1730Y884D01*
X1730Y886D01*
X1728Y886D01*
X1728Y888D01*
X1726Y888D01*
X1726Y890D01*
X1724Y890D01*
X1724Y892D01*
X1722Y892D01*
X1722Y894D01*
X1720Y894D01*
X1720Y896D01*
X1718Y896D01*
X1718Y898D01*
X1716Y898D01*
X1716Y900D01*
X1714Y900D01*
X1714Y902D01*
X1712Y902D01*
X1712Y904D01*
X1710Y904D01*
X1710Y906D01*
X1708Y906D01*
X1708Y908D01*
X1706Y908D01*
X1706Y910D01*
X1704Y910D01*
X1704Y912D01*
X1702Y912D01*
X1702Y914D01*
X1700Y914D01*
X1700Y916D01*
X1698Y916D01*
X1698Y918D01*
X1696Y918D01*
X1696Y920D01*
X1694Y920D01*
X1694Y922D01*
X1692Y922D01*
X1692Y924D01*
X1690Y924D01*
X1690Y926D01*
X1688Y926D01*
X1688Y928D01*
X1686Y928D01*
X1686Y930D01*
X1684Y930D01*
X1684Y932D01*
X1682Y932D01*
X1682Y934D01*
X1680Y934D01*
X1680Y936D01*
X1678Y936D01*
X1678Y938D01*
X1676Y938D01*
X1676Y940D01*
X1674Y940D01*
X1674Y942D01*
X1672Y942D01*
X1672Y944D01*
X1670Y944D01*
X1670Y946D01*
X1668Y946D01*
X1668Y948D01*
X1666Y948D01*
X1666Y950D01*
X1664Y950D01*
X1664Y952D01*
X1662Y952D01*
X1662Y954D01*
X1660Y954D01*
X1660Y956D01*
X1658Y956D01*
X1658Y958D01*
X1656Y958D01*
X1656Y960D01*
X1654Y960D01*
X1654Y962D01*
X1652Y962D01*
X1652Y966D01*
X1650Y966D01*
X1650Y968D01*
X1648Y968D01*
X1648Y970D01*
X1646Y970D01*
X1646Y972D01*
X1644Y972D01*
X1644Y974D01*
X1642Y974D01*
X1642Y976D01*
X1640Y976D01*
X1640Y978D01*
X1638Y978D01*
X1638Y980D01*
X1636Y980D01*
X1636Y982D01*
X1634Y982D01*
X1634Y984D01*
X1632Y984D01*
X1632Y986D01*
X1630Y986D01*
X1630Y988D01*
X1628Y988D01*
X1628Y990D01*
X1626Y990D01*
X1626Y992D01*
X1624Y992D01*
X1624Y994D01*
X1622Y994D01*
X1622Y996D01*
X1620Y996D01*
X1620Y998D01*
X1618Y998D01*
X1618Y1000D01*
X1616Y1000D01*
X1616Y1002D01*
X1614Y1002D01*
X1614Y1004D01*
X1612Y1004D01*
X1612Y1006D01*
X1610Y1006D01*
X1610Y1008D01*
X1608Y1008D01*
X1608Y1010D01*
X1606Y1010D01*
X1606Y1012D01*
X1604Y1012D01*
X1604Y1014D01*
X1602Y1014D01*
X1602Y1016D01*
X1600Y1016D01*
X1600Y1018D01*
X1598Y1018D01*
X1598Y1020D01*
X1596Y1020D01*
X1596Y1022D01*
X1594Y1022D01*
X1594Y1024D01*
X1592Y1024D01*
X1592Y1026D01*
X1590Y1026D01*
X1590Y1028D01*
X1588Y1028D01*
X1588Y1030D01*
X1586Y1030D01*
X1586Y1032D01*
X1584Y1032D01*
X1584Y1034D01*
X1582Y1034D01*
X1582Y1036D01*
X1580Y1036D01*
X1580Y1038D01*
X1578Y1038D01*
X1578Y1040D01*
X1576Y1040D01*
X1576Y1042D01*
X1574Y1042D01*
X1574Y1044D01*
X1572Y1044D01*
X1572Y1046D01*
X1570Y1046D01*
X1570Y1048D01*
X1568Y1048D01*
X1568Y1050D01*
X1566Y1050D01*
X1566Y1052D01*
X1564Y1052D01*
X1564Y1054D01*
X1562Y1054D01*
X1562Y1056D01*
X1560Y1056D01*
X1560Y1058D01*
X1558Y1058D01*
X1558Y1060D01*
X1556Y1060D01*
X1556Y1062D01*
X1554Y1062D01*
X1554Y1064D01*
X1552Y1064D01*
X1552Y1066D01*
X1550Y1066D01*
X1550Y1068D01*
X1548Y1068D01*
X1548Y1070D01*
X1546Y1070D01*
X1546Y1072D01*
X1544Y1072D01*
X1544Y1074D01*
X1542Y1074D01*
X1542Y1076D01*
X1540Y1076D01*
X1540Y1078D01*
X1538Y1078D01*
X1538Y1080D01*
X1536Y1080D01*
X1536Y1082D01*
X1534Y1082D01*
X1534Y1084D01*
X1532Y1084D01*
X1532Y1086D01*
X1530Y1086D01*
X1530Y1088D01*
X1528Y1088D01*
X1528Y1090D01*
X1526Y1090D01*
X1526Y1092D01*
X1524Y1092D01*
X1524Y1094D01*
X1522Y1094D01*
X1522Y1096D01*
X1520Y1096D01*
X1520Y1098D01*
X1518Y1098D01*
X1518Y1100D01*
X1516Y1100D01*
X1516Y1102D01*
X1514Y1102D01*
X1514Y1104D01*
X1512Y1104D01*
X1512Y1106D01*
X1510Y1106D01*
X1510Y1108D01*
X1508Y1108D01*
X1508Y1110D01*
X1506Y1110D01*
X1506Y1112D01*
X1504Y1112D01*
X1504Y1114D01*
X1502Y1114D01*
X1502Y1116D01*
X1500Y1116D01*
X1500Y1118D01*
X1498Y1118D01*
X1498Y1120D01*
X1496Y1120D01*
X1496Y1122D01*
X1494Y1122D01*
X1494Y1124D01*
X1492Y1124D01*
X1492Y1126D01*
X1490Y1126D01*
X1490Y1128D01*
X1488Y1128D01*
X1488Y1130D01*
X1486Y1130D01*
X1486Y1132D01*
X1484Y1132D01*
X1484Y1134D01*
X1482Y1134D01*
X1482Y1138D01*
X1480Y1138D01*
X1480Y1140D01*
X1478Y1140D01*
X1478Y1142D01*
X1476Y1142D01*
X1476Y1144D01*
X1474Y1144D01*
X1474Y1146D01*
X1472Y1146D01*
X1472Y1148D01*
X1470Y1148D01*
X1470Y1150D01*
X1468Y1150D01*
X1468Y1152D01*
X1466Y1152D01*
X1466Y1154D01*
X1464Y1154D01*
X1464Y1156D01*
X1462Y1156D01*
X1462Y1158D01*
X1460Y1158D01*
X1460Y1160D01*
X1458Y1160D01*
X1458Y1162D01*
X1456Y1162D01*
X1456Y1164D01*
X1454Y1164D01*
X1454Y1166D01*
X1452Y1166D01*
X1452Y1168D01*
X1450Y1168D01*
X1450Y1170D01*
X1448Y1170D01*
X1448Y1172D01*
X1446Y1172D01*
X1446Y1174D01*
X1444Y1174D01*
X1444Y1176D01*
X1442Y1176D01*
X1442Y1178D01*
X1440Y1178D01*
X1440Y1180D01*
X1438Y1180D01*
X1438Y1182D01*
X1436Y1182D01*
X1436Y1184D01*
X1434Y1184D01*
X1434Y1186D01*
X1432Y1186D01*
X1432Y1188D01*
X1430Y1188D01*
X1430Y1190D01*
X1428Y1190D01*
X1428Y1192D01*
X1426Y1192D01*
X1426Y1194D01*
X1424Y1194D01*
X1424Y1196D01*
X1422Y1196D01*
X1422Y1198D01*
X1420Y1198D01*
X1420Y1200D01*
X1418Y1200D01*
X1418Y1202D01*
X1416Y1202D01*
X1416Y1204D01*
X1414Y1204D01*
X1414Y1206D01*
X1412Y1206D01*
X1412Y1208D01*
X1410Y1208D01*
X1410Y1210D01*
X1408Y1210D01*
X1408Y1212D01*
X1406Y1212D01*
X1406Y1214D01*
X1404Y1214D01*
X1404Y1216D01*
X1402Y1216D01*
X1402Y1218D01*
X1400Y1218D01*
X1400Y1220D01*
X1398Y1220D01*
X1398Y1222D01*
X1396Y1222D01*
X1396Y1224D01*
X1394Y1224D01*
X1394Y1226D01*
X1392Y1226D01*
X1392Y1228D01*
X1390Y1228D01*
X1390Y1230D01*
X1388Y1230D01*
X1388Y1232D01*
X1386Y1232D01*
X1386Y1234D01*
X1384Y1234D01*
X1384Y1236D01*
X1382Y1236D01*
X1382Y1238D01*
X1380Y1238D01*
X1380Y1240D01*
X1378Y1240D01*
X1378Y1242D01*
X1376Y1242D01*
X1376Y1244D01*
X1374Y1244D01*
X1374Y1246D01*
X1372Y1246D01*
X1372Y1248D01*
X1370Y1248D01*
X1370Y1250D01*
X1368Y1250D01*
X1368Y1252D01*
X1366Y1252D01*
X1366Y1254D01*
X1364Y1254D01*
X1364Y1256D01*
X1362Y1256D01*
X1362Y1258D01*
X1360Y1258D01*
X1360Y1260D01*
X1358Y1260D01*
X1358Y1262D01*
X1338Y1262D01*
G37*
D02*
G36*
X1312Y806D02*
X1312Y798D01*
X1314Y798D01*
X1314Y796D01*
X1316Y796D01*
X1316Y794D01*
X1320Y794D01*
X1320Y792D01*
X1322Y792D01*
X1322Y790D01*
X1324Y790D01*
X1324Y788D01*
X1326Y788D01*
X1326Y786D01*
X1328Y786D01*
X1328Y784D01*
X1330Y784D01*
X1330Y780D01*
X1332Y780D01*
X1332Y778D01*
X1334Y778D01*
X1334Y774D01*
X1336Y774D01*
X1336Y768D01*
X1338Y768D01*
X1338Y766D01*
X1342Y766D01*
X1342Y764D01*
X1348Y764D01*
X1348Y762D01*
X1354Y762D01*
X1354Y760D01*
X1360Y760D01*
X1360Y758D01*
X1366Y758D01*
X1366Y756D01*
X1372Y756D01*
X1372Y754D01*
X1378Y754D01*
X1378Y752D01*
X1384Y752D01*
X1384Y750D01*
X1390Y750D01*
X1390Y748D01*
X1396Y748D01*
X1396Y746D01*
X1402Y746D01*
X1402Y744D01*
X1408Y744D01*
X1408Y742D01*
X1414Y742D01*
X1414Y740D01*
X1420Y740D01*
X1420Y738D01*
X1426Y738D01*
X1426Y736D01*
X1432Y736D01*
X1432Y734D01*
X1438Y734D01*
X1438Y732D01*
X1444Y732D01*
X1444Y730D01*
X1450Y730D01*
X1450Y728D01*
X1456Y728D01*
X1456Y726D01*
X1462Y726D01*
X1462Y724D01*
X1468Y724D01*
X1468Y722D01*
X1474Y722D01*
X1474Y720D01*
X1480Y720D01*
X1480Y718D01*
X1486Y718D01*
X1486Y716D01*
X1492Y716D01*
X1492Y714D01*
X1498Y714D01*
X1498Y712D01*
X1504Y712D01*
X1504Y710D01*
X1510Y710D01*
X1510Y708D01*
X1516Y708D01*
X1516Y706D01*
X1522Y706D01*
X1522Y704D01*
X1528Y704D01*
X1528Y702D01*
X1534Y702D01*
X1534Y700D01*
X1540Y700D01*
X1540Y698D01*
X1546Y698D01*
X1546Y696D01*
X1568Y696D01*
X1568Y718D01*
X1566Y718D01*
X1566Y720D01*
X1564Y720D01*
X1564Y722D01*
X1562Y722D01*
X1562Y724D01*
X1560Y724D01*
X1560Y726D01*
X1558Y726D01*
X1558Y728D01*
X1556Y728D01*
X1556Y730D01*
X1554Y730D01*
X1554Y734D01*
X1552Y734D01*
X1552Y736D01*
X1550Y736D01*
X1550Y740D01*
X1548Y740D01*
X1548Y746D01*
X1546Y746D01*
X1546Y756D01*
X1544Y756D01*
X1544Y758D01*
X1546Y758D01*
X1546Y770D01*
X1548Y770D01*
X1548Y774D01*
X1550Y774D01*
X1550Y778D01*
X1552Y778D01*
X1552Y782D01*
X1554Y782D01*
X1554Y784D01*
X1556Y784D01*
X1556Y788D01*
X1558Y788D01*
X1558Y790D01*
X1560Y790D01*
X1560Y792D01*
X1562Y792D01*
X1562Y794D01*
X1564Y794D01*
X1564Y796D01*
X1568Y796D01*
X1568Y798D01*
X1570Y798D01*
X1570Y800D01*
X1574Y800D01*
X1574Y802D01*
X1578Y802D01*
X1578Y804D01*
X1584Y804D01*
X1584Y806D01*
X1312Y806D01*
G37*
D02*
G36*
X436Y1136D02*
X436Y1134D01*
X434Y1134D01*
X434Y1130D01*
X432Y1130D01*
X432Y1128D01*
X430Y1128D01*
X430Y1126D01*
X428Y1126D01*
X428Y1124D01*
X426Y1124D01*
X426Y1122D01*
X424Y1122D01*
X424Y1120D01*
X422Y1120D01*
X422Y1118D01*
X420Y1118D01*
X420Y1096D01*
X424Y1096D01*
X424Y1094D01*
X426Y1094D01*
X426Y1092D01*
X428Y1092D01*
X428Y1090D01*
X430Y1090D01*
X430Y1088D01*
X432Y1088D01*
X432Y1084D01*
X434Y1084D01*
X434Y1082D01*
X436Y1082D01*
X436Y1080D01*
X656Y1080D01*
X656Y1082D01*
X658Y1082D01*
X658Y1084D01*
X660Y1084D01*
X660Y1086D01*
X662Y1086D01*
X662Y1088D01*
X664Y1088D01*
X664Y1090D01*
X666Y1090D01*
X666Y1092D01*
X668Y1092D01*
X668Y1094D01*
X672Y1094D01*
X672Y1096D01*
X674Y1096D01*
X674Y1098D01*
X676Y1098D01*
X676Y1118D01*
X674Y1118D01*
X674Y1120D01*
X670Y1120D01*
X670Y1122D01*
X668Y1122D01*
X668Y1124D01*
X666Y1124D01*
X666Y1126D01*
X662Y1126D01*
X662Y1130D01*
X660Y1130D01*
X660Y1132D01*
X658Y1132D01*
X658Y1134D01*
X656Y1134D01*
X656Y1136D01*
X436Y1136D01*
G37*
D02*
G36*
X436Y1036D02*
X436Y1034D01*
X434Y1034D01*
X434Y1030D01*
X432Y1030D01*
X432Y1028D01*
X430Y1028D01*
X430Y1026D01*
X428Y1026D01*
X428Y1024D01*
X426Y1024D01*
X426Y1022D01*
X424Y1022D01*
X424Y1020D01*
X422Y1020D01*
X422Y1018D01*
X420Y1018D01*
X420Y996D01*
X424Y996D01*
X424Y994D01*
X426Y994D01*
X426Y992D01*
X428Y992D01*
X428Y990D01*
X430Y990D01*
X430Y988D01*
X432Y988D01*
X432Y984D01*
X434Y984D01*
X434Y982D01*
X436Y982D01*
X436Y980D01*
X656Y980D01*
X656Y982D01*
X658Y982D01*
X658Y984D01*
X660Y984D01*
X660Y986D01*
X662Y986D01*
X662Y988D01*
X664Y988D01*
X664Y990D01*
X666Y990D01*
X666Y992D01*
X668Y992D01*
X668Y994D01*
X672Y994D01*
X672Y996D01*
X674Y996D01*
X674Y998D01*
X676Y998D01*
X676Y1018D01*
X674Y1018D01*
X674Y1020D01*
X670Y1020D01*
X670Y1022D01*
X668Y1022D01*
X668Y1024D01*
X666Y1024D01*
X666Y1026D01*
X662Y1026D01*
X662Y1030D01*
X660Y1030D01*
X660Y1032D01*
X658Y1032D01*
X658Y1034D01*
X656Y1034D01*
X656Y1036D01*
X436Y1036D01*
G37*
D02*
G36*
X1208Y836D02*
X1208Y834D01*
X1206Y834D01*
X1206Y830D01*
X1204Y830D01*
X1204Y826D01*
X1202Y826D01*
X1202Y822D01*
X1200Y822D01*
X1200Y818D01*
X1198Y818D01*
X1198Y814D01*
X1196Y814D01*
X1196Y810D01*
X1194Y810D01*
X1194Y806D01*
X1192Y806D01*
X1192Y802D01*
X1190Y802D01*
X1190Y798D01*
X1188Y798D01*
X1188Y794D01*
X1186Y794D01*
X1186Y790D01*
X1184Y790D01*
X1184Y786D01*
X1182Y786D01*
X1182Y782D01*
X1180Y782D01*
X1180Y778D01*
X1178Y778D01*
X1178Y774D01*
X1176Y774D01*
X1176Y770D01*
X1174Y770D01*
X1174Y766D01*
X1172Y766D01*
X1172Y762D01*
X1170Y762D01*
X1170Y758D01*
X1168Y758D01*
X1168Y754D01*
X1166Y754D01*
X1166Y750D01*
X1164Y750D01*
X1164Y746D01*
X1162Y746D01*
X1162Y742D01*
X1160Y742D01*
X1160Y738D01*
X1158Y738D01*
X1158Y734D01*
X1156Y734D01*
X1156Y730D01*
X1154Y730D01*
X1154Y726D01*
X1152Y726D01*
X1152Y722D01*
X1150Y722D01*
X1150Y718D01*
X1148Y718D01*
X1148Y714D01*
X1146Y714D01*
X1146Y710D01*
X1144Y710D01*
X1144Y706D01*
X1142Y706D01*
X1142Y702D01*
X1140Y702D01*
X1140Y698D01*
X1138Y698D01*
X1138Y694D01*
X1136Y694D01*
X1136Y690D01*
X1134Y690D01*
X1134Y686D01*
X1132Y686D01*
X1132Y682D01*
X1130Y682D01*
X1130Y678D01*
X1128Y678D01*
X1128Y674D01*
X1126Y674D01*
X1126Y670D01*
X1124Y670D01*
X1124Y666D01*
X1122Y666D01*
X1122Y662D01*
X1120Y662D01*
X1120Y658D01*
X1118Y658D01*
X1118Y654D01*
X1116Y654D01*
X1116Y650D01*
X1114Y650D01*
X1114Y646D01*
X1112Y646D01*
X1112Y642D01*
X1110Y642D01*
X1110Y638D01*
X1108Y638D01*
X1108Y634D01*
X1106Y634D01*
X1106Y630D01*
X1104Y630D01*
X1104Y626D01*
X1102Y626D01*
X1102Y622D01*
X1100Y622D01*
X1100Y618D01*
X1098Y618D01*
X1098Y614D01*
X1096Y614D01*
X1096Y610D01*
X1094Y610D01*
X1094Y606D01*
X1092Y606D01*
X1092Y602D01*
X1090Y602D01*
X1090Y598D01*
X1088Y598D01*
X1088Y594D01*
X1086Y594D01*
X1086Y590D01*
X1084Y590D01*
X1084Y586D01*
X1082Y586D01*
X1082Y582D01*
X1080Y582D01*
X1080Y578D01*
X1078Y578D01*
X1078Y574D01*
X1076Y574D01*
X1076Y570D01*
X1074Y570D01*
X1074Y566D01*
X1072Y566D01*
X1072Y562D01*
X1070Y562D01*
X1070Y558D01*
X1068Y558D01*
X1068Y554D01*
X1066Y554D01*
X1066Y550D01*
X1064Y550D01*
X1064Y546D01*
X1062Y546D01*
X1062Y542D01*
X1060Y542D01*
X1060Y538D01*
X1058Y538D01*
X1058Y534D01*
X1056Y534D01*
X1056Y530D01*
X1054Y530D01*
X1054Y526D01*
X1052Y526D01*
X1052Y522D01*
X1050Y522D01*
X1050Y518D01*
X1048Y518D01*
X1048Y514D01*
X1046Y514D01*
X1046Y510D01*
X1044Y510D01*
X1044Y506D01*
X1042Y506D01*
X1042Y502D01*
X1040Y502D01*
X1040Y498D01*
X1038Y498D01*
X1038Y494D01*
X1036Y494D01*
X1036Y470D01*
X1046Y470D01*
X1046Y468D01*
X1056Y468D01*
X1056Y466D01*
X1066Y466D01*
X1066Y464D01*
X1078Y464D01*
X1078Y462D01*
X1088Y462D01*
X1088Y460D01*
X1098Y460D01*
X1098Y458D01*
X1108Y458D01*
X1108Y456D01*
X1118Y456D01*
X1118Y454D01*
X1128Y454D01*
X1128Y452D01*
X1138Y452D01*
X1138Y450D01*
X1148Y450D01*
X1148Y448D01*
X1158Y448D01*
X1158Y446D01*
X1168Y446D01*
X1168Y444D01*
X1178Y444D01*
X1178Y442D01*
X1188Y442D01*
X1188Y440D01*
X1198Y440D01*
X1198Y438D01*
X1208Y438D01*
X1208Y436D01*
X1218Y436D01*
X1218Y434D01*
X1228Y434D01*
X1228Y432D01*
X1250Y432D01*
X1250Y456D01*
X1248Y456D01*
X1248Y458D01*
X1250Y458D01*
X1250Y468D01*
X1252Y468D01*
X1252Y474D01*
X1254Y474D01*
X1254Y478D01*
X1256Y478D01*
X1256Y482D01*
X1258Y482D01*
X1258Y484D01*
X1260Y484D01*
X1260Y486D01*
X1262Y486D01*
X1262Y488D01*
X1264Y488D01*
X1264Y490D01*
X1266Y490D01*
X1266Y492D01*
X1268Y492D01*
X1268Y494D01*
X1272Y494D01*
X1272Y496D01*
X1274Y496D01*
X1274Y498D01*
X1276Y498D01*
X1276Y518D01*
X1274Y518D01*
X1274Y520D01*
X1270Y520D01*
X1270Y522D01*
X1268Y522D01*
X1268Y524D01*
X1266Y524D01*
X1266Y526D01*
X1262Y526D01*
X1262Y530D01*
X1260Y530D01*
X1260Y532D01*
X1258Y532D01*
X1258Y534D01*
X1256Y534D01*
X1256Y538D01*
X1254Y538D01*
X1254Y540D01*
X1252Y540D01*
X1252Y546D01*
X1250Y546D01*
X1250Y556D01*
X1248Y556D01*
X1248Y558D01*
X1250Y558D01*
X1250Y568D01*
X1252Y568D01*
X1252Y574D01*
X1254Y574D01*
X1254Y578D01*
X1256Y578D01*
X1256Y582D01*
X1258Y582D01*
X1258Y584D01*
X1260Y584D01*
X1260Y586D01*
X1262Y586D01*
X1262Y588D01*
X1264Y588D01*
X1264Y590D01*
X1266Y590D01*
X1266Y592D01*
X1268Y592D01*
X1268Y594D01*
X1272Y594D01*
X1272Y596D01*
X1274Y596D01*
X1274Y598D01*
X1276Y598D01*
X1276Y618D01*
X1274Y618D01*
X1274Y620D01*
X1270Y620D01*
X1270Y622D01*
X1268Y622D01*
X1268Y624D01*
X1266Y624D01*
X1266Y626D01*
X1262Y626D01*
X1262Y630D01*
X1260Y630D01*
X1260Y632D01*
X1258Y632D01*
X1258Y634D01*
X1256Y634D01*
X1256Y638D01*
X1254Y638D01*
X1254Y640D01*
X1252Y640D01*
X1252Y646D01*
X1250Y646D01*
X1250Y656D01*
X1248Y656D01*
X1248Y658D01*
X1250Y658D01*
X1250Y668D01*
X1252Y668D01*
X1252Y674D01*
X1254Y674D01*
X1254Y678D01*
X1256Y678D01*
X1256Y682D01*
X1258Y682D01*
X1258Y684D01*
X1260Y684D01*
X1260Y686D01*
X1262Y686D01*
X1262Y688D01*
X1264Y688D01*
X1264Y690D01*
X1266Y690D01*
X1266Y692D01*
X1268Y692D01*
X1268Y694D01*
X1272Y694D01*
X1272Y696D01*
X1274Y696D01*
X1274Y698D01*
X1276Y698D01*
X1276Y718D01*
X1274Y718D01*
X1274Y720D01*
X1270Y720D01*
X1270Y722D01*
X1268Y722D01*
X1268Y724D01*
X1266Y724D01*
X1266Y726D01*
X1262Y726D01*
X1262Y730D01*
X1260Y730D01*
X1260Y732D01*
X1258Y732D01*
X1258Y734D01*
X1256Y734D01*
X1256Y738D01*
X1254Y738D01*
X1254Y740D01*
X1252Y740D01*
X1252Y746D01*
X1250Y746D01*
X1250Y756D01*
X1248Y756D01*
X1248Y758D01*
X1250Y758D01*
X1250Y768D01*
X1252Y768D01*
X1252Y774D01*
X1254Y774D01*
X1254Y778D01*
X1256Y778D01*
X1256Y782D01*
X1258Y782D01*
X1258Y784D01*
X1260Y784D01*
X1260Y786D01*
X1262Y786D01*
X1262Y788D01*
X1264Y788D01*
X1264Y790D01*
X1266Y790D01*
X1266Y792D01*
X1268Y792D01*
X1268Y794D01*
X1272Y794D01*
X1272Y796D01*
X1274Y796D01*
X1274Y798D01*
X1276Y798D01*
X1276Y818D01*
X1274Y818D01*
X1274Y820D01*
X1270Y820D01*
X1270Y822D01*
X1268Y822D01*
X1268Y824D01*
X1266Y824D01*
X1266Y826D01*
X1262Y826D01*
X1262Y830D01*
X1260Y830D01*
X1260Y832D01*
X1258Y832D01*
X1258Y834D01*
X1256Y834D01*
X1256Y836D01*
X1208Y836D01*
G37*
D02*
G36*
X1208Y388D02*
X1208Y372D01*
X1210Y372D01*
X1210Y370D01*
X1212Y370D01*
X1212Y368D01*
X1214Y368D01*
X1214Y366D01*
X1218Y366D01*
X1218Y364D01*
X1220Y364D01*
X1220Y362D01*
X1222Y362D01*
X1222Y360D01*
X1224Y360D01*
X1224Y358D01*
X1226Y358D01*
X1226Y356D01*
X1228Y356D01*
X1228Y354D01*
X1230Y354D01*
X1230Y352D01*
X1232Y352D01*
X1232Y350D01*
X1234Y350D01*
X1234Y348D01*
X1236Y348D01*
X1236Y346D01*
X1238Y346D01*
X1238Y344D01*
X1240Y344D01*
X1240Y342D01*
X1242Y342D01*
X1242Y340D01*
X1244Y340D01*
X1244Y338D01*
X1246Y338D01*
X1246Y336D01*
X1248Y336D01*
X1248Y334D01*
X1250Y334D01*
X1250Y332D01*
X1252Y332D01*
X1252Y330D01*
X1254Y330D01*
X1254Y328D01*
X1256Y328D01*
X1256Y326D01*
X1258Y326D01*
X1258Y324D01*
X1260Y324D01*
X1260Y322D01*
X1262Y322D01*
X1262Y320D01*
X1264Y320D01*
X1264Y318D01*
X1266Y318D01*
X1266Y316D01*
X1268Y316D01*
X1268Y314D01*
X1270Y314D01*
X1270Y312D01*
X1272Y312D01*
X1272Y310D01*
X1274Y310D01*
X1274Y308D01*
X1276Y308D01*
X1276Y306D01*
X1278Y306D01*
X1278Y304D01*
X1280Y304D01*
X1280Y302D01*
X1282Y302D01*
X1282Y300D01*
X1284Y300D01*
X1284Y298D01*
X1286Y298D01*
X1286Y296D01*
X1288Y296D01*
X1288Y294D01*
X1290Y294D01*
X1290Y292D01*
X1292Y292D01*
X1292Y290D01*
X1294Y290D01*
X1294Y288D01*
X1296Y288D01*
X1296Y286D01*
X1298Y286D01*
X1298Y284D01*
X1300Y284D01*
X1300Y282D01*
X1302Y282D01*
X1302Y280D01*
X1304Y280D01*
X1304Y278D01*
X1306Y278D01*
X1306Y276D01*
X1308Y276D01*
X1308Y274D01*
X1310Y274D01*
X1310Y272D01*
X1312Y272D01*
X1312Y270D01*
X1314Y270D01*
X1314Y268D01*
X1316Y268D01*
X1316Y266D01*
X1318Y266D01*
X1318Y264D01*
X1320Y264D01*
X1320Y262D01*
X1322Y262D01*
X1322Y260D01*
X1324Y260D01*
X1324Y258D01*
X1326Y258D01*
X1326Y256D01*
X1328Y256D01*
X1328Y254D01*
X1330Y254D01*
X1330Y252D01*
X1332Y252D01*
X1332Y250D01*
X1334Y250D01*
X1334Y248D01*
X1336Y248D01*
X1336Y246D01*
X1338Y246D01*
X1338Y244D01*
X1340Y244D01*
X1340Y242D01*
X1342Y242D01*
X1342Y240D01*
X1344Y240D01*
X1344Y238D01*
X1346Y238D01*
X1346Y236D01*
X1348Y236D01*
X1348Y234D01*
X1350Y234D01*
X1350Y232D01*
X1352Y232D01*
X1352Y230D01*
X1354Y230D01*
X1354Y228D01*
X1356Y228D01*
X1356Y226D01*
X1358Y226D01*
X1358Y224D01*
X1360Y224D01*
X1360Y222D01*
X1362Y222D01*
X1362Y220D01*
X1364Y220D01*
X1364Y218D01*
X1366Y218D01*
X1366Y216D01*
X1368Y216D01*
X1368Y214D01*
X1370Y214D01*
X1370Y212D01*
X1372Y212D01*
X1372Y210D01*
X1374Y210D01*
X1374Y208D01*
X1376Y208D01*
X1376Y206D01*
X1604Y206D01*
X1604Y204D01*
X1610Y204D01*
X1610Y202D01*
X1614Y202D01*
X1614Y200D01*
X1618Y200D01*
X1618Y198D01*
X1620Y198D01*
X1620Y196D01*
X1624Y196D01*
X1624Y194D01*
X1626Y194D01*
X1626Y192D01*
X1628Y192D01*
X1628Y190D01*
X1630Y190D01*
X1630Y188D01*
X1632Y188D01*
X1632Y184D01*
X1634Y184D01*
X1634Y182D01*
X1636Y182D01*
X1636Y178D01*
X1638Y178D01*
X1638Y174D01*
X1640Y174D01*
X1640Y170D01*
X1642Y170D01*
X1642Y146D01*
X1640Y146D01*
X1640Y140D01*
X1638Y140D01*
X1638Y136D01*
X1636Y136D01*
X1636Y134D01*
X1634Y134D01*
X1634Y130D01*
X1632Y130D01*
X1632Y128D01*
X1630Y128D01*
X1630Y126D01*
X1628Y126D01*
X1628Y124D01*
X1626Y124D01*
X1626Y122D01*
X1624Y122D01*
X1624Y120D01*
X1622Y120D01*
X1622Y118D01*
X1620Y118D01*
X1620Y116D01*
X1616Y116D01*
X1616Y114D01*
X1612Y114D01*
X1612Y112D01*
X1606Y112D01*
X1606Y110D01*
X1600Y110D01*
X1600Y108D01*
X1988Y108D01*
X1988Y110D01*
X1982Y110D01*
X1982Y112D01*
X1976Y112D01*
X1976Y114D01*
X1972Y114D01*
X1972Y116D01*
X1968Y116D01*
X1968Y118D01*
X1966Y118D01*
X1966Y120D01*
X1964Y120D01*
X1964Y122D01*
X1962Y122D01*
X1962Y124D01*
X1960Y124D01*
X1960Y126D01*
X1958Y126D01*
X1958Y128D01*
X1956Y128D01*
X1956Y130D01*
X1954Y130D01*
X1954Y134D01*
X1952Y134D01*
X1952Y136D01*
X1950Y136D01*
X1950Y140D01*
X1948Y140D01*
X1948Y146D01*
X1946Y146D01*
X1946Y156D01*
X1944Y156D01*
X1944Y158D01*
X1946Y158D01*
X1946Y170D01*
X1948Y170D01*
X1948Y174D01*
X1950Y174D01*
X1950Y178D01*
X1952Y178D01*
X1952Y182D01*
X1954Y182D01*
X1954Y184D01*
X1956Y184D01*
X1956Y188D01*
X1958Y188D01*
X1958Y190D01*
X1960Y190D01*
X1960Y192D01*
X1962Y192D01*
X1962Y194D01*
X1964Y194D01*
X1964Y196D01*
X1968Y196D01*
X1968Y218D01*
X1966Y218D01*
X1966Y220D01*
X1964Y220D01*
X1964Y222D01*
X1962Y222D01*
X1962Y224D01*
X1960Y224D01*
X1960Y226D01*
X1958Y226D01*
X1958Y228D01*
X1956Y228D01*
X1956Y230D01*
X1954Y230D01*
X1954Y234D01*
X1952Y234D01*
X1952Y236D01*
X1950Y236D01*
X1950Y240D01*
X1948Y240D01*
X1948Y244D01*
X1944Y244D01*
X1944Y246D01*
X1934Y246D01*
X1934Y248D01*
X1924Y248D01*
X1924Y250D01*
X1914Y250D01*
X1914Y252D01*
X1904Y252D01*
X1904Y254D01*
X1894Y254D01*
X1894Y256D01*
X1884Y256D01*
X1884Y258D01*
X1874Y258D01*
X1874Y260D01*
X1864Y260D01*
X1864Y262D01*
X1854Y262D01*
X1854Y264D01*
X1844Y264D01*
X1844Y266D01*
X1834Y266D01*
X1834Y268D01*
X1824Y268D01*
X1824Y270D01*
X1814Y270D01*
X1814Y272D01*
X1804Y272D01*
X1804Y274D01*
X1794Y274D01*
X1794Y276D01*
X1784Y276D01*
X1784Y278D01*
X1774Y278D01*
X1774Y280D01*
X1764Y280D01*
X1764Y282D01*
X1754Y282D01*
X1754Y284D01*
X1744Y284D01*
X1744Y286D01*
X1734Y286D01*
X1734Y288D01*
X1724Y288D01*
X1724Y290D01*
X1714Y290D01*
X1714Y292D01*
X1704Y292D01*
X1704Y294D01*
X1694Y294D01*
X1694Y296D01*
X1684Y296D01*
X1684Y298D01*
X1674Y298D01*
X1674Y300D01*
X1664Y300D01*
X1664Y302D01*
X1654Y302D01*
X1654Y304D01*
X1644Y304D01*
X1644Y306D01*
X1634Y306D01*
X1634Y308D01*
X1624Y308D01*
X1624Y310D01*
X1614Y310D01*
X1614Y312D01*
X1604Y312D01*
X1604Y314D01*
X1594Y314D01*
X1594Y316D01*
X1584Y316D01*
X1584Y318D01*
X1574Y318D01*
X1574Y320D01*
X1564Y320D01*
X1564Y322D01*
X1554Y322D01*
X1554Y324D01*
X1544Y324D01*
X1544Y326D01*
X1534Y326D01*
X1534Y328D01*
X1524Y328D01*
X1524Y330D01*
X1514Y330D01*
X1514Y332D01*
X1504Y332D01*
X1504Y334D01*
X1494Y334D01*
X1494Y336D01*
X1484Y336D01*
X1484Y338D01*
X1474Y338D01*
X1474Y340D01*
X1464Y340D01*
X1464Y342D01*
X1454Y342D01*
X1454Y344D01*
X1444Y344D01*
X1444Y346D01*
X1434Y346D01*
X1434Y348D01*
X1424Y348D01*
X1424Y350D01*
X1414Y350D01*
X1414Y352D01*
X1404Y352D01*
X1404Y354D01*
X1394Y354D01*
X1394Y356D01*
X1384Y356D01*
X1384Y358D01*
X1374Y358D01*
X1374Y360D01*
X1364Y360D01*
X1364Y362D01*
X1354Y362D01*
X1354Y364D01*
X1344Y364D01*
X1344Y366D01*
X1334Y366D01*
X1334Y368D01*
X1324Y368D01*
X1324Y370D01*
X1314Y370D01*
X1314Y372D01*
X1304Y372D01*
X1304Y374D01*
X1294Y374D01*
X1294Y376D01*
X1282Y376D01*
X1282Y378D01*
X1272Y378D01*
X1272Y380D01*
X1262Y380D01*
X1262Y382D01*
X1252Y382D01*
X1252Y384D01*
X1242Y384D01*
X1242Y386D01*
X1232Y386D01*
X1232Y388D01*
X1208Y388D01*
G37*
D02*
G36*
X1404Y206D02*
X1404Y204D01*
X1410Y204D01*
X1410Y202D01*
X1414Y202D01*
X1414Y200D01*
X1418Y200D01*
X1418Y198D01*
X1420Y198D01*
X1420Y196D01*
X1424Y196D01*
X1424Y194D01*
X1426Y194D01*
X1426Y192D01*
X1428Y192D01*
X1428Y190D01*
X1430Y190D01*
X1430Y188D01*
X1432Y188D01*
X1432Y184D01*
X1434Y184D01*
X1434Y182D01*
X1454Y182D01*
X1454Y184D01*
X1456Y184D01*
X1456Y188D01*
X1458Y188D01*
X1458Y190D01*
X1460Y190D01*
X1460Y192D01*
X1462Y192D01*
X1462Y194D01*
X1464Y194D01*
X1464Y196D01*
X1468Y196D01*
X1468Y198D01*
X1470Y198D01*
X1470Y200D01*
X1474Y200D01*
X1474Y202D01*
X1478Y202D01*
X1478Y204D01*
X1484Y204D01*
X1484Y206D01*
X1404Y206D01*
G37*
D02*
G36*
X1504Y206D02*
X1504Y204D01*
X1510Y204D01*
X1510Y202D01*
X1514Y202D01*
X1514Y200D01*
X1518Y200D01*
X1518Y198D01*
X1520Y198D01*
X1520Y196D01*
X1524Y196D01*
X1524Y194D01*
X1526Y194D01*
X1526Y192D01*
X1528Y192D01*
X1528Y190D01*
X1530Y190D01*
X1530Y188D01*
X1532Y188D01*
X1532Y184D01*
X1534Y184D01*
X1534Y182D01*
X1554Y182D01*
X1554Y184D01*
X1556Y184D01*
X1556Y188D01*
X1558Y188D01*
X1558Y190D01*
X1560Y190D01*
X1560Y192D01*
X1562Y192D01*
X1562Y194D01*
X1564Y194D01*
X1564Y196D01*
X1568Y196D01*
X1568Y198D01*
X1570Y198D01*
X1570Y200D01*
X1574Y200D01*
X1574Y202D01*
X1578Y202D01*
X1578Y204D01*
X1584Y204D01*
X1584Y206D01*
X1504Y206D01*
G37*
D02*
G36*
X1334Y134D02*
X1334Y130D01*
X1332Y130D01*
X1332Y128D01*
X1330Y128D01*
X1330Y126D01*
X1328Y126D01*
X1328Y124D01*
X1326Y124D01*
X1326Y122D01*
X1324Y122D01*
X1324Y120D01*
X1322Y120D01*
X1322Y118D01*
X1320Y118D01*
X1320Y116D01*
X1316Y116D01*
X1316Y108D01*
X1388Y108D01*
X1388Y110D01*
X1382Y110D01*
X1382Y112D01*
X1376Y112D01*
X1376Y114D01*
X1372Y114D01*
X1372Y116D01*
X1368Y116D01*
X1368Y118D01*
X1366Y118D01*
X1366Y120D01*
X1364Y120D01*
X1364Y122D01*
X1362Y122D01*
X1362Y124D01*
X1360Y124D01*
X1360Y126D01*
X1358Y126D01*
X1358Y128D01*
X1356Y128D01*
X1356Y130D01*
X1354Y130D01*
X1354Y134D01*
X1334Y134D01*
G37*
D02*
G36*
X1434Y134D02*
X1434Y130D01*
X1432Y130D01*
X1432Y128D01*
X1430Y128D01*
X1430Y126D01*
X1428Y126D01*
X1428Y124D01*
X1426Y124D01*
X1426Y122D01*
X1424Y122D01*
X1424Y120D01*
X1422Y120D01*
X1422Y118D01*
X1420Y118D01*
X1420Y116D01*
X1416Y116D01*
X1416Y114D01*
X1412Y114D01*
X1412Y112D01*
X1406Y112D01*
X1406Y110D01*
X1400Y110D01*
X1400Y108D01*
X1488Y108D01*
X1488Y110D01*
X1482Y110D01*
X1482Y112D01*
X1476Y112D01*
X1476Y114D01*
X1472Y114D01*
X1472Y116D01*
X1468Y116D01*
X1468Y118D01*
X1466Y118D01*
X1466Y120D01*
X1464Y120D01*
X1464Y122D01*
X1462Y122D01*
X1462Y124D01*
X1460Y124D01*
X1460Y126D01*
X1458Y126D01*
X1458Y128D01*
X1456Y128D01*
X1456Y130D01*
X1454Y130D01*
X1454Y134D01*
X1434Y134D01*
G37*
D02*
G36*
X1534Y134D02*
X1534Y130D01*
X1532Y130D01*
X1532Y128D01*
X1530Y128D01*
X1530Y126D01*
X1528Y126D01*
X1528Y124D01*
X1526Y124D01*
X1526Y122D01*
X1524Y122D01*
X1524Y120D01*
X1522Y120D01*
X1522Y118D01*
X1520Y118D01*
X1520Y116D01*
X1516Y116D01*
X1516Y114D01*
X1512Y114D01*
X1512Y112D01*
X1506Y112D01*
X1506Y110D01*
X1500Y110D01*
X1500Y108D01*
X1588Y108D01*
X1588Y110D01*
X1582Y110D01*
X1582Y112D01*
X1576Y112D01*
X1576Y114D01*
X1572Y114D01*
X1572Y116D01*
X1568Y116D01*
X1568Y118D01*
X1566Y118D01*
X1566Y120D01*
X1564Y120D01*
X1564Y122D01*
X1562Y122D01*
X1562Y124D01*
X1560Y124D01*
X1560Y126D01*
X1558Y126D01*
X1558Y128D01*
X1556Y128D01*
X1556Y130D01*
X1554Y130D01*
X1554Y134D01*
X1534Y134D01*
G37*
D02*
G36*
X1316Y108D02*
X1316Y106D01*
X1988Y106D01*
X1988Y108D01*
X1316Y108D01*
G37*
D02*
G36*
X1316Y108D02*
X1316Y106D01*
X1988Y106D01*
X1988Y108D01*
X1316Y108D01*
G37*
D02*
G36*
X1316Y108D02*
X1316Y106D01*
X1988Y106D01*
X1988Y108D01*
X1316Y108D01*
G37*
D02*
G36*
X1316Y108D02*
X1316Y106D01*
X1988Y106D01*
X1988Y108D01*
X1316Y108D01*
G37*
D02*
G36*
X1316Y106D02*
X1316Y80D01*
X1908Y80D01*
X1908Y82D01*
X1926Y82D01*
X1926Y84D01*
X1944Y84D01*
X1944Y86D01*
X1960Y86D01*
X1960Y88D01*
X1978Y88D01*
X1978Y90D01*
X1988Y90D01*
X1988Y106D01*
X1316Y106D01*
G37*
D02*
G36*
X10Y2132D02*
X10Y2110D01*
X2406Y2110D01*
X2406Y2108D01*
X2412Y2108D01*
X2412Y2106D01*
X2416Y2106D01*
X2416Y2104D01*
X2420Y2104D01*
X2420Y2102D01*
X2424Y2102D01*
X2424Y2100D01*
X2426Y2100D01*
X2426Y2098D01*
X2428Y2098D01*
X2428Y2096D01*
X2430Y2096D01*
X2430Y2094D01*
X2432Y2094D01*
X2432Y2092D01*
X2434Y2092D01*
X2434Y2090D01*
X2436Y2090D01*
X2436Y2088D01*
X2438Y2088D01*
X2438Y2084D01*
X2440Y2084D01*
X2440Y2082D01*
X2442Y2082D01*
X2442Y2078D01*
X2444Y2078D01*
X2444Y2072D01*
X2446Y2072D01*
X2446Y2062D01*
X2448Y2062D01*
X2448Y2052D01*
X2446Y2052D01*
X2446Y2044D01*
X2444Y2044D01*
X2444Y2038D01*
X2442Y2038D01*
X2442Y2034D01*
X2440Y2034D01*
X2440Y2030D01*
X2438Y2030D01*
X2438Y2028D01*
X2436Y2028D01*
X2436Y2026D01*
X2434Y2026D01*
X2434Y2022D01*
X2432Y2022D01*
X2432Y2020D01*
X2430Y2020D01*
X2430Y2018D01*
X2428Y2018D01*
X2428Y2016D01*
X2424Y2016D01*
X2424Y2014D01*
X2422Y2014D01*
X2422Y2012D01*
X2418Y2012D01*
X2418Y2010D01*
X2414Y2010D01*
X2414Y2008D01*
X2410Y2008D01*
X2410Y2006D01*
X2402Y2006D01*
X2402Y2004D01*
X2518Y2004D01*
X2518Y2132D01*
X10Y2132D01*
G37*
D02*
G36*
X10Y2110D02*
X10Y2004D01*
X86Y2004D01*
X86Y2006D01*
X78Y2006D01*
X78Y2008D01*
X74Y2008D01*
X74Y2010D01*
X70Y2010D01*
X70Y2012D01*
X66Y2012D01*
X66Y2014D01*
X64Y2014D01*
X64Y2016D01*
X60Y2016D01*
X60Y2018D01*
X58Y2018D01*
X58Y2020D01*
X56Y2020D01*
X56Y2022D01*
X54Y2022D01*
X54Y2024D01*
X52Y2024D01*
X52Y2028D01*
X50Y2028D01*
X50Y2030D01*
X48Y2030D01*
X48Y2034D01*
X46Y2034D01*
X46Y2038D01*
X44Y2038D01*
X44Y2042D01*
X42Y2042D01*
X42Y2052D01*
X40Y2052D01*
X40Y2064D01*
X42Y2064D01*
X42Y2072D01*
X44Y2072D01*
X44Y2078D01*
X46Y2078D01*
X46Y2082D01*
X48Y2082D01*
X48Y2084D01*
X50Y2084D01*
X50Y2088D01*
X52Y2088D01*
X52Y2090D01*
X54Y2090D01*
X54Y2092D01*
X56Y2092D01*
X56Y2094D01*
X58Y2094D01*
X58Y2096D01*
X60Y2096D01*
X60Y2098D01*
X62Y2098D01*
X62Y2100D01*
X64Y2100D01*
X64Y2102D01*
X68Y2102D01*
X68Y2104D01*
X72Y2104D01*
X72Y2106D01*
X76Y2106D01*
X76Y2108D01*
X80Y2108D01*
X80Y2110D01*
X10Y2110D01*
G37*
D02*
G36*
X106Y2110D02*
X106Y2108D01*
X112Y2108D01*
X112Y2106D01*
X116Y2106D01*
X116Y2104D01*
X120Y2104D01*
X120Y2102D01*
X124Y2102D01*
X124Y2100D01*
X126Y2100D01*
X126Y2098D01*
X128Y2098D01*
X128Y2096D01*
X130Y2096D01*
X130Y2094D01*
X132Y2094D01*
X132Y2092D01*
X134Y2092D01*
X134Y2090D01*
X136Y2090D01*
X136Y2088D01*
X138Y2088D01*
X138Y2084D01*
X140Y2084D01*
X140Y2082D01*
X142Y2082D01*
X142Y2078D01*
X144Y2078D01*
X144Y2072D01*
X146Y2072D01*
X146Y2062D01*
X148Y2062D01*
X148Y2052D01*
X146Y2052D01*
X146Y2044D01*
X144Y2044D01*
X144Y2038D01*
X142Y2038D01*
X142Y2034D01*
X140Y2034D01*
X140Y2030D01*
X138Y2030D01*
X138Y2028D01*
X136Y2028D01*
X136Y2026D01*
X134Y2026D01*
X134Y2022D01*
X132Y2022D01*
X132Y2020D01*
X130Y2020D01*
X130Y2018D01*
X128Y2018D01*
X128Y2016D01*
X124Y2016D01*
X124Y2014D01*
X122Y2014D01*
X122Y2012D01*
X118Y2012D01*
X118Y2010D01*
X114Y2010D01*
X114Y2008D01*
X110Y2008D01*
X110Y2006D01*
X2004Y2006D01*
X2004Y2004D01*
X2386Y2004D01*
X2386Y2006D01*
X2378Y2006D01*
X2378Y2008D01*
X2374Y2008D01*
X2374Y2010D01*
X2370Y2010D01*
X2370Y2012D01*
X2366Y2012D01*
X2366Y2014D01*
X2364Y2014D01*
X2364Y2016D01*
X2360Y2016D01*
X2360Y2018D01*
X2358Y2018D01*
X2358Y2020D01*
X2356Y2020D01*
X2356Y2022D01*
X2354Y2022D01*
X2354Y2024D01*
X2352Y2024D01*
X2352Y2028D01*
X2350Y2028D01*
X2350Y2030D01*
X2348Y2030D01*
X2348Y2034D01*
X2346Y2034D01*
X2346Y2038D01*
X2344Y2038D01*
X2344Y2042D01*
X2342Y2042D01*
X2342Y2052D01*
X2340Y2052D01*
X2340Y2064D01*
X2342Y2064D01*
X2342Y2072D01*
X2344Y2072D01*
X2344Y2078D01*
X2346Y2078D01*
X2346Y2082D01*
X2348Y2082D01*
X2348Y2084D01*
X2350Y2084D01*
X2350Y2088D01*
X2352Y2088D01*
X2352Y2090D01*
X2354Y2090D01*
X2354Y2092D01*
X2356Y2092D01*
X2356Y2094D01*
X2358Y2094D01*
X2358Y2096D01*
X2360Y2096D01*
X2360Y2098D01*
X2362Y2098D01*
X2362Y2100D01*
X2364Y2100D01*
X2364Y2102D01*
X2368Y2102D01*
X2368Y2104D01*
X2372Y2104D01*
X2372Y2106D01*
X2376Y2106D01*
X2376Y2108D01*
X2380Y2108D01*
X2380Y2110D01*
X106Y2110D01*
G37*
D02*
G36*
X102Y2006D02*
X102Y2004D01*
X384Y2004D01*
X384Y2006D01*
X102Y2006D01*
G37*
D02*
G36*
X404Y2006D02*
X404Y2004D01*
X410Y2004D01*
X410Y2002D01*
X414Y2002D01*
X414Y2000D01*
X418Y2000D01*
X418Y1998D01*
X420Y1998D01*
X420Y1996D01*
X424Y1996D01*
X424Y1994D01*
X426Y1994D01*
X426Y1992D01*
X428Y1992D01*
X428Y1990D01*
X430Y1990D01*
X430Y1988D01*
X432Y1988D01*
X432Y1984D01*
X434Y1984D01*
X434Y1982D01*
X436Y1982D01*
X436Y1978D01*
X438Y1978D01*
X438Y1974D01*
X440Y1974D01*
X440Y1970D01*
X442Y1970D01*
X442Y1948D01*
X1264Y1948D01*
X1264Y1946D01*
X1274Y1946D01*
X1274Y1944D01*
X1284Y1944D01*
X1284Y1942D01*
X1294Y1942D01*
X1294Y1940D01*
X1304Y1940D01*
X1304Y1938D01*
X1314Y1938D01*
X1314Y1936D01*
X1324Y1936D01*
X1324Y1934D01*
X1334Y1934D01*
X1334Y1932D01*
X1344Y1932D01*
X1344Y1930D01*
X1354Y1930D01*
X1354Y1928D01*
X1364Y1928D01*
X1364Y1926D01*
X1374Y1926D01*
X1374Y1924D01*
X1384Y1924D01*
X1384Y1922D01*
X1394Y1922D01*
X1394Y1920D01*
X1404Y1920D01*
X1404Y1918D01*
X1414Y1918D01*
X1414Y1916D01*
X1424Y1916D01*
X1424Y1914D01*
X1434Y1914D01*
X1434Y1912D01*
X1444Y1912D01*
X1444Y1910D01*
X1454Y1910D01*
X1454Y1908D01*
X1588Y1908D01*
X1588Y1910D01*
X1582Y1910D01*
X1582Y1912D01*
X1576Y1912D01*
X1576Y1914D01*
X1572Y1914D01*
X1572Y1916D01*
X1568Y1916D01*
X1568Y1918D01*
X1566Y1918D01*
X1566Y1920D01*
X1564Y1920D01*
X1564Y1922D01*
X1562Y1922D01*
X1562Y1924D01*
X1560Y1924D01*
X1560Y1926D01*
X1558Y1926D01*
X1558Y1928D01*
X1556Y1928D01*
X1556Y1930D01*
X1554Y1930D01*
X1554Y1934D01*
X1552Y1934D01*
X1552Y1936D01*
X1550Y1936D01*
X1550Y1940D01*
X1548Y1940D01*
X1548Y1946D01*
X1546Y1946D01*
X1546Y1956D01*
X1544Y1956D01*
X1544Y1958D01*
X1546Y1958D01*
X1546Y1970D01*
X1548Y1970D01*
X1548Y1974D01*
X1550Y1974D01*
X1550Y1978D01*
X1552Y1978D01*
X1552Y1982D01*
X1554Y1982D01*
X1554Y1984D01*
X1556Y1984D01*
X1556Y1988D01*
X1558Y1988D01*
X1558Y1990D01*
X1560Y1990D01*
X1560Y1992D01*
X1562Y1992D01*
X1562Y1994D01*
X1564Y1994D01*
X1564Y1996D01*
X1568Y1996D01*
X1568Y1998D01*
X1570Y1998D01*
X1570Y2000D01*
X1574Y2000D01*
X1574Y2002D01*
X1578Y2002D01*
X1578Y2004D01*
X1584Y2004D01*
X1584Y2006D01*
X404Y2006D01*
G37*
D02*
G36*
X1604Y2006D02*
X1604Y2004D01*
X1610Y2004D01*
X1610Y2002D01*
X1614Y2002D01*
X1614Y2000D01*
X1618Y2000D01*
X1618Y1998D01*
X1620Y1998D01*
X1620Y1996D01*
X1624Y1996D01*
X1624Y1994D01*
X1626Y1994D01*
X1626Y1992D01*
X1628Y1992D01*
X1628Y1990D01*
X1630Y1990D01*
X1630Y1988D01*
X1632Y1988D01*
X1632Y1984D01*
X1634Y1984D01*
X1634Y1982D01*
X1654Y1982D01*
X1654Y1984D01*
X1656Y1984D01*
X1656Y1988D01*
X1658Y1988D01*
X1658Y1990D01*
X1660Y1990D01*
X1660Y1992D01*
X1662Y1992D01*
X1662Y1994D01*
X1664Y1994D01*
X1664Y1996D01*
X1668Y1996D01*
X1668Y1998D01*
X1670Y1998D01*
X1670Y2000D01*
X1674Y2000D01*
X1674Y2002D01*
X1678Y2002D01*
X1678Y2004D01*
X1684Y2004D01*
X1684Y2006D01*
X1604Y2006D01*
G37*
D02*
G36*
X1704Y2006D02*
X1704Y2004D01*
X1710Y2004D01*
X1710Y2002D01*
X1714Y2002D01*
X1714Y2000D01*
X1718Y2000D01*
X1718Y1998D01*
X1720Y1998D01*
X1720Y1996D01*
X1724Y1996D01*
X1724Y1994D01*
X1726Y1994D01*
X1726Y1992D01*
X1728Y1992D01*
X1728Y1990D01*
X1730Y1990D01*
X1730Y1988D01*
X1732Y1988D01*
X1732Y1984D01*
X1734Y1984D01*
X1734Y1982D01*
X1754Y1982D01*
X1754Y1984D01*
X1756Y1984D01*
X1756Y1988D01*
X1758Y1988D01*
X1758Y1990D01*
X1760Y1990D01*
X1760Y1992D01*
X1762Y1992D01*
X1762Y1994D01*
X1764Y1994D01*
X1764Y1996D01*
X1768Y1996D01*
X1768Y1998D01*
X1770Y1998D01*
X1770Y2000D01*
X1774Y2000D01*
X1774Y2002D01*
X1778Y2002D01*
X1778Y2004D01*
X1784Y2004D01*
X1784Y2006D01*
X1704Y2006D01*
G37*
D02*
G36*
X1804Y2006D02*
X1804Y2004D01*
X1810Y2004D01*
X1810Y2002D01*
X1814Y2002D01*
X1814Y2000D01*
X1818Y2000D01*
X1818Y1998D01*
X1820Y1998D01*
X1820Y1996D01*
X1824Y1996D01*
X1824Y1994D01*
X1826Y1994D01*
X1826Y1992D01*
X1828Y1992D01*
X1828Y1990D01*
X1830Y1990D01*
X1830Y1988D01*
X1832Y1988D01*
X1832Y1984D01*
X1834Y1984D01*
X1834Y1982D01*
X1854Y1982D01*
X1854Y1984D01*
X1856Y1984D01*
X1856Y1988D01*
X1858Y1988D01*
X1858Y1990D01*
X1860Y1990D01*
X1860Y1992D01*
X1862Y1992D01*
X1862Y1994D01*
X1864Y1994D01*
X1864Y1996D01*
X1868Y1996D01*
X1868Y1998D01*
X1870Y1998D01*
X1870Y2000D01*
X1874Y2000D01*
X1874Y2002D01*
X1878Y2002D01*
X1878Y2004D01*
X1884Y2004D01*
X1884Y2006D01*
X1804Y2006D01*
G37*
D02*
G36*
X1904Y2006D02*
X1904Y2004D01*
X1910Y2004D01*
X1910Y2002D01*
X1914Y2002D01*
X1914Y2000D01*
X1918Y2000D01*
X1918Y1998D01*
X1920Y1998D01*
X1920Y1996D01*
X1924Y1996D01*
X1924Y1994D01*
X1926Y1994D01*
X1926Y1992D01*
X1928Y1992D01*
X1928Y1990D01*
X1930Y1990D01*
X1930Y1988D01*
X1932Y1988D01*
X1932Y1984D01*
X1934Y1984D01*
X1934Y1982D01*
X1954Y1982D01*
X1954Y1984D01*
X1956Y1984D01*
X1956Y1988D01*
X1958Y1988D01*
X1958Y1990D01*
X1960Y1990D01*
X1960Y1992D01*
X1962Y1992D01*
X1962Y1994D01*
X1964Y1994D01*
X1964Y1996D01*
X1968Y1996D01*
X1968Y1998D01*
X1970Y1998D01*
X1970Y2000D01*
X1974Y2000D01*
X1974Y2002D01*
X1978Y2002D01*
X1978Y2004D01*
X1984Y2004D01*
X1984Y2006D01*
X1904Y2006D01*
G37*
D02*
G36*
X10Y2004D02*
X10Y2002D01*
X378Y2002D01*
X378Y2004D01*
X10Y2004D01*
G37*
D02*
G36*
X10Y2004D02*
X10Y2002D01*
X378Y2002D01*
X378Y2004D01*
X10Y2004D01*
G37*
D02*
G36*
X2010Y2004D02*
X2010Y2002D01*
X2518Y2002D01*
X2518Y2004D01*
X2010Y2004D01*
G37*
D02*
G36*
X2010Y2004D02*
X2010Y2002D01*
X2518Y2002D01*
X2518Y2004D01*
X2010Y2004D01*
G37*
D02*
G36*
X10Y2002D02*
X10Y1806D01*
X204Y1806D01*
X204Y1804D01*
X210Y1804D01*
X210Y1802D01*
X214Y1802D01*
X214Y1800D01*
X218Y1800D01*
X218Y1798D01*
X220Y1798D01*
X220Y1796D01*
X224Y1796D01*
X224Y1794D01*
X226Y1794D01*
X226Y1792D01*
X228Y1792D01*
X228Y1790D01*
X230Y1790D01*
X230Y1788D01*
X232Y1788D01*
X232Y1784D01*
X234Y1784D01*
X234Y1782D01*
X236Y1782D01*
X236Y1778D01*
X238Y1778D01*
X238Y1774D01*
X240Y1774D01*
X240Y1770D01*
X242Y1770D01*
X242Y1746D01*
X240Y1746D01*
X240Y1740D01*
X238Y1740D01*
X238Y1736D01*
X236Y1736D01*
X236Y1734D01*
X234Y1734D01*
X234Y1730D01*
X232Y1730D01*
X232Y1728D01*
X230Y1728D01*
X230Y1726D01*
X228Y1726D01*
X228Y1724D01*
X226Y1724D01*
X226Y1722D01*
X224Y1722D01*
X224Y1720D01*
X222Y1720D01*
X222Y1718D01*
X220Y1718D01*
X220Y1708D01*
X388Y1708D01*
X388Y1710D01*
X382Y1710D01*
X382Y1712D01*
X376Y1712D01*
X376Y1714D01*
X372Y1714D01*
X372Y1716D01*
X368Y1716D01*
X368Y1718D01*
X366Y1718D01*
X366Y1720D01*
X364Y1720D01*
X364Y1722D01*
X362Y1722D01*
X362Y1724D01*
X360Y1724D01*
X360Y1726D01*
X358Y1726D01*
X358Y1728D01*
X356Y1728D01*
X356Y1730D01*
X354Y1730D01*
X354Y1734D01*
X352Y1734D01*
X352Y1736D01*
X350Y1736D01*
X350Y1740D01*
X348Y1740D01*
X348Y1746D01*
X346Y1746D01*
X346Y1756D01*
X344Y1756D01*
X344Y1758D01*
X346Y1758D01*
X346Y1770D01*
X348Y1770D01*
X348Y1774D01*
X350Y1774D01*
X350Y1778D01*
X352Y1778D01*
X352Y1782D01*
X354Y1782D01*
X354Y1784D01*
X356Y1784D01*
X356Y1788D01*
X358Y1788D01*
X358Y1790D01*
X360Y1790D01*
X360Y1792D01*
X362Y1792D01*
X362Y1794D01*
X364Y1794D01*
X364Y1796D01*
X368Y1796D01*
X368Y1818D01*
X366Y1818D01*
X366Y1820D01*
X364Y1820D01*
X364Y1822D01*
X362Y1822D01*
X362Y1824D01*
X360Y1824D01*
X360Y1826D01*
X358Y1826D01*
X358Y1828D01*
X356Y1828D01*
X356Y1830D01*
X354Y1830D01*
X354Y1834D01*
X352Y1834D01*
X352Y1836D01*
X350Y1836D01*
X350Y1840D01*
X348Y1840D01*
X348Y1846D01*
X346Y1846D01*
X346Y1856D01*
X344Y1856D01*
X344Y1858D01*
X346Y1858D01*
X346Y1870D01*
X348Y1870D01*
X348Y1874D01*
X350Y1874D01*
X350Y1878D01*
X352Y1878D01*
X352Y1882D01*
X354Y1882D01*
X354Y1884D01*
X356Y1884D01*
X356Y1888D01*
X358Y1888D01*
X358Y1890D01*
X360Y1890D01*
X360Y1892D01*
X362Y1892D01*
X362Y1894D01*
X364Y1894D01*
X364Y1896D01*
X368Y1896D01*
X368Y1918D01*
X366Y1918D01*
X366Y1920D01*
X364Y1920D01*
X364Y1922D01*
X362Y1922D01*
X362Y1924D01*
X360Y1924D01*
X360Y1926D01*
X358Y1926D01*
X358Y1928D01*
X356Y1928D01*
X356Y1930D01*
X354Y1930D01*
X354Y1934D01*
X352Y1934D01*
X352Y1936D01*
X350Y1936D01*
X350Y1940D01*
X348Y1940D01*
X348Y1946D01*
X346Y1946D01*
X346Y1956D01*
X344Y1956D01*
X344Y1958D01*
X346Y1958D01*
X346Y1970D01*
X348Y1970D01*
X348Y1974D01*
X350Y1974D01*
X350Y1978D01*
X352Y1978D01*
X352Y1982D01*
X354Y1982D01*
X354Y1984D01*
X356Y1984D01*
X356Y1988D01*
X358Y1988D01*
X358Y1990D01*
X360Y1990D01*
X360Y1992D01*
X362Y1992D01*
X362Y1994D01*
X364Y1994D01*
X364Y1996D01*
X368Y1996D01*
X368Y1998D01*
X370Y1998D01*
X370Y2000D01*
X374Y2000D01*
X374Y2002D01*
X10Y2002D01*
G37*
D02*
G36*
X2014Y2002D02*
X2014Y2000D01*
X2018Y2000D01*
X2018Y1998D01*
X2020Y1998D01*
X2020Y1996D01*
X2024Y1996D01*
X2024Y1994D01*
X2026Y1994D01*
X2026Y1992D01*
X2028Y1992D01*
X2028Y1990D01*
X2030Y1990D01*
X2030Y1988D01*
X2032Y1988D01*
X2032Y1984D01*
X2034Y1984D01*
X2034Y1982D01*
X2036Y1982D01*
X2036Y1978D01*
X2038Y1978D01*
X2038Y1974D01*
X2040Y1974D01*
X2040Y1970D01*
X2042Y1970D01*
X2042Y1946D01*
X2040Y1946D01*
X2040Y1940D01*
X2038Y1940D01*
X2038Y1936D01*
X2036Y1936D01*
X2036Y1934D01*
X2034Y1934D01*
X2034Y1930D01*
X2032Y1930D01*
X2032Y1928D01*
X2030Y1928D01*
X2030Y1926D01*
X2028Y1926D01*
X2028Y1924D01*
X2026Y1924D01*
X2026Y1922D01*
X2024Y1922D01*
X2024Y1920D01*
X2022Y1920D01*
X2022Y1918D01*
X2020Y1918D01*
X2020Y1916D01*
X2016Y1916D01*
X2016Y1914D01*
X2012Y1914D01*
X2012Y1912D01*
X2006Y1912D01*
X2006Y1910D01*
X2000Y1910D01*
X2000Y1908D01*
X2518Y1908D01*
X2518Y2002D01*
X2014Y2002D01*
G37*
D02*
G36*
X442Y1948D02*
X442Y1946D01*
X440Y1946D01*
X440Y1940D01*
X438Y1940D01*
X438Y1936D01*
X436Y1936D01*
X436Y1934D01*
X434Y1934D01*
X434Y1930D01*
X432Y1930D01*
X432Y1928D01*
X430Y1928D01*
X430Y1926D01*
X428Y1926D01*
X428Y1924D01*
X426Y1924D01*
X426Y1922D01*
X424Y1922D01*
X424Y1920D01*
X422Y1920D01*
X422Y1918D01*
X420Y1918D01*
X420Y1896D01*
X424Y1896D01*
X424Y1894D01*
X426Y1894D01*
X426Y1892D01*
X428Y1892D01*
X428Y1890D01*
X430Y1890D01*
X430Y1888D01*
X432Y1888D01*
X432Y1884D01*
X434Y1884D01*
X434Y1882D01*
X436Y1882D01*
X436Y1878D01*
X438Y1878D01*
X438Y1874D01*
X440Y1874D01*
X440Y1870D01*
X442Y1870D01*
X442Y1846D01*
X440Y1846D01*
X440Y1840D01*
X438Y1840D01*
X438Y1836D01*
X436Y1836D01*
X436Y1834D01*
X434Y1834D01*
X434Y1830D01*
X432Y1830D01*
X432Y1828D01*
X430Y1828D01*
X430Y1826D01*
X428Y1826D01*
X428Y1824D01*
X426Y1824D01*
X426Y1822D01*
X424Y1822D01*
X424Y1820D01*
X422Y1820D01*
X422Y1818D01*
X420Y1818D01*
X420Y1796D01*
X424Y1796D01*
X424Y1794D01*
X426Y1794D01*
X426Y1792D01*
X428Y1792D01*
X428Y1790D01*
X430Y1790D01*
X430Y1788D01*
X432Y1788D01*
X432Y1784D01*
X434Y1784D01*
X434Y1782D01*
X436Y1782D01*
X436Y1778D01*
X438Y1778D01*
X438Y1774D01*
X440Y1774D01*
X440Y1770D01*
X442Y1770D01*
X442Y1746D01*
X440Y1746D01*
X440Y1740D01*
X438Y1740D01*
X438Y1736D01*
X436Y1736D01*
X436Y1734D01*
X434Y1734D01*
X434Y1730D01*
X432Y1730D01*
X432Y1728D01*
X430Y1728D01*
X430Y1726D01*
X428Y1726D01*
X428Y1724D01*
X426Y1724D01*
X426Y1722D01*
X424Y1722D01*
X424Y1720D01*
X422Y1720D01*
X422Y1718D01*
X420Y1718D01*
X420Y1716D01*
X416Y1716D01*
X416Y1714D01*
X412Y1714D01*
X412Y1712D01*
X406Y1712D01*
X406Y1710D01*
X400Y1710D01*
X400Y1708D01*
X580Y1708D01*
X580Y1720D01*
X582Y1720D01*
X582Y1732D01*
X584Y1732D01*
X584Y1746D01*
X586Y1746D01*
X586Y1760D01*
X588Y1760D01*
X588Y1772D01*
X590Y1772D01*
X590Y1786D01*
X592Y1786D01*
X592Y1798D01*
X594Y1798D01*
X594Y1812D01*
X596Y1812D01*
X596Y1826D01*
X598Y1826D01*
X598Y1838D01*
X600Y1838D01*
X600Y1852D01*
X602Y1852D01*
X602Y1866D01*
X604Y1866D01*
X604Y1878D01*
X606Y1878D01*
X606Y1892D01*
X608Y1892D01*
X608Y1904D01*
X610Y1904D01*
X610Y1918D01*
X612Y1918D01*
X612Y1930D01*
X614Y1930D01*
X614Y1936D01*
X616Y1936D01*
X616Y1938D01*
X618Y1938D01*
X618Y1942D01*
X620Y1942D01*
X620Y1944D01*
X624Y1944D01*
X624Y1946D01*
X630Y1946D01*
X630Y1948D01*
X442Y1948D01*
G37*
D02*
G36*
X760Y1948D02*
X760Y1946D01*
X764Y1946D01*
X764Y1944D01*
X768Y1944D01*
X768Y1942D01*
X770Y1942D01*
X770Y1940D01*
X772Y1940D01*
X772Y1938D01*
X774Y1938D01*
X774Y1934D01*
X776Y1934D01*
X776Y790D01*
X774Y790D01*
X774Y786D01*
X772Y786D01*
X772Y784D01*
X770Y784D01*
X770Y782D01*
X768Y782D01*
X768Y780D01*
X766Y780D01*
X766Y778D01*
X764Y778D01*
X764Y776D01*
X760Y776D01*
X760Y774D01*
X758Y774D01*
X758Y772D01*
X754Y772D01*
X754Y770D01*
X750Y770D01*
X750Y768D01*
X748Y768D01*
X748Y766D01*
X744Y766D01*
X744Y764D01*
X742Y764D01*
X742Y762D01*
X738Y762D01*
X738Y746D01*
X736Y746D01*
X736Y742D01*
X734Y742D01*
X734Y738D01*
X732Y738D01*
X732Y734D01*
X730Y734D01*
X730Y732D01*
X728Y732D01*
X728Y730D01*
X726Y730D01*
X726Y726D01*
X722Y726D01*
X722Y724D01*
X720Y724D01*
X720Y722D01*
X718Y722D01*
X718Y720D01*
X714Y720D01*
X714Y718D01*
X712Y718D01*
X712Y698D01*
X714Y698D01*
X714Y696D01*
X716Y696D01*
X716Y694D01*
X720Y694D01*
X720Y692D01*
X722Y692D01*
X722Y690D01*
X724Y690D01*
X724Y688D01*
X726Y688D01*
X726Y686D01*
X728Y686D01*
X728Y684D01*
X730Y684D01*
X730Y680D01*
X732Y680D01*
X732Y678D01*
X734Y678D01*
X734Y674D01*
X736Y674D01*
X736Y668D01*
X738Y668D01*
X738Y644D01*
X740Y644D01*
X740Y642D01*
X742Y642D01*
X742Y640D01*
X744Y640D01*
X744Y638D01*
X746Y638D01*
X746Y636D01*
X748Y636D01*
X748Y634D01*
X750Y634D01*
X750Y632D01*
X752Y632D01*
X752Y630D01*
X754Y630D01*
X754Y628D01*
X756Y628D01*
X756Y626D01*
X758Y626D01*
X758Y624D01*
X760Y624D01*
X760Y622D01*
X762Y622D01*
X762Y620D01*
X764Y620D01*
X764Y618D01*
X766Y618D01*
X766Y616D01*
X768Y616D01*
X768Y614D01*
X770Y614D01*
X770Y612D01*
X772Y612D01*
X772Y610D01*
X774Y610D01*
X774Y608D01*
X776Y608D01*
X776Y606D01*
X778Y606D01*
X778Y604D01*
X780Y604D01*
X780Y602D01*
X782Y602D01*
X782Y600D01*
X784Y600D01*
X784Y598D01*
X786Y598D01*
X786Y596D01*
X788Y596D01*
X788Y594D01*
X790Y594D01*
X790Y592D01*
X792Y592D01*
X792Y590D01*
X794Y590D01*
X794Y586D01*
X796Y586D01*
X796Y584D01*
X798Y584D01*
X798Y582D01*
X800Y582D01*
X800Y580D01*
X802Y580D01*
X802Y578D01*
X804Y578D01*
X804Y576D01*
X806Y576D01*
X806Y574D01*
X808Y574D01*
X808Y572D01*
X810Y572D01*
X810Y570D01*
X812Y570D01*
X812Y568D01*
X814Y568D01*
X814Y566D01*
X816Y566D01*
X816Y564D01*
X818Y564D01*
X818Y562D01*
X820Y562D01*
X820Y560D01*
X822Y560D01*
X822Y558D01*
X824Y558D01*
X824Y556D01*
X826Y556D01*
X826Y554D01*
X828Y554D01*
X828Y552D01*
X830Y552D01*
X830Y550D01*
X832Y550D01*
X832Y548D01*
X834Y548D01*
X834Y546D01*
X836Y546D01*
X836Y544D01*
X838Y544D01*
X838Y542D01*
X840Y542D01*
X840Y540D01*
X842Y540D01*
X842Y538D01*
X844Y538D01*
X844Y536D01*
X846Y536D01*
X846Y534D01*
X848Y534D01*
X848Y532D01*
X850Y532D01*
X850Y530D01*
X852Y530D01*
X852Y528D01*
X854Y528D01*
X854Y526D01*
X856Y526D01*
X856Y524D01*
X858Y524D01*
X858Y522D01*
X860Y522D01*
X860Y520D01*
X862Y520D01*
X862Y518D01*
X864Y518D01*
X864Y516D01*
X866Y516D01*
X866Y514D01*
X868Y514D01*
X868Y512D01*
X870Y512D01*
X870Y510D01*
X872Y510D01*
X872Y508D01*
X874Y508D01*
X874Y506D01*
X876Y506D01*
X876Y504D01*
X878Y504D01*
X878Y502D01*
X880Y502D01*
X880Y500D01*
X882Y500D01*
X882Y498D01*
X884Y498D01*
X884Y496D01*
X886Y496D01*
X886Y494D01*
X888Y494D01*
X888Y492D01*
X890Y492D01*
X890Y490D01*
X892Y490D01*
X892Y488D01*
X894Y488D01*
X894Y486D01*
X896Y486D01*
X896Y484D01*
X898Y484D01*
X898Y482D01*
X900Y482D01*
X900Y480D01*
X902Y480D01*
X902Y478D01*
X904Y478D01*
X904Y476D01*
X906Y476D01*
X906Y474D01*
X908Y474D01*
X908Y472D01*
X910Y472D01*
X910Y470D01*
X912Y470D01*
X912Y468D01*
X914Y468D01*
X914Y466D01*
X916Y466D01*
X916Y464D01*
X918Y464D01*
X918Y462D01*
X920Y462D01*
X920Y460D01*
X922Y460D01*
X922Y458D01*
X924Y458D01*
X924Y456D01*
X926Y456D01*
X926Y454D01*
X928Y454D01*
X928Y452D01*
X930Y452D01*
X930Y450D01*
X932Y450D01*
X932Y448D01*
X934Y448D01*
X934Y446D01*
X936Y446D01*
X936Y444D01*
X938Y444D01*
X938Y442D01*
X940Y442D01*
X940Y440D01*
X942Y440D01*
X942Y438D01*
X944Y438D01*
X944Y436D01*
X946Y436D01*
X946Y434D01*
X948Y434D01*
X948Y432D01*
X950Y432D01*
X950Y430D01*
X952Y430D01*
X952Y428D01*
X954Y428D01*
X954Y426D01*
X956Y426D01*
X956Y424D01*
X958Y424D01*
X958Y422D01*
X960Y422D01*
X960Y420D01*
X962Y420D01*
X962Y418D01*
X964Y418D01*
X964Y416D01*
X966Y416D01*
X966Y414D01*
X968Y414D01*
X968Y412D01*
X970Y412D01*
X970Y410D01*
X972Y410D01*
X972Y408D01*
X974Y408D01*
X974Y406D01*
X976Y406D01*
X976Y404D01*
X978Y404D01*
X978Y402D01*
X980Y402D01*
X980Y400D01*
X982Y400D01*
X982Y398D01*
X984Y398D01*
X984Y396D01*
X986Y396D01*
X986Y394D01*
X988Y394D01*
X988Y392D01*
X990Y392D01*
X990Y390D01*
X992Y390D01*
X992Y388D01*
X994Y388D01*
X994Y386D01*
X996Y386D01*
X996Y384D01*
X998Y384D01*
X998Y382D01*
X1000Y382D01*
X1000Y380D01*
X1002Y380D01*
X1002Y378D01*
X1160Y378D01*
X1160Y380D01*
X1172Y380D01*
X1172Y400D01*
X1162Y400D01*
X1162Y402D01*
X1152Y402D01*
X1152Y404D01*
X1142Y404D01*
X1142Y406D01*
X1132Y406D01*
X1132Y408D01*
X1122Y408D01*
X1122Y410D01*
X1112Y410D01*
X1112Y412D01*
X1102Y412D01*
X1102Y414D01*
X1092Y414D01*
X1092Y416D01*
X1082Y416D01*
X1082Y418D01*
X1072Y418D01*
X1072Y420D01*
X1062Y420D01*
X1062Y422D01*
X1052Y422D01*
X1052Y424D01*
X1042Y424D01*
X1042Y426D01*
X1032Y426D01*
X1032Y428D01*
X1022Y428D01*
X1022Y430D01*
X1012Y430D01*
X1012Y432D01*
X1002Y432D01*
X1002Y434D01*
X992Y434D01*
X992Y436D01*
X986Y436D01*
X986Y438D01*
X982Y438D01*
X982Y440D01*
X980Y440D01*
X980Y442D01*
X978Y442D01*
X978Y444D01*
X976Y444D01*
X976Y446D01*
X974Y446D01*
X974Y450D01*
X972Y450D01*
X972Y464D01*
X974Y464D01*
X974Y468D01*
X976Y468D01*
X976Y472D01*
X978Y472D01*
X978Y476D01*
X980Y476D01*
X980Y480D01*
X982Y480D01*
X982Y484D01*
X984Y484D01*
X984Y488D01*
X986Y488D01*
X986Y492D01*
X988Y492D01*
X988Y496D01*
X990Y496D01*
X990Y500D01*
X992Y500D01*
X992Y504D01*
X994Y504D01*
X994Y508D01*
X996Y508D01*
X996Y512D01*
X998Y512D01*
X998Y516D01*
X1000Y516D01*
X1000Y520D01*
X1002Y520D01*
X1002Y524D01*
X1004Y524D01*
X1004Y528D01*
X1006Y528D01*
X1006Y532D01*
X1008Y532D01*
X1008Y536D01*
X1010Y536D01*
X1010Y540D01*
X1012Y540D01*
X1012Y544D01*
X1014Y544D01*
X1014Y548D01*
X1016Y548D01*
X1016Y552D01*
X1018Y552D01*
X1018Y556D01*
X1020Y556D01*
X1020Y560D01*
X1022Y560D01*
X1022Y564D01*
X1024Y564D01*
X1024Y568D01*
X1026Y568D01*
X1026Y572D01*
X1028Y572D01*
X1028Y576D01*
X1030Y576D01*
X1030Y580D01*
X1032Y580D01*
X1032Y584D01*
X1034Y584D01*
X1034Y588D01*
X1036Y588D01*
X1036Y592D01*
X1038Y592D01*
X1038Y596D01*
X1040Y596D01*
X1040Y600D01*
X1042Y600D01*
X1042Y604D01*
X1044Y604D01*
X1044Y608D01*
X1046Y608D01*
X1046Y612D01*
X1048Y612D01*
X1048Y616D01*
X1050Y616D01*
X1050Y620D01*
X1052Y620D01*
X1052Y624D01*
X1054Y624D01*
X1054Y628D01*
X1056Y628D01*
X1056Y632D01*
X1058Y632D01*
X1058Y636D01*
X1060Y636D01*
X1060Y640D01*
X1062Y640D01*
X1062Y644D01*
X1064Y644D01*
X1064Y648D01*
X1066Y648D01*
X1066Y652D01*
X1068Y652D01*
X1068Y656D01*
X1070Y656D01*
X1070Y660D01*
X1072Y660D01*
X1072Y664D01*
X1074Y664D01*
X1074Y668D01*
X1076Y668D01*
X1076Y672D01*
X1078Y672D01*
X1078Y676D01*
X1080Y676D01*
X1080Y680D01*
X1082Y680D01*
X1082Y684D01*
X1084Y684D01*
X1084Y688D01*
X1086Y688D01*
X1086Y692D01*
X1088Y692D01*
X1088Y696D01*
X1090Y696D01*
X1090Y700D01*
X1092Y700D01*
X1092Y704D01*
X1094Y704D01*
X1094Y708D01*
X1096Y708D01*
X1096Y712D01*
X1098Y712D01*
X1098Y716D01*
X1100Y716D01*
X1100Y720D01*
X1102Y720D01*
X1102Y724D01*
X1104Y724D01*
X1104Y728D01*
X1106Y728D01*
X1106Y732D01*
X1108Y732D01*
X1108Y736D01*
X1110Y736D01*
X1110Y740D01*
X1112Y740D01*
X1112Y744D01*
X1114Y744D01*
X1114Y748D01*
X1116Y748D01*
X1116Y752D01*
X1118Y752D01*
X1118Y756D01*
X1120Y756D01*
X1120Y760D01*
X1122Y760D01*
X1122Y764D01*
X1124Y764D01*
X1124Y768D01*
X1126Y768D01*
X1126Y772D01*
X1128Y772D01*
X1128Y776D01*
X1130Y776D01*
X1130Y780D01*
X1132Y780D01*
X1132Y784D01*
X1134Y784D01*
X1134Y788D01*
X1136Y788D01*
X1136Y792D01*
X1138Y792D01*
X1138Y796D01*
X1140Y796D01*
X1140Y800D01*
X1142Y800D01*
X1142Y804D01*
X1144Y804D01*
X1144Y808D01*
X1146Y808D01*
X1146Y812D01*
X1148Y812D01*
X1148Y816D01*
X1150Y816D01*
X1150Y820D01*
X1152Y820D01*
X1152Y824D01*
X1154Y824D01*
X1154Y828D01*
X1156Y828D01*
X1156Y832D01*
X1158Y832D01*
X1158Y836D01*
X1160Y836D01*
X1160Y840D01*
X1162Y840D01*
X1162Y844D01*
X1164Y844D01*
X1164Y848D01*
X1166Y848D01*
X1166Y852D01*
X1168Y852D01*
X1168Y856D01*
X1170Y856D01*
X1170Y860D01*
X1172Y860D01*
X1172Y864D01*
X1174Y864D01*
X1174Y868D01*
X1176Y868D01*
X1176Y872D01*
X1178Y872D01*
X1178Y874D01*
X1180Y874D01*
X1180Y876D01*
X1184Y876D01*
X1184Y878D01*
X1190Y878D01*
X1190Y880D01*
X1256Y880D01*
X1256Y882D01*
X1258Y882D01*
X1258Y884D01*
X1260Y884D01*
X1260Y886D01*
X1262Y886D01*
X1262Y888D01*
X1264Y888D01*
X1264Y890D01*
X1266Y890D01*
X1266Y892D01*
X1268Y892D01*
X1268Y894D01*
X1272Y894D01*
X1272Y896D01*
X1274Y896D01*
X1274Y898D01*
X1276Y898D01*
X1276Y918D01*
X1274Y918D01*
X1274Y920D01*
X1270Y920D01*
X1270Y922D01*
X1268Y922D01*
X1268Y924D01*
X1266Y924D01*
X1266Y926D01*
X1262Y926D01*
X1262Y930D01*
X1260Y930D01*
X1260Y932D01*
X1258Y932D01*
X1258Y934D01*
X1256Y934D01*
X1256Y938D01*
X1254Y938D01*
X1254Y940D01*
X1252Y940D01*
X1252Y946D01*
X1250Y946D01*
X1250Y956D01*
X1248Y956D01*
X1248Y958D01*
X1250Y958D01*
X1250Y968D01*
X1252Y968D01*
X1252Y974D01*
X1254Y974D01*
X1254Y978D01*
X1256Y978D01*
X1256Y982D01*
X1258Y982D01*
X1258Y984D01*
X1260Y984D01*
X1260Y986D01*
X1262Y986D01*
X1262Y988D01*
X1264Y988D01*
X1264Y990D01*
X1266Y990D01*
X1266Y992D01*
X1268Y992D01*
X1268Y994D01*
X1272Y994D01*
X1272Y996D01*
X1274Y996D01*
X1274Y998D01*
X1276Y998D01*
X1276Y1018D01*
X1274Y1018D01*
X1274Y1020D01*
X1270Y1020D01*
X1270Y1022D01*
X1268Y1022D01*
X1268Y1024D01*
X1266Y1024D01*
X1266Y1026D01*
X1262Y1026D01*
X1262Y1030D01*
X1260Y1030D01*
X1260Y1032D01*
X1258Y1032D01*
X1258Y1034D01*
X1256Y1034D01*
X1256Y1038D01*
X1254Y1038D01*
X1254Y1040D01*
X1252Y1040D01*
X1252Y1046D01*
X1250Y1046D01*
X1250Y1056D01*
X1248Y1056D01*
X1248Y1058D01*
X1250Y1058D01*
X1250Y1068D01*
X1252Y1068D01*
X1252Y1074D01*
X1254Y1074D01*
X1254Y1078D01*
X1256Y1078D01*
X1256Y1082D01*
X1258Y1082D01*
X1258Y1084D01*
X1260Y1084D01*
X1260Y1086D01*
X1262Y1086D01*
X1262Y1088D01*
X1264Y1088D01*
X1264Y1090D01*
X1266Y1090D01*
X1266Y1092D01*
X1268Y1092D01*
X1268Y1094D01*
X1272Y1094D01*
X1272Y1096D01*
X1274Y1096D01*
X1274Y1098D01*
X1276Y1098D01*
X1276Y1118D01*
X1274Y1118D01*
X1274Y1120D01*
X1270Y1120D01*
X1270Y1122D01*
X1268Y1122D01*
X1268Y1124D01*
X1266Y1124D01*
X1266Y1126D01*
X1262Y1126D01*
X1262Y1130D01*
X1260Y1130D01*
X1260Y1132D01*
X1258Y1132D01*
X1258Y1134D01*
X1256Y1134D01*
X1256Y1138D01*
X1254Y1138D01*
X1254Y1140D01*
X1252Y1140D01*
X1252Y1146D01*
X1250Y1146D01*
X1250Y1156D01*
X1248Y1156D01*
X1248Y1158D01*
X1250Y1158D01*
X1250Y1168D01*
X1252Y1168D01*
X1252Y1174D01*
X1254Y1174D01*
X1254Y1178D01*
X1256Y1178D01*
X1256Y1182D01*
X1258Y1182D01*
X1258Y1184D01*
X1260Y1184D01*
X1260Y1186D01*
X1262Y1186D01*
X1262Y1188D01*
X1264Y1188D01*
X1264Y1190D01*
X1266Y1190D01*
X1266Y1192D01*
X1268Y1192D01*
X1268Y1194D01*
X1272Y1194D01*
X1272Y1196D01*
X1274Y1196D01*
X1274Y1198D01*
X1276Y1198D01*
X1276Y1218D01*
X1274Y1218D01*
X1274Y1220D01*
X1270Y1220D01*
X1270Y1222D01*
X1268Y1222D01*
X1268Y1224D01*
X1266Y1224D01*
X1266Y1226D01*
X1262Y1226D01*
X1262Y1230D01*
X1260Y1230D01*
X1260Y1232D01*
X1258Y1232D01*
X1258Y1234D01*
X1256Y1234D01*
X1256Y1238D01*
X1254Y1238D01*
X1254Y1240D01*
X1252Y1240D01*
X1252Y1246D01*
X1250Y1246D01*
X1250Y1256D01*
X1248Y1256D01*
X1248Y1264D01*
X1246Y1264D01*
X1246Y1266D01*
X1244Y1266D01*
X1244Y1268D01*
X1242Y1268D01*
X1242Y1270D01*
X1238Y1270D01*
X1238Y1272D01*
X1236Y1272D01*
X1236Y1274D01*
X1234Y1274D01*
X1234Y1276D01*
X1230Y1276D01*
X1230Y1278D01*
X1228Y1278D01*
X1228Y1280D01*
X1226Y1280D01*
X1226Y1282D01*
X1222Y1282D01*
X1222Y1284D01*
X1220Y1284D01*
X1220Y1286D01*
X1218Y1286D01*
X1218Y1288D01*
X1216Y1288D01*
X1216Y1292D01*
X1214Y1292D01*
X1214Y1296D01*
X1212Y1296D01*
X1212Y1906D01*
X1214Y1906D01*
X1214Y1912D01*
X1216Y1912D01*
X1216Y1914D01*
X1218Y1914D01*
X1218Y1918D01*
X1220Y1918D01*
X1220Y1920D01*
X1222Y1920D01*
X1222Y1922D01*
X1224Y1922D01*
X1224Y1924D01*
X1226Y1924D01*
X1226Y1926D01*
X1228Y1926D01*
X1228Y1928D01*
X1230Y1928D01*
X1230Y1930D01*
X1232Y1930D01*
X1232Y1932D01*
X1234Y1932D01*
X1234Y1934D01*
X1236Y1934D01*
X1236Y1936D01*
X1238Y1936D01*
X1238Y1938D01*
X1240Y1938D01*
X1240Y1940D01*
X1242Y1940D01*
X1242Y1942D01*
X1244Y1942D01*
X1244Y1944D01*
X1248Y1944D01*
X1248Y1946D01*
X1254Y1946D01*
X1254Y1948D01*
X760Y1948D01*
G37*
D02*
G36*
X1634Y1934D02*
X1634Y1930D01*
X1632Y1930D01*
X1632Y1928D01*
X1630Y1928D01*
X1630Y1926D01*
X1628Y1926D01*
X1628Y1924D01*
X1626Y1924D01*
X1626Y1922D01*
X1624Y1922D01*
X1624Y1920D01*
X1622Y1920D01*
X1622Y1918D01*
X1620Y1918D01*
X1620Y1916D01*
X1616Y1916D01*
X1616Y1914D01*
X1612Y1914D01*
X1612Y1912D01*
X1606Y1912D01*
X1606Y1910D01*
X1600Y1910D01*
X1600Y1908D01*
X1688Y1908D01*
X1688Y1910D01*
X1682Y1910D01*
X1682Y1912D01*
X1676Y1912D01*
X1676Y1914D01*
X1672Y1914D01*
X1672Y1916D01*
X1668Y1916D01*
X1668Y1918D01*
X1666Y1918D01*
X1666Y1920D01*
X1664Y1920D01*
X1664Y1922D01*
X1662Y1922D01*
X1662Y1924D01*
X1660Y1924D01*
X1660Y1926D01*
X1658Y1926D01*
X1658Y1928D01*
X1656Y1928D01*
X1656Y1930D01*
X1654Y1930D01*
X1654Y1934D01*
X1634Y1934D01*
G37*
D02*
G36*
X1734Y1934D02*
X1734Y1930D01*
X1732Y1930D01*
X1732Y1928D01*
X1730Y1928D01*
X1730Y1926D01*
X1728Y1926D01*
X1728Y1924D01*
X1726Y1924D01*
X1726Y1922D01*
X1724Y1922D01*
X1724Y1920D01*
X1722Y1920D01*
X1722Y1918D01*
X1720Y1918D01*
X1720Y1916D01*
X1716Y1916D01*
X1716Y1914D01*
X1712Y1914D01*
X1712Y1912D01*
X1706Y1912D01*
X1706Y1910D01*
X1700Y1910D01*
X1700Y1908D01*
X1788Y1908D01*
X1788Y1910D01*
X1782Y1910D01*
X1782Y1912D01*
X1776Y1912D01*
X1776Y1914D01*
X1772Y1914D01*
X1772Y1916D01*
X1768Y1916D01*
X1768Y1918D01*
X1766Y1918D01*
X1766Y1920D01*
X1764Y1920D01*
X1764Y1922D01*
X1762Y1922D01*
X1762Y1924D01*
X1760Y1924D01*
X1760Y1926D01*
X1758Y1926D01*
X1758Y1928D01*
X1756Y1928D01*
X1756Y1930D01*
X1754Y1930D01*
X1754Y1934D01*
X1734Y1934D01*
G37*
D02*
G36*
X1834Y1934D02*
X1834Y1930D01*
X1832Y1930D01*
X1832Y1928D01*
X1830Y1928D01*
X1830Y1926D01*
X1828Y1926D01*
X1828Y1924D01*
X1826Y1924D01*
X1826Y1922D01*
X1824Y1922D01*
X1824Y1920D01*
X1822Y1920D01*
X1822Y1918D01*
X1820Y1918D01*
X1820Y1916D01*
X1816Y1916D01*
X1816Y1914D01*
X1812Y1914D01*
X1812Y1912D01*
X1806Y1912D01*
X1806Y1910D01*
X1800Y1910D01*
X1800Y1908D01*
X1860Y1908D01*
X1860Y1926D01*
X1858Y1926D01*
X1858Y1928D01*
X1856Y1928D01*
X1856Y1930D01*
X1854Y1930D01*
X1854Y1934D01*
X1834Y1934D01*
G37*
D02*
G36*
X1934Y1934D02*
X1934Y1930D01*
X1932Y1930D01*
X1932Y1928D01*
X1930Y1928D01*
X1930Y1926D01*
X1928Y1926D01*
X1928Y1924D01*
X1926Y1924D01*
X1926Y1922D01*
X1924Y1922D01*
X1924Y1920D01*
X1922Y1920D01*
X1922Y1918D01*
X1920Y1918D01*
X1920Y1916D01*
X1916Y1916D01*
X1916Y1914D01*
X1912Y1914D01*
X1912Y1912D01*
X1906Y1912D01*
X1906Y1908D01*
X1988Y1908D01*
X1988Y1910D01*
X1982Y1910D01*
X1982Y1912D01*
X1976Y1912D01*
X1976Y1914D01*
X1972Y1914D01*
X1972Y1916D01*
X1968Y1916D01*
X1968Y1918D01*
X1966Y1918D01*
X1966Y1920D01*
X1964Y1920D01*
X1964Y1922D01*
X1962Y1922D01*
X1962Y1924D01*
X1960Y1924D01*
X1960Y1926D01*
X1958Y1926D01*
X1958Y1928D01*
X1956Y1928D01*
X1956Y1930D01*
X1954Y1930D01*
X1954Y1934D01*
X1934Y1934D01*
G37*
D02*
G36*
X1464Y1908D02*
X1464Y1906D01*
X1860Y1906D01*
X1860Y1908D01*
X1464Y1908D01*
G37*
D02*
G36*
X1464Y1908D02*
X1464Y1906D01*
X1860Y1906D01*
X1860Y1908D01*
X1464Y1908D01*
G37*
D02*
G36*
X1464Y1908D02*
X1464Y1906D01*
X1860Y1906D01*
X1860Y1908D01*
X1464Y1908D01*
G37*
D02*
G36*
X1464Y1908D02*
X1464Y1906D01*
X1860Y1906D01*
X1860Y1908D01*
X1464Y1908D01*
G37*
D02*
G36*
X1904Y1908D02*
X1904Y1906D01*
X2518Y1906D01*
X2518Y1908D01*
X1904Y1908D01*
G37*
D02*
G36*
X1904Y1908D02*
X1904Y1906D01*
X2518Y1906D01*
X2518Y1908D01*
X1904Y1908D01*
G37*
D02*
G36*
X1474Y1906D02*
X1474Y1904D01*
X1484Y1904D01*
X1484Y1902D01*
X1494Y1902D01*
X1494Y1900D01*
X1504Y1900D01*
X1504Y1898D01*
X1514Y1898D01*
X1514Y1896D01*
X1524Y1896D01*
X1524Y1894D01*
X1534Y1894D01*
X1534Y1892D01*
X1544Y1892D01*
X1544Y1890D01*
X1554Y1890D01*
X1554Y1888D01*
X1564Y1888D01*
X1564Y1886D01*
X1574Y1886D01*
X1574Y1884D01*
X1584Y1884D01*
X1584Y1882D01*
X1594Y1882D01*
X1594Y1880D01*
X1604Y1880D01*
X1604Y1878D01*
X1614Y1878D01*
X1614Y1876D01*
X1624Y1876D01*
X1624Y1874D01*
X1634Y1874D01*
X1634Y1872D01*
X1644Y1872D01*
X1644Y1870D01*
X1654Y1870D01*
X1654Y1868D01*
X1664Y1868D01*
X1664Y1866D01*
X1674Y1866D01*
X1674Y1864D01*
X1684Y1864D01*
X1684Y1862D01*
X1694Y1862D01*
X1694Y1860D01*
X1704Y1860D01*
X1704Y1858D01*
X1714Y1858D01*
X1714Y1856D01*
X1724Y1856D01*
X1724Y1854D01*
X1734Y1854D01*
X1734Y1852D01*
X1744Y1852D01*
X1744Y1850D01*
X1754Y1850D01*
X1754Y1848D01*
X1764Y1848D01*
X1764Y1846D01*
X1774Y1846D01*
X1774Y1844D01*
X1784Y1844D01*
X1784Y1842D01*
X1794Y1842D01*
X1794Y1840D01*
X1804Y1840D01*
X1804Y1838D01*
X1814Y1838D01*
X1814Y1836D01*
X1844Y1836D01*
X1844Y1846D01*
X1846Y1846D01*
X1846Y1854D01*
X1848Y1854D01*
X1848Y1862D01*
X1850Y1862D01*
X1850Y1870D01*
X1852Y1870D01*
X1852Y1880D01*
X1854Y1880D01*
X1854Y1888D01*
X1856Y1888D01*
X1856Y1896D01*
X1858Y1896D01*
X1858Y1904D01*
X1860Y1904D01*
X1860Y1906D01*
X1474Y1906D01*
G37*
D02*
G36*
X1904Y1906D02*
X1904Y1900D01*
X1902Y1900D01*
X1902Y1892D01*
X1900Y1892D01*
X1900Y1882D01*
X1898Y1882D01*
X1898Y1874D01*
X1896Y1874D01*
X1896Y1866D01*
X1894Y1866D01*
X1894Y1856D01*
X1892Y1856D01*
X1892Y1848D01*
X1890Y1848D01*
X1890Y1840D01*
X1888Y1840D01*
X1888Y1832D01*
X1886Y1832D01*
X1886Y1822D01*
X1884Y1822D01*
X1884Y1814D01*
X1882Y1814D01*
X1882Y1806D01*
X1880Y1806D01*
X1880Y1798D01*
X1878Y1798D01*
X1878Y1794D01*
X1876Y1794D01*
X1876Y1792D01*
X1874Y1792D01*
X1874Y1790D01*
X1872Y1790D01*
X1872Y1788D01*
X1870Y1788D01*
X1870Y1786D01*
X1866Y1786D01*
X1866Y1784D01*
X2518Y1784D01*
X2518Y1906D01*
X1904Y1906D01*
G37*
D02*
G36*
X1336Y1884D02*
X1336Y1868D01*
X1338Y1868D01*
X1338Y1864D01*
X1340Y1864D01*
X1340Y1862D01*
X1344Y1862D01*
X1344Y1860D01*
X1350Y1860D01*
X1350Y1858D01*
X1354Y1858D01*
X1354Y1856D01*
X1360Y1856D01*
X1360Y1854D01*
X1364Y1854D01*
X1364Y1852D01*
X1370Y1852D01*
X1370Y1850D01*
X1374Y1850D01*
X1374Y1848D01*
X1380Y1848D01*
X1380Y1846D01*
X1384Y1846D01*
X1384Y1844D01*
X1390Y1844D01*
X1390Y1842D01*
X1394Y1842D01*
X1394Y1840D01*
X1400Y1840D01*
X1400Y1838D01*
X1404Y1838D01*
X1404Y1836D01*
X1410Y1836D01*
X1410Y1834D01*
X1414Y1834D01*
X1414Y1832D01*
X1420Y1832D01*
X1420Y1830D01*
X1424Y1830D01*
X1424Y1828D01*
X1430Y1828D01*
X1430Y1826D01*
X1434Y1826D01*
X1434Y1824D01*
X1440Y1824D01*
X1440Y1822D01*
X1444Y1822D01*
X1444Y1820D01*
X1450Y1820D01*
X1450Y1818D01*
X1454Y1818D01*
X1454Y1816D01*
X1460Y1816D01*
X1460Y1814D01*
X1464Y1814D01*
X1464Y1812D01*
X1470Y1812D01*
X1470Y1810D01*
X1474Y1810D01*
X1474Y1808D01*
X1480Y1808D01*
X1480Y1806D01*
X1484Y1806D01*
X1484Y1804D01*
X1490Y1804D01*
X1490Y1802D01*
X1494Y1802D01*
X1494Y1800D01*
X1500Y1800D01*
X1500Y1798D01*
X1504Y1798D01*
X1504Y1796D01*
X1510Y1796D01*
X1510Y1794D01*
X1514Y1794D01*
X1514Y1792D01*
X1520Y1792D01*
X1520Y1790D01*
X1524Y1790D01*
X1524Y1788D01*
X1530Y1788D01*
X1530Y1786D01*
X1534Y1786D01*
X1534Y1784D01*
X1850Y1784D01*
X1850Y1786D01*
X1840Y1786D01*
X1840Y1788D01*
X1830Y1788D01*
X1830Y1790D01*
X1820Y1790D01*
X1820Y1792D01*
X1810Y1792D01*
X1810Y1794D01*
X1800Y1794D01*
X1800Y1796D01*
X1790Y1796D01*
X1790Y1798D01*
X1780Y1798D01*
X1780Y1800D01*
X1770Y1800D01*
X1770Y1802D01*
X1760Y1802D01*
X1760Y1804D01*
X1750Y1804D01*
X1750Y1806D01*
X1740Y1806D01*
X1740Y1808D01*
X1730Y1808D01*
X1730Y1810D01*
X1720Y1810D01*
X1720Y1812D01*
X1710Y1812D01*
X1710Y1814D01*
X1700Y1814D01*
X1700Y1816D01*
X1690Y1816D01*
X1690Y1818D01*
X1680Y1818D01*
X1680Y1820D01*
X1670Y1820D01*
X1670Y1822D01*
X1660Y1822D01*
X1660Y1824D01*
X1650Y1824D01*
X1650Y1826D01*
X1640Y1826D01*
X1640Y1828D01*
X1630Y1828D01*
X1630Y1830D01*
X1620Y1830D01*
X1620Y1832D01*
X1610Y1832D01*
X1610Y1834D01*
X1600Y1834D01*
X1600Y1836D01*
X1590Y1836D01*
X1590Y1838D01*
X1580Y1838D01*
X1580Y1840D01*
X1570Y1840D01*
X1570Y1842D01*
X1560Y1842D01*
X1560Y1844D01*
X1550Y1844D01*
X1550Y1846D01*
X1540Y1846D01*
X1540Y1848D01*
X1530Y1848D01*
X1530Y1850D01*
X1520Y1850D01*
X1520Y1852D01*
X1510Y1852D01*
X1510Y1854D01*
X1500Y1854D01*
X1500Y1856D01*
X1490Y1856D01*
X1490Y1858D01*
X1480Y1858D01*
X1480Y1860D01*
X1470Y1860D01*
X1470Y1862D01*
X1460Y1862D01*
X1460Y1864D01*
X1450Y1864D01*
X1450Y1866D01*
X1440Y1866D01*
X1440Y1868D01*
X1430Y1868D01*
X1430Y1870D01*
X1420Y1870D01*
X1420Y1872D01*
X1410Y1872D01*
X1410Y1874D01*
X1400Y1874D01*
X1400Y1876D01*
X1390Y1876D01*
X1390Y1878D01*
X1380Y1878D01*
X1380Y1880D01*
X1370Y1880D01*
X1370Y1882D01*
X1360Y1882D01*
X1360Y1884D01*
X1336Y1884D01*
G37*
D02*
G36*
X1312Y1818D02*
X1312Y1798D01*
X1314Y1798D01*
X1314Y1796D01*
X1316Y1796D01*
X1316Y1794D01*
X1320Y1794D01*
X1320Y1792D01*
X1322Y1792D01*
X1322Y1790D01*
X1324Y1790D01*
X1324Y1788D01*
X1326Y1788D01*
X1326Y1786D01*
X1328Y1786D01*
X1328Y1784D01*
X1330Y1784D01*
X1330Y1780D01*
X1332Y1780D01*
X1332Y1778D01*
X1334Y1778D01*
X1334Y1774D01*
X1336Y1774D01*
X1336Y1768D01*
X1338Y1768D01*
X1338Y1746D01*
X1336Y1746D01*
X1336Y1742D01*
X1334Y1742D01*
X1334Y1738D01*
X1332Y1738D01*
X1332Y1734D01*
X1330Y1734D01*
X1330Y1732D01*
X1328Y1732D01*
X1328Y1730D01*
X1326Y1730D01*
X1326Y1726D01*
X1322Y1726D01*
X1322Y1724D01*
X1320Y1724D01*
X1320Y1722D01*
X1318Y1722D01*
X1318Y1720D01*
X1314Y1720D01*
X1314Y1718D01*
X1312Y1718D01*
X1312Y1698D01*
X1314Y1698D01*
X1314Y1696D01*
X1316Y1696D01*
X1316Y1694D01*
X1320Y1694D01*
X1320Y1692D01*
X1322Y1692D01*
X1322Y1690D01*
X1324Y1690D01*
X1324Y1688D01*
X1326Y1688D01*
X1326Y1686D01*
X1328Y1686D01*
X1328Y1684D01*
X1330Y1684D01*
X1330Y1680D01*
X1332Y1680D01*
X1332Y1678D01*
X1334Y1678D01*
X1334Y1674D01*
X1336Y1674D01*
X1336Y1668D01*
X1338Y1668D01*
X1338Y1646D01*
X1336Y1646D01*
X1336Y1642D01*
X1334Y1642D01*
X1334Y1638D01*
X1332Y1638D01*
X1332Y1634D01*
X1330Y1634D01*
X1330Y1632D01*
X1328Y1632D01*
X1328Y1630D01*
X1326Y1630D01*
X1326Y1626D01*
X1322Y1626D01*
X1322Y1624D01*
X1320Y1624D01*
X1320Y1622D01*
X1318Y1622D01*
X1318Y1620D01*
X1314Y1620D01*
X1314Y1618D01*
X1312Y1618D01*
X1312Y1606D01*
X2204Y1606D01*
X2204Y1604D01*
X2210Y1604D01*
X2210Y1602D01*
X2214Y1602D01*
X2214Y1600D01*
X2218Y1600D01*
X2218Y1598D01*
X2220Y1598D01*
X2220Y1596D01*
X2224Y1596D01*
X2224Y1594D01*
X2226Y1594D01*
X2226Y1592D01*
X2228Y1592D01*
X2228Y1590D01*
X2230Y1590D01*
X2230Y1588D01*
X2232Y1588D01*
X2232Y1584D01*
X2234Y1584D01*
X2234Y1582D01*
X2236Y1582D01*
X2236Y1578D01*
X2238Y1578D01*
X2238Y1574D01*
X2240Y1574D01*
X2240Y1570D01*
X2242Y1570D01*
X2242Y1546D01*
X2240Y1546D01*
X2240Y1540D01*
X2238Y1540D01*
X2238Y1536D01*
X2236Y1536D01*
X2236Y1534D01*
X2234Y1534D01*
X2234Y1530D01*
X2232Y1530D01*
X2232Y1528D01*
X2230Y1528D01*
X2230Y1526D01*
X2228Y1526D01*
X2228Y1524D01*
X2226Y1524D01*
X2226Y1522D01*
X2224Y1522D01*
X2224Y1520D01*
X2222Y1520D01*
X2222Y1518D01*
X2220Y1518D01*
X2220Y1496D01*
X2224Y1496D01*
X2224Y1494D01*
X2226Y1494D01*
X2226Y1492D01*
X2228Y1492D01*
X2228Y1490D01*
X2230Y1490D01*
X2230Y1488D01*
X2232Y1488D01*
X2232Y1484D01*
X2234Y1484D01*
X2234Y1482D01*
X2236Y1482D01*
X2236Y1478D01*
X2238Y1478D01*
X2238Y1474D01*
X2240Y1474D01*
X2240Y1470D01*
X2242Y1470D01*
X2242Y1446D01*
X2240Y1446D01*
X2240Y1440D01*
X2238Y1440D01*
X2238Y1436D01*
X2236Y1436D01*
X2236Y1434D01*
X2234Y1434D01*
X2234Y1430D01*
X2232Y1430D01*
X2232Y1428D01*
X2230Y1428D01*
X2230Y1426D01*
X2228Y1426D01*
X2228Y1424D01*
X2226Y1424D01*
X2226Y1422D01*
X2224Y1422D01*
X2224Y1420D01*
X2222Y1420D01*
X2222Y1418D01*
X2220Y1418D01*
X2220Y1396D01*
X2224Y1396D01*
X2224Y1394D01*
X2226Y1394D01*
X2226Y1392D01*
X2228Y1392D01*
X2228Y1390D01*
X2230Y1390D01*
X2230Y1388D01*
X2232Y1388D01*
X2232Y1384D01*
X2234Y1384D01*
X2234Y1382D01*
X2236Y1382D01*
X2236Y1378D01*
X2238Y1378D01*
X2238Y1374D01*
X2240Y1374D01*
X2240Y1370D01*
X2242Y1370D01*
X2242Y1346D01*
X2240Y1346D01*
X2240Y1340D01*
X2238Y1340D01*
X2238Y1336D01*
X2236Y1336D01*
X2236Y1334D01*
X2234Y1334D01*
X2234Y1330D01*
X2232Y1330D01*
X2232Y1328D01*
X2230Y1328D01*
X2230Y1326D01*
X2228Y1326D01*
X2228Y1324D01*
X2226Y1324D01*
X2226Y1322D01*
X2224Y1322D01*
X2224Y1320D01*
X2222Y1320D01*
X2222Y1318D01*
X2220Y1318D01*
X2220Y1316D01*
X2216Y1316D01*
X2216Y1314D01*
X2212Y1314D01*
X2212Y1312D01*
X2206Y1312D01*
X2206Y1310D01*
X2200Y1310D01*
X2200Y1308D01*
X2270Y1308D01*
X2270Y1636D01*
X1786Y1636D01*
X1786Y1638D01*
X1782Y1638D01*
X1782Y1640D01*
X1776Y1640D01*
X1776Y1642D01*
X1772Y1642D01*
X1772Y1644D01*
X1766Y1644D01*
X1766Y1646D01*
X1762Y1646D01*
X1762Y1648D01*
X1756Y1648D01*
X1756Y1650D01*
X1752Y1650D01*
X1752Y1652D01*
X1746Y1652D01*
X1746Y1654D01*
X1742Y1654D01*
X1742Y1656D01*
X1736Y1656D01*
X1736Y1658D01*
X1732Y1658D01*
X1732Y1660D01*
X1726Y1660D01*
X1726Y1662D01*
X1722Y1662D01*
X1722Y1664D01*
X1716Y1664D01*
X1716Y1666D01*
X1712Y1666D01*
X1712Y1668D01*
X1706Y1668D01*
X1706Y1670D01*
X1702Y1670D01*
X1702Y1672D01*
X1696Y1672D01*
X1696Y1674D01*
X1692Y1674D01*
X1692Y1676D01*
X1686Y1676D01*
X1686Y1678D01*
X1682Y1678D01*
X1682Y1680D01*
X1676Y1680D01*
X1676Y1682D01*
X1672Y1682D01*
X1672Y1684D01*
X1666Y1684D01*
X1666Y1686D01*
X1662Y1686D01*
X1662Y1688D01*
X1656Y1688D01*
X1656Y1690D01*
X1652Y1690D01*
X1652Y1692D01*
X1646Y1692D01*
X1646Y1694D01*
X1642Y1694D01*
X1642Y1696D01*
X1636Y1696D01*
X1636Y1698D01*
X1632Y1698D01*
X1632Y1700D01*
X1626Y1700D01*
X1626Y1702D01*
X1622Y1702D01*
X1622Y1704D01*
X1616Y1704D01*
X1616Y1706D01*
X1612Y1706D01*
X1612Y1708D01*
X1606Y1708D01*
X1606Y1710D01*
X1602Y1710D01*
X1602Y1712D01*
X1596Y1712D01*
X1596Y1714D01*
X1592Y1714D01*
X1592Y1716D01*
X1586Y1716D01*
X1586Y1718D01*
X1582Y1718D01*
X1582Y1720D01*
X1576Y1720D01*
X1576Y1722D01*
X1572Y1722D01*
X1572Y1724D01*
X1566Y1724D01*
X1566Y1726D01*
X1562Y1726D01*
X1562Y1728D01*
X1556Y1728D01*
X1556Y1730D01*
X1552Y1730D01*
X1552Y1732D01*
X1546Y1732D01*
X1546Y1734D01*
X1542Y1734D01*
X1542Y1736D01*
X1536Y1736D01*
X1536Y1738D01*
X1532Y1738D01*
X1532Y1740D01*
X1526Y1740D01*
X1526Y1742D01*
X1522Y1742D01*
X1522Y1744D01*
X1516Y1744D01*
X1516Y1746D01*
X1512Y1746D01*
X1512Y1748D01*
X1506Y1748D01*
X1506Y1750D01*
X1502Y1750D01*
X1502Y1752D01*
X1496Y1752D01*
X1496Y1754D01*
X1492Y1754D01*
X1492Y1756D01*
X1486Y1756D01*
X1486Y1758D01*
X1482Y1758D01*
X1482Y1760D01*
X1476Y1760D01*
X1476Y1762D01*
X1472Y1762D01*
X1472Y1764D01*
X1466Y1764D01*
X1466Y1766D01*
X1462Y1766D01*
X1462Y1768D01*
X1456Y1768D01*
X1456Y1770D01*
X1452Y1770D01*
X1452Y1772D01*
X1446Y1772D01*
X1446Y1774D01*
X1442Y1774D01*
X1442Y1776D01*
X1436Y1776D01*
X1436Y1778D01*
X1432Y1778D01*
X1432Y1780D01*
X1426Y1780D01*
X1426Y1782D01*
X1422Y1782D01*
X1422Y1784D01*
X1416Y1784D01*
X1416Y1786D01*
X1412Y1786D01*
X1412Y1788D01*
X1406Y1788D01*
X1406Y1790D01*
X1402Y1790D01*
X1402Y1792D01*
X1396Y1792D01*
X1396Y1794D01*
X1392Y1794D01*
X1392Y1796D01*
X1386Y1796D01*
X1386Y1798D01*
X1382Y1798D01*
X1382Y1800D01*
X1376Y1800D01*
X1376Y1802D01*
X1372Y1802D01*
X1372Y1804D01*
X1366Y1804D01*
X1366Y1806D01*
X1362Y1806D01*
X1362Y1808D01*
X1356Y1808D01*
X1356Y1810D01*
X1352Y1810D01*
X1352Y1812D01*
X1346Y1812D01*
X1346Y1814D01*
X1342Y1814D01*
X1342Y1816D01*
X1336Y1816D01*
X1336Y1818D01*
X1312Y1818D01*
G37*
D02*
G36*
X10Y1806D02*
X10Y1508D01*
X188Y1508D01*
X188Y1510D01*
X182Y1510D01*
X182Y1512D01*
X176Y1512D01*
X176Y1514D01*
X172Y1514D01*
X172Y1516D01*
X168Y1516D01*
X168Y1518D01*
X166Y1518D01*
X166Y1520D01*
X164Y1520D01*
X164Y1522D01*
X162Y1522D01*
X162Y1524D01*
X160Y1524D01*
X160Y1526D01*
X158Y1526D01*
X158Y1528D01*
X156Y1528D01*
X156Y1530D01*
X154Y1530D01*
X154Y1534D01*
X152Y1534D01*
X152Y1536D01*
X150Y1536D01*
X150Y1540D01*
X148Y1540D01*
X148Y1546D01*
X146Y1546D01*
X146Y1556D01*
X144Y1556D01*
X144Y1558D01*
X146Y1558D01*
X146Y1570D01*
X148Y1570D01*
X148Y1574D01*
X150Y1574D01*
X150Y1578D01*
X152Y1578D01*
X152Y1582D01*
X154Y1582D01*
X154Y1584D01*
X156Y1584D01*
X156Y1588D01*
X158Y1588D01*
X158Y1590D01*
X160Y1590D01*
X160Y1592D01*
X162Y1592D01*
X162Y1594D01*
X164Y1594D01*
X164Y1596D01*
X168Y1596D01*
X168Y1618D01*
X166Y1618D01*
X166Y1620D01*
X164Y1620D01*
X164Y1622D01*
X162Y1622D01*
X162Y1624D01*
X160Y1624D01*
X160Y1626D01*
X158Y1626D01*
X158Y1628D01*
X156Y1628D01*
X156Y1630D01*
X154Y1630D01*
X154Y1634D01*
X152Y1634D01*
X152Y1636D01*
X150Y1636D01*
X150Y1640D01*
X148Y1640D01*
X148Y1646D01*
X146Y1646D01*
X146Y1656D01*
X144Y1656D01*
X144Y1658D01*
X146Y1658D01*
X146Y1670D01*
X148Y1670D01*
X148Y1674D01*
X150Y1674D01*
X150Y1678D01*
X152Y1678D01*
X152Y1682D01*
X154Y1682D01*
X154Y1684D01*
X156Y1684D01*
X156Y1688D01*
X158Y1688D01*
X158Y1690D01*
X160Y1690D01*
X160Y1692D01*
X162Y1692D01*
X162Y1694D01*
X164Y1694D01*
X164Y1696D01*
X168Y1696D01*
X168Y1718D01*
X166Y1718D01*
X166Y1720D01*
X164Y1720D01*
X164Y1722D01*
X162Y1722D01*
X162Y1724D01*
X160Y1724D01*
X160Y1726D01*
X158Y1726D01*
X158Y1728D01*
X156Y1728D01*
X156Y1730D01*
X154Y1730D01*
X154Y1734D01*
X152Y1734D01*
X152Y1736D01*
X150Y1736D01*
X150Y1740D01*
X148Y1740D01*
X148Y1746D01*
X146Y1746D01*
X146Y1756D01*
X144Y1756D01*
X144Y1758D01*
X146Y1758D01*
X146Y1770D01*
X148Y1770D01*
X148Y1774D01*
X150Y1774D01*
X150Y1778D01*
X152Y1778D01*
X152Y1782D01*
X154Y1782D01*
X154Y1784D01*
X156Y1784D01*
X156Y1788D01*
X158Y1788D01*
X158Y1790D01*
X160Y1790D01*
X160Y1792D01*
X162Y1792D01*
X162Y1794D01*
X164Y1794D01*
X164Y1796D01*
X168Y1796D01*
X168Y1798D01*
X170Y1798D01*
X170Y1800D01*
X174Y1800D01*
X174Y1802D01*
X178Y1802D01*
X178Y1804D01*
X184Y1804D01*
X184Y1806D01*
X10Y1806D01*
G37*
D02*
G36*
X1540Y1784D02*
X1540Y1782D01*
X2518Y1782D01*
X2518Y1784D01*
X1540Y1784D01*
G37*
D02*
G36*
X1540Y1784D02*
X1540Y1782D01*
X2518Y1782D01*
X2518Y1784D01*
X1540Y1784D01*
G37*
D02*
G36*
X1544Y1782D02*
X1544Y1780D01*
X1550Y1780D01*
X1550Y1778D01*
X1554Y1778D01*
X1554Y1776D01*
X1560Y1776D01*
X1560Y1774D01*
X1564Y1774D01*
X1564Y1772D01*
X1570Y1772D01*
X1570Y1770D01*
X1574Y1770D01*
X1574Y1768D01*
X1580Y1768D01*
X1580Y1766D01*
X1584Y1766D01*
X1584Y1764D01*
X1590Y1764D01*
X1590Y1762D01*
X1594Y1762D01*
X1594Y1760D01*
X1600Y1760D01*
X1600Y1758D01*
X1604Y1758D01*
X1604Y1756D01*
X1610Y1756D01*
X1610Y1754D01*
X1614Y1754D01*
X1614Y1752D01*
X1620Y1752D01*
X1620Y1750D01*
X1624Y1750D01*
X1624Y1748D01*
X1630Y1748D01*
X1630Y1746D01*
X1634Y1746D01*
X1634Y1744D01*
X1640Y1744D01*
X1640Y1742D01*
X1644Y1742D01*
X1644Y1740D01*
X1650Y1740D01*
X1650Y1738D01*
X1654Y1738D01*
X1654Y1736D01*
X1660Y1736D01*
X1660Y1734D01*
X1664Y1734D01*
X1664Y1732D01*
X1670Y1732D01*
X1670Y1730D01*
X1674Y1730D01*
X1674Y1728D01*
X1680Y1728D01*
X1680Y1726D01*
X1684Y1726D01*
X1684Y1724D01*
X1690Y1724D01*
X1690Y1722D01*
X1694Y1722D01*
X1694Y1720D01*
X1700Y1720D01*
X1700Y1718D01*
X1704Y1718D01*
X1704Y1716D01*
X1710Y1716D01*
X1710Y1714D01*
X1714Y1714D01*
X1714Y1712D01*
X1720Y1712D01*
X1720Y1710D01*
X1724Y1710D01*
X1724Y1708D01*
X1730Y1708D01*
X1730Y1706D01*
X1734Y1706D01*
X1734Y1704D01*
X1740Y1704D01*
X1740Y1702D01*
X1744Y1702D01*
X1744Y1700D01*
X1750Y1700D01*
X1750Y1698D01*
X1754Y1698D01*
X1754Y1696D01*
X1760Y1696D01*
X1760Y1694D01*
X1764Y1694D01*
X1764Y1692D01*
X1770Y1692D01*
X1770Y1690D01*
X1774Y1690D01*
X1774Y1688D01*
X1780Y1688D01*
X1780Y1686D01*
X1784Y1686D01*
X1784Y1684D01*
X1790Y1684D01*
X1790Y1682D01*
X1794Y1682D01*
X1794Y1680D01*
X2296Y1680D01*
X2296Y1678D01*
X2302Y1678D01*
X2302Y1676D01*
X2306Y1676D01*
X2306Y1674D01*
X2308Y1674D01*
X2308Y1672D01*
X2310Y1672D01*
X2310Y1668D01*
X2312Y1668D01*
X2312Y1662D01*
X2314Y1662D01*
X2314Y1052D01*
X2312Y1052D01*
X2312Y1048D01*
X2310Y1048D01*
X2310Y1044D01*
X2308Y1044D01*
X2308Y1042D01*
X2306Y1042D01*
X2306Y1040D01*
X2304Y1040D01*
X2304Y1038D01*
X2300Y1038D01*
X2300Y1036D01*
X2236Y1036D01*
X2236Y1034D01*
X2234Y1034D01*
X2234Y1030D01*
X2232Y1030D01*
X2232Y1028D01*
X2230Y1028D01*
X2230Y1026D01*
X2228Y1026D01*
X2228Y1024D01*
X2226Y1024D01*
X2226Y1022D01*
X2224Y1022D01*
X2224Y1020D01*
X2222Y1020D01*
X2222Y1018D01*
X2220Y1018D01*
X2220Y1016D01*
X2216Y1016D01*
X2216Y1014D01*
X2212Y1014D01*
X2212Y1012D01*
X2206Y1012D01*
X2206Y1010D01*
X2200Y1010D01*
X2200Y1008D01*
X2518Y1008D01*
X2518Y1782D01*
X1544Y1782D01*
G37*
D02*
G36*
X630Y1756D02*
X630Y1742D01*
X628Y1742D01*
X628Y1730D01*
X626Y1730D01*
X626Y1716D01*
X624Y1716D01*
X624Y1702D01*
X622Y1702D01*
X622Y1690D01*
X620Y1690D01*
X620Y1676D01*
X618Y1676D01*
X618Y1662D01*
X616Y1662D01*
X616Y1652D01*
X614Y1652D01*
X614Y1646D01*
X612Y1646D01*
X612Y1644D01*
X610Y1644D01*
X610Y1642D01*
X608Y1642D01*
X608Y1640D01*
X606Y1640D01*
X606Y1638D01*
X602Y1638D01*
X602Y1636D01*
X236Y1636D01*
X236Y1634D01*
X234Y1634D01*
X234Y1630D01*
X232Y1630D01*
X232Y1628D01*
X230Y1628D01*
X230Y1626D01*
X228Y1626D01*
X228Y1624D01*
X226Y1624D01*
X226Y1622D01*
X224Y1622D01*
X224Y1620D01*
X222Y1620D01*
X222Y1618D01*
X220Y1618D01*
X220Y1596D01*
X422Y1596D01*
X422Y1594D01*
X428Y1594D01*
X428Y1592D01*
X432Y1592D01*
X432Y1590D01*
X434Y1590D01*
X434Y1588D01*
X438Y1588D01*
X438Y1586D01*
X440Y1586D01*
X440Y1582D01*
X442Y1582D01*
X442Y1580D01*
X444Y1580D01*
X444Y1578D01*
X446Y1578D01*
X446Y1572D01*
X448Y1572D01*
X448Y1560D01*
X446Y1560D01*
X446Y1554D01*
X444Y1554D01*
X444Y1550D01*
X442Y1550D01*
X442Y1548D01*
X440Y1548D01*
X440Y1546D01*
X438Y1546D01*
X438Y1544D01*
X436Y1544D01*
X436Y1542D01*
X434Y1542D01*
X434Y1540D01*
X430Y1540D01*
X430Y1538D01*
X424Y1538D01*
X424Y1536D01*
X656Y1536D01*
X656Y1538D01*
X654Y1538D01*
X654Y1540D01*
X652Y1540D01*
X652Y1546D01*
X650Y1546D01*
X650Y1556D01*
X648Y1556D01*
X648Y1558D01*
X650Y1558D01*
X650Y1568D01*
X652Y1568D01*
X652Y1574D01*
X654Y1574D01*
X654Y1578D01*
X656Y1578D01*
X656Y1582D01*
X658Y1582D01*
X658Y1584D01*
X660Y1584D01*
X660Y1586D01*
X662Y1586D01*
X662Y1588D01*
X664Y1588D01*
X664Y1590D01*
X666Y1590D01*
X666Y1592D01*
X668Y1592D01*
X668Y1594D01*
X672Y1594D01*
X672Y1596D01*
X674Y1596D01*
X674Y1598D01*
X676Y1598D01*
X676Y1618D01*
X674Y1618D01*
X674Y1620D01*
X670Y1620D01*
X670Y1622D01*
X668Y1622D01*
X668Y1624D01*
X666Y1624D01*
X666Y1626D01*
X662Y1626D01*
X662Y1630D01*
X660Y1630D01*
X660Y1632D01*
X658Y1632D01*
X658Y1634D01*
X656Y1634D01*
X656Y1638D01*
X654Y1638D01*
X654Y1640D01*
X652Y1640D01*
X652Y1646D01*
X650Y1646D01*
X650Y1656D01*
X648Y1656D01*
X648Y1658D01*
X650Y1658D01*
X650Y1668D01*
X652Y1668D01*
X652Y1674D01*
X654Y1674D01*
X654Y1678D01*
X656Y1678D01*
X656Y1682D01*
X658Y1682D01*
X658Y1684D01*
X660Y1684D01*
X660Y1686D01*
X662Y1686D01*
X662Y1688D01*
X664Y1688D01*
X664Y1690D01*
X666Y1690D01*
X666Y1692D01*
X668Y1692D01*
X668Y1694D01*
X672Y1694D01*
X672Y1696D01*
X674Y1696D01*
X674Y1698D01*
X676Y1698D01*
X676Y1718D01*
X674Y1718D01*
X674Y1720D01*
X670Y1720D01*
X670Y1722D01*
X668Y1722D01*
X668Y1724D01*
X666Y1724D01*
X666Y1726D01*
X662Y1726D01*
X662Y1730D01*
X660Y1730D01*
X660Y1732D01*
X658Y1732D01*
X658Y1734D01*
X656Y1734D01*
X656Y1738D01*
X654Y1738D01*
X654Y1740D01*
X652Y1740D01*
X652Y1746D01*
X650Y1746D01*
X650Y1756D01*
X630Y1756D01*
G37*
D02*
G36*
X220Y1708D02*
X220Y1706D01*
X580Y1706D01*
X580Y1708D01*
X220Y1708D01*
G37*
D02*
G36*
X220Y1708D02*
X220Y1706D01*
X580Y1706D01*
X580Y1708D01*
X220Y1708D01*
G37*
D02*
G36*
X220Y1706D02*
X220Y1696D01*
X224Y1696D01*
X224Y1694D01*
X226Y1694D01*
X226Y1692D01*
X228Y1692D01*
X228Y1690D01*
X230Y1690D01*
X230Y1688D01*
X232Y1688D01*
X232Y1684D01*
X234Y1684D01*
X234Y1682D01*
X236Y1682D01*
X236Y1680D01*
X576Y1680D01*
X576Y1692D01*
X578Y1692D01*
X578Y1706D01*
X220Y1706D01*
G37*
D02*
G36*
X1312Y1606D02*
X1312Y1598D01*
X1314Y1598D01*
X1314Y1596D01*
X1316Y1596D01*
X1316Y1594D01*
X1320Y1594D01*
X1320Y1592D01*
X1322Y1592D01*
X1322Y1590D01*
X1324Y1590D01*
X1324Y1588D01*
X2018Y1588D01*
X2018Y1586D01*
X2066Y1586D01*
X2066Y1584D01*
X2114Y1584D01*
X2114Y1582D01*
X2154Y1582D01*
X2154Y1584D01*
X2156Y1584D01*
X2156Y1588D01*
X2158Y1588D01*
X2158Y1590D01*
X2160Y1590D01*
X2160Y1592D01*
X2162Y1592D01*
X2162Y1594D01*
X2164Y1594D01*
X2164Y1596D01*
X2168Y1596D01*
X2168Y1598D01*
X2170Y1598D01*
X2170Y1600D01*
X2174Y1600D01*
X2174Y1602D01*
X2178Y1602D01*
X2178Y1604D01*
X2184Y1604D01*
X2184Y1606D01*
X1312Y1606D01*
G37*
D02*
G36*
X224Y1596D02*
X224Y1594D01*
X226Y1594D01*
X226Y1592D01*
X228Y1592D01*
X228Y1590D01*
X230Y1590D01*
X230Y1588D01*
X232Y1588D01*
X232Y1584D01*
X234Y1584D01*
X234Y1582D01*
X236Y1582D01*
X236Y1578D01*
X238Y1578D01*
X238Y1574D01*
X240Y1574D01*
X240Y1570D01*
X242Y1570D01*
X242Y1546D01*
X240Y1546D01*
X240Y1540D01*
X238Y1540D01*
X238Y1536D01*
X412Y1536D01*
X412Y1538D01*
X408Y1538D01*
X408Y1540D01*
X404Y1540D01*
X404Y1542D01*
X402Y1542D01*
X402Y1544D01*
X398Y1544D01*
X398Y1546D01*
X396Y1546D01*
X396Y1550D01*
X394Y1550D01*
X394Y1552D01*
X392Y1552D01*
X392Y1556D01*
X390Y1556D01*
X390Y1564D01*
X388Y1564D01*
X388Y1568D01*
X390Y1568D01*
X390Y1576D01*
X392Y1576D01*
X392Y1580D01*
X394Y1580D01*
X394Y1582D01*
X396Y1582D01*
X396Y1584D01*
X398Y1584D01*
X398Y1586D01*
X400Y1586D01*
X400Y1588D01*
X402Y1588D01*
X402Y1590D01*
X404Y1590D01*
X404Y1592D01*
X408Y1592D01*
X408Y1594D01*
X416Y1594D01*
X416Y1596D01*
X224Y1596D01*
G37*
D02*
G36*
X1326Y1588D02*
X1326Y1586D01*
X1328Y1586D01*
X1328Y1584D01*
X1330Y1584D01*
X1330Y1580D01*
X1418Y1580D01*
X1418Y1582D01*
X1592Y1582D01*
X1592Y1584D01*
X1768Y1584D01*
X1768Y1586D01*
X1944Y1586D01*
X1944Y1588D01*
X1326Y1588D01*
G37*
D02*
G36*
X1946Y1544D02*
X1946Y1542D01*
X1770Y1542D01*
X1770Y1540D01*
X1594Y1540D01*
X1594Y1538D01*
X1420Y1538D01*
X1420Y1536D01*
X1332Y1536D01*
X1332Y1534D01*
X1330Y1534D01*
X1330Y1532D01*
X1328Y1532D01*
X1328Y1530D01*
X1326Y1530D01*
X1326Y1526D01*
X1322Y1526D01*
X1322Y1524D01*
X1320Y1524D01*
X1320Y1522D01*
X1318Y1522D01*
X1318Y1520D01*
X1314Y1520D01*
X1314Y1518D01*
X1312Y1518D01*
X1312Y1498D01*
X1314Y1498D01*
X1314Y1496D01*
X1316Y1496D01*
X1316Y1494D01*
X1320Y1494D01*
X1320Y1492D01*
X1322Y1492D01*
X1322Y1490D01*
X1324Y1490D01*
X1324Y1488D01*
X1326Y1488D01*
X1326Y1486D01*
X1328Y1486D01*
X1328Y1484D01*
X1330Y1484D01*
X1330Y1480D01*
X1332Y1480D01*
X1332Y1478D01*
X1334Y1478D01*
X1334Y1474D01*
X1336Y1474D01*
X1336Y1468D01*
X1338Y1468D01*
X1338Y1446D01*
X1336Y1446D01*
X1336Y1442D01*
X1334Y1442D01*
X1334Y1438D01*
X1332Y1438D01*
X1332Y1434D01*
X1330Y1434D01*
X1330Y1432D01*
X1328Y1432D01*
X1328Y1430D01*
X1326Y1430D01*
X1326Y1426D01*
X1322Y1426D01*
X1322Y1424D01*
X1320Y1424D01*
X1320Y1422D01*
X1318Y1422D01*
X1318Y1420D01*
X1314Y1420D01*
X1314Y1418D01*
X1312Y1418D01*
X1312Y1398D01*
X1314Y1398D01*
X1314Y1396D01*
X1316Y1396D01*
X1316Y1394D01*
X1320Y1394D01*
X1320Y1392D01*
X1322Y1392D01*
X1322Y1390D01*
X1324Y1390D01*
X1324Y1388D01*
X1326Y1388D01*
X1326Y1386D01*
X1328Y1386D01*
X1328Y1384D01*
X1330Y1384D01*
X1330Y1380D01*
X1332Y1380D01*
X1332Y1378D01*
X1334Y1378D01*
X1334Y1374D01*
X1336Y1374D01*
X1336Y1368D01*
X1338Y1368D01*
X1338Y1344D01*
X1340Y1344D01*
X1340Y1342D01*
X1342Y1342D01*
X1342Y1340D01*
X1344Y1340D01*
X1344Y1338D01*
X1346Y1338D01*
X1346Y1336D01*
X1348Y1336D01*
X1348Y1334D01*
X1350Y1334D01*
X1350Y1332D01*
X1352Y1332D01*
X1352Y1330D01*
X1354Y1330D01*
X1354Y1328D01*
X1356Y1328D01*
X1356Y1326D01*
X1358Y1326D01*
X1358Y1324D01*
X1360Y1324D01*
X1360Y1322D01*
X1362Y1322D01*
X1362Y1318D01*
X1364Y1318D01*
X1364Y1316D01*
X1366Y1316D01*
X1366Y1314D01*
X1368Y1314D01*
X1368Y1312D01*
X1370Y1312D01*
X1370Y1310D01*
X1372Y1310D01*
X1372Y1308D01*
X1374Y1308D01*
X1374Y1306D01*
X1376Y1306D01*
X1376Y1304D01*
X1378Y1304D01*
X1378Y1302D01*
X1380Y1302D01*
X1380Y1300D01*
X1382Y1300D01*
X1382Y1298D01*
X1384Y1298D01*
X1384Y1296D01*
X1996Y1296D01*
X1996Y1298D01*
X1992Y1298D01*
X1992Y1300D01*
X1988Y1300D01*
X1988Y1302D01*
X1986Y1302D01*
X1986Y1304D01*
X1982Y1304D01*
X1982Y1306D01*
X1980Y1306D01*
X1980Y1310D01*
X1978Y1310D01*
X1978Y1312D01*
X1976Y1312D01*
X1976Y1316D01*
X1974Y1316D01*
X1974Y1324D01*
X1972Y1324D01*
X1972Y1328D01*
X1974Y1328D01*
X1974Y1336D01*
X1976Y1336D01*
X1976Y1340D01*
X1978Y1340D01*
X1978Y1342D01*
X1980Y1342D01*
X1980Y1544D01*
X1946Y1544D01*
G37*
D02*
G36*
X2080Y1540D02*
X2080Y1512D01*
X2078Y1512D01*
X2078Y1506D01*
X2076Y1506D01*
X2076Y1502D01*
X2074Y1502D01*
X2074Y1500D01*
X2072Y1500D01*
X2072Y1498D01*
X2070Y1498D01*
X2070Y1496D01*
X2068Y1496D01*
X2068Y1494D01*
X2066Y1494D01*
X2066Y1492D01*
X2062Y1492D01*
X2062Y1490D01*
X2056Y1490D01*
X2056Y1488D01*
X2158Y1488D01*
X2158Y1490D01*
X2160Y1490D01*
X2160Y1492D01*
X2162Y1492D01*
X2162Y1494D01*
X2164Y1494D01*
X2164Y1496D01*
X2168Y1496D01*
X2168Y1518D01*
X2166Y1518D01*
X2166Y1520D01*
X2164Y1520D01*
X2164Y1522D01*
X2162Y1522D01*
X2162Y1524D01*
X2160Y1524D01*
X2160Y1526D01*
X2158Y1526D01*
X2158Y1528D01*
X2156Y1528D01*
X2156Y1530D01*
X2154Y1530D01*
X2154Y1534D01*
X2152Y1534D01*
X2152Y1536D01*
X2150Y1536D01*
X2150Y1538D01*
X2112Y1538D01*
X2112Y1540D01*
X2080Y1540D01*
G37*
D02*
G36*
X236Y1536D02*
X236Y1534D01*
X656Y1534D01*
X656Y1536D01*
X236Y1536D01*
G37*
D02*
G36*
X236Y1536D02*
X236Y1534D01*
X656Y1534D01*
X656Y1536D01*
X236Y1536D01*
G37*
D02*
G36*
X234Y1534D02*
X234Y1530D01*
X232Y1530D01*
X232Y1528D01*
X230Y1528D01*
X230Y1526D01*
X228Y1526D01*
X228Y1524D01*
X226Y1524D01*
X226Y1522D01*
X224Y1522D01*
X224Y1520D01*
X222Y1520D01*
X222Y1518D01*
X220Y1518D01*
X220Y1516D01*
X216Y1516D01*
X216Y1514D01*
X212Y1514D01*
X212Y1512D01*
X206Y1512D01*
X206Y1510D01*
X200Y1510D01*
X200Y1508D01*
X676Y1508D01*
X676Y1518D01*
X674Y1518D01*
X674Y1520D01*
X670Y1520D01*
X670Y1522D01*
X668Y1522D01*
X668Y1524D01*
X666Y1524D01*
X666Y1526D01*
X662Y1526D01*
X662Y1530D01*
X660Y1530D01*
X660Y1532D01*
X658Y1532D01*
X658Y1534D01*
X234Y1534D01*
G37*
D02*
G36*
X10Y1508D02*
X10Y1506D01*
X676Y1506D01*
X676Y1508D01*
X10Y1508D01*
G37*
D02*
G36*
X10Y1508D02*
X10Y1506D01*
X676Y1506D01*
X676Y1508D01*
X10Y1508D01*
G37*
D02*
G36*
X10Y1506D02*
X10Y1406D01*
X404Y1406D01*
X404Y1404D01*
X410Y1404D01*
X410Y1402D01*
X414Y1402D01*
X414Y1400D01*
X418Y1400D01*
X418Y1398D01*
X420Y1398D01*
X420Y1396D01*
X424Y1396D01*
X424Y1394D01*
X426Y1394D01*
X426Y1392D01*
X428Y1392D01*
X428Y1390D01*
X430Y1390D01*
X430Y1388D01*
X432Y1388D01*
X432Y1384D01*
X434Y1384D01*
X434Y1382D01*
X436Y1382D01*
X436Y1378D01*
X438Y1378D01*
X438Y1374D01*
X440Y1374D01*
X440Y1370D01*
X442Y1370D01*
X442Y1346D01*
X440Y1346D01*
X440Y1340D01*
X438Y1340D01*
X438Y1336D01*
X436Y1336D01*
X436Y1334D01*
X434Y1334D01*
X434Y1330D01*
X432Y1330D01*
X432Y1328D01*
X430Y1328D01*
X430Y1326D01*
X428Y1326D01*
X428Y1324D01*
X426Y1324D01*
X426Y1322D01*
X424Y1322D01*
X424Y1320D01*
X422Y1320D01*
X422Y1318D01*
X420Y1318D01*
X420Y1296D01*
X424Y1296D01*
X424Y1294D01*
X426Y1294D01*
X426Y1292D01*
X428Y1292D01*
X428Y1290D01*
X430Y1290D01*
X430Y1288D01*
X432Y1288D01*
X432Y1284D01*
X434Y1284D01*
X434Y1282D01*
X436Y1282D01*
X436Y1278D01*
X438Y1278D01*
X438Y1274D01*
X440Y1274D01*
X440Y1270D01*
X442Y1270D01*
X442Y1246D01*
X440Y1246D01*
X440Y1240D01*
X438Y1240D01*
X438Y1236D01*
X436Y1236D01*
X436Y1234D01*
X434Y1234D01*
X434Y1230D01*
X432Y1230D01*
X432Y1228D01*
X430Y1228D01*
X430Y1226D01*
X428Y1226D01*
X428Y1224D01*
X426Y1224D01*
X426Y1222D01*
X424Y1222D01*
X424Y1220D01*
X422Y1220D01*
X422Y1218D01*
X420Y1218D01*
X420Y1196D01*
X424Y1196D01*
X424Y1194D01*
X426Y1194D01*
X426Y1192D01*
X428Y1192D01*
X428Y1190D01*
X430Y1190D01*
X430Y1188D01*
X432Y1188D01*
X432Y1184D01*
X434Y1184D01*
X434Y1182D01*
X436Y1182D01*
X436Y1180D01*
X656Y1180D01*
X656Y1182D01*
X658Y1182D01*
X658Y1184D01*
X660Y1184D01*
X660Y1186D01*
X662Y1186D01*
X662Y1188D01*
X664Y1188D01*
X664Y1190D01*
X666Y1190D01*
X666Y1192D01*
X668Y1192D01*
X668Y1194D01*
X672Y1194D01*
X672Y1196D01*
X674Y1196D01*
X674Y1198D01*
X676Y1198D01*
X676Y1218D01*
X674Y1218D01*
X674Y1220D01*
X670Y1220D01*
X670Y1222D01*
X668Y1222D01*
X668Y1224D01*
X666Y1224D01*
X666Y1226D01*
X662Y1226D01*
X662Y1230D01*
X660Y1230D01*
X660Y1232D01*
X658Y1232D01*
X658Y1234D01*
X656Y1234D01*
X656Y1238D01*
X654Y1238D01*
X654Y1240D01*
X652Y1240D01*
X652Y1246D01*
X650Y1246D01*
X650Y1256D01*
X648Y1256D01*
X648Y1258D01*
X650Y1258D01*
X650Y1268D01*
X652Y1268D01*
X652Y1274D01*
X654Y1274D01*
X654Y1278D01*
X656Y1278D01*
X656Y1282D01*
X658Y1282D01*
X658Y1284D01*
X660Y1284D01*
X660Y1286D01*
X662Y1286D01*
X662Y1288D01*
X664Y1288D01*
X664Y1290D01*
X666Y1290D01*
X666Y1292D01*
X668Y1292D01*
X668Y1294D01*
X672Y1294D01*
X672Y1296D01*
X674Y1296D01*
X674Y1298D01*
X676Y1298D01*
X676Y1318D01*
X674Y1318D01*
X674Y1320D01*
X670Y1320D01*
X670Y1322D01*
X668Y1322D01*
X668Y1324D01*
X666Y1324D01*
X666Y1326D01*
X662Y1326D01*
X662Y1330D01*
X660Y1330D01*
X660Y1332D01*
X658Y1332D01*
X658Y1334D01*
X656Y1334D01*
X656Y1338D01*
X654Y1338D01*
X654Y1340D01*
X652Y1340D01*
X652Y1346D01*
X650Y1346D01*
X650Y1356D01*
X648Y1356D01*
X648Y1358D01*
X650Y1358D01*
X650Y1368D01*
X652Y1368D01*
X652Y1374D01*
X654Y1374D01*
X654Y1378D01*
X656Y1378D01*
X656Y1382D01*
X658Y1382D01*
X658Y1384D01*
X660Y1384D01*
X660Y1386D01*
X662Y1386D01*
X662Y1388D01*
X664Y1388D01*
X664Y1390D01*
X666Y1390D01*
X666Y1392D01*
X668Y1392D01*
X668Y1394D01*
X672Y1394D01*
X672Y1396D01*
X674Y1396D01*
X674Y1398D01*
X676Y1398D01*
X676Y1418D01*
X674Y1418D01*
X674Y1420D01*
X670Y1420D01*
X670Y1422D01*
X668Y1422D01*
X668Y1424D01*
X666Y1424D01*
X666Y1426D01*
X662Y1426D01*
X662Y1430D01*
X660Y1430D01*
X660Y1432D01*
X658Y1432D01*
X658Y1434D01*
X656Y1434D01*
X656Y1438D01*
X654Y1438D01*
X654Y1440D01*
X652Y1440D01*
X652Y1446D01*
X650Y1446D01*
X650Y1456D01*
X648Y1456D01*
X648Y1458D01*
X650Y1458D01*
X650Y1468D01*
X652Y1468D01*
X652Y1474D01*
X654Y1474D01*
X654Y1478D01*
X656Y1478D01*
X656Y1482D01*
X658Y1482D01*
X658Y1484D01*
X660Y1484D01*
X660Y1486D01*
X662Y1486D01*
X662Y1488D01*
X664Y1488D01*
X664Y1490D01*
X666Y1490D01*
X666Y1492D01*
X668Y1492D01*
X668Y1494D01*
X672Y1494D01*
X672Y1496D01*
X674Y1496D01*
X674Y1498D01*
X676Y1498D01*
X676Y1506D01*
X10Y1506D01*
G37*
D02*
G36*
X2024Y1490D02*
X2024Y1488D01*
X2044Y1488D01*
X2044Y1490D01*
X2024Y1490D01*
G37*
D02*
G36*
X2024Y1488D02*
X2024Y1486D01*
X2156Y1486D01*
X2156Y1488D01*
X2024Y1488D01*
G37*
D02*
G36*
X2024Y1488D02*
X2024Y1486D01*
X2156Y1486D01*
X2156Y1488D01*
X2024Y1488D01*
G37*
D02*
G36*
X2024Y1486D02*
X2024Y1342D01*
X2026Y1342D01*
X2026Y1340D01*
X2028Y1340D01*
X2028Y1338D01*
X2030Y1338D01*
X2030Y1332D01*
X2032Y1332D01*
X2032Y1320D01*
X2030Y1320D01*
X2030Y1314D01*
X2028Y1314D01*
X2028Y1310D01*
X2026Y1310D01*
X2026Y1308D01*
X2188Y1308D01*
X2188Y1310D01*
X2182Y1310D01*
X2182Y1312D01*
X2176Y1312D01*
X2176Y1314D01*
X2172Y1314D01*
X2172Y1316D01*
X2168Y1316D01*
X2168Y1318D01*
X2166Y1318D01*
X2166Y1320D01*
X2164Y1320D01*
X2164Y1322D01*
X2162Y1322D01*
X2162Y1324D01*
X2160Y1324D01*
X2160Y1326D01*
X2158Y1326D01*
X2158Y1328D01*
X2156Y1328D01*
X2156Y1330D01*
X2154Y1330D01*
X2154Y1334D01*
X2152Y1334D01*
X2152Y1336D01*
X2150Y1336D01*
X2150Y1340D01*
X2148Y1340D01*
X2148Y1346D01*
X2146Y1346D01*
X2146Y1356D01*
X2144Y1356D01*
X2144Y1358D01*
X2146Y1358D01*
X2146Y1370D01*
X2148Y1370D01*
X2148Y1374D01*
X2150Y1374D01*
X2150Y1378D01*
X2152Y1378D01*
X2152Y1382D01*
X2154Y1382D01*
X2154Y1384D01*
X2156Y1384D01*
X2156Y1388D01*
X2158Y1388D01*
X2158Y1390D01*
X2160Y1390D01*
X2160Y1392D01*
X2162Y1392D01*
X2162Y1394D01*
X2164Y1394D01*
X2164Y1396D01*
X2168Y1396D01*
X2168Y1418D01*
X2166Y1418D01*
X2166Y1420D01*
X2164Y1420D01*
X2164Y1422D01*
X2162Y1422D01*
X2162Y1424D01*
X2160Y1424D01*
X2160Y1426D01*
X2158Y1426D01*
X2158Y1428D01*
X2156Y1428D01*
X2156Y1430D01*
X2154Y1430D01*
X2154Y1434D01*
X2152Y1434D01*
X2152Y1436D01*
X2150Y1436D01*
X2150Y1440D01*
X2148Y1440D01*
X2148Y1446D01*
X2146Y1446D01*
X2146Y1456D01*
X2144Y1456D01*
X2144Y1458D01*
X2146Y1458D01*
X2146Y1470D01*
X2148Y1470D01*
X2148Y1474D01*
X2150Y1474D01*
X2150Y1478D01*
X2152Y1478D01*
X2152Y1482D01*
X2154Y1482D01*
X2154Y1484D01*
X2156Y1484D01*
X2156Y1486D01*
X2024Y1486D01*
G37*
D02*
G36*
X10Y1406D02*
X10Y608D01*
X388Y608D01*
X388Y610D01*
X382Y610D01*
X382Y612D01*
X376Y612D01*
X376Y614D01*
X372Y614D01*
X372Y616D01*
X368Y616D01*
X368Y618D01*
X366Y618D01*
X366Y620D01*
X364Y620D01*
X364Y622D01*
X362Y622D01*
X362Y624D01*
X360Y624D01*
X360Y626D01*
X358Y626D01*
X358Y628D01*
X356Y628D01*
X356Y630D01*
X354Y630D01*
X354Y634D01*
X352Y634D01*
X352Y636D01*
X350Y636D01*
X350Y640D01*
X348Y640D01*
X348Y646D01*
X346Y646D01*
X346Y656D01*
X344Y656D01*
X344Y658D01*
X346Y658D01*
X346Y670D01*
X348Y670D01*
X348Y674D01*
X350Y674D01*
X350Y678D01*
X352Y678D01*
X352Y682D01*
X354Y682D01*
X354Y684D01*
X356Y684D01*
X356Y688D01*
X358Y688D01*
X358Y690D01*
X360Y690D01*
X360Y692D01*
X362Y692D01*
X362Y694D01*
X364Y694D01*
X364Y696D01*
X368Y696D01*
X368Y718D01*
X366Y718D01*
X366Y720D01*
X364Y720D01*
X364Y722D01*
X362Y722D01*
X362Y724D01*
X360Y724D01*
X360Y726D01*
X358Y726D01*
X358Y728D01*
X356Y728D01*
X356Y730D01*
X354Y730D01*
X354Y734D01*
X352Y734D01*
X352Y736D01*
X350Y736D01*
X350Y740D01*
X348Y740D01*
X348Y746D01*
X346Y746D01*
X346Y756D01*
X344Y756D01*
X344Y758D01*
X346Y758D01*
X346Y770D01*
X348Y770D01*
X348Y774D01*
X350Y774D01*
X350Y778D01*
X352Y778D01*
X352Y782D01*
X354Y782D01*
X354Y784D01*
X356Y784D01*
X356Y788D01*
X358Y788D01*
X358Y790D01*
X360Y790D01*
X360Y792D01*
X362Y792D01*
X362Y794D01*
X364Y794D01*
X364Y796D01*
X368Y796D01*
X368Y818D01*
X366Y818D01*
X366Y820D01*
X364Y820D01*
X364Y822D01*
X362Y822D01*
X362Y824D01*
X360Y824D01*
X360Y826D01*
X358Y826D01*
X358Y828D01*
X356Y828D01*
X356Y830D01*
X354Y830D01*
X354Y834D01*
X352Y834D01*
X352Y836D01*
X350Y836D01*
X350Y840D01*
X348Y840D01*
X348Y846D01*
X346Y846D01*
X346Y856D01*
X344Y856D01*
X344Y858D01*
X346Y858D01*
X346Y870D01*
X348Y870D01*
X348Y874D01*
X350Y874D01*
X350Y878D01*
X352Y878D01*
X352Y882D01*
X354Y882D01*
X354Y884D01*
X356Y884D01*
X356Y888D01*
X358Y888D01*
X358Y890D01*
X360Y890D01*
X360Y892D01*
X362Y892D01*
X362Y894D01*
X364Y894D01*
X364Y896D01*
X368Y896D01*
X368Y918D01*
X366Y918D01*
X366Y920D01*
X364Y920D01*
X364Y922D01*
X362Y922D01*
X362Y924D01*
X360Y924D01*
X360Y926D01*
X358Y926D01*
X358Y928D01*
X356Y928D01*
X356Y930D01*
X354Y930D01*
X354Y934D01*
X352Y934D01*
X352Y936D01*
X350Y936D01*
X350Y940D01*
X348Y940D01*
X348Y946D01*
X346Y946D01*
X346Y956D01*
X344Y956D01*
X344Y958D01*
X346Y958D01*
X346Y970D01*
X348Y970D01*
X348Y974D01*
X350Y974D01*
X350Y978D01*
X352Y978D01*
X352Y982D01*
X354Y982D01*
X354Y984D01*
X356Y984D01*
X356Y988D01*
X358Y988D01*
X358Y990D01*
X360Y990D01*
X360Y992D01*
X362Y992D01*
X362Y994D01*
X364Y994D01*
X364Y996D01*
X368Y996D01*
X368Y1018D01*
X366Y1018D01*
X366Y1020D01*
X364Y1020D01*
X364Y1022D01*
X362Y1022D01*
X362Y1024D01*
X360Y1024D01*
X360Y1026D01*
X358Y1026D01*
X358Y1028D01*
X356Y1028D01*
X356Y1030D01*
X354Y1030D01*
X354Y1034D01*
X352Y1034D01*
X352Y1036D01*
X350Y1036D01*
X350Y1040D01*
X348Y1040D01*
X348Y1046D01*
X346Y1046D01*
X346Y1056D01*
X344Y1056D01*
X344Y1058D01*
X346Y1058D01*
X346Y1070D01*
X348Y1070D01*
X348Y1074D01*
X350Y1074D01*
X350Y1078D01*
X352Y1078D01*
X352Y1082D01*
X354Y1082D01*
X354Y1084D01*
X356Y1084D01*
X356Y1088D01*
X358Y1088D01*
X358Y1090D01*
X360Y1090D01*
X360Y1092D01*
X362Y1092D01*
X362Y1094D01*
X364Y1094D01*
X364Y1096D01*
X368Y1096D01*
X368Y1118D01*
X366Y1118D01*
X366Y1120D01*
X364Y1120D01*
X364Y1122D01*
X362Y1122D01*
X362Y1124D01*
X360Y1124D01*
X360Y1126D01*
X358Y1126D01*
X358Y1128D01*
X356Y1128D01*
X356Y1130D01*
X354Y1130D01*
X354Y1134D01*
X352Y1134D01*
X352Y1136D01*
X350Y1136D01*
X350Y1140D01*
X348Y1140D01*
X348Y1146D01*
X346Y1146D01*
X346Y1156D01*
X344Y1156D01*
X344Y1158D01*
X346Y1158D01*
X346Y1170D01*
X348Y1170D01*
X348Y1174D01*
X350Y1174D01*
X350Y1178D01*
X352Y1178D01*
X352Y1182D01*
X354Y1182D01*
X354Y1184D01*
X356Y1184D01*
X356Y1188D01*
X358Y1188D01*
X358Y1190D01*
X360Y1190D01*
X360Y1192D01*
X362Y1192D01*
X362Y1194D01*
X364Y1194D01*
X364Y1196D01*
X368Y1196D01*
X368Y1218D01*
X366Y1218D01*
X366Y1220D01*
X364Y1220D01*
X364Y1222D01*
X362Y1222D01*
X362Y1224D01*
X360Y1224D01*
X360Y1226D01*
X358Y1226D01*
X358Y1228D01*
X356Y1228D01*
X356Y1230D01*
X354Y1230D01*
X354Y1234D01*
X352Y1234D01*
X352Y1236D01*
X350Y1236D01*
X350Y1240D01*
X348Y1240D01*
X348Y1246D01*
X346Y1246D01*
X346Y1256D01*
X344Y1256D01*
X344Y1258D01*
X346Y1258D01*
X346Y1270D01*
X348Y1270D01*
X348Y1274D01*
X350Y1274D01*
X350Y1278D01*
X352Y1278D01*
X352Y1282D01*
X354Y1282D01*
X354Y1284D01*
X356Y1284D01*
X356Y1288D01*
X358Y1288D01*
X358Y1290D01*
X360Y1290D01*
X360Y1292D01*
X362Y1292D01*
X362Y1294D01*
X364Y1294D01*
X364Y1296D01*
X368Y1296D01*
X368Y1318D01*
X366Y1318D01*
X366Y1320D01*
X364Y1320D01*
X364Y1322D01*
X362Y1322D01*
X362Y1324D01*
X360Y1324D01*
X360Y1326D01*
X358Y1326D01*
X358Y1328D01*
X356Y1328D01*
X356Y1330D01*
X354Y1330D01*
X354Y1334D01*
X352Y1334D01*
X352Y1336D01*
X350Y1336D01*
X350Y1340D01*
X348Y1340D01*
X348Y1346D01*
X346Y1346D01*
X346Y1356D01*
X344Y1356D01*
X344Y1358D01*
X346Y1358D01*
X346Y1370D01*
X348Y1370D01*
X348Y1374D01*
X350Y1374D01*
X350Y1378D01*
X352Y1378D01*
X352Y1382D01*
X354Y1382D01*
X354Y1384D01*
X356Y1384D01*
X356Y1388D01*
X358Y1388D01*
X358Y1390D01*
X360Y1390D01*
X360Y1392D01*
X362Y1392D01*
X362Y1394D01*
X364Y1394D01*
X364Y1396D01*
X368Y1396D01*
X368Y1398D01*
X370Y1398D01*
X370Y1400D01*
X374Y1400D01*
X374Y1402D01*
X378Y1402D01*
X378Y1404D01*
X384Y1404D01*
X384Y1406D01*
X10Y1406D01*
G37*
D02*
G36*
X2024Y1308D02*
X2024Y1306D01*
X2270Y1306D01*
X2270Y1308D01*
X2024Y1308D01*
G37*
D02*
G36*
X2024Y1308D02*
X2024Y1306D01*
X2270Y1306D01*
X2270Y1308D01*
X2024Y1308D01*
G37*
D02*
G36*
X2022Y1306D02*
X2022Y1304D01*
X2020Y1304D01*
X2020Y1302D01*
X2018Y1302D01*
X2018Y1300D01*
X2014Y1300D01*
X2014Y1298D01*
X2008Y1298D01*
X2008Y1296D01*
X2270Y1296D01*
X2270Y1306D01*
X2022Y1306D01*
G37*
D02*
G36*
X1386Y1296D02*
X1386Y1294D01*
X2270Y1294D01*
X2270Y1296D01*
X1386Y1296D01*
G37*
D02*
G36*
X1386Y1296D02*
X1386Y1294D01*
X2270Y1294D01*
X2270Y1296D01*
X1386Y1296D01*
G37*
D02*
G36*
X1388Y1294D02*
X1388Y1292D01*
X1390Y1292D01*
X1390Y1290D01*
X1392Y1290D01*
X1392Y1288D01*
X1394Y1288D01*
X1394Y1286D01*
X1396Y1286D01*
X1396Y1284D01*
X1398Y1284D01*
X1398Y1282D01*
X1400Y1282D01*
X1400Y1280D01*
X1402Y1280D01*
X1402Y1278D01*
X1404Y1278D01*
X1404Y1276D01*
X1406Y1276D01*
X1406Y1274D01*
X1408Y1274D01*
X1408Y1272D01*
X1410Y1272D01*
X1410Y1270D01*
X1412Y1270D01*
X1412Y1268D01*
X1414Y1268D01*
X1414Y1266D01*
X1416Y1266D01*
X1416Y1264D01*
X1418Y1264D01*
X1418Y1262D01*
X1420Y1262D01*
X1420Y1260D01*
X1422Y1260D01*
X1422Y1258D01*
X1424Y1258D01*
X1424Y1256D01*
X1426Y1256D01*
X1426Y1254D01*
X1428Y1254D01*
X1428Y1252D01*
X1430Y1252D01*
X1430Y1250D01*
X1432Y1250D01*
X1432Y1248D01*
X1434Y1248D01*
X1434Y1246D01*
X1436Y1246D01*
X1436Y1244D01*
X1438Y1244D01*
X1438Y1242D01*
X1440Y1242D01*
X1440Y1240D01*
X1442Y1240D01*
X1442Y1238D01*
X1444Y1238D01*
X1444Y1236D01*
X1446Y1236D01*
X1446Y1234D01*
X1448Y1234D01*
X1448Y1232D01*
X1450Y1232D01*
X1450Y1230D01*
X1452Y1230D01*
X1452Y1228D01*
X1454Y1228D01*
X1454Y1226D01*
X1456Y1226D01*
X1456Y1224D01*
X1458Y1224D01*
X1458Y1222D01*
X1460Y1222D01*
X1460Y1220D01*
X1462Y1220D01*
X1462Y1218D01*
X1464Y1218D01*
X1464Y1216D01*
X1466Y1216D01*
X1466Y1214D01*
X1468Y1214D01*
X1468Y1212D01*
X1470Y1212D01*
X1470Y1210D01*
X1472Y1210D01*
X1472Y1208D01*
X1474Y1208D01*
X1474Y1206D01*
X2204Y1206D01*
X2204Y1204D01*
X2210Y1204D01*
X2210Y1202D01*
X2214Y1202D01*
X2214Y1200D01*
X2218Y1200D01*
X2218Y1198D01*
X2220Y1198D01*
X2220Y1196D01*
X2224Y1196D01*
X2224Y1194D01*
X2226Y1194D01*
X2226Y1192D01*
X2228Y1192D01*
X2228Y1190D01*
X2230Y1190D01*
X2230Y1188D01*
X2232Y1188D01*
X2232Y1184D01*
X2234Y1184D01*
X2234Y1182D01*
X2236Y1182D01*
X2236Y1178D01*
X2238Y1178D01*
X2238Y1174D01*
X2240Y1174D01*
X2240Y1170D01*
X2242Y1170D01*
X2242Y1146D01*
X2240Y1146D01*
X2240Y1140D01*
X2238Y1140D01*
X2238Y1136D01*
X2236Y1136D01*
X2236Y1134D01*
X2234Y1134D01*
X2234Y1130D01*
X2232Y1130D01*
X2232Y1128D01*
X2230Y1128D01*
X2230Y1126D01*
X2228Y1126D01*
X2228Y1124D01*
X2226Y1124D01*
X2226Y1122D01*
X2224Y1122D01*
X2224Y1120D01*
X2222Y1120D01*
X2222Y1118D01*
X2220Y1118D01*
X2220Y1096D01*
X2224Y1096D01*
X2224Y1094D01*
X2226Y1094D01*
X2226Y1092D01*
X2228Y1092D01*
X2228Y1090D01*
X2230Y1090D01*
X2230Y1088D01*
X2232Y1088D01*
X2232Y1084D01*
X2234Y1084D01*
X2234Y1082D01*
X2236Y1082D01*
X2236Y1080D01*
X2270Y1080D01*
X2270Y1294D01*
X1388Y1294D01*
G37*
D02*
G36*
X1476Y1206D02*
X1476Y1204D01*
X1478Y1204D01*
X1478Y1202D01*
X1480Y1202D01*
X1480Y1200D01*
X1482Y1200D01*
X1482Y1198D01*
X1484Y1198D01*
X1484Y1196D01*
X1486Y1196D01*
X1486Y1194D01*
X1488Y1194D01*
X1488Y1192D01*
X1490Y1192D01*
X1490Y1190D01*
X1492Y1190D01*
X1492Y1188D01*
X1494Y1188D01*
X1494Y1186D01*
X1496Y1186D01*
X1496Y1184D01*
X1498Y1184D01*
X1498Y1182D01*
X1500Y1182D01*
X1500Y1180D01*
X1502Y1180D01*
X1502Y1178D01*
X1504Y1178D01*
X1504Y1176D01*
X1506Y1176D01*
X1506Y1174D01*
X1508Y1174D01*
X1508Y1172D01*
X1510Y1172D01*
X1510Y1170D01*
X1512Y1170D01*
X1512Y1168D01*
X1514Y1168D01*
X1514Y1166D01*
X1516Y1166D01*
X1516Y1164D01*
X1518Y1164D01*
X1518Y1162D01*
X1520Y1162D01*
X1520Y1160D01*
X1522Y1160D01*
X1522Y1158D01*
X1524Y1158D01*
X1524Y1156D01*
X1526Y1156D01*
X1526Y1154D01*
X1528Y1154D01*
X1528Y1152D01*
X1530Y1152D01*
X1530Y1150D01*
X1532Y1150D01*
X1532Y1146D01*
X1534Y1146D01*
X1534Y1144D01*
X1536Y1144D01*
X1536Y1142D01*
X1538Y1142D01*
X1538Y1140D01*
X1540Y1140D01*
X1540Y1138D01*
X1542Y1138D01*
X1542Y1136D01*
X1544Y1136D01*
X1544Y1134D01*
X1546Y1134D01*
X1546Y1132D01*
X1548Y1132D01*
X1548Y1130D01*
X1550Y1130D01*
X1550Y1128D01*
X1552Y1128D01*
X1552Y1126D01*
X1554Y1126D01*
X1554Y1124D01*
X1556Y1124D01*
X1556Y1122D01*
X1558Y1122D01*
X1558Y1120D01*
X1560Y1120D01*
X1560Y1118D01*
X1562Y1118D01*
X1562Y1116D01*
X1564Y1116D01*
X1564Y1114D01*
X1566Y1114D01*
X1566Y1112D01*
X1568Y1112D01*
X1568Y1110D01*
X1570Y1110D01*
X1570Y1108D01*
X1572Y1108D01*
X1572Y1106D01*
X1574Y1106D01*
X1574Y1104D01*
X1576Y1104D01*
X1576Y1102D01*
X1578Y1102D01*
X1578Y1100D01*
X1580Y1100D01*
X1580Y1098D01*
X1582Y1098D01*
X1582Y1096D01*
X1584Y1096D01*
X1584Y1094D01*
X1586Y1094D01*
X1586Y1092D01*
X1588Y1092D01*
X1588Y1090D01*
X1590Y1090D01*
X1590Y1088D01*
X1592Y1088D01*
X1592Y1086D01*
X1594Y1086D01*
X1594Y1084D01*
X1596Y1084D01*
X1596Y1082D01*
X1598Y1082D01*
X1598Y1080D01*
X1600Y1080D01*
X1600Y1078D01*
X1602Y1078D01*
X1602Y1076D01*
X1604Y1076D01*
X1604Y1074D01*
X1606Y1074D01*
X1606Y1072D01*
X1608Y1072D01*
X1608Y1070D01*
X1610Y1070D01*
X1610Y1068D01*
X1612Y1068D01*
X1612Y1066D01*
X1614Y1066D01*
X1614Y1064D01*
X1616Y1064D01*
X1616Y1062D01*
X1618Y1062D01*
X1618Y1060D01*
X1620Y1060D01*
X1620Y1058D01*
X1622Y1058D01*
X1622Y1056D01*
X1624Y1056D01*
X1624Y1054D01*
X1626Y1054D01*
X1626Y1052D01*
X1628Y1052D01*
X1628Y1050D01*
X1630Y1050D01*
X1630Y1048D01*
X1632Y1048D01*
X1632Y1046D01*
X1634Y1046D01*
X1634Y1044D01*
X1636Y1044D01*
X1636Y1042D01*
X1638Y1042D01*
X1638Y1040D01*
X1640Y1040D01*
X1640Y1038D01*
X1642Y1038D01*
X1642Y1036D01*
X1644Y1036D01*
X1644Y1034D01*
X1646Y1034D01*
X1646Y1032D01*
X1648Y1032D01*
X1648Y1030D01*
X1650Y1030D01*
X1650Y1028D01*
X1652Y1028D01*
X1652Y1026D01*
X1654Y1026D01*
X1654Y1024D01*
X1656Y1024D01*
X1656Y1022D01*
X1658Y1022D01*
X1658Y1020D01*
X1660Y1020D01*
X1660Y1018D01*
X1662Y1018D01*
X1662Y1016D01*
X1664Y1016D01*
X1664Y1014D01*
X1666Y1014D01*
X1666Y1012D01*
X1668Y1012D01*
X1668Y1010D01*
X1670Y1010D01*
X1670Y1008D01*
X2188Y1008D01*
X2188Y1010D01*
X2182Y1010D01*
X2182Y1012D01*
X2176Y1012D01*
X2176Y1014D01*
X2172Y1014D01*
X2172Y1016D01*
X2168Y1016D01*
X2168Y1018D01*
X2166Y1018D01*
X2166Y1020D01*
X2164Y1020D01*
X2164Y1022D01*
X2162Y1022D01*
X2162Y1024D01*
X2160Y1024D01*
X2160Y1026D01*
X2158Y1026D01*
X2158Y1028D01*
X2156Y1028D01*
X2156Y1030D01*
X2154Y1030D01*
X2154Y1034D01*
X2152Y1034D01*
X2152Y1036D01*
X2150Y1036D01*
X2150Y1040D01*
X2148Y1040D01*
X2148Y1046D01*
X2146Y1046D01*
X2146Y1056D01*
X2144Y1056D01*
X2144Y1058D01*
X2146Y1058D01*
X2146Y1070D01*
X2148Y1070D01*
X2148Y1074D01*
X2150Y1074D01*
X2150Y1078D01*
X2152Y1078D01*
X2152Y1082D01*
X2154Y1082D01*
X2154Y1084D01*
X2156Y1084D01*
X2156Y1088D01*
X2158Y1088D01*
X2158Y1090D01*
X2160Y1090D01*
X2160Y1092D01*
X2162Y1092D01*
X2162Y1094D01*
X2164Y1094D01*
X2164Y1096D01*
X2168Y1096D01*
X2168Y1118D01*
X2166Y1118D01*
X2166Y1120D01*
X2164Y1120D01*
X2164Y1122D01*
X2162Y1122D01*
X2162Y1124D01*
X2160Y1124D01*
X2160Y1126D01*
X2158Y1126D01*
X2158Y1128D01*
X2156Y1128D01*
X2156Y1130D01*
X2154Y1130D01*
X2154Y1134D01*
X2152Y1134D01*
X2152Y1136D01*
X2150Y1136D01*
X2150Y1140D01*
X2148Y1140D01*
X2148Y1146D01*
X2146Y1146D01*
X2146Y1156D01*
X2144Y1156D01*
X2144Y1158D01*
X2146Y1158D01*
X2146Y1170D01*
X2148Y1170D01*
X2148Y1174D01*
X2150Y1174D01*
X2150Y1178D01*
X2152Y1178D01*
X2152Y1182D01*
X2154Y1182D01*
X2154Y1184D01*
X2156Y1184D01*
X2156Y1188D01*
X2158Y1188D01*
X2158Y1190D01*
X2160Y1190D01*
X2160Y1192D01*
X2162Y1192D01*
X2162Y1194D01*
X2164Y1194D01*
X2164Y1196D01*
X2168Y1196D01*
X2168Y1198D01*
X2170Y1198D01*
X2170Y1200D01*
X2174Y1200D01*
X2174Y1202D01*
X2178Y1202D01*
X2178Y1204D01*
X2184Y1204D01*
X2184Y1206D01*
X1476Y1206D01*
G37*
D02*
G36*
X1672Y1008D02*
X1672Y1006D01*
X2518Y1006D01*
X2518Y1008D01*
X1672Y1008D01*
G37*
D02*
G36*
X1672Y1008D02*
X1672Y1006D01*
X2518Y1006D01*
X2518Y1008D01*
X1672Y1008D01*
G37*
D02*
G36*
X1674Y1006D02*
X1674Y1004D01*
X1676Y1004D01*
X1676Y1002D01*
X1678Y1002D01*
X1678Y1000D01*
X1680Y1000D01*
X1680Y998D01*
X1682Y998D01*
X1682Y996D01*
X1684Y996D01*
X1684Y994D01*
X1686Y994D01*
X1686Y992D01*
X1688Y992D01*
X1688Y990D01*
X1690Y990D01*
X1690Y988D01*
X1692Y988D01*
X1692Y986D01*
X1694Y986D01*
X1694Y984D01*
X1696Y984D01*
X1696Y982D01*
X1698Y982D01*
X1698Y980D01*
X1700Y980D01*
X1700Y978D01*
X1702Y978D01*
X1702Y974D01*
X1704Y974D01*
X1704Y972D01*
X1706Y972D01*
X1706Y970D01*
X1708Y970D01*
X1708Y968D01*
X1710Y968D01*
X1710Y966D01*
X1712Y966D01*
X1712Y964D01*
X1714Y964D01*
X1714Y962D01*
X1716Y962D01*
X1716Y960D01*
X1718Y960D01*
X1718Y958D01*
X1720Y958D01*
X1720Y956D01*
X1722Y956D01*
X1722Y954D01*
X1724Y954D01*
X1724Y952D01*
X1726Y952D01*
X1726Y950D01*
X1728Y950D01*
X1728Y948D01*
X1730Y948D01*
X1730Y946D01*
X1732Y946D01*
X1732Y944D01*
X1734Y944D01*
X1734Y942D01*
X1736Y942D01*
X1736Y940D01*
X1738Y940D01*
X1738Y938D01*
X1740Y938D01*
X1740Y936D01*
X1742Y936D01*
X1742Y934D01*
X1744Y934D01*
X1744Y932D01*
X1746Y932D01*
X1746Y930D01*
X1748Y930D01*
X1748Y928D01*
X1750Y928D01*
X1750Y926D01*
X1752Y926D01*
X1752Y924D01*
X1754Y924D01*
X1754Y922D01*
X1756Y922D01*
X1756Y920D01*
X1758Y920D01*
X1758Y918D01*
X1760Y918D01*
X1760Y916D01*
X1762Y916D01*
X1762Y914D01*
X1764Y914D01*
X1764Y912D01*
X1766Y912D01*
X1766Y910D01*
X1768Y910D01*
X1768Y908D01*
X1770Y908D01*
X1770Y906D01*
X2304Y906D01*
X2304Y904D01*
X2310Y904D01*
X2310Y902D01*
X2314Y902D01*
X2314Y900D01*
X2318Y900D01*
X2318Y898D01*
X2320Y898D01*
X2320Y896D01*
X2324Y896D01*
X2324Y894D01*
X2326Y894D01*
X2326Y892D01*
X2328Y892D01*
X2328Y890D01*
X2330Y890D01*
X2330Y888D01*
X2332Y888D01*
X2332Y884D01*
X2334Y884D01*
X2334Y882D01*
X2336Y882D01*
X2336Y878D01*
X2338Y878D01*
X2338Y874D01*
X2340Y874D01*
X2340Y870D01*
X2342Y870D01*
X2342Y846D01*
X2340Y846D01*
X2340Y840D01*
X2338Y840D01*
X2338Y836D01*
X2336Y836D01*
X2336Y834D01*
X2334Y834D01*
X2334Y830D01*
X2332Y830D01*
X2332Y828D01*
X2330Y828D01*
X2330Y826D01*
X2328Y826D01*
X2328Y824D01*
X2326Y824D01*
X2326Y822D01*
X2324Y822D01*
X2324Y820D01*
X2322Y820D01*
X2322Y818D01*
X2320Y818D01*
X2320Y796D01*
X2324Y796D01*
X2324Y794D01*
X2326Y794D01*
X2326Y792D01*
X2328Y792D01*
X2328Y790D01*
X2330Y790D01*
X2330Y788D01*
X2332Y788D01*
X2332Y784D01*
X2334Y784D01*
X2334Y782D01*
X2336Y782D01*
X2336Y778D01*
X2338Y778D01*
X2338Y774D01*
X2340Y774D01*
X2340Y770D01*
X2342Y770D01*
X2342Y746D01*
X2340Y746D01*
X2340Y740D01*
X2338Y740D01*
X2338Y736D01*
X2336Y736D01*
X2336Y734D01*
X2334Y734D01*
X2334Y730D01*
X2332Y730D01*
X2332Y728D01*
X2330Y728D01*
X2330Y726D01*
X2328Y726D01*
X2328Y724D01*
X2326Y724D01*
X2326Y722D01*
X2324Y722D01*
X2324Y720D01*
X2322Y720D01*
X2322Y718D01*
X2320Y718D01*
X2320Y696D01*
X2324Y696D01*
X2324Y694D01*
X2326Y694D01*
X2326Y692D01*
X2328Y692D01*
X2328Y690D01*
X2330Y690D01*
X2330Y688D01*
X2332Y688D01*
X2332Y684D01*
X2334Y684D01*
X2334Y682D01*
X2336Y682D01*
X2336Y678D01*
X2338Y678D01*
X2338Y674D01*
X2340Y674D01*
X2340Y670D01*
X2342Y670D01*
X2342Y646D01*
X2340Y646D01*
X2340Y640D01*
X2338Y640D01*
X2338Y636D01*
X2336Y636D01*
X2336Y634D01*
X2334Y634D01*
X2334Y630D01*
X2332Y630D01*
X2332Y628D01*
X2330Y628D01*
X2330Y626D01*
X2328Y626D01*
X2328Y624D01*
X2326Y624D01*
X2326Y622D01*
X2324Y622D01*
X2324Y620D01*
X2322Y620D01*
X2322Y618D01*
X2320Y618D01*
X2320Y596D01*
X2324Y596D01*
X2324Y594D01*
X2326Y594D01*
X2326Y592D01*
X2328Y592D01*
X2328Y590D01*
X2330Y590D01*
X2330Y588D01*
X2332Y588D01*
X2332Y584D01*
X2334Y584D01*
X2334Y582D01*
X2336Y582D01*
X2336Y578D01*
X2338Y578D01*
X2338Y574D01*
X2340Y574D01*
X2340Y570D01*
X2342Y570D01*
X2342Y546D01*
X2340Y546D01*
X2340Y540D01*
X2338Y540D01*
X2338Y536D01*
X2336Y536D01*
X2336Y534D01*
X2334Y534D01*
X2334Y530D01*
X2332Y530D01*
X2332Y528D01*
X2330Y528D01*
X2330Y526D01*
X2328Y526D01*
X2328Y524D01*
X2326Y524D01*
X2326Y522D01*
X2324Y522D01*
X2324Y520D01*
X2322Y520D01*
X2322Y518D01*
X2320Y518D01*
X2320Y516D01*
X2316Y516D01*
X2316Y514D01*
X2312Y514D01*
X2312Y512D01*
X2306Y512D01*
X2306Y510D01*
X2300Y510D01*
X2300Y508D01*
X2518Y508D01*
X2518Y1006D01*
X1674Y1006D01*
G37*
D02*
G36*
X436Y936D02*
X436Y934D01*
X434Y934D01*
X434Y930D01*
X432Y930D01*
X432Y928D01*
X430Y928D01*
X430Y926D01*
X428Y926D01*
X428Y924D01*
X426Y924D01*
X426Y922D01*
X424Y922D01*
X424Y920D01*
X422Y920D01*
X422Y918D01*
X420Y918D01*
X420Y896D01*
X424Y896D01*
X424Y894D01*
X426Y894D01*
X426Y892D01*
X428Y892D01*
X428Y890D01*
X430Y890D01*
X430Y888D01*
X432Y888D01*
X432Y884D01*
X434Y884D01*
X434Y882D01*
X436Y882D01*
X436Y878D01*
X438Y878D01*
X438Y874D01*
X440Y874D01*
X440Y870D01*
X442Y870D01*
X442Y846D01*
X440Y846D01*
X440Y840D01*
X438Y840D01*
X438Y836D01*
X436Y836D01*
X436Y834D01*
X434Y834D01*
X434Y830D01*
X432Y830D01*
X432Y828D01*
X430Y828D01*
X430Y826D01*
X428Y826D01*
X428Y824D01*
X426Y824D01*
X426Y822D01*
X424Y822D01*
X424Y820D01*
X422Y820D01*
X422Y818D01*
X420Y818D01*
X420Y796D01*
X424Y796D01*
X424Y794D01*
X426Y794D01*
X426Y792D01*
X428Y792D01*
X428Y790D01*
X430Y790D01*
X430Y788D01*
X432Y788D01*
X432Y784D01*
X434Y784D01*
X434Y782D01*
X436Y782D01*
X436Y778D01*
X438Y778D01*
X438Y774D01*
X440Y774D01*
X440Y770D01*
X442Y770D01*
X442Y746D01*
X440Y746D01*
X440Y740D01*
X438Y740D01*
X438Y736D01*
X436Y736D01*
X436Y734D01*
X434Y734D01*
X434Y730D01*
X432Y730D01*
X432Y728D01*
X430Y728D01*
X430Y726D01*
X428Y726D01*
X428Y724D01*
X426Y724D01*
X426Y722D01*
X424Y722D01*
X424Y720D01*
X422Y720D01*
X422Y718D01*
X420Y718D01*
X420Y696D01*
X424Y696D01*
X424Y694D01*
X426Y694D01*
X426Y692D01*
X428Y692D01*
X428Y690D01*
X430Y690D01*
X430Y688D01*
X432Y688D01*
X432Y684D01*
X434Y684D01*
X434Y682D01*
X436Y682D01*
X436Y678D01*
X438Y678D01*
X438Y674D01*
X440Y674D01*
X440Y670D01*
X442Y670D01*
X442Y646D01*
X440Y646D01*
X440Y640D01*
X438Y640D01*
X438Y636D01*
X436Y636D01*
X436Y634D01*
X434Y634D01*
X434Y630D01*
X432Y630D01*
X432Y628D01*
X430Y628D01*
X430Y626D01*
X428Y626D01*
X428Y624D01*
X426Y624D01*
X426Y622D01*
X424Y622D01*
X424Y620D01*
X422Y620D01*
X422Y618D01*
X420Y618D01*
X420Y616D01*
X416Y616D01*
X416Y614D01*
X412Y614D01*
X412Y612D01*
X406Y612D01*
X406Y610D01*
X400Y610D01*
X400Y608D01*
X510Y608D01*
X510Y612D01*
X512Y612D01*
X512Y616D01*
X514Y616D01*
X514Y620D01*
X516Y620D01*
X516Y624D01*
X518Y624D01*
X518Y628D01*
X520Y628D01*
X520Y634D01*
X522Y634D01*
X522Y638D01*
X524Y638D01*
X524Y642D01*
X526Y642D01*
X526Y646D01*
X528Y646D01*
X528Y650D01*
X530Y650D01*
X530Y654D01*
X532Y654D01*
X532Y658D01*
X534Y658D01*
X534Y662D01*
X536Y662D01*
X536Y666D01*
X538Y666D01*
X538Y672D01*
X540Y672D01*
X540Y676D01*
X542Y676D01*
X542Y680D01*
X544Y680D01*
X544Y684D01*
X546Y684D01*
X546Y688D01*
X548Y688D01*
X548Y692D01*
X550Y692D01*
X550Y696D01*
X552Y696D01*
X552Y700D01*
X554Y700D01*
X554Y706D01*
X556Y706D01*
X556Y710D01*
X558Y710D01*
X558Y714D01*
X560Y714D01*
X560Y718D01*
X562Y718D01*
X562Y722D01*
X564Y722D01*
X564Y726D01*
X566Y726D01*
X566Y730D01*
X568Y730D01*
X568Y734D01*
X570Y734D01*
X570Y738D01*
X572Y738D01*
X572Y744D01*
X574Y744D01*
X574Y748D01*
X576Y748D01*
X576Y752D01*
X578Y752D01*
X578Y756D01*
X580Y756D01*
X580Y760D01*
X582Y760D01*
X582Y764D01*
X584Y764D01*
X584Y768D01*
X586Y768D01*
X586Y772D01*
X588Y772D01*
X588Y778D01*
X590Y778D01*
X590Y782D01*
X592Y782D01*
X592Y786D01*
X594Y786D01*
X594Y790D01*
X596Y790D01*
X596Y794D01*
X598Y794D01*
X598Y798D01*
X600Y798D01*
X600Y802D01*
X602Y802D01*
X602Y806D01*
X604Y806D01*
X604Y810D01*
X606Y810D01*
X606Y816D01*
X608Y816D01*
X608Y820D01*
X610Y820D01*
X610Y824D01*
X612Y824D01*
X612Y828D01*
X614Y828D01*
X614Y832D01*
X616Y832D01*
X616Y836D01*
X618Y836D01*
X618Y838D01*
X622Y838D01*
X622Y840D01*
X624Y840D01*
X624Y842D01*
X628Y842D01*
X628Y844D01*
X630Y844D01*
X630Y846D01*
X634Y846D01*
X634Y848D01*
X638Y848D01*
X638Y850D01*
X640Y850D01*
X640Y852D01*
X644Y852D01*
X644Y854D01*
X648Y854D01*
X648Y858D01*
X650Y858D01*
X650Y868D01*
X652Y868D01*
X652Y874D01*
X654Y874D01*
X654Y878D01*
X656Y878D01*
X656Y882D01*
X658Y882D01*
X658Y884D01*
X660Y884D01*
X660Y886D01*
X662Y886D01*
X662Y888D01*
X664Y888D01*
X664Y890D01*
X666Y890D01*
X666Y892D01*
X668Y892D01*
X668Y894D01*
X672Y894D01*
X672Y896D01*
X674Y896D01*
X674Y898D01*
X676Y898D01*
X676Y918D01*
X674Y918D01*
X674Y920D01*
X670Y920D01*
X670Y922D01*
X668Y922D01*
X668Y924D01*
X666Y924D01*
X666Y926D01*
X662Y926D01*
X662Y930D01*
X660Y930D01*
X660Y932D01*
X658Y932D01*
X658Y934D01*
X656Y934D01*
X656Y936D01*
X436Y936D01*
G37*
D02*
G36*
X1772Y906D02*
X1772Y904D01*
X1774Y904D01*
X1774Y902D01*
X1776Y902D01*
X1776Y900D01*
X1778Y900D01*
X1778Y898D01*
X1780Y898D01*
X1780Y896D01*
X1782Y896D01*
X1782Y894D01*
X1784Y894D01*
X1784Y892D01*
X1786Y892D01*
X1786Y890D01*
X1788Y890D01*
X1788Y888D01*
X1790Y888D01*
X1790Y886D01*
X1792Y886D01*
X1792Y884D01*
X1794Y884D01*
X1794Y882D01*
X1796Y882D01*
X1796Y880D01*
X1798Y880D01*
X1798Y878D01*
X1800Y878D01*
X1800Y876D01*
X1802Y876D01*
X1802Y874D01*
X1804Y874D01*
X1804Y872D01*
X1806Y872D01*
X1806Y870D01*
X1808Y870D01*
X1808Y868D01*
X1810Y868D01*
X1810Y866D01*
X1812Y866D01*
X1812Y864D01*
X1814Y864D01*
X1814Y862D01*
X1816Y862D01*
X1816Y860D01*
X1818Y860D01*
X1818Y858D01*
X1820Y858D01*
X1820Y856D01*
X1822Y856D01*
X1822Y854D01*
X1824Y854D01*
X1824Y852D01*
X1826Y852D01*
X1826Y850D01*
X1828Y850D01*
X1828Y848D01*
X1830Y848D01*
X1830Y846D01*
X1832Y846D01*
X1832Y844D01*
X1834Y844D01*
X1834Y842D01*
X1836Y842D01*
X1836Y840D01*
X1838Y840D01*
X1838Y838D01*
X1840Y838D01*
X1840Y836D01*
X1842Y836D01*
X1842Y834D01*
X1844Y834D01*
X1844Y832D01*
X1846Y832D01*
X1846Y830D01*
X1848Y830D01*
X1848Y828D01*
X1850Y828D01*
X1850Y826D01*
X1852Y826D01*
X1852Y824D01*
X1854Y824D01*
X1854Y822D01*
X1856Y822D01*
X1856Y820D01*
X1858Y820D01*
X1858Y818D01*
X1860Y818D01*
X1860Y816D01*
X1862Y816D01*
X1862Y814D01*
X1864Y814D01*
X1864Y812D01*
X1866Y812D01*
X1866Y810D01*
X1868Y810D01*
X1868Y808D01*
X1870Y808D01*
X1870Y806D01*
X2104Y806D01*
X2104Y804D01*
X2110Y804D01*
X2110Y802D01*
X2114Y802D01*
X2114Y800D01*
X2118Y800D01*
X2118Y798D01*
X2120Y798D01*
X2120Y796D01*
X2124Y796D01*
X2124Y794D01*
X2126Y794D01*
X2126Y792D01*
X2128Y792D01*
X2128Y790D01*
X2130Y790D01*
X2130Y788D01*
X2132Y788D01*
X2132Y784D01*
X2134Y784D01*
X2134Y782D01*
X2136Y782D01*
X2136Y778D01*
X2138Y778D01*
X2138Y774D01*
X2140Y774D01*
X2140Y770D01*
X2142Y770D01*
X2142Y746D01*
X2140Y746D01*
X2140Y740D01*
X2138Y740D01*
X2138Y736D01*
X2136Y736D01*
X2136Y734D01*
X2134Y734D01*
X2134Y730D01*
X2132Y730D01*
X2132Y728D01*
X2130Y728D01*
X2130Y726D01*
X2128Y726D01*
X2128Y724D01*
X2126Y724D01*
X2126Y722D01*
X2124Y722D01*
X2124Y720D01*
X2122Y720D01*
X2122Y718D01*
X2120Y718D01*
X2120Y696D01*
X2124Y696D01*
X2124Y694D01*
X2126Y694D01*
X2126Y692D01*
X2128Y692D01*
X2128Y690D01*
X2130Y690D01*
X2130Y688D01*
X2132Y688D01*
X2132Y684D01*
X2134Y684D01*
X2134Y682D01*
X2136Y682D01*
X2136Y678D01*
X2138Y678D01*
X2138Y674D01*
X2140Y674D01*
X2140Y670D01*
X2142Y670D01*
X2142Y646D01*
X2140Y646D01*
X2140Y640D01*
X2138Y640D01*
X2138Y636D01*
X2136Y636D01*
X2136Y634D01*
X2134Y634D01*
X2134Y630D01*
X2132Y630D01*
X2132Y628D01*
X2130Y628D01*
X2130Y626D01*
X2128Y626D01*
X2128Y624D01*
X2126Y624D01*
X2126Y622D01*
X2124Y622D01*
X2124Y620D01*
X2122Y620D01*
X2122Y618D01*
X2120Y618D01*
X2120Y596D01*
X2124Y596D01*
X2124Y594D01*
X2126Y594D01*
X2126Y592D01*
X2128Y592D01*
X2128Y590D01*
X2130Y590D01*
X2130Y588D01*
X2132Y588D01*
X2132Y584D01*
X2134Y584D01*
X2134Y582D01*
X2136Y582D01*
X2136Y578D01*
X2138Y578D01*
X2138Y574D01*
X2140Y574D01*
X2140Y570D01*
X2142Y570D01*
X2142Y546D01*
X2140Y546D01*
X2140Y540D01*
X2138Y540D01*
X2138Y536D01*
X2136Y536D01*
X2136Y534D01*
X2134Y534D01*
X2134Y530D01*
X2132Y530D01*
X2132Y528D01*
X2130Y528D01*
X2130Y526D01*
X2128Y526D01*
X2128Y524D01*
X2126Y524D01*
X2126Y522D01*
X2124Y522D01*
X2124Y520D01*
X2122Y520D01*
X2122Y518D01*
X2120Y518D01*
X2120Y516D01*
X2116Y516D01*
X2116Y514D01*
X2112Y514D01*
X2112Y512D01*
X2106Y512D01*
X2106Y510D01*
X2100Y510D01*
X2100Y508D01*
X2288Y508D01*
X2288Y510D01*
X2282Y510D01*
X2282Y512D01*
X2276Y512D01*
X2276Y514D01*
X2272Y514D01*
X2272Y516D01*
X2268Y516D01*
X2268Y518D01*
X2266Y518D01*
X2266Y520D01*
X2264Y520D01*
X2264Y522D01*
X2262Y522D01*
X2262Y524D01*
X2260Y524D01*
X2260Y526D01*
X2258Y526D01*
X2258Y528D01*
X2256Y528D01*
X2256Y530D01*
X2254Y530D01*
X2254Y534D01*
X2252Y534D01*
X2252Y536D01*
X2250Y536D01*
X2250Y540D01*
X2248Y540D01*
X2248Y546D01*
X2246Y546D01*
X2246Y556D01*
X2244Y556D01*
X2244Y558D01*
X2246Y558D01*
X2246Y570D01*
X2248Y570D01*
X2248Y574D01*
X2250Y574D01*
X2250Y578D01*
X2252Y578D01*
X2252Y582D01*
X2254Y582D01*
X2254Y584D01*
X2256Y584D01*
X2256Y588D01*
X2258Y588D01*
X2258Y590D01*
X2260Y590D01*
X2260Y592D01*
X2262Y592D01*
X2262Y594D01*
X2264Y594D01*
X2264Y596D01*
X2268Y596D01*
X2268Y618D01*
X2266Y618D01*
X2266Y620D01*
X2264Y620D01*
X2264Y622D01*
X2262Y622D01*
X2262Y624D01*
X2260Y624D01*
X2260Y626D01*
X2258Y626D01*
X2258Y628D01*
X2256Y628D01*
X2256Y630D01*
X2254Y630D01*
X2254Y634D01*
X2252Y634D01*
X2252Y636D01*
X2250Y636D01*
X2250Y640D01*
X2248Y640D01*
X2248Y646D01*
X2246Y646D01*
X2246Y656D01*
X2244Y656D01*
X2244Y658D01*
X2246Y658D01*
X2246Y670D01*
X2248Y670D01*
X2248Y674D01*
X2250Y674D01*
X2250Y678D01*
X2252Y678D01*
X2252Y682D01*
X2254Y682D01*
X2254Y684D01*
X2256Y684D01*
X2256Y688D01*
X2258Y688D01*
X2258Y690D01*
X2260Y690D01*
X2260Y692D01*
X2262Y692D01*
X2262Y694D01*
X2264Y694D01*
X2264Y696D01*
X2268Y696D01*
X2268Y718D01*
X2266Y718D01*
X2266Y720D01*
X2264Y720D01*
X2264Y722D01*
X2262Y722D01*
X2262Y724D01*
X2260Y724D01*
X2260Y726D01*
X2258Y726D01*
X2258Y728D01*
X2256Y728D01*
X2256Y730D01*
X2254Y730D01*
X2254Y734D01*
X2252Y734D01*
X2252Y736D01*
X2250Y736D01*
X2250Y740D01*
X2248Y740D01*
X2248Y746D01*
X2246Y746D01*
X2246Y756D01*
X2244Y756D01*
X2244Y758D01*
X2246Y758D01*
X2246Y770D01*
X2248Y770D01*
X2248Y774D01*
X2250Y774D01*
X2250Y778D01*
X2252Y778D01*
X2252Y782D01*
X2254Y782D01*
X2254Y784D01*
X2256Y784D01*
X2256Y788D01*
X2258Y788D01*
X2258Y790D01*
X2260Y790D01*
X2260Y792D01*
X2262Y792D01*
X2262Y794D01*
X2264Y794D01*
X2264Y796D01*
X2268Y796D01*
X2268Y818D01*
X2266Y818D01*
X2266Y820D01*
X2264Y820D01*
X2264Y822D01*
X2262Y822D01*
X2262Y824D01*
X2260Y824D01*
X2260Y826D01*
X2258Y826D01*
X2258Y828D01*
X2256Y828D01*
X2256Y830D01*
X2254Y830D01*
X2254Y834D01*
X2252Y834D01*
X2252Y836D01*
X2250Y836D01*
X2250Y840D01*
X2248Y840D01*
X2248Y846D01*
X2246Y846D01*
X2246Y856D01*
X2244Y856D01*
X2244Y858D01*
X2246Y858D01*
X2246Y870D01*
X2248Y870D01*
X2248Y874D01*
X2250Y874D01*
X2250Y878D01*
X2252Y878D01*
X2252Y882D01*
X2254Y882D01*
X2254Y884D01*
X2256Y884D01*
X2256Y888D01*
X2258Y888D01*
X2258Y890D01*
X2260Y890D01*
X2260Y892D01*
X2262Y892D01*
X2262Y894D01*
X2264Y894D01*
X2264Y896D01*
X2268Y896D01*
X2268Y898D01*
X2270Y898D01*
X2270Y900D01*
X2274Y900D01*
X2274Y902D01*
X2278Y902D01*
X2278Y904D01*
X2284Y904D01*
X2284Y906D01*
X1772Y906D01*
G37*
D02*
G36*
X1872Y806D02*
X1872Y802D01*
X1874Y802D01*
X1874Y800D01*
X1876Y800D01*
X1876Y798D01*
X1878Y798D01*
X1878Y796D01*
X1880Y796D01*
X1880Y794D01*
X1882Y794D01*
X1882Y792D01*
X1884Y792D01*
X1884Y790D01*
X1886Y790D01*
X1886Y788D01*
X1888Y788D01*
X1888Y786D01*
X1890Y786D01*
X1890Y784D01*
X1892Y784D01*
X1892Y782D01*
X1894Y782D01*
X1894Y780D01*
X1896Y780D01*
X1896Y778D01*
X1898Y778D01*
X1898Y776D01*
X1900Y776D01*
X1900Y774D01*
X1902Y774D01*
X1902Y772D01*
X1904Y772D01*
X1904Y770D01*
X1906Y770D01*
X1906Y768D01*
X1908Y768D01*
X1908Y766D01*
X1910Y766D01*
X1910Y764D01*
X1912Y764D01*
X1912Y762D01*
X1914Y762D01*
X1914Y760D01*
X1916Y760D01*
X1916Y758D01*
X1918Y758D01*
X1918Y756D01*
X1920Y756D01*
X1920Y754D01*
X1922Y754D01*
X1922Y752D01*
X1924Y752D01*
X1924Y750D01*
X1926Y750D01*
X1926Y748D01*
X1928Y748D01*
X1928Y746D01*
X1930Y746D01*
X1930Y744D01*
X1932Y744D01*
X1932Y742D01*
X1934Y742D01*
X1934Y740D01*
X1936Y740D01*
X1936Y738D01*
X1938Y738D01*
X1938Y736D01*
X1940Y736D01*
X1940Y734D01*
X1942Y734D01*
X1942Y732D01*
X1948Y732D01*
X1948Y730D01*
X1954Y730D01*
X1954Y728D01*
X1960Y728D01*
X1960Y726D01*
X1966Y726D01*
X1966Y724D01*
X1970Y724D01*
X1970Y722D01*
X1976Y722D01*
X1976Y720D01*
X1982Y720D01*
X1982Y718D01*
X1988Y718D01*
X1988Y716D01*
X1994Y716D01*
X1994Y714D01*
X2000Y714D01*
X2000Y712D01*
X2006Y712D01*
X2006Y710D01*
X2012Y710D01*
X2012Y708D01*
X2018Y708D01*
X2018Y706D01*
X2024Y706D01*
X2024Y704D01*
X2030Y704D01*
X2030Y702D01*
X2036Y702D01*
X2036Y700D01*
X2040Y700D01*
X2040Y698D01*
X2046Y698D01*
X2046Y696D01*
X2068Y696D01*
X2068Y718D01*
X2066Y718D01*
X2066Y720D01*
X2064Y720D01*
X2064Y722D01*
X2062Y722D01*
X2062Y724D01*
X2060Y724D01*
X2060Y726D01*
X2058Y726D01*
X2058Y728D01*
X2056Y728D01*
X2056Y730D01*
X2054Y730D01*
X2054Y734D01*
X2052Y734D01*
X2052Y736D01*
X2050Y736D01*
X2050Y740D01*
X2048Y740D01*
X2048Y746D01*
X2046Y746D01*
X2046Y756D01*
X2044Y756D01*
X2044Y758D01*
X2046Y758D01*
X2046Y770D01*
X2048Y770D01*
X2048Y774D01*
X2050Y774D01*
X2050Y778D01*
X2052Y778D01*
X2052Y782D01*
X2054Y782D01*
X2054Y784D01*
X2056Y784D01*
X2056Y788D01*
X2058Y788D01*
X2058Y790D01*
X2060Y790D01*
X2060Y792D01*
X2062Y792D01*
X2062Y794D01*
X2064Y794D01*
X2064Y796D01*
X2068Y796D01*
X2068Y798D01*
X2070Y798D01*
X2070Y800D01*
X2074Y800D01*
X2074Y802D01*
X2078Y802D01*
X2078Y804D01*
X2084Y804D01*
X2084Y806D01*
X1872Y806D01*
G37*
D02*
G36*
X630Y762D02*
X630Y758D01*
X628Y758D01*
X628Y754D01*
X626Y754D01*
X626Y750D01*
X624Y750D01*
X624Y746D01*
X622Y746D01*
X622Y742D01*
X620Y742D01*
X620Y738D01*
X618Y738D01*
X618Y734D01*
X616Y734D01*
X616Y730D01*
X614Y730D01*
X614Y724D01*
X612Y724D01*
X612Y720D01*
X610Y720D01*
X610Y716D01*
X608Y716D01*
X608Y712D01*
X606Y712D01*
X606Y708D01*
X604Y708D01*
X604Y704D01*
X602Y704D01*
X602Y700D01*
X600Y700D01*
X600Y696D01*
X598Y696D01*
X598Y690D01*
X596Y690D01*
X596Y686D01*
X594Y686D01*
X594Y682D01*
X592Y682D01*
X592Y678D01*
X590Y678D01*
X590Y674D01*
X588Y674D01*
X588Y670D01*
X586Y670D01*
X586Y666D01*
X584Y666D01*
X584Y662D01*
X582Y662D01*
X582Y658D01*
X580Y658D01*
X580Y652D01*
X578Y652D01*
X578Y648D01*
X576Y648D01*
X576Y644D01*
X574Y644D01*
X574Y640D01*
X572Y640D01*
X572Y636D01*
X570Y636D01*
X570Y632D01*
X568Y632D01*
X568Y628D01*
X566Y628D01*
X566Y624D01*
X564Y624D01*
X564Y618D01*
X562Y618D01*
X562Y614D01*
X560Y614D01*
X560Y610D01*
X558Y610D01*
X558Y606D01*
X556Y606D01*
X556Y602D01*
X554Y602D01*
X554Y598D01*
X552Y598D01*
X552Y594D01*
X550Y594D01*
X550Y590D01*
X548Y590D01*
X548Y586D01*
X546Y586D01*
X546Y580D01*
X544Y580D01*
X544Y576D01*
X542Y576D01*
X542Y572D01*
X540Y572D01*
X540Y568D01*
X538Y568D01*
X538Y564D01*
X536Y564D01*
X536Y560D01*
X534Y560D01*
X534Y556D01*
X532Y556D01*
X532Y552D01*
X530Y552D01*
X530Y546D01*
X528Y546D01*
X528Y542D01*
X526Y542D01*
X526Y538D01*
X524Y538D01*
X524Y534D01*
X522Y534D01*
X522Y530D01*
X520Y530D01*
X520Y526D01*
X518Y526D01*
X518Y522D01*
X516Y522D01*
X516Y518D01*
X514Y518D01*
X514Y514D01*
X512Y514D01*
X512Y508D01*
X510Y508D01*
X510Y504D01*
X508Y504D01*
X508Y500D01*
X506Y500D01*
X506Y496D01*
X504Y496D01*
X504Y492D01*
X502Y492D01*
X502Y488D01*
X500Y488D01*
X500Y484D01*
X498Y484D01*
X498Y480D01*
X496Y480D01*
X496Y474D01*
X494Y474D01*
X494Y470D01*
X492Y470D01*
X492Y466D01*
X490Y466D01*
X490Y462D01*
X488Y462D01*
X488Y458D01*
X486Y458D01*
X486Y454D01*
X484Y454D01*
X484Y450D01*
X482Y450D01*
X482Y446D01*
X480Y446D01*
X480Y442D01*
X478Y442D01*
X478Y436D01*
X476Y436D01*
X476Y432D01*
X474Y432D01*
X474Y428D01*
X472Y428D01*
X472Y424D01*
X470Y424D01*
X470Y420D01*
X468Y420D01*
X468Y416D01*
X466Y416D01*
X466Y412D01*
X688Y412D01*
X688Y414D01*
X682Y414D01*
X682Y416D01*
X676Y416D01*
X676Y418D01*
X674Y418D01*
X674Y420D01*
X670Y420D01*
X670Y422D01*
X668Y422D01*
X668Y424D01*
X666Y424D01*
X666Y426D01*
X662Y426D01*
X662Y430D01*
X660Y430D01*
X660Y432D01*
X658Y432D01*
X658Y434D01*
X656Y434D01*
X656Y438D01*
X654Y438D01*
X654Y440D01*
X652Y440D01*
X652Y446D01*
X650Y446D01*
X650Y456D01*
X648Y456D01*
X648Y458D01*
X650Y458D01*
X650Y468D01*
X652Y468D01*
X652Y474D01*
X654Y474D01*
X654Y478D01*
X656Y478D01*
X656Y482D01*
X658Y482D01*
X658Y484D01*
X660Y484D01*
X660Y486D01*
X662Y486D01*
X662Y488D01*
X664Y488D01*
X664Y490D01*
X666Y490D01*
X666Y492D01*
X668Y492D01*
X668Y494D01*
X672Y494D01*
X672Y496D01*
X674Y496D01*
X674Y498D01*
X676Y498D01*
X676Y518D01*
X674Y518D01*
X674Y520D01*
X670Y520D01*
X670Y522D01*
X668Y522D01*
X668Y524D01*
X666Y524D01*
X666Y526D01*
X662Y526D01*
X662Y530D01*
X660Y530D01*
X660Y532D01*
X658Y532D01*
X658Y534D01*
X656Y534D01*
X656Y538D01*
X654Y538D01*
X654Y540D01*
X652Y540D01*
X652Y546D01*
X650Y546D01*
X650Y556D01*
X648Y556D01*
X648Y558D01*
X650Y558D01*
X650Y568D01*
X652Y568D01*
X652Y574D01*
X654Y574D01*
X654Y578D01*
X656Y578D01*
X656Y582D01*
X658Y582D01*
X658Y584D01*
X660Y584D01*
X660Y586D01*
X662Y586D01*
X662Y588D01*
X664Y588D01*
X664Y590D01*
X666Y590D01*
X666Y592D01*
X668Y592D01*
X668Y594D01*
X672Y594D01*
X672Y596D01*
X674Y596D01*
X674Y598D01*
X676Y598D01*
X676Y618D01*
X674Y618D01*
X674Y620D01*
X670Y620D01*
X670Y622D01*
X668Y622D01*
X668Y624D01*
X666Y624D01*
X666Y626D01*
X662Y626D01*
X662Y630D01*
X660Y630D01*
X660Y632D01*
X658Y632D01*
X658Y634D01*
X656Y634D01*
X656Y638D01*
X654Y638D01*
X654Y640D01*
X652Y640D01*
X652Y646D01*
X650Y646D01*
X650Y656D01*
X648Y656D01*
X648Y658D01*
X650Y658D01*
X650Y668D01*
X652Y668D01*
X652Y674D01*
X654Y674D01*
X654Y678D01*
X656Y678D01*
X656Y682D01*
X658Y682D01*
X658Y684D01*
X660Y684D01*
X660Y686D01*
X662Y686D01*
X662Y688D01*
X664Y688D01*
X664Y690D01*
X666Y690D01*
X666Y692D01*
X668Y692D01*
X668Y694D01*
X672Y694D01*
X672Y696D01*
X674Y696D01*
X674Y698D01*
X676Y698D01*
X676Y718D01*
X674Y718D01*
X674Y720D01*
X670Y720D01*
X670Y722D01*
X668Y722D01*
X668Y724D01*
X666Y724D01*
X666Y726D01*
X662Y726D01*
X662Y730D01*
X660Y730D01*
X660Y732D01*
X658Y732D01*
X658Y734D01*
X656Y734D01*
X656Y738D01*
X654Y738D01*
X654Y740D01*
X652Y740D01*
X652Y746D01*
X650Y746D01*
X650Y756D01*
X648Y756D01*
X648Y758D01*
X650Y758D01*
X650Y762D01*
X630Y762D01*
G37*
D02*
G36*
X1842Y752D02*
X1842Y746D01*
X1840Y746D01*
X1840Y740D01*
X1838Y740D01*
X1838Y736D01*
X1836Y736D01*
X1836Y734D01*
X1834Y734D01*
X1834Y730D01*
X1832Y730D01*
X1832Y728D01*
X1830Y728D01*
X1830Y726D01*
X1828Y726D01*
X1828Y724D01*
X1826Y724D01*
X1826Y722D01*
X1824Y722D01*
X1824Y720D01*
X1822Y720D01*
X1822Y718D01*
X1820Y718D01*
X1820Y696D01*
X1824Y696D01*
X1824Y694D01*
X1826Y694D01*
X1826Y692D01*
X1828Y692D01*
X1828Y690D01*
X1830Y690D01*
X1830Y688D01*
X1832Y688D01*
X1832Y684D01*
X1834Y684D01*
X1834Y682D01*
X1836Y682D01*
X1836Y678D01*
X1838Y678D01*
X1838Y674D01*
X1840Y674D01*
X1840Y670D01*
X1842Y670D01*
X1842Y646D01*
X1840Y646D01*
X1840Y640D01*
X1838Y640D01*
X1838Y636D01*
X1836Y636D01*
X1836Y634D01*
X1834Y634D01*
X1834Y630D01*
X1832Y630D01*
X1832Y628D01*
X1830Y628D01*
X1830Y626D01*
X1828Y626D01*
X1828Y624D01*
X1826Y624D01*
X1826Y622D01*
X1824Y622D01*
X1824Y620D01*
X1822Y620D01*
X1822Y618D01*
X1820Y618D01*
X1820Y596D01*
X1824Y596D01*
X1824Y594D01*
X1826Y594D01*
X1826Y592D01*
X1828Y592D01*
X1828Y590D01*
X1830Y590D01*
X1830Y588D01*
X1832Y588D01*
X1832Y584D01*
X1834Y584D01*
X1834Y582D01*
X1836Y582D01*
X1836Y578D01*
X1838Y578D01*
X1838Y574D01*
X1840Y574D01*
X1840Y570D01*
X1842Y570D01*
X1842Y546D01*
X1840Y546D01*
X1840Y540D01*
X1838Y540D01*
X1838Y536D01*
X1836Y536D01*
X1836Y534D01*
X1834Y534D01*
X1834Y530D01*
X1832Y530D01*
X1832Y528D01*
X1830Y528D01*
X1830Y526D01*
X1828Y526D01*
X1828Y524D01*
X1826Y524D01*
X1826Y522D01*
X1824Y522D01*
X1824Y520D01*
X1822Y520D01*
X1822Y518D01*
X1820Y518D01*
X1820Y516D01*
X1816Y516D01*
X1816Y514D01*
X1812Y514D01*
X1812Y512D01*
X1806Y512D01*
X1806Y510D01*
X1800Y510D01*
X1800Y508D01*
X2088Y508D01*
X2088Y510D01*
X2082Y510D01*
X2082Y512D01*
X2076Y512D01*
X2076Y514D01*
X2072Y514D01*
X2072Y516D01*
X2068Y516D01*
X2068Y518D01*
X2066Y518D01*
X2066Y520D01*
X2064Y520D01*
X2064Y522D01*
X2062Y522D01*
X2062Y524D01*
X2060Y524D01*
X2060Y526D01*
X2058Y526D01*
X2058Y528D01*
X2056Y528D01*
X2056Y530D01*
X2054Y530D01*
X2054Y534D01*
X2052Y534D01*
X2052Y536D01*
X2050Y536D01*
X2050Y540D01*
X2048Y540D01*
X2048Y546D01*
X2046Y546D01*
X2046Y556D01*
X2044Y556D01*
X2044Y558D01*
X2046Y558D01*
X2046Y570D01*
X2048Y570D01*
X2048Y574D01*
X2050Y574D01*
X2050Y578D01*
X2052Y578D01*
X2052Y582D01*
X2054Y582D01*
X2054Y584D01*
X2056Y584D01*
X2056Y588D01*
X2058Y588D01*
X2058Y590D01*
X2060Y590D01*
X2060Y592D01*
X2062Y592D01*
X2062Y594D01*
X2064Y594D01*
X2064Y596D01*
X2068Y596D01*
X2068Y618D01*
X2066Y618D01*
X2066Y620D01*
X2064Y620D01*
X2064Y622D01*
X2062Y622D01*
X2062Y624D01*
X2060Y624D01*
X2060Y626D01*
X2058Y626D01*
X2058Y628D01*
X2056Y628D01*
X2056Y630D01*
X2054Y630D01*
X2054Y634D01*
X2052Y634D01*
X2052Y636D01*
X2050Y636D01*
X2050Y640D01*
X2048Y640D01*
X2048Y646D01*
X2046Y646D01*
X2046Y652D01*
X2040Y652D01*
X2040Y654D01*
X2034Y654D01*
X2034Y656D01*
X2028Y656D01*
X2028Y658D01*
X2022Y658D01*
X2022Y660D01*
X2016Y660D01*
X2016Y662D01*
X2010Y662D01*
X2010Y664D01*
X2004Y664D01*
X2004Y666D01*
X1998Y666D01*
X1998Y668D01*
X1992Y668D01*
X1992Y670D01*
X1986Y670D01*
X1986Y672D01*
X1982Y672D01*
X1982Y674D01*
X1976Y674D01*
X1976Y676D01*
X1970Y676D01*
X1970Y678D01*
X1964Y678D01*
X1964Y680D01*
X1958Y680D01*
X1958Y682D01*
X1952Y682D01*
X1952Y684D01*
X1946Y684D01*
X1946Y686D01*
X1940Y686D01*
X1940Y688D01*
X1934Y688D01*
X1934Y690D01*
X1928Y690D01*
X1928Y692D01*
X1922Y692D01*
X1922Y694D01*
X1918Y694D01*
X1918Y696D01*
X1916Y696D01*
X1916Y698D01*
X1914Y698D01*
X1914Y700D01*
X1912Y700D01*
X1912Y702D01*
X1910Y702D01*
X1910Y704D01*
X1908Y704D01*
X1908Y706D01*
X1906Y706D01*
X1906Y708D01*
X1904Y708D01*
X1904Y710D01*
X1902Y710D01*
X1902Y712D01*
X1900Y712D01*
X1900Y714D01*
X1898Y714D01*
X1898Y716D01*
X1896Y716D01*
X1896Y718D01*
X1894Y718D01*
X1894Y720D01*
X1892Y720D01*
X1892Y722D01*
X1890Y722D01*
X1890Y724D01*
X1888Y724D01*
X1888Y726D01*
X1886Y726D01*
X1886Y728D01*
X1884Y728D01*
X1884Y730D01*
X1882Y730D01*
X1882Y732D01*
X1880Y732D01*
X1880Y734D01*
X1878Y734D01*
X1878Y736D01*
X1876Y736D01*
X1876Y738D01*
X1874Y738D01*
X1874Y740D01*
X1872Y740D01*
X1872Y742D01*
X1870Y742D01*
X1870Y744D01*
X1868Y744D01*
X1868Y746D01*
X1866Y746D01*
X1866Y748D01*
X1864Y748D01*
X1864Y750D01*
X1862Y750D01*
X1862Y752D01*
X1842Y752D01*
G37*
D02*
G36*
X1636Y736D02*
X1636Y734D01*
X1634Y734D01*
X1634Y730D01*
X1632Y730D01*
X1632Y728D01*
X1630Y728D01*
X1630Y726D01*
X1628Y726D01*
X1628Y724D01*
X1626Y724D01*
X1626Y722D01*
X1624Y722D01*
X1624Y720D01*
X1622Y720D01*
X1622Y718D01*
X1620Y718D01*
X1620Y696D01*
X1624Y696D01*
X1624Y694D01*
X1626Y694D01*
X1626Y692D01*
X1628Y692D01*
X1628Y690D01*
X1630Y690D01*
X1630Y688D01*
X1632Y688D01*
X1632Y684D01*
X1634Y684D01*
X1634Y682D01*
X1636Y682D01*
X1636Y678D01*
X1638Y678D01*
X1638Y674D01*
X1640Y674D01*
X1640Y670D01*
X1642Y670D01*
X1642Y646D01*
X1640Y646D01*
X1640Y640D01*
X1638Y640D01*
X1638Y636D01*
X1636Y636D01*
X1636Y634D01*
X1634Y634D01*
X1634Y630D01*
X1632Y630D01*
X1632Y628D01*
X1630Y628D01*
X1630Y626D01*
X1628Y626D01*
X1628Y624D01*
X1626Y624D01*
X1626Y622D01*
X1624Y622D01*
X1624Y620D01*
X1622Y620D01*
X1622Y618D01*
X1620Y618D01*
X1620Y596D01*
X1624Y596D01*
X1624Y594D01*
X1626Y594D01*
X1626Y592D01*
X1628Y592D01*
X1628Y590D01*
X1630Y590D01*
X1630Y588D01*
X1632Y588D01*
X1632Y584D01*
X1634Y584D01*
X1634Y582D01*
X1636Y582D01*
X1636Y578D01*
X1638Y578D01*
X1638Y574D01*
X1640Y574D01*
X1640Y570D01*
X1642Y570D01*
X1642Y546D01*
X1640Y546D01*
X1640Y540D01*
X1638Y540D01*
X1638Y536D01*
X1636Y536D01*
X1636Y534D01*
X1634Y534D01*
X1634Y530D01*
X1632Y530D01*
X1632Y528D01*
X1630Y528D01*
X1630Y526D01*
X1628Y526D01*
X1628Y524D01*
X1626Y524D01*
X1626Y522D01*
X1624Y522D01*
X1624Y520D01*
X1622Y520D01*
X1622Y518D01*
X1620Y518D01*
X1620Y516D01*
X1616Y516D01*
X1616Y514D01*
X1612Y514D01*
X1612Y512D01*
X1606Y512D01*
X1606Y510D01*
X1600Y510D01*
X1600Y508D01*
X1788Y508D01*
X1788Y510D01*
X1782Y510D01*
X1782Y512D01*
X1776Y512D01*
X1776Y514D01*
X1772Y514D01*
X1772Y516D01*
X1768Y516D01*
X1768Y518D01*
X1766Y518D01*
X1766Y520D01*
X1764Y520D01*
X1764Y522D01*
X1762Y522D01*
X1762Y524D01*
X1760Y524D01*
X1760Y526D01*
X1758Y526D01*
X1758Y528D01*
X1756Y528D01*
X1756Y530D01*
X1754Y530D01*
X1754Y534D01*
X1752Y534D01*
X1752Y536D01*
X1750Y536D01*
X1750Y540D01*
X1748Y540D01*
X1748Y546D01*
X1746Y546D01*
X1746Y556D01*
X1744Y556D01*
X1744Y558D01*
X1746Y558D01*
X1746Y570D01*
X1748Y570D01*
X1748Y574D01*
X1750Y574D01*
X1750Y578D01*
X1752Y578D01*
X1752Y582D01*
X1754Y582D01*
X1754Y584D01*
X1756Y584D01*
X1756Y588D01*
X1758Y588D01*
X1758Y590D01*
X1760Y590D01*
X1760Y592D01*
X1762Y592D01*
X1762Y594D01*
X1764Y594D01*
X1764Y596D01*
X1768Y596D01*
X1768Y618D01*
X1766Y618D01*
X1766Y620D01*
X1764Y620D01*
X1764Y622D01*
X1762Y622D01*
X1762Y624D01*
X1760Y624D01*
X1760Y626D01*
X1758Y626D01*
X1758Y628D01*
X1756Y628D01*
X1756Y630D01*
X1754Y630D01*
X1754Y634D01*
X1752Y634D01*
X1752Y636D01*
X1750Y636D01*
X1750Y640D01*
X1748Y640D01*
X1748Y646D01*
X1746Y646D01*
X1746Y656D01*
X1744Y656D01*
X1744Y658D01*
X1746Y658D01*
X1746Y670D01*
X1748Y670D01*
X1748Y674D01*
X1750Y674D01*
X1750Y678D01*
X1752Y678D01*
X1752Y682D01*
X1754Y682D01*
X1754Y684D01*
X1756Y684D01*
X1756Y688D01*
X1758Y688D01*
X1758Y690D01*
X1760Y690D01*
X1760Y692D01*
X1762Y692D01*
X1762Y694D01*
X1764Y694D01*
X1764Y696D01*
X1768Y696D01*
X1768Y718D01*
X1766Y718D01*
X1766Y720D01*
X1764Y720D01*
X1764Y722D01*
X1762Y722D01*
X1762Y724D01*
X1760Y724D01*
X1760Y726D01*
X1758Y726D01*
X1758Y728D01*
X1756Y728D01*
X1756Y730D01*
X1754Y730D01*
X1754Y734D01*
X1752Y734D01*
X1752Y736D01*
X1636Y736D01*
G37*
D02*
G36*
X1314Y720D02*
X1314Y718D01*
X1312Y718D01*
X1312Y698D01*
X1314Y698D01*
X1314Y696D01*
X1316Y696D01*
X1316Y694D01*
X1320Y694D01*
X1320Y692D01*
X1322Y692D01*
X1322Y690D01*
X1324Y690D01*
X1324Y688D01*
X1326Y688D01*
X1326Y686D01*
X1328Y686D01*
X1328Y684D01*
X1330Y684D01*
X1330Y680D01*
X1332Y680D01*
X1332Y678D01*
X1334Y678D01*
X1334Y674D01*
X1336Y674D01*
X1336Y668D01*
X1338Y668D01*
X1338Y646D01*
X1336Y646D01*
X1336Y642D01*
X1334Y642D01*
X1334Y638D01*
X1332Y638D01*
X1332Y634D01*
X1330Y634D01*
X1330Y632D01*
X1328Y632D01*
X1328Y630D01*
X1326Y630D01*
X1326Y626D01*
X1322Y626D01*
X1322Y624D01*
X1320Y624D01*
X1320Y622D01*
X1318Y622D01*
X1318Y620D01*
X1314Y620D01*
X1314Y618D01*
X1312Y618D01*
X1312Y598D01*
X1314Y598D01*
X1314Y596D01*
X1316Y596D01*
X1316Y594D01*
X1320Y594D01*
X1320Y592D01*
X1322Y592D01*
X1322Y590D01*
X1324Y590D01*
X1324Y588D01*
X1326Y588D01*
X1326Y586D01*
X1328Y586D01*
X1328Y584D01*
X1330Y584D01*
X1330Y580D01*
X1332Y580D01*
X1332Y578D01*
X1334Y578D01*
X1334Y574D01*
X1336Y574D01*
X1336Y568D01*
X1338Y568D01*
X1338Y546D01*
X1336Y546D01*
X1336Y542D01*
X1334Y542D01*
X1334Y538D01*
X1332Y538D01*
X1332Y534D01*
X1330Y534D01*
X1330Y532D01*
X1328Y532D01*
X1328Y530D01*
X1326Y530D01*
X1326Y526D01*
X1322Y526D01*
X1322Y524D01*
X1320Y524D01*
X1320Y522D01*
X1318Y522D01*
X1318Y520D01*
X1314Y520D01*
X1314Y518D01*
X1312Y518D01*
X1312Y508D01*
X1588Y508D01*
X1588Y510D01*
X1582Y510D01*
X1582Y512D01*
X1576Y512D01*
X1576Y514D01*
X1572Y514D01*
X1572Y516D01*
X1568Y516D01*
X1568Y518D01*
X1566Y518D01*
X1566Y520D01*
X1564Y520D01*
X1564Y522D01*
X1562Y522D01*
X1562Y524D01*
X1560Y524D01*
X1560Y526D01*
X1558Y526D01*
X1558Y528D01*
X1556Y528D01*
X1556Y530D01*
X1554Y530D01*
X1554Y534D01*
X1552Y534D01*
X1552Y536D01*
X1550Y536D01*
X1550Y540D01*
X1548Y540D01*
X1548Y546D01*
X1546Y546D01*
X1546Y556D01*
X1544Y556D01*
X1544Y558D01*
X1546Y558D01*
X1546Y570D01*
X1548Y570D01*
X1548Y574D01*
X1550Y574D01*
X1550Y578D01*
X1552Y578D01*
X1552Y582D01*
X1554Y582D01*
X1554Y584D01*
X1556Y584D01*
X1556Y588D01*
X1558Y588D01*
X1558Y590D01*
X1560Y590D01*
X1560Y592D01*
X1562Y592D01*
X1562Y594D01*
X1564Y594D01*
X1564Y596D01*
X1568Y596D01*
X1568Y618D01*
X1566Y618D01*
X1566Y620D01*
X1564Y620D01*
X1564Y622D01*
X1562Y622D01*
X1562Y624D01*
X1560Y624D01*
X1560Y626D01*
X1558Y626D01*
X1558Y628D01*
X1556Y628D01*
X1556Y630D01*
X1554Y630D01*
X1554Y634D01*
X1552Y634D01*
X1552Y636D01*
X1550Y636D01*
X1550Y640D01*
X1548Y640D01*
X1548Y646D01*
X1546Y646D01*
X1546Y650D01*
X1544Y650D01*
X1544Y652D01*
X1538Y652D01*
X1538Y654D01*
X1532Y654D01*
X1532Y656D01*
X1526Y656D01*
X1526Y658D01*
X1520Y658D01*
X1520Y660D01*
X1514Y660D01*
X1514Y662D01*
X1508Y662D01*
X1508Y664D01*
X1502Y664D01*
X1502Y666D01*
X1496Y666D01*
X1496Y668D01*
X1490Y668D01*
X1490Y670D01*
X1484Y670D01*
X1484Y672D01*
X1478Y672D01*
X1478Y674D01*
X1472Y674D01*
X1472Y676D01*
X1466Y676D01*
X1466Y678D01*
X1460Y678D01*
X1460Y680D01*
X1454Y680D01*
X1454Y682D01*
X1448Y682D01*
X1448Y684D01*
X1442Y684D01*
X1442Y686D01*
X1436Y686D01*
X1436Y688D01*
X1430Y688D01*
X1430Y690D01*
X1424Y690D01*
X1424Y692D01*
X1418Y692D01*
X1418Y694D01*
X1412Y694D01*
X1412Y696D01*
X1406Y696D01*
X1406Y698D01*
X1400Y698D01*
X1400Y700D01*
X1394Y700D01*
X1394Y702D01*
X1388Y702D01*
X1388Y704D01*
X1382Y704D01*
X1382Y706D01*
X1376Y706D01*
X1376Y708D01*
X1370Y708D01*
X1370Y710D01*
X1364Y710D01*
X1364Y712D01*
X1358Y712D01*
X1358Y714D01*
X1352Y714D01*
X1352Y716D01*
X1346Y716D01*
X1346Y718D01*
X1340Y718D01*
X1340Y720D01*
X1314Y720D01*
G37*
D02*
G36*
X10Y608D02*
X10Y606D01*
X508Y606D01*
X508Y608D01*
X10Y608D01*
G37*
D02*
G36*
X10Y608D02*
X10Y606D01*
X508Y606D01*
X508Y608D01*
X10Y608D01*
G37*
D02*
G36*
X10Y606D02*
X10Y506D01*
X404Y506D01*
X404Y504D01*
X410Y504D01*
X410Y502D01*
X414Y502D01*
X414Y500D01*
X418Y500D01*
X418Y498D01*
X420Y498D01*
X420Y496D01*
X424Y496D01*
X424Y494D01*
X426Y494D01*
X426Y492D01*
X428Y492D01*
X428Y490D01*
X430Y490D01*
X430Y488D01*
X432Y488D01*
X432Y484D01*
X452Y484D01*
X452Y490D01*
X454Y490D01*
X454Y494D01*
X456Y494D01*
X456Y498D01*
X458Y498D01*
X458Y502D01*
X460Y502D01*
X460Y506D01*
X462Y506D01*
X462Y510D01*
X464Y510D01*
X464Y514D01*
X466Y514D01*
X466Y518D01*
X468Y518D01*
X468Y522D01*
X470Y522D01*
X470Y528D01*
X472Y528D01*
X472Y532D01*
X474Y532D01*
X474Y536D01*
X476Y536D01*
X476Y540D01*
X478Y540D01*
X478Y544D01*
X480Y544D01*
X480Y548D01*
X482Y548D01*
X482Y552D01*
X484Y552D01*
X484Y556D01*
X486Y556D01*
X486Y562D01*
X488Y562D01*
X488Y566D01*
X490Y566D01*
X490Y570D01*
X492Y570D01*
X492Y574D01*
X494Y574D01*
X494Y578D01*
X496Y578D01*
X496Y582D01*
X498Y582D01*
X498Y586D01*
X500Y586D01*
X500Y590D01*
X502Y590D01*
X502Y594D01*
X504Y594D01*
X504Y600D01*
X506Y600D01*
X506Y604D01*
X508Y604D01*
X508Y606D01*
X10Y606D01*
G37*
D02*
G36*
X738Y562D02*
X738Y546D01*
X736Y546D01*
X736Y542D01*
X734Y542D01*
X734Y538D01*
X732Y538D01*
X732Y534D01*
X730Y534D01*
X730Y532D01*
X728Y532D01*
X728Y530D01*
X726Y530D01*
X726Y526D01*
X722Y526D01*
X722Y524D01*
X720Y524D01*
X720Y522D01*
X718Y522D01*
X718Y520D01*
X714Y520D01*
X714Y518D01*
X712Y518D01*
X712Y498D01*
X714Y498D01*
X714Y496D01*
X716Y496D01*
X716Y494D01*
X720Y494D01*
X720Y492D01*
X722Y492D01*
X722Y490D01*
X724Y490D01*
X724Y488D01*
X726Y488D01*
X726Y486D01*
X728Y486D01*
X728Y484D01*
X730Y484D01*
X730Y480D01*
X732Y480D01*
X732Y478D01*
X734Y478D01*
X734Y474D01*
X736Y474D01*
X736Y468D01*
X738Y468D01*
X738Y446D01*
X736Y446D01*
X736Y442D01*
X734Y442D01*
X734Y438D01*
X732Y438D01*
X732Y434D01*
X730Y434D01*
X730Y432D01*
X728Y432D01*
X728Y430D01*
X726Y430D01*
X726Y426D01*
X722Y426D01*
X722Y424D01*
X720Y424D01*
X720Y422D01*
X718Y422D01*
X718Y420D01*
X714Y420D01*
X714Y418D01*
X712Y418D01*
X712Y416D01*
X706Y416D01*
X706Y414D01*
X700Y414D01*
X700Y412D01*
X906Y412D01*
X906Y414D01*
X904Y414D01*
X904Y416D01*
X902Y416D01*
X902Y418D01*
X900Y418D01*
X900Y420D01*
X898Y420D01*
X898Y422D01*
X896Y422D01*
X896Y424D01*
X894Y424D01*
X894Y426D01*
X892Y426D01*
X892Y428D01*
X890Y428D01*
X890Y430D01*
X888Y430D01*
X888Y432D01*
X886Y432D01*
X886Y434D01*
X884Y434D01*
X884Y436D01*
X882Y436D01*
X882Y438D01*
X880Y438D01*
X880Y440D01*
X878Y440D01*
X878Y442D01*
X876Y442D01*
X876Y444D01*
X874Y444D01*
X874Y446D01*
X872Y446D01*
X872Y448D01*
X870Y448D01*
X870Y450D01*
X868Y450D01*
X868Y452D01*
X866Y452D01*
X866Y454D01*
X864Y454D01*
X864Y456D01*
X862Y456D01*
X862Y458D01*
X860Y458D01*
X860Y460D01*
X858Y460D01*
X858Y462D01*
X856Y462D01*
X856Y464D01*
X854Y464D01*
X854Y466D01*
X852Y466D01*
X852Y468D01*
X850Y468D01*
X850Y470D01*
X848Y470D01*
X848Y472D01*
X846Y472D01*
X846Y474D01*
X844Y474D01*
X844Y476D01*
X842Y476D01*
X842Y478D01*
X840Y478D01*
X840Y480D01*
X838Y480D01*
X838Y482D01*
X836Y482D01*
X836Y484D01*
X834Y484D01*
X834Y486D01*
X832Y486D01*
X832Y488D01*
X830Y488D01*
X830Y490D01*
X828Y490D01*
X828Y492D01*
X826Y492D01*
X826Y494D01*
X824Y494D01*
X824Y496D01*
X822Y496D01*
X822Y498D01*
X820Y498D01*
X820Y500D01*
X818Y500D01*
X818Y502D01*
X816Y502D01*
X816Y504D01*
X814Y504D01*
X814Y506D01*
X812Y506D01*
X812Y508D01*
X810Y508D01*
X810Y510D01*
X808Y510D01*
X808Y512D01*
X806Y512D01*
X806Y514D01*
X804Y514D01*
X804Y516D01*
X802Y516D01*
X802Y518D01*
X800Y518D01*
X800Y520D01*
X798Y520D01*
X798Y522D01*
X796Y522D01*
X796Y524D01*
X794Y524D01*
X794Y526D01*
X792Y526D01*
X792Y528D01*
X790Y528D01*
X790Y530D01*
X788Y530D01*
X788Y532D01*
X786Y532D01*
X786Y534D01*
X784Y534D01*
X784Y536D01*
X782Y536D01*
X782Y538D01*
X780Y538D01*
X780Y540D01*
X778Y540D01*
X778Y542D01*
X776Y542D01*
X776Y544D01*
X774Y544D01*
X774Y546D01*
X772Y546D01*
X772Y548D01*
X770Y548D01*
X770Y550D01*
X768Y550D01*
X768Y552D01*
X766Y552D01*
X766Y554D01*
X764Y554D01*
X764Y556D01*
X762Y556D01*
X762Y558D01*
X760Y558D01*
X760Y560D01*
X758Y560D01*
X758Y562D01*
X738Y562D01*
G37*
D02*
G36*
X1312Y508D02*
X1312Y506D01*
X2518Y506D01*
X2518Y508D01*
X1312Y508D01*
G37*
D02*
G36*
X1312Y508D02*
X1312Y506D01*
X2518Y506D01*
X2518Y508D01*
X1312Y508D01*
G37*
D02*
G36*
X1312Y508D02*
X1312Y506D01*
X2518Y506D01*
X2518Y508D01*
X1312Y508D01*
G37*
D02*
G36*
X1312Y508D02*
X1312Y506D01*
X2518Y506D01*
X2518Y508D01*
X1312Y508D01*
G37*
D02*
G36*
X1312Y508D02*
X1312Y506D01*
X2518Y506D01*
X2518Y508D01*
X1312Y508D01*
G37*
D02*
G36*
X10Y506D02*
X10Y210D01*
X106Y210D01*
X106Y208D01*
X388Y208D01*
X388Y210D01*
X382Y210D01*
X382Y212D01*
X376Y212D01*
X376Y214D01*
X372Y214D01*
X372Y216D01*
X368Y216D01*
X368Y218D01*
X366Y218D01*
X366Y220D01*
X364Y220D01*
X364Y222D01*
X362Y222D01*
X362Y224D01*
X360Y224D01*
X360Y226D01*
X358Y226D01*
X358Y228D01*
X356Y228D01*
X356Y230D01*
X354Y230D01*
X354Y234D01*
X352Y234D01*
X352Y236D01*
X350Y236D01*
X350Y240D01*
X348Y240D01*
X348Y246D01*
X346Y246D01*
X346Y256D01*
X344Y256D01*
X344Y258D01*
X346Y258D01*
X346Y270D01*
X348Y270D01*
X348Y274D01*
X350Y274D01*
X350Y278D01*
X352Y278D01*
X352Y282D01*
X354Y282D01*
X354Y284D01*
X356Y284D01*
X356Y288D01*
X358Y288D01*
X358Y290D01*
X360Y290D01*
X360Y292D01*
X362Y292D01*
X362Y294D01*
X364Y294D01*
X364Y296D01*
X368Y296D01*
X368Y318D01*
X366Y318D01*
X366Y320D01*
X364Y320D01*
X364Y322D01*
X362Y322D01*
X362Y324D01*
X360Y324D01*
X360Y326D01*
X358Y326D01*
X358Y328D01*
X356Y328D01*
X356Y330D01*
X354Y330D01*
X354Y334D01*
X352Y334D01*
X352Y336D01*
X350Y336D01*
X350Y340D01*
X348Y340D01*
X348Y346D01*
X346Y346D01*
X346Y356D01*
X344Y356D01*
X344Y358D01*
X346Y358D01*
X346Y370D01*
X348Y370D01*
X348Y374D01*
X350Y374D01*
X350Y378D01*
X352Y378D01*
X352Y382D01*
X354Y382D01*
X354Y384D01*
X356Y384D01*
X356Y388D01*
X358Y388D01*
X358Y390D01*
X360Y390D01*
X360Y392D01*
X362Y392D01*
X362Y394D01*
X364Y394D01*
X364Y396D01*
X368Y396D01*
X368Y418D01*
X366Y418D01*
X366Y420D01*
X364Y420D01*
X364Y422D01*
X362Y422D01*
X362Y424D01*
X360Y424D01*
X360Y426D01*
X358Y426D01*
X358Y428D01*
X356Y428D01*
X356Y430D01*
X354Y430D01*
X354Y434D01*
X352Y434D01*
X352Y436D01*
X350Y436D01*
X350Y440D01*
X348Y440D01*
X348Y446D01*
X346Y446D01*
X346Y456D01*
X344Y456D01*
X344Y458D01*
X346Y458D01*
X346Y470D01*
X348Y470D01*
X348Y474D01*
X350Y474D01*
X350Y478D01*
X352Y478D01*
X352Y482D01*
X354Y482D01*
X354Y484D01*
X356Y484D01*
X356Y488D01*
X358Y488D01*
X358Y490D01*
X360Y490D01*
X360Y492D01*
X362Y492D01*
X362Y494D01*
X364Y494D01*
X364Y496D01*
X368Y496D01*
X368Y498D01*
X370Y498D01*
X370Y500D01*
X374Y500D01*
X374Y502D01*
X378Y502D01*
X378Y504D01*
X384Y504D01*
X384Y506D01*
X10Y506D01*
G37*
D02*
G36*
X1312Y506D02*
X1312Y498D01*
X1314Y498D01*
X1314Y496D01*
X1316Y496D01*
X1316Y494D01*
X1320Y494D01*
X1320Y492D01*
X1322Y492D01*
X1322Y490D01*
X1324Y490D01*
X1324Y488D01*
X1326Y488D01*
X1326Y486D01*
X1328Y486D01*
X1328Y484D01*
X1330Y484D01*
X1330Y480D01*
X1332Y480D01*
X1332Y478D01*
X1334Y478D01*
X1334Y474D01*
X1336Y474D01*
X1336Y468D01*
X1338Y468D01*
X1338Y446D01*
X1336Y446D01*
X1336Y442D01*
X1334Y442D01*
X1334Y438D01*
X1332Y438D01*
X1332Y434D01*
X1330Y434D01*
X1330Y432D01*
X1328Y432D01*
X1328Y412D01*
X1338Y412D01*
X1338Y410D01*
X1348Y410D01*
X1348Y408D01*
X1358Y408D01*
X1358Y406D01*
X2004Y406D01*
X2004Y404D01*
X2010Y404D01*
X2010Y402D01*
X2014Y402D01*
X2014Y400D01*
X2018Y400D01*
X2018Y398D01*
X2020Y398D01*
X2020Y396D01*
X2024Y396D01*
X2024Y394D01*
X2026Y394D01*
X2026Y392D01*
X2028Y392D01*
X2028Y390D01*
X2030Y390D01*
X2030Y388D01*
X2032Y388D01*
X2032Y384D01*
X2034Y384D01*
X2034Y382D01*
X2036Y382D01*
X2036Y378D01*
X2038Y378D01*
X2038Y374D01*
X2040Y374D01*
X2040Y370D01*
X2042Y370D01*
X2042Y346D01*
X2040Y346D01*
X2040Y340D01*
X2038Y340D01*
X2038Y336D01*
X2036Y336D01*
X2036Y334D01*
X2034Y334D01*
X2034Y330D01*
X2032Y330D01*
X2032Y328D01*
X2030Y328D01*
X2030Y326D01*
X2028Y326D01*
X2028Y324D01*
X2026Y324D01*
X2026Y322D01*
X2024Y322D01*
X2024Y320D01*
X2022Y320D01*
X2022Y318D01*
X2020Y318D01*
X2020Y296D01*
X2024Y296D01*
X2024Y294D01*
X2026Y294D01*
X2026Y292D01*
X2028Y292D01*
X2028Y290D01*
X2030Y290D01*
X2030Y288D01*
X2032Y288D01*
X2032Y284D01*
X2034Y284D01*
X2034Y282D01*
X2036Y282D01*
X2036Y278D01*
X2038Y278D01*
X2038Y274D01*
X2040Y274D01*
X2040Y270D01*
X2042Y270D01*
X2042Y246D01*
X2040Y246D01*
X2040Y240D01*
X2038Y240D01*
X2038Y236D01*
X2036Y236D01*
X2036Y234D01*
X2034Y234D01*
X2034Y230D01*
X2032Y230D01*
X2032Y228D01*
X2030Y228D01*
X2030Y226D01*
X2028Y226D01*
X2028Y224D01*
X2026Y224D01*
X2026Y222D01*
X2024Y222D01*
X2024Y220D01*
X2022Y220D01*
X2022Y218D01*
X2020Y218D01*
X2020Y210D01*
X2406Y210D01*
X2406Y208D01*
X2412Y208D01*
X2412Y206D01*
X2416Y206D01*
X2416Y204D01*
X2420Y204D01*
X2420Y202D01*
X2424Y202D01*
X2424Y200D01*
X2426Y200D01*
X2426Y198D01*
X2428Y198D01*
X2428Y196D01*
X2430Y196D01*
X2430Y194D01*
X2432Y194D01*
X2432Y192D01*
X2434Y192D01*
X2434Y190D01*
X2436Y190D01*
X2436Y188D01*
X2438Y188D01*
X2438Y184D01*
X2440Y184D01*
X2440Y182D01*
X2442Y182D01*
X2442Y178D01*
X2444Y178D01*
X2444Y172D01*
X2446Y172D01*
X2446Y162D01*
X2448Y162D01*
X2448Y152D01*
X2446Y152D01*
X2446Y144D01*
X2444Y144D01*
X2444Y138D01*
X2442Y138D01*
X2442Y134D01*
X2440Y134D01*
X2440Y130D01*
X2438Y130D01*
X2438Y128D01*
X2436Y128D01*
X2436Y126D01*
X2434Y126D01*
X2434Y122D01*
X2432Y122D01*
X2432Y120D01*
X2430Y120D01*
X2430Y118D01*
X2428Y118D01*
X2428Y116D01*
X2424Y116D01*
X2424Y114D01*
X2422Y114D01*
X2422Y112D01*
X2418Y112D01*
X2418Y110D01*
X2414Y110D01*
X2414Y108D01*
X2410Y108D01*
X2410Y106D01*
X2402Y106D01*
X2402Y104D01*
X2518Y104D01*
X2518Y506D01*
X1312Y506D01*
G37*
D02*
G36*
X464Y412D02*
X464Y410D01*
X908Y410D01*
X908Y412D01*
X464Y412D01*
G37*
D02*
G36*
X464Y412D02*
X464Y410D01*
X908Y410D01*
X908Y412D01*
X464Y412D01*
G37*
D02*
G36*
X464Y410D02*
X464Y408D01*
X462Y408D01*
X462Y402D01*
X460Y402D01*
X460Y398D01*
X458Y398D01*
X458Y394D01*
X456Y394D01*
X456Y390D01*
X454Y390D01*
X454Y386D01*
X452Y386D01*
X452Y382D01*
X450Y382D01*
X450Y378D01*
X448Y378D01*
X448Y376D01*
X446Y376D01*
X446Y374D01*
X444Y374D01*
X444Y372D01*
X442Y372D01*
X442Y348D01*
X590Y348D01*
X590Y346D01*
X596Y346D01*
X596Y344D01*
X600Y344D01*
X600Y342D01*
X602Y342D01*
X602Y340D01*
X606Y340D01*
X606Y338D01*
X608Y338D01*
X608Y334D01*
X986Y334D01*
X986Y336D01*
X982Y336D01*
X982Y338D01*
X980Y338D01*
X980Y340D01*
X978Y340D01*
X978Y342D01*
X976Y342D01*
X976Y344D01*
X974Y344D01*
X974Y346D01*
X972Y346D01*
X972Y348D01*
X970Y348D01*
X970Y350D01*
X968Y350D01*
X968Y352D01*
X966Y352D01*
X966Y354D01*
X964Y354D01*
X964Y356D01*
X962Y356D01*
X962Y358D01*
X960Y358D01*
X960Y360D01*
X958Y360D01*
X958Y362D01*
X956Y362D01*
X956Y364D01*
X954Y364D01*
X954Y366D01*
X952Y366D01*
X952Y368D01*
X950Y368D01*
X950Y370D01*
X948Y370D01*
X948Y372D01*
X946Y372D01*
X946Y374D01*
X944Y374D01*
X944Y376D01*
X942Y376D01*
X942Y378D01*
X940Y378D01*
X940Y380D01*
X938Y380D01*
X938Y382D01*
X936Y382D01*
X936Y384D01*
X934Y384D01*
X934Y386D01*
X932Y386D01*
X932Y388D01*
X930Y388D01*
X930Y390D01*
X928Y390D01*
X928Y392D01*
X926Y392D01*
X926Y394D01*
X924Y394D01*
X924Y396D01*
X922Y396D01*
X922Y398D01*
X920Y398D01*
X920Y400D01*
X918Y400D01*
X918Y402D01*
X916Y402D01*
X916Y404D01*
X914Y404D01*
X914Y406D01*
X912Y406D01*
X912Y408D01*
X910Y408D01*
X910Y410D01*
X464Y410D01*
G37*
D02*
G36*
X1368Y406D02*
X1368Y404D01*
X1378Y404D01*
X1378Y402D01*
X1388Y402D01*
X1388Y400D01*
X1398Y400D01*
X1398Y398D01*
X1408Y398D01*
X1408Y396D01*
X1418Y396D01*
X1418Y394D01*
X1428Y394D01*
X1428Y392D01*
X1438Y392D01*
X1438Y390D01*
X1448Y390D01*
X1448Y388D01*
X1458Y388D01*
X1458Y386D01*
X1468Y386D01*
X1468Y384D01*
X1478Y384D01*
X1478Y382D01*
X1488Y382D01*
X1488Y380D01*
X1498Y380D01*
X1498Y378D01*
X1508Y378D01*
X1508Y376D01*
X1518Y376D01*
X1518Y374D01*
X1528Y374D01*
X1528Y372D01*
X1538Y372D01*
X1538Y370D01*
X1548Y370D01*
X1548Y368D01*
X1558Y368D01*
X1558Y366D01*
X1568Y366D01*
X1568Y364D01*
X1578Y364D01*
X1578Y362D01*
X1588Y362D01*
X1588Y360D01*
X1598Y360D01*
X1598Y358D01*
X1608Y358D01*
X1608Y356D01*
X1618Y356D01*
X1618Y354D01*
X1628Y354D01*
X1628Y352D01*
X1638Y352D01*
X1638Y350D01*
X1648Y350D01*
X1648Y348D01*
X1658Y348D01*
X1658Y346D01*
X1668Y346D01*
X1668Y344D01*
X1678Y344D01*
X1678Y342D01*
X1688Y342D01*
X1688Y340D01*
X1698Y340D01*
X1698Y338D01*
X1708Y338D01*
X1708Y336D01*
X1718Y336D01*
X1718Y334D01*
X1728Y334D01*
X1728Y332D01*
X1738Y332D01*
X1738Y330D01*
X1748Y330D01*
X1748Y328D01*
X1758Y328D01*
X1758Y326D01*
X1768Y326D01*
X1768Y324D01*
X1778Y324D01*
X1778Y322D01*
X1788Y322D01*
X1788Y320D01*
X1798Y320D01*
X1798Y318D01*
X1808Y318D01*
X1808Y316D01*
X1818Y316D01*
X1818Y314D01*
X1828Y314D01*
X1828Y312D01*
X1838Y312D01*
X1838Y310D01*
X1848Y310D01*
X1848Y308D01*
X1858Y308D01*
X1858Y306D01*
X1868Y306D01*
X1868Y304D01*
X1878Y304D01*
X1878Y302D01*
X1888Y302D01*
X1888Y300D01*
X1898Y300D01*
X1898Y298D01*
X1908Y298D01*
X1908Y296D01*
X1918Y296D01*
X1918Y294D01*
X1928Y294D01*
X1928Y292D01*
X1938Y292D01*
X1938Y290D01*
X1960Y290D01*
X1960Y292D01*
X1962Y292D01*
X1962Y294D01*
X1964Y294D01*
X1964Y296D01*
X1968Y296D01*
X1968Y318D01*
X1966Y318D01*
X1966Y320D01*
X1964Y320D01*
X1964Y322D01*
X1962Y322D01*
X1962Y324D01*
X1960Y324D01*
X1960Y326D01*
X1958Y326D01*
X1958Y328D01*
X1956Y328D01*
X1956Y330D01*
X1954Y330D01*
X1954Y334D01*
X1952Y334D01*
X1952Y336D01*
X1950Y336D01*
X1950Y340D01*
X1948Y340D01*
X1948Y346D01*
X1946Y346D01*
X1946Y356D01*
X1944Y356D01*
X1944Y358D01*
X1946Y358D01*
X1946Y370D01*
X1948Y370D01*
X1948Y374D01*
X1950Y374D01*
X1950Y378D01*
X1952Y378D01*
X1952Y382D01*
X1954Y382D01*
X1954Y384D01*
X1956Y384D01*
X1956Y388D01*
X1958Y388D01*
X1958Y390D01*
X1960Y390D01*
X1960Y392D01*
X1962Y392D01*
X1962Y394D01*
X1964Y394D01*
X1964Y396D01*
X1968Y396D01*
X1968Y398D01*
X1970Y398D01*
X1970Y400D01*
X1974Y400D01*
X1974Y402D01*
X1978Y402D01*
X1978Y404D01*
X1984Y404D01*
X1984Y406D01*
X1368Y406D01*
G37*
D02*
G36*
X442Y348D02*
X442Y346D01*
X440Y346D01*
X440Y340D01*
X438Y340D01*
X438Y336D01*
X436Y336D01*
X436Y334D01*
X434Y334D01*
X434Y330D01*
X432Y330D01*
X432Y328D01*
X430Y328D01*
X430Y326D01*
X428Y326D01*
X428Y324D01*
X426Y324D01*
X426Y322D01*
X424Y322D01*
X424Y320D01*
X422Y320D01*
X422Y318D01*
X420Y318D01*
X420Y296D01*
X424Y296D01*
X424Y294D01*
X426Y294D01*
X426Y292D01*
X428Y292D01*
X428Y290D01*
X430Y290D01*
X430Y288D01*
X432Y288D01*
X432Y284D01*
X434Y284D01*
X434Y282D01*
X436Y282D01*
X436Y278D01*
X438Y278D01*
X438Y274D01*
X440Y274D01*
X440Y270D01*
X442Y270D01*
X442Y246D01*
X440Y246D01*
X440Y240D01*
X438Y240D01*
X438Y236D01*
X436Y236D01*
X436Y234D01*
X434Y234D01*
X434Y230D01*
X432Y230D01*
X432Y228D01*
X430Y228D01*
X430Y226D01*
X428Y226D01*
X428Y224D01*
X426Y224D01*
X426Y222D01*
X424Y222D01*
X424Y220D01*
X422Y220D01*
X422Y218D01*
X420Y218D01*
X420Y216D01*
X416Y216D01*
X416Y214D01*
X412Y214D01*
X412Y212D01*
X406Y212D01*
X406Y210D01*
X400Y210D01*
X400Y208D01*
X570Y208D01*
X570Y218D01*
X568Y218D01*
X568Y262D01*
X566Y262D01*
X566Y298D01*
X564Y298D01*
X564Y302D01*
X562Y302D01*
X562Y304D01*
X560Y304D01*
X560Y308D01*
X558Y308D01*
X558Y316D01*
X556Y316D01*
X556Y320D01*
X558Y320D01*
X558Y328D01*
X560Y328D01*
X560Y332D01*
X562Y332D01*
X562Y334D01*
X564Y334D01*
X564Y336D01*
X566Y336D01*
X566Y338D01*
X568Y338D01*
X568Y340D01*
X570Y340D01*
X570Y342D01*
X572Y342D01*
X572Y344D01*
X576Y344D01*
X576Y346D01*
X584Y346D01*
X584Y348D01*
X442Y348D01*
G37*
D02*
G36*
X1162Y336D02*
X1162Y334D01*
X1184Y334D01*
X1184Y336D01*
X1162Y336D01*
G37*
D02*
G36*
X610Y334D02*
X610Y332D01*
X1186Y332D01*
X1186Y334D01*
X610Y334D01*
G37*
D02*
G36*
X610Y334D02*
X610Y332D01*
X1186Y332D01*
X1186Y334D01*
X610Y334D01*
G37*
D02*
G36*
X612Y332D02*
X612Y330D01*
X614Y330D01*
X614Y324D01*
X616Y324D01*
X616Y312D01*
X614Y312D01*
X614Y306D01*
X612Y306D01*
X612Y302D01*
X610Y302D01*
X610Y262D01*
X612Y262D01*
X612Y218D01*
X614Y218D01*
X614Y178D01*
X1112Y178D01*
X1112Y180D01*
X1252Y180D01*
X1252Y182D01*
X1254Y182D01*
X1254Y184D01*
X1256Y184D01*
X1256Y188D01*
X1258Y188D01*
X1258Y190D01*
X1260Y190D01*
X1260Y192D01*
X1262Y192D01*
X1262Y194D01*
X1264Y194D01*
X1264Y196D01*
X1268Y196D01*
X1268Y198D01*
X1270Y198D01*
X1270Y200D01*
X1274Y200D01*
X1274Y202D01*
X1278Y202D01*
X1278Y204D01*
X1284Y204D01*
X1284Y206D01*
X1296Y206D01*
X1296Y226D01*
X1294Y226D01*
X1294Y228D01*
X1292Y228D01*
X1292Y230D01*
X1290Y230D01*
X1290Y232D01*
X1288Y232D01*
X1288Y234D01*
X1286Y234D01*
X1286Y236D01*
X1284Y236D01*
X1284Y238D01*
X1282Y238D01*
X1282Y240D01*
X1280Y240D01*
X1280Y242D01*
X1278Y242D01*
X1278Y244D01*
X1276Y244D01*
X1276Y246D01*
X1274Y246D01*
X1274Y248D01*
X1272Y248D01*
X1272Y250D01*
X1270Y250D01*
X1270Y252D01*
X1268Y252D01*
X1268Y254D01*
X1266Y254D01*
X1266Y256D01*
X1264Y256D01*
X1264Y258D01*
X1262Y258D01*
X1262Y260D01*
X1260Y260D01*
X1260Y262D01*
X1256Y262D01*
X1256Y264D01*
X1254Y264D01*
X1254Y266D01*
X1252Y266D01*
X1252Y268D01*
X1250Y268D01*
X1250Y270D01*
X1248Y270D01*
X1248Y272D01*
X1246Y272D01*
X1246Y274D01*
X1244Y274D01*
X1244Y276D01*
X1242Y276D01*
X1242Y278D01*
X1240Y278D01*
X1240Y280D01*
X1238Y280D01*
X1238Y282D01*
X1236Y282D01*
X1236Y284D01*
X1234Y284D01*
X1234Y286D01*
X1232Y286D01*
X1232Y288D01*
X1230Y288D01*
X1230Y290D01*
X1228Y290D01*
X1228Y292D01*
X1226Y292D01*
X1226Y294D01*
X1224Y294D01*
X1224Y296D01*
X1222Y296D01*
X1222Y298D01*
X1220Y298D01*
X1220Y300D01*
X1218Y300D01*
X1218Y302D01*
X1216Y302D01*
X1216Y304D01*
X1214Y304D01*
X1214Y306D01*
X1212Y306D01*
X1212Y308D01*
X1210Y308D01*
X1210Y310D01*
X1208Y310D01*
X1208Y312D01*
X1206Y312D01*
X1206Y314D01*
X1204Y314D01*
X1204Y316D01*
X1202Y316D01*
X1202Y318D01*
X1200Y318D01*
X1200Y320D01*
X1198Y320D01*
X1198Y322D01*
X1196Y322D01*
X1196Y324D01*
X1194Y324D01*
X1194Y326D01*
X1192Y326D01*
X1192Y328D01*
X1190Y328D01*
X1190Y330D01*
X1188Y330D01*
X1188Y332D01*
X612Y332D01*
G37*
D02*
G36*
X10Y210D02*
X10Y104D01*
X86Y104D01*
X86Y106D01*
X78Y106D01*
X78Y108D01*
X74Y108D01*
X74Y110D01*
X70Y110D01*
X70Y112D01*
X66Y112D01*
X66Y114D01*
X64Y114D01*
X64Y116D01*
X60Y116D01*
X60Y118D01*
X58Y118D01*
X58Y120D01*
X56Y120D01*
X56Y122D01*
X54Y122D01*
X54Y124D01*
X52Y124D01*
X52Y128D01*
X50Y128D01*
X50Y130D01*
X48Y130D01*
X48Y134D01*
X46Y134D01*
X46Y138D01*
X44Y138D01*
X44Y142D01*
X42Y142D01*
X42Y152D01*
X40Y152D01*
X40Y164D01*
X42Y164D01*
X42Y172D01*
X44Y172D01*
X44Y178D01*
X46Y178D01*
X46Y182D01*
X48Y182D01*
X48Y184D01*
X50Y184D01*
X50Y188D01*
X52Y188D01*
X52Y190D01*
X54Y190D01*
X54Y192D01*
X56Y192D01*
X56Y194D01*
X58Y194D01*
X58Y196D01*
X60Y196D01*
X60Y198D01*
X62Y198D01*
X62Y200D01*
X64Y200D01*
X64Y202D01*
X68Y202D01*
X68Y204D01*
X72Y204D01*
X72Y206D01*
X76Y206D01*
X76Y208D01*
X80Y208D01*
X80Y210D01*
X10Y210D01*
G37*
D02*
G36*
X2020Y210D02*
X2020Y196D01*
X2024Y196D01*
X2024Y194D01*
X2026Y194D01*
X2026Y192D01*
X2028Y192D01*
X2028Y190D01*
X2030Y190D01*
X2030Y188D01*
X2032Y188D01*
X2032Y184D01*
X2034Y184D01*
X2034Y182D01*
X2036Y182D01*
X2036Y178D01*
X2038Y178D01*
X2038Y174D01*
X2040Y174D01*
X2040Y170D01*
X2042Y170D01*
X2042Y146D01*
X2040Y146D01*
X2040Y140D01*
X2038Y140D01*
X2038Y136D01*
X2036Y136D01*
X2036Y134D01*
X2034Y134D01*
X2034Y130D01*
X2032Y130D01*
X2032Y128D01*
X2030Y128D01*
X2030Y126D01*
X2028Y126D01*
X2028Y124D01*
X2026Y124D01*
X2026Y122D01*
X2024Y122D01*
X2024Y120D01*
X2022Y120D01*
X2022Y118D01*
X2020Y118D01*
X2020Y116D01*
X2016Y116D01*
X2016Y114D01*
X2012Y114D01*
X2012Y112D01*
X2006Y112D01*
X2006Y108D01*
X2078Y108D01*
X2078Y106D01*
X2084Y106D01*
X2084Y104D01*
X2386Y104D01*
X2386Y106D01*
X2378Y106D01*
X2378Y108D01*
X2374Y108D01*
X2374Y110D01*
X2370Y110D01*
X2370Y112D01*
X2366Y112D01*
X2366Y114D01*
X2364Y114D01*
X2364Y116D01*
X2360Y116D01*
X2360Y118D01*
X2358Y118D01*
X2358Y120D01*
X2356Y120D01*
X2356Y122D01*
X2354Y122D01*
X2354Y124D01*
X2352Y124D01*
X2352Y128D01*
X2350Y128D01*
X2350Y130D01*
X2348Y130D01*
X2348Y134D01*
X2346Y134D01*
X2346Y138D01*
X2344Y138D01*
X2344Y142D01*
X2342Y142D01*
X2342Y152D01*
X2340Y152D01*
X2340Y164D01*
X2342Y164D01*
X2342Y172D01*
X2344Y172D01*
X2344Y178D01*
X2346Y178D01*
X2346Y182D01*
X2348Y182D01*
X2348Y184D01*
X2350Y184D01*
X2350Y188D01*
X2352Y188D01*
X2352Y190D01*
X2354Y190D01*
X2354Y192D01*
X2356Y192D01*
X2356Y194D01*
X2358Y194D01*
X2358Y196D01*
X2360Y196D01*
X2360Y198D01*
X2362Y198D01*
X2362Y200D01*
X2364Y200D01*
X2364Y202D01*
X2368Y202D01*
X2368Y204D01*
X2372Y204D01*
X2372Y206D01*
X2376Y206D01*
X2376Y208D01*
X2380Y208D01*
X2380Y210D01*
X2020Y210D01*
G37*
D02*
G36*
X112Y208D02*
X112Y206D01*
X570Y206D01*
X570Y208D01*
X112Y208D01*
G37*
D02*
G36*
X112Y208D02*
X112Y206D01*
X570Y206D01*
X570Y208D01*
X112Y208D01*
G37*
D02*
G36*
X116Y206D02*
X116Y204D01*
X120Y204D01*
X120Y202D01*
X124Y202D01*
X124Y200D01*
X126Y200D01*
X126Y198D01*
X128Y198D01*
X128Y196D01*
X130Y196D01*
X130Y194D01*
X132Y194D01*
X132Y192D01*
X134Y192D01*
X134Y190D01*
X136Y190D01*
X136Y188D01*
X138Y188D01*
X138Y184D01*
X140Y184D01*
X140Y182D01*
X142Y182D01*
X142Y178D01*
X144Y178D01*
X144Y172D01*
X146Y172D01*
X146Y162D01*
X148Y162D01*
X148Y152D01*
X146Y152D01*
X146Y144D01*
X144Y144D01*
X144Y138D01*
X142Y138D01*
X142Y134D01*
X586Y134D01*
X586Y136D01*
X582Y136D01*
X582Y138D01*
X580Y138D01*
X580Y140D01*
X578Y140D01*
X578Y142D01*
X576Y142D01*
X576Y144D01*
X574Y144D01*
X574Y148D01*
X572Y148D01*
X572Y174D01*
X570Y174D01*
X570Y206D01*
X116Y206D01*
G37*
D02*
G36*
X1118Y136D02*
X1118Y134D01*
X1252Y134D01*
X1252Y136D01*
X1118Y136D01*
G37*
D02*
G36*
X140Y134D02*
X140Y132D01*
X1254Y132D01*
X1254Y134D01*
X140Y134D01*
G37*
D02*
G36*
X140Y134D02*
X140Y132D01*
X1254Y132D01*
X1254Y134D01*
X140Y134D01*
G37*
D02*
G36*
X140Y132D02*
X140Y130D01*
X138Y130D01*
X138Y128D01*
X136Y128D01*
X136Y126D01*
X134Y126D01*
X134Y122D01*
X132Y122D01*
X132Y120D01*
X130Y120D01*
X130Y118D01*
X128Y118D01*
X128Y116D01*
X124Y116D01*
X124Y114D01*
X122Y114D01*
X122Y112D01*
X118Y112D01*
X118Y110D01*
X114Y110D01*
X114Y108D01*
X110Y108D01*
X110Y106D01*
X102Y106D01*
X102Y104D01*
X1272Y104D01*
X1272Y116D01*
X1268Y116D01*
X1268Y118D01*
X1266Y118D01*
X1266Y120D01*
X1264Y120D01*
X1264Y122D01*
X1262Y122D01*
X1262Y124D01*
X1260Y124D01*
X1260Y126D01*
X1258Y126D01*
X1258Y128D01*
X1256Y128D01*
X1256Y130D01*
X1254Y130D01*
X1254Y132D01*
X140Y132D01*
G37*
D02*
G36*
X2006Y108D02*
X2006Y94D01*
X2032Y94D01*
X2032Y96D01*
X2050Y96D01*
X2050Y98D01*
X2056Y98D01*
X2056Y100D01*
X2058Y100D01*
X2058Y102D01*
X2060Y102D01*
X2060Y104D01*
X2064Y104D01*
X2064Y106D01*
X2072Y106D01*
X2072Y108D01*
X2006Y108D01*
G37*
D02*
G36*
X10Y104D02*
X10Y102D01*
X1272Y102D01*
X1272Y104D01*
X10Y104D01*
G37*
D02*
G36*
X10Y104D02*
X10Y102D01*
X1272Y102D01*
X1272Y104D01*
X10Y104D01*
G37*
D02*
G36*
X2088Y104D02*
X2088Y102D01*
X2518Y102D01*
X2518Y104D01*
X2088Y104D01*
G37*
D02*
G36*
X2088Y104D02*
X2088Y102D01*
X2518Y102D01*
X2518Y104D01*
X2088Y104D01*
G37*
D02*
G36*
X10Y102D02*
X10Y36D01*
X1286Y36D01*
X1286Y38D01*
X1282Y38D01*
X1282Y40D01*
X1280Y40D01*
X1280Y42D01*
X1278Y42D01*
X1278Y44D01*
X1276Y44D01*
X1276Y46D01*
X1274Y46D01*
X1274Y50D01*
X1272Y50D01*
X1272Y102D01*
X10Y102D01*
G37*
D02*
G36*
X2090Y102D02*
X2090Y100D01*
X2094Y100D01*
X2094Y98D01*
X2096Y98D01*
X2096Y94D01*
X2098Y94D01*
X2098Y92D01*
X2100Y92D01*
X2100Y90D01*
X2102Y90D01*
X2102Y84D01*
X2104Y84D01*
X2104Y72D01*
X2102Y72D01*
X2102Y66D01*
X2100Y66D01*
X2100Y62D01*
X2098Y62D01*
X2098Y60D01*
X2096Y60D01*
X2096Y58D01*
X2094Y58D01*
X2094Y56D01*
X2092Y56D01*
X2092Y54D01*
X2090Y54D01*
X2090Y52D01*
X2086Y52D01*
X2086Y50D01*
X2080Y50D01*
X2080Y48D01*
X2518Y48D01*
X2518Y102D01*
X2090Y102D01*
G37*
D02*
G36*
X2034Y52D02*
X2034Y50D01*
X2016Y50D01*
X2016Y48D01*
X2068Y48D01*
X2068Y50D01*
X2064Y50D01*
X2064Y52D01*
X2034Y52D01*
G37*
D02*
G36*
X1998Y48D02*
X1998Y46D01*
X2518Y46D01*
X2518Y48D01*
X1998Y48D01*
G37*
D02*
G36*
X1998Y48D02*
X1998Y46D01*
X2518Y46D01*
X2518Y48D01*
X1998Y48D01*
G37*
D02*
G36*
X1982Y46D02*
X1982Y44D01*
X1964Y44D01*
X1964Y42D01*
X1946Y42D01*
X1946Y40D01*
X1928Y40D01*
X1928Y38D01*
X1910Y38D01*
X1910Y36D01*
X2518Y36D01*
X2518Y46D01*
X1982Y46D01*
G37*
D02*
G36*
X10Y36D02*
X10Y34D01*
X2518Y34D01*
X2518Y36D01*
X10Y36D01*
G37*
D02*
G36*
X10Y36D02*
X10Y34D01*
X2518Y34D01*
X2518Y36D01*
X10Y36D01*
G37*
D02*
G36*
X10Y34D02*
X10Y4D01*
X2518Y4D01*
X2518Y34D01*
X10Y34D01*
G37*
D02*
G36*
X405Y1600D02*
X430Y1600D01*
X430Y1574D01*
X405Y1574D01*
X405Y1600D01*
G37*
D02*
G36*
X405Y1560D02*
X430Y1560D01*
X430Y1536D01*
X405Y1536D01*
X405Y1560D01*
G37*
D02*
G36*
X384Y1579D02*
X410Y1579D01*
X410Y1554D01*
X384Y1554D01*
X384Y1579D01*
G37*
D02*
G36*
X1569Y2010D02*
X1614Y2010D01*
X1614Y1978D01*
X1569Y1978D01*
X1569Y2010D01*
G37*
D02*
G36*
X1540Y1981D02*
X1572Y1981D01*
X1572Y1936D01*
X1540Y1936D01*
X1540Y1981D01*
G37*
D02*
G36*
X340Y1781D02*
X372Y1781D01*
X372Y1736D01*
X340Y1736D01*
X340Y1781D01*
G37*
D02*
G36*
X410Y1781D02*
X442Y1781D01*
X442Y1736D01*
X410Y1736D01*
X410Y1781D01*
G37*
D02*
G36*
X1569Y210D02*
X1614Y210D01*
X1614Y178D01*
X1569Y178D01*
X1569Y210D01*
G37*
D02*
G36*
X1569Y540D02*
X1614Y540D01*
X1614Y508D01*
X1569Y508D01*
X1569Y540D01*
G37*
D02*
G36*
X1540Y581D02*
X1572Y581D01*
X1572Y536D01*
X1540Y536D01*
X1540Y581D01*
G37*
D02*
G36*
X1769Y540D02*
X1814Y540D01*
X1814Y508D01*
X1769Y508D01*
X1769Y540D01*
G37*
D02*
G36*
X369Y240D02*
X414Y240D01*
X414Y208D01*
X369Y208D01*
X369Y240D01*
G37*
D02*
G36*
X410Y281D02*
X442Y281D01*
X442Y236D01*
X410Y236D01*
X410Y281D01*
G37*
D02*
G36*
X2269Y540D02*
X2314Y540D01*
X2314Y508D01*
X2269Y508D01*
X2269Y540D01*
G37*
D02*
G36*
X2310Y581D02*
X2342Y581D01*
X2342Y536D01*
X2310Y536D01*
X2310Y581D01*
G37*
D02*
G36*
X140Y1581D02*
X172Y1581D01*
X172Y1536D01*
X140Y1536D01*
X140Y1581D01*
G37*
D02*
G36*
X210Y1581D02*
X242Y1581D01*
X242Y1536D01*
X210Y1536D01*
X210Y1581D01*
G37*
D02*
G04 End of Copper0*
M02*