; NON-PLATED HOLES START AT T1
; THROUGH (PLATED) HOLES START AT T100
M48
INCH
T1C0.086614
T100C0.015748
T101C0.038000
T102C0.036000
%
T1
X023937Y001573
X000937Y001573
X023937Y020573
X000937Y020573
T100
X020502Y015174
X004182Y015654
X020022Y013254
X005862Y003174
X020742Y000774
T101
X003937Y007573
X022937Y006573
X020937Y006573
X021937Y014573
X003937Y013573
X003937Y018573
X019937Y002573
X015937Y007573
X017937Y007573
X003937Y011573
X003937Y003573
X001937Y016573
X003937Y008573
X021937Y010573
X015937Y005573
X017937Y005573
X022937Y007573
X020937Y007573
X021937Y015573
X003937Y006573
X003937Y019573
X019937Y003573
X022937Y005573
X020937Y005573
X021937Y013573
X003937Y012573
X012937Y001573
X014937Y001573
X003937Y004573
X003937Y017573
X001937Y017573
X013937Y001573
X015937Y001573
X019937Y001573
X003937Y009573
X021937Y011573
X015937Y006573
X017937Y006573
X015937Y019573
X017937Y019573
X019937Y019573
X022937Y008573
X003937Y010573
X016937Y019573
X018937Y019573
X003937Y002573
X001937Y015573
T102
X006937Y016573
X006937Y009573
X012937Y017573
X006937Y013573
X006937Y006573
X012937Y014573
X012937Y007573
X006937Y010573
X012937Y011573
X012937Y004573
X006937Y018573
X006937Y015573
X006937Y008573
X012937Y016573
X012937Y009573
X006937Y012573
X006937Y005573
X012937Y013573
X012937Y006573
X012937Y010573
X006937Y017573
X012937Y018573
X006937Y014573
X006937Y007573
X012937Y015573
X012937Y008573
X006937Y011573
X006937Y004573
X012937Y012573
X012937Y005573
T00
M30
