G04 MADE WITH FRITZING*
G04 WWW.FRITZING.ORG*
G04 DOUBLE SIDED*
G04 HOLES PLATED*
G04 CONTOUR ON CENTER OF CONTOUR VECTOR*
%ASAXBY*%
%FSLAX23Y23*%
%MOIN*%
%OFA0B0*%
%SFA1.0B1.0*%
%ADD10C,0.096614*%
%ADD11C,0.088000*%
%ADD12C,0.049370*%
%ADD13C,0.080000*%
%ADD14R,0.079972X0.080000*%
%LNMASK1*%
G90*
G70*
G54D10*
X2394Y2057D03*
X94Y2057D03*
X94Y157D03*
X2394Y157D03*
G54D11*
X2194Y1557D03*
X2194Y1457D03*
X2194Y1357D03*
X2094Y757D03*
X2094Y657D03*
X2094Y557D03*
X1794Y757D03*
X1794Y657D03*
X1794Y557D03*
X1994Y357D03*
X1994Y257D03*
X1994Y157D03*
X1594Y757D03*
X1594Y657D03*
X1594Y557D03*
X1994Y1957D03*
X1894Y1957D03*
X1794Y1957D03*
X1694Y1957D03*
X1594Y1957D03*
X394Y1357D03*
X394Y1257D03*
X394Y1157D03*
X394Y1057D03*
X394Y957D03*
X394Y857D03*
X394Y757D03*
X394Y657D03*
G54D12*
X2050Y1517D03*
X418Y1565D03*
X2074Y77D03*
X2002Y1325D03*
X586Y317D03*
G54D13*
X694Y1857D03*
X694Y1757D03*
X694Y1657D03*
X694Y1557D03*
X694Y1457D03*
X694Y1357D03*
X694Y1257D03*
X694Y1157D03*
X694Y1057D03*
X694Y957D03*
X694Y857D03*
X694Y757D03*
X694Y657D03*
X694Y557D03*
X694Y457D03*
X1294Y1857D03*
X1294Y1757D03*
X1294Y1657D03*
X1294Y1557D03*
X1294Y1457D03*
X1294Y1357D03*
X1294Y1257D03*
X1294Y1157D03*
X1294Y1057D03*
X1294Y957D03*
X1294Y857D03*
X1294Y757D03*
X1294Y657D03*
X1294Y557D03*
X1294Y457D03*
G54D11*
X2294Y857D03*
X2294Y757D03*
X2294Y657D03*
X2294Y557D03*
X2194Y1157D03*
X2194Y1057D03*
X394Y457D03*
X394Y357D03*
X394Y257D03*
X194Y1757D03*
X194Y1657D03*
X194Y1557D03*
X1594Y157D03*
X1494Y157D03*
X1394Y157D03*
X1294Y157D03*
X394Y1957D03*
X394Y1857D03*
X394Y1757D03*
G54D14*
X694Y1857D03*
G04 End of Mask1*
M02*