G04 MADE WITH FRITZING*
G04 WWW.FRITZING.ORG*
G04 DOUBLE SIDED*
G04 HOLES PLATED*
G04 CONTOUR ON CENTER OF CONTOUR VECTOR*
%ASAXBY*%
%FSLAX23Y23*%
%MOIN*%
%OFA0B0*%
%SFA1.0B1.0*%
%ADD10R,2.525980X2.141650X2.509980X2.125650*%
%ADD11C,0.008000*%
%ADD12C,0.010000*%
%ADD13C,0.005000*%
%ADD14R,0.001000X0.001000*%
%LNSILK1*%
G90*
G70*
G54D11*
X4Y2138D02*
X2522Y2138D01*
X2522Y4D01*
X4Y4D01*
X4Y2138D01*
D02*
G54D12*
X2144Y1607D02*
X2144Y1307D01*
D02*
X2144Y1307D02*
X2244Y1307D01*
D02*
X2244Y1307D02*
X2244Y1607D01*
D02*
X2244Y1607D02*
X2144Y1607D01*
G54D13*
D02*
X2144Y1572D02*
X2179Y1607D01*
G54D12*
D02*
X2044Y807D02*
X2044Y507D01*
D02*
X2044Y507D02*
X2144Y507D01*
D02*
X2144Y507D02*
X2144Y807D01*
D02*
X2144Y807D02*
X2044Y807D01*
G54D13*
D02*
X2044Y772D02*
X2079Y807D01*
G54D12*
D02*
X1744Y807D02*
X1744Y507D01*
D02*
X1744Y507D02*
X1844Y507D01*
D02*
X1844Y507D02*
X1844Y807D01*
D02*
X1844Y807D02*
X1744Y807D01*
G54D13*
D02*
X1744Y772D02*
X1779Y807D01*
G54D12*
D02*
X1944Y407D02*
X1944Y107D01*
D02*
X1944Y107D02*
X2044Y107D01*
D02*
X2044Y107D02*
X2044Y407D01*
D02*
X2044Y407D02*
X1944Y407D01*
G54D13*
D02*
X1944Y372D02*
X1979Y407D01*
G54D12*
D02*
X1544Y807D02*
X1544Y507D01*
D02*
X1544Y507D02*
X1644Y507D01*
D02*
X1644Y507D02*
X1644Y807D01*
D02*
X1644Y807D02*
X1544Y807D01*
G54D13*
D02*
X1544Y772D02*
X1579Y807D01*
G54D12*
D02*
X2044Y2007D02*
X1544Y2007D01*
D02*
X1544Y2007D02*
X1544Y1907D01*
D02*
X1544Y1907D02*
X2044Y1907D01*
D02*
X2044Y1907D02*
X2044Y2007D01*
G54D13*
D02*
X2009Y2007D02*
X2044Y1972D01*
G54D12*
D02*
X344Y1407D02*
X344Y607D01*
D02*
X344Y607D02*
X444Y607D01*
D02*
X444Y607D02*
X444Y1407D01*
D02*
X444Y1407D02*
X344Y1407D01*
G54D13*
D02*
X344Y1372D02*
X379Y1407D01*
G54D12*
D02*
X2244Y907D02*
X2244Y507D01*
D02*
X2244Y507D02*
X2344Y507D01*
D02*
X2344Y507D02*
X2344Y907D01*
D02*
X2344Y907D02*
X2244Y907D01*
G54D13*
D02*
X2244Y872D02*
X2279Y907D01*
G54D12*
D02*
X2144Y1207D02*
X2144Y1007D01*
D02*
X2144Y1007D02*
X2244Y1007D01*
D02*
X2244Y1007D02*
X2244Y1207D01*
D02*
X2244Y1207D02*
X2144Y1207D01*
G54D13*
D02*
X2144Y1172D02*
X2179Y1207D01*
G54D12*
D02*
X344Y507D02*
X344Y207D01*
D02*
X344Y207D02*
X444Y207D01*
D02*
X444Y207D02*
X444Y507D01*
D02*
X444Y507D02*
X344Y507D01*
G54D13*
D02*
X344Y472D02*
X379Y507D01*
G54D12*
D02*
X144Y1807D02*
X144Y1507D01*
D02*
X144Y1507D02*
X244Y1507D01*
D02*
X244Y1507D02*
X244Y1807D01*
D02*
X244Y1807D02*
X144Y1807D01*
G54D13*
D02*
X144Y1772D02*
X179Y1807D01*
G54D12*
D02*
X1644Y207D02*
X1244Y207D01*
D02*
X1244Y207D02*
X1244Y107D01*
D02*
X1244Y107D02*
X1644Y107D01*
D02*
X1644Y107D02*
X1644Y207D01*
G54D13*
D02*
X1609Y207D02*
X1644Y172D01*
G54D12*
D02*
X344Y2007D02*
X344Y1707D01*
D02*
X344Y1707D02*
X444Y1707D01*
D02*
X444Y1707D02*
X444Y2007D01*
D02*
X444Y2007D02*
X344Y2007D01*
G54D13*
D02*
X344Y1972D02*
X379Y2007D01*
G54D11*
X647Y312D02*
X1339Y312D01*
X1339Y2004D01*
X647Y2004D01*
X647Y312D01*
D02*
G54D14*
X522Y1998D02*
X542Y1998D01*
X521Y1997D02*
X543Y1997D01*
X520Y1996D02*
X543Y1996D01*
X520Y1995D02*
X544Y1995D01*
X520Y1994D02*
X544Y1994D01*
X521Y1993D02*
X544Y1993D01*
X522Y1992D02*
X544Y1992D01*
X538Y1991D02*
X544Y1991D01*
X538Y1990D02*
X544Y1990D01*
X538Y1989D02*
X544Y1989D01*
X538Y1988D02*
X544Y1988D01*
X538Y1987D02*
X544Y1987D01*
X538Y1986D02*
X544Y1986D01*
X538Y1985D02*
X544Y1985D01*
X490Y1984D02*
X544Y1984D01*
X490Y1983D02*
X544Y1983D01*
X490Y1982D02*
X544Y1982D01*
X490Y1981D02*
X544Y1981D01*
X490Y1980D02*
X544Y1980D01*
X490Y1979D02*
X544Y1979D01*
X490Y1978D02*
X544Y1978D01*
X490Y1977D02*
X497Y1977D01*
X538Y1977D02*
X544Y1977D01*
X490Y1976D02*
X497Y1976D01*
X538Y1976D02*
X544Y1976D01*
X490Y1975D02*
X497Y1975D01*
X538Y1975D02*
X544Y1975D01*
X490Y1974D02*
X497Y1974D01*
X538Y1974D02*
X544Y1974D01*
X490Y1973D02*
X497Y1973D01*
X538Y1973D02*
X544Y1973D01*
X490Y1972D02*
X497Y1972D01*
X538Y1972D02*
X544Y1972D01*
X490Y1971D02*
X497Y1971D01*
X538Y1971D02*
X544Y1971D01*
X490Y1970D02*
X497Y1970D01*
X538Y1970D02*
X544Y1970D01*
X490Y1969D02*
X497Y1969D01*
X538Y1969D02*
X544Y1969D01*
X490Y1968D02*
X497Y1968D01*
X538Y1968D02*
X544Y1968D01*
X491Y1967D02*
X496Y1967D01*
X538Y1967D02*
X544Y1967D01*
X491Y1966D02*
X496Y1966D01*
X538Y1966D02*
X543Y1966D01*
X492Y1965D02*
X495Y1965D01*
X539Y1965D02*
X543Y1965D01*
X522Y1948D02*
X542Y1948D01*
X521Y1947D02*
X543Y1947D01*
X520Y1946D02*
X543Y1946D01*
X520Y1945D02*
X544Y1945D01*
X520Y1944D02*
X544Y1944D01*
X521Y1943D02*
X544Y1943D01*
X522Y1942D02*
X544Y1942D01*
X538Y1941D02*
X544Y1941D01*
X538Y1940D02*
X544Y1940D01*
X538Y1939D02*
X544Y1939D01*
X538Y1938D02*
X544Y1938D01*
X538Y1937D02*
X544Y1937D01*
X538Y1936D02*
X544Y1936D01*
X538Y1935D02*
X544Y1935D01*
X490Y1934D02*
X544Y1934D01*
X490Y1933D02*
X544Y1933D01*
X490Y1932D02*
X544Y1932D01*
X490Y1931D02*
X544Y1931D01*
X490Y1930D02*
X544Y1930D01*
X490Y1929D02*
X544Y1929D01*
X902Y1929D02*
X910Y1929D01*
X931Y1929D02*
X933Y1929D01*
X967Y1929D02*
X969Y1929D01*
X1002Y1929D02*
X1010Y1929D01*
X1031Y1929D02*
X1033Y1929D01*
X1066Y1929D02*
X1070Y1929D01*
X490Y1928D02*
X544Y1928D01*
X902Y1928D02*
X910Y1928D01*
X930Y1928D02*
X934Y1928D01*
X966Y1928D02*
X971Y1928D01*
X1001Y1928D02*
X1010Y1928D01*
X1030Y1928D02*
X1034Y1928D01*
X1064Y1928D02*
X1073Y1928D01*
X490Y1927D02*
X497Y1927D01*
X538Y1927D02*
X544Y1927D01*
X902Y1927D02*
X911Y1927D01*
X929Y1927D02*
X935Y1927D01*
X965Y1927D02*
X971Y1927D01*
X1001Y1927D02*
X1011Y1927D01*
X1029Y1927D02*
X1035Y1927D01*
X1063Y1927D02*
X1074Y1927D01*
X490Y1926D02*
X497Y1926D01*
X538Y1926D02*
X544Y1926D01*
X902Y1926D02*
X911Y1926D01*
X929Y1926D02*
X935Y1926D01*
X965Y1926D02*
X971Y1926D01*
X1001Y1926D02*
X1011Y1926D01*
X1029Y1926D02*
X1035Y1926D01*
X1062Y1926D02*
X1075Y1926D01*
X490Y1925D02*
X497Y1925D01*
X538Y1925D02*
X544Y1925D01*
X902Y1925D02*
X912Y1925D01*
X929Y1925D02*
X935Y1925D01*
X965Y1925D02*
X972Y1925D01*
X1001Y1925D02*
X1012Y1925D01*
X1029Y1925D02*
X1035Y1925D01*
X1061Y1925D02*
X1075Y1925D01*
X490Y1924D02*
X497Y1924D01*
X538Y1924D02*
X544Y1924D01*
X902Y1924D02*
X912Y1924D01*
X929Y1924D02*
X935Y1924D01*
X965Y1924D02*
X972Y1924D01*
X1001Y1924D02*
X1012Y1924D01*
X1029Y1924D02*
X1035Y1924D01*
X1060Y1924D02*
X1076Y1924D01*
X490Y1923D02*
X497Y1923D01*
X538Y1923D02*
X544Y1923D01*
X902Y1923D02*
X913Y1923D01*
X929Y1923D02*
X935Y1923D01*
X964Y1923D02*
X972Y1923D01*
X1001Y1923D02*
X1013Y1923D01*
X1029Y1923D02*
X1035Y1923D01*
X1060Y1923D02*
X1077Y1923D01*
X490Y1922D02*
X497Y1922D01*
X538Y1922D02*
X544Y1922D01*
X902Y1922D02*
X913Y1922D01*
X929Y1922D02*
X935Y1922D01*
X964Y1922D02*
X973Y1922D01*
X1001Y1922D02*
X1013Y1922D01*
X1029Y1922D02*
X1035Y1922D01*
X1059Y1922D02*
X1067Y1922D01*
X1070Y1922D02*
X1077Y1922D01*
X490Y1921D02*
X497Y1921D01*
X538Y1921D02*
X544Y1921D01*
X902Y1921D02*
X913Y1921D01*
X929Y1921D02*
X935Y1921D01*
X964Y1921D02*
X973Y1921D01*
X1001Y1921D02*
X1013Y1921D01*
X1029Y1921D02*
X1035Y1921D01*
X1059Y1921D02*
X1066Y1921D01*
X1071Y1921D02*
X1078Y1921D01*
X490Y1920D02*
X497Y1920D01*
X538Y1920D02*
X544Y1920D01*
X902Y1920D02*
X914Y1920D01*
X929Y1920D02*
X935Y1920D01*
X963Y1920D02*
X973Y1920D01*
X1001Y1920D02*
X1014Y1920D01*
X1029Y1920D02*
X1035Y1920D01*
X1058Y1920D02*
X1065Y1920D01*
X1071Y1920D02*
X1078Y1920D01*
X490Y1919D02*
X497Y1919D01*
X538Y1919D02*
X544Y1919D01*
X902Y1919D02*
X914Y1919D01*
X929Y1919D02*
X935Y1919D01*
X963Y1919D02*
X973Y1919D01*
X1001Y1919D02*
X1014Y1919D01*
X1029Y1919D02*
X1035Y1919D01*
X1058Y1919D02*
X1065Y1919D01*
X1072Y1919D02*
X1079Y1919D01*
X490Y1918D02*
X497Y1918D01*
X538Y1918D02*
X544Y1918D01*
X902Y1918D02*
X915Y1918D01*
X929Y1918D02*
X935Y1918D01*
X963Y1918D02*
X974Y1918D01*
X1001Y1918D02*
X1015Y1918D01*
X1029Y1918D02*
X1035Y1918D01*
X1057Y1918D02*
X1064Y1918D01*
X1072Y1918D02*
X1079Y1918D01*
X491Y1917D02*
X496Y1917D01*
X538Y1917D02*
X544Y1917D01*
X902Y1917D02*
X915Y1917D01*
X929Y1917D02*
X935Y1917D01*
X962Y1917D02*
X974Y1917D01*
X1001Y1917D02*
X1015Y1917D01*
X1029Y1917D02*
X1035Y1917D01*
X1057Y1917D02*
X1064Y1917D01*
X1073Y1917D02*
X1080Y1917D01*
X491Y1916D02*
X496Y1916D01*
X538Y1916D02*
X543Y1916D01*
X902Y1916D02*
X916Y1916D01*
X929Y1916D02*
X935Y1916D01*
X962Y1916D02*
X974Y1916D01*
X1001Y1916D02*
X1016Y1916D01*
X1029Y1916D02*
X1035Y1916D01*
X1056Y1916D02*
X1063Y1916D01*
X1073Y1916D02*
X1080Y1916D01*
X492Y1915D02*
X495Y1915D01*
X539Y1915D02*
X543Y1915D01*
X902Y1915D02*
X916Y1915D01*
X929Y1915D02*
X935Y1915D01*
X962Y1915D02*
X975Y1915D01*
X1001Y1915D02*
X1007Y1915D01*
X1009Y1915D02*
X1016Y1915D01*
X1029Y1915D02*
X1035Y1915D01*
X1056Y1915D02*
X1063Y1915D01*
X1074Y1915D02*
X1081Y1915D01*
X902Y1914D02*
X908Y1914D01*
X910Y1914D02*
X917Y1914D01*
X929Y1914D02*
X935Y1914D01*
X962Y1914D02*
X975Y1914D01*
X1001Y1914D02*
X1007Y1914D01*
X1010Y1914D02*
X1016Y1914D01*
X1029Y1914D02*
X1035Y1914D01*
X1055Y1914D02*
X1062Y1914D01*
X1074Y1914D02*
X1081Y1914D01*
X902Y1913D02*
X908Y1913D01*
X910Y1913D02*
X917Y1913D01*
X929Y1913D02*
X935Y1913D01*
X961Y1913D02*
X975Y1913D01*
X1001Y1913D02*
X1007Y1913D01*
X1010Y1913D02*
X1017Y1913D01*
X1029Y1913D02*
X1035Y1913D01*
X1055Y1913D02*
X1062Y1913D01*
X1075Y1913D02*
X1082Y1913D01*
X902Y1912D02*
X908Y1912D01*
X911Y1912D02*
X917Y1912D01*
X929Y1912D02*
X935Y1912D01*
X961Y1912D02*
X967Y1912D01*
X969Y1912D02*
X975Y1912D01*
X1001Y1912D02*
X1007Y1912D01*
X1011Y1912D02*
X1017Y1912D01*
X1029Y1912D02*
X1035Y1912D01*
X1054Y1912D02*
X1061Y1912D01*
X1075Y1912D02*
X1082Y1912D01*
X902Y1911D02*
X908Y1911D01*
X911Y1911D02*
X918Y1911D01*
X929Y1911D02*
X935Y1911D01*
X961Y1911D02*
X967Y1911D01*
X969Y1911D02*
X976Y1911D01*
X1001Y1911D02*
X1007Y1911D01*
X1011Y1911D02*
X1018Y1911D01*
X1029Y1911D02*
X1035Y1911D01*
X1054Y1911D02*
X1061Y1911D01*
X1076Y1911D02*
X1083Y1911D01*
X902Y1910D02*
X908Y1910D01*
X912Y1910D02*
X918Y1910D01*
X929Y1910D02*
X935Y1910D01*
X960Y1910D02*
X967Y1910D01*
X970Y1910D02*
X976Y1910D01*
X1001Y1910D02*
X1007Y1910D01*
X1012Y1910D02*
X1018Y1910D01*
X1029Y1910D02*
X1035Y1910D01*
X1053Y1910D02*
X1060Y1910D01*
X1076Y1910D02*
X1083Y1910D01*
X902Y1909D02*
X908Y1909D01*
X912Y1909D02*
X919Y1909D01*
X929Y1909D02*
X935Y1909D01*
X960Y1909D02*
X966Y1909D01*
X970Y1909D02*
X976Y1909D01*
X1001Y1909D02*
X1007Y1909D01*
X1012Y1909D02*
X1019Y1909D01*
X1029Y1909D02*
X1035Y1909D01*
X1053Y1909D02*
X1060Y1909D01*
X1077Y1909D02*
X1083Y1909D01*
X902Y1908D02*
X908Y1908D01*
X912Y1908D02*
X919Y1908D01*
X929Y1908D02*
X935Y1908D01*
X960Y1908D02*
X966Y1908D01*
X970Y1908D02*
X977Y1908D01*
X1001Y1908D02*
X1007Y1908D01*
X1012Y1908D02*
X1019Y1908D01*
X1029Y1908D02*
X1035Y1908D01*
X1053Y1908D02*
X1059Y1908D01*
X1077Y1908D02*
X1084Y1908D01*
X902Y1907D02*
X908Y1907D01*
X913Y1907D02*
X920Y1907D01*
X929Y1907D02*
X935Y1907D01*
X960Y1907D02*
X966Y1907D01*
X971Y1907D02*
X977Y1907D01*
X1001Y1907D02*
X1007Y1907D01*
X1013Y1907D02*
X1020Y1907D01*
X1029Y1907D02*
X1035Y1907D01*
X1052Y1907D02*
X1059Y1907D01*
X1078Y1907D02*
X1084Y1907D01*
X902Y1906D02*
X908Y1906D01*
X913Y1906D02*
X920Y1906D01*
X929Y1906D02*
X935Y1906D01*
X959Y1906D02*
X966Y1906D01*
X971Y1906D02*
X977Y1906D01*
X1001Y1906D02*
X1007Y1906D01*
X1013Y1906D02*
X1020Y1906D01*
X1029Y1906D02*
X1035Y1906D01*
X1052Y1906D02*
X1058Y1906D01*
X1078Y1906D02*
X1085Y1906D01*
X902Y1905D02*
X908Y1905D01*
X914Y1905D02*
X920Y1905D01*
X929Y1905D02*
X935Y1905D01*
X959Y1905D02*
X965Y1905D01*
X971Y1905D02*
X978Y1905D01*
X1001Y1905D02*
X1007Y1905D01*
X1014Y1905D02*
X1020Y1905D01*
X1029Y1905D02*
X1035Y1905D01*
X1052Y1905D02*
X1058Y1905D01*
X1079Y1905D02*
X1085Y1905D01*
X902Y1904D02*
X908Y1904D01*
X914Y1904D02*
X921Y1904D01*
X929Y1904D02*
X935Y1904D01*
X959Y1904D02*
X965Y1904D01*
X971Y1904D02*
X978Y1904D01*
X1001Y1904D02*
X1007Y1904D01*
X1014Y1904D02*
X1021Y1904D01*
X1029Y1904D02*
X1035Y1904D01*
X1052Y1904D02*
X1058Y1904D01*
X1079Y1904D02*
X1085Y1904D01*
X902Y1903D02*
X908Y1903D01*
X915Y1903D02*
X921Y1903D01*
X929Y1903D02*
X935Y1903D01*
X958Y1903D02*
X965Y1903D01*
X972Y1903D02*
X978Y1903D01*
X1001Y1903D02*
X1007Y1903D01*
X1015Y1903D02*
X1021Y1903D01*
X1029Y1903D02*
X1035Y1903D01*
X1051Y1903D02*
X1058Y1903D01*
X1079Y1903D02*
X1085Y1903D01*
X902Y1902D02*
X908Y1902D01*
X915Y1902D02*
X922Y1902D01*
X929Y1902D02*
X935Y1902D01*
X958Y1902D02*
X964Y1902D01*
X972Y1902D02*
X978Y1902D01*
X1001Y1902D02*
X1007Y1902D01*
X1015Y1902D02*
X1022Y1902D01*
X1029Y1902D02*
X1035Y1902D01*
X1051Y1902D02*
X1058Y1902D01*
X1079Y1902D02*
X1085Y1902D01*
X902Y1901D02*
X908Y1901D01*
X916Y1901D02*
X922Y1901D01*
X929Y1901D02*
X935Y1901D01*
X958Y1901D02*
X964Y1901D01*
X972Y1901D02*
X979Y1901D01*
X1001Y1901D02*
X1007Y1901D01*
X1015Y1901D02*
X1022Y1901D01*
X1029Y1901D02*
X1035Y1901D01*
X1052Y1901D02*
X1058Y1901D01*
X1079Y1901D02*
X1085Y1901D01*
X902Y1900D02*
X908Y1900D01*
X916Y1900D02*
X923Y1900D01*
X929Y1900D02*
X935Y1900D01*
X957Y1900D02*
X964Y1900D01*
X973Y1900D02*
X979Y1900D01*
X1001Y1900D02*
X1007Y1900D01*
X1016Y1900D02*
X1023Y1900D01*
X1029Y1900D02*
X1035Y1900D01*
X1052Y1900D02*
X1058Y1900D01*
X1079Y1900D02*
X1085Y1900D01*
X902Y1899D02*
X908Y1899D01*
X916Y1899D02*
X923Y1899D01*
X929Y1899D02*
X935Y1899D01*
X957Y1899D02*
X964Y1899D01*
X973Y1899D02*
X979Y1899D01*
X1001Y1899D02*
X1007Y1899D01*
X1016Y1899D02*
X1023Y1899D01*
X1029Y1899D02*
X1035Y1899D01*
X1052Y1899D02*
X1058Y1899D01*
X1078Y1899D02*
X1085Y1899D01*
X516Y1898D02*
X521Y1898D01*
X902Y1898D02*
X908Y1898D01*
X917Y1898D02*
X924Y1898D01*
X929Y1898D02*
X935Y1898D01*
X957Y1898D02*
X963Y1898D01*
X973Y1898D02*
X980Y1898D01*
X1001Y1898D02*
X1007Y1898D01*
X1017Y1898D02*
X1023Y1898D01*
X1029Y1898D02*
X1035Y1898D01*
X1052Y1898D02*
X1059Y1898D01*
X1078Y1898D02*
X1084Y1898D01*
X515Y1897D02*
X522Y1897D01*
X902Y1897D02*
X908Y1897D01*
X917Y1897D02*
X924Y1897D01*
X929Y1897D02*
X935Y1897D01*
X957Y1897D02*
X963Y1897D01*
X974Y1897D02*
X980Y1897D01*
X1001Y1897D02*
X1007Y1897D01*
X1017Y1897D02*
X1024Y1897D01*
X1029Y1897D02*
X1035Y1897D01*
X1052Y1897D02*
X1059Y1897D01*
X1077Y1897D02*
X1084Y1897D01*
X514Y1896D02*
X523Y1896D01*
X902Y1896D02*
X908Y1896D01*
X918Y1896D02*
X924Y1896D01*
X929Y1896D02*
X935Y1896D01*
X956Y1896D02*
X963Y1896D01*
X974Y1896D02*
X980Y1896D01*
X1001Y1896D02*
X1007Y1896D01*
X1018Y1896D02*
X1024Y1896D01*
X1029Y1896D02*
X1035Y1896D01*
X1053Y1896D02*
X1060Y1896D01*
X1077Y1896D02*
X1084Y1896D01*
X514Y1895D02*
X523Y1895D01*
X902Y1895D02*
X908Y1895D01*
X918Y1895D02*
X925Y1895D01*
X929Y1895D02*
X935Y1895D01*
X956Y1895D02*
X962Y1895D01*
X974Y1895D02*
X980Y1895D01*
X1001Y1895D02*
X1007Y1895D01*
X1018Y1895D02*
X1025Y1895D01*
X1029Y1895D02*
X1035Y1895D01*
X1053Y1895D02*
X1060Y1895D01*
X1076Y1895D02*
X1083Y1895D01*
X514Y1894D02*
X523Y1894D01*
X902Y1894D02*
X908Y1894D01*
X919Y1894D02*
X925Y1894D01*
X929Y1894D02*
X935Y1894D01*
X956Y1894D02*
X981Y1894D01*
X1001Y1894D02*
X1007Y1894D01*
X1019Y1894D02*
X1025Y1894D01*
X1029Y1894D02*
X1035Y1894D01*
X1054Y1894D02*
X1061Y1894D01*
X1076Y1894D02*
X1083Y1894D01*
X514Y1893D02*
X523Y1893D01*
X902Y1893D02*
X908Y1893D01*
X919Y1893D02*
X926Y1893D01*
X929Y1893D02*
X935Y1893D01*
X955Y1893D02*
X981Y1893D01*
X1001Y1893D02*
X1007Y1893D01*
X1019Y1893D02*
X1026Y1893D01*
X1029Y1893D02*
X1035Y1893D01*
X1054Y1893D02*
X1061Y1893D01*
X1075Y1893D02*
X1082Y1893D01*
X514Y1892D02*
X523Y1892D01*
X902Y1892D02*
X908Y1892D01*
X919Y1892D02*
X926Y1892D01*
X929Y1892D02*
X935Y1892D01*
X955Y1892D02*
X981Y1892D01*
X1001Y1892D02*
X1007Y1892D01*
X1019Y1892D02*
X1026Y1892D01*
X1029Y1892D02*
X1035Y1892D01*
X1055Y1892D02*
X1062Y1892D01*
X1075Y1892D02*
X1082Y1892D01*
X514Y1891D02*
X523Y1891D01*
X902Y1891D02*
X908Y1891D01*
X920Y1891D02*
X927Y1891D01*
X929Y1891D02*
X935Y1891D01*
X955Y1891D02*
X982Y1891D01*
X1001Y1891D02*
X1007Y1891D01*
X1020Y1891D02*
X1027Y1891D01*
X1029Y1891D02*
X1035Y1891D01*
X1055Y1891D02*
X1062Y1891D01*
X1074Y1891D02*
X1081Y1891D01*
X514Y1890D02*
X523Y1890D01*
X902Y1890D02*
X908Y1890D01*
X920Y1890D02*
X927Y1890D01*
X929Y1890D02*
X935Y1890D01*
X955Y1890D02*
X982Y1890D01*
X1001Y1890D02*
X1007Y1890D01*
X1020Y1890D02*
X1027Y1890D01*
X1029Y1890D02*
X1035Y1890D01*
X1056Y1890D02*
X1063Y1890D01*
X1074Y1890D02*
X1081Y1890D01*
X514Y1889D02*
X523Y1889D01*
X902Y1889D02*
X908Y1889D01*
X921Y1889D02*
X927Y1889D01*
X929Y1889D02*
X935Y1889D01*
X954Y1889D02*
X982Y1889D01*
X1001Y1889D02*
X1007Y1889D01*
X1021Y1889D02*
X1027Y1889D01*
X1029Y1889D02*
X1035Y1889D01*
X1056Y1889D02*
X1063Y1889D01*
X1073Y1889D02*
X1080Y1889D01*
X514Y1888D02*
X523Y1888D01*
X902Y1888D02*
X908Y1888D01*
X921Y1888D02*
X935Y1888D01*
X954Y1888D02*
X982Y1888D01*
X1001Y1888D02*
X1007Y1888D01*
X1021Y1888D02*
X1035Y1888D01*
X1057Y1888D02*
X1064Y1888D01*
X1073Y1888D02*
X1080Y1888D01*
X514Y1887D02*
X523Y1887D01*
X902Y1887D02*
X908Y1887D01*
X922Y1887D02*
X935Y1887D01*
X954Y1887D02*
X960Y1887D01*
X976Y1887D02*
X983Y1887D01*
X1001Y1887D02*
X1007Y1887D01*
X1022Y1887D02*
X1035Y1887D01*
X1057Y1887D02*
X1064Y1887D01*
X1072Y1887D02*
X1079Y1887D01*
X514Y1886D02*
X523Y1886D01*
X902Y1886D02*
X908Y1886D01*
X922Y1886D02*
X935Y1886D01*
X953Y1886D02*
X960Y1886D01*
X977Y1886D02*
X983Y1886D01*
X1001Y1886D02*
X1007Y1886D01*
X1022Y1886D02*
X1035Y1886D01*
X1058Y1886D02*
X1065Y1886D01*
X1072Y1886D02*
X1079Y1886D01*
X514Y1885D02*
X523Y1885D01*
X902Y1885D02*
X908Y1885D01*
X923Y1885D02*
X935Y1885D01*
X953Y1885D02*
X959Y1885D01*
X977Y1885D02*
X983Y1885D01*
X1001Y1885D02*
X1007Y1885D01*
X1022Y1885D02*
X1035Y1885D01*
X1058Y1885D02*
X1065Y1885D01*
X1071Y1885D02*
X1078Y1885D01*
X514Y1884D02*
X523Y1884D01*
X902Y1884D02*
X908Y1884D01*
X923Y1884D02*
X935Y1884D01*
X953Y1884D02*
X959Y1884D01*
X977Y1884D02*
X984Y1884D01*
X1001Y1884D02*
X1007Y1884D01*
X1023Y1884D02*
X1035Y1884D01*
X1059Y1884D02*
X1066Y1884D01*
X1071Y1884D02*
X1078Y1884D01*
X514Y1883D02*
X523Y1883D01*
X902Y1883D02*
X908Y1883D01*
X923Y1883D02*
X935Y1883D01*
X953Y1883D02*
X959Y1883D01*
X978Y1883D02*
X984Y1883D01*
X1001Y1883D02*
X1007Y1883D01*
X1023Y1883D02*
X1035Y1883D01*
X1059Y1883D02*
X1066Y1883D01*
X1070Y1883D02*
X1077Y1883D01*
X514Y1882D02*
X523Y1882D01*
X902Y1882D02*
X908Y1882D01*
X924Y1882D02*
X935Y1882D01*
X952Y1882D02*
X959Y1882D01*
X978Y1882D02*
X984Y1882D01*
X1001Y1882D02*
X1007Y1882D01*
X1024Y1882D02*
X1035Y1882D01*
X1060Y1882D02*
X1077Y1882D01*
X514Y1881D02*
X523Y1881D01*
X902Y1881D02*
X908Y1881D01*
X924Y1881D02*
X935Y1881D01*
X952Y1881D02*
X958Y1881D01*
X978Y1881D02*
X985Y1881D01*
X1001Y1881D02*
X1007Y1881D01*
X1024Y1881D02*
X1035Y1881D01*
X1060Y1881D02*
X1076Y1881D01*
X514Y1880D02*
X523Y1880D01*
X902Y1880D02*
X908Y1880D01*
X925Y1880D02*
X935Y1880D01*
X952Y1880D02*
X958Y1880D01*
X979Y1880D02*
X985Y1880D01*
X1001Y1880D02*
X1007Y1880D01*
X1025Y1880D02*
X1035Y1880D01*
X1061Y1880D02*
X1076Y1880D01*
X514Y1879D02*
X523Y1879D01*
X902Y1879D02*
X908Y1879D01*
X925Y1879D02*
X935Y1879D01*
X951Y1879D02*
X958Y1879D01*
X979Y1879D02*
X985Y1879D01*
X1001Y1879D02*
X1007Y1879D01*
X1025Y1879D02*
X1035Y1879D01*
X1061Y1879D02*
X1075Y1879D01*
X514Y1878D02*
X523Y1878D01*
X902Y1878D02*
X907Y1878D01*
X926Y1878D02*
X935Y1878D01*
X951Y1878D02*
X957Y1878D01*
X979Y1878D02*
X985Y1878D01*
X1002Y1878D02*
X1007Y1878D01*
X1026Y1878D02*
X1035Y1878D01*
X1062Y1878D02*
X1074Y1878D01*
X514Y1877D02*
X523Y1877D01*
X902Y1877D02*
X907Y1877D01*
X926Y1877D02*
X935Y1877D01*
X952Y1877D02*
X957Y1877D01*
X980Y1877D02*
X985Y1877D01*
X1002Y1877D02*
X1007Y1877D01*
X1026Y1877D02*
X1035Y1877D01*
X1064Y1877D02*
X1073Y1877D01*
X514Y1876D02*
X523Y1876D01*
X903Y1876D02*
X906Y1876D01*
X926Y1876D02*
X935Y1876D01*
X953Y1876D02*
X956Y1876D01*
X981Y1876D02*
X984Y1876D01*
X1003Y1876D02*
X1006Y1876D01*
X1026Y1876D02*
X1035Y1876D01*
X1065Y1876D02*
X1071Y1876D01*
X514Y1875D02*
X523Y1875D01*
X514Y1874D02*
X523Y1874D01*
X514Y1873D02*
X523Y1873D01*
X514Y1872D02*
X523Y1872D01*
X514Y1871D02*
X523Y1871D01*
X514Y1870D02*
X523Y1870D01*
X514Y1869D02*
X523Y1869D01*
X514Y1868D02*
X523Y1868D01*
X514Y1867D02*
X523Y1867D01*
X514Y1866D02*
X523Y1866D01*
X515Y1865D02*
X522Y1865D01*
X517Y1864D02*
X520Y1864D01*
X1730Y1862D02*
X1757Y1862D01*
X1780Y1862D02*
X1813Y1862D01*
X1844Y1862D02*
X1862Y1862D01*
X1730Y1861D02*
X1759Y1861D01*
X1780Y1861D02*
X1813Y1861D01*
X1842Y1861D02*
X1863Y1861D01*
X1730Y1860D02*
X1760Y1860D01*
X1780Y1860D02*
X1813Y1860D01*
X1841Y1860D02*
X1863Y1860D01*
X1730Y1859D02*
X1761Y1859D01*
X1780Y1859D02*
X1813Y1859D01*
X1840Y1859D02*
X1863Y1859D01*
X1730Y1858D02*
X1762Y1858D01*
X1780Y1858D02*
X1813Y1858D01*
X1839Y1858D02*
X1863Y1858D01*
X1730Y1857D02*
X1762Y1857D01*
X1780Y1857D02*
X1813Y1857D01*
X1838Y1857D02*
X1862Y1857D01*
X1730Y1856D02*
X1763Y1856D01*
X1780Y1856D02*
X1813Y1856D01*
X1838Y1856D02*
X1861Y1856D01*
X1730Y1855D02*
X1736Y1855D01*
X1756Y1855D02*
X1763Y1855D01*
X1780Y1855D02*
X1786Y1855D01*
X1793Y1855D02*
X1799Y1855D01*
X1807Y1855D02*
X1813Y1855D01*
X1837Y1855D02*
X1845Y1855D01*
X1730Y1854D02*
X1736Y1854D01*
X1757Y1854D02*
X1763Y1854D01*
X1780Y1854D02*
X1786Y1854D01*
X1793Y1854D02*
X1799Y1854D01*
X1807Y1854D02*
X1813Y1854D01*
X1837Y1854D02*
X1844Y1854D01*
X1730Y1853D02*
X1736Y1853D01*
X1757Y1853D02*
X1763Y1853D01*
X1780Y1853D02*
X1786Y1853D01*
X1793Y1853D02*
X1799Y1853D01*
X1807Y1853D02*
X1813Y1853D01*
X1836Y1853D02*
X1843Y1853D01*
X1730Y1852D02*
X1736Y1852D01*
X1757Y1852D02*
X1763Y1852D01*
X1780Y1852D02*
X1785Y1852D01*
X1793Y1852D02*
X1799Y1852D01*
X1808Y1852D02*
X1813Y1852D01*
X1836Y1852D02*
X1843Y1852D01*
X1730Y1851D02*
X1736Y1851D01*
X1757Y1851D02*
X1763Y1851D01*
X1781Y1851D02*
X1785Y1851D01*
X1793Y1851D02*
X1799Y1851D01*
X1808Y1851D02*
X1812Y1851D01*
X1835Y1851D02*
X1842Y1851D01*
X1730Y1850D02*
X1736Y1850D01*
X1757Y1850D02*
X1763Y1850D01*
X1783Y1850D02*
X1783Y1850D01*
X1793Y1850D02*
X1799Y1850D01*
X1810Y1850D02*
X1810Y1850D01*
X1835Y1850D02*
X1842Y1850D01*
X1730Y1849D02*
X1736Y1849D01*
X1757Y1849D02*
X1763Y1849D01*
X1793Y1849D02*
X1799Y1849D01*
X1834Y1849D02*
X1841Y1849D01*
X490Y1848D02*
X501Y1848D01*
X1730Y1848D02*
X1736Y1848D01*
X1757Y1848D02*
X1763Y1848D01*
X1793Y1848D02*
X1799Y1848D01*
X1834Y1848D02*
X1841Y1848D01*
X490Y1847D02*
X502Y1847D01*
X1730Y1847D02*
X1736Y1847D01*
X1757Y1847D02*
X1763Y1847D01*
X1793Y1847D02*
X1799Y1847D01*
X1833Y1847D02*
X1840Y1847D01*
X490Y1846D02*
X502Y1846D01*
X1730Y1846D02*
X1736Y1846D01*
X1756Y1846D02*
X1763Y1846D01*
X1793Y1846D02*
X1799Y1846D01*
X1833Y1846D02*
X1840Y1846D01*
X490Y1845D02*
X502Y1845D01*
X1730Y1845D02*
X1763Y1845D01*
X1793Y1845D02*
X1799Y1845D01*
X1832Y1845D02*
X1839Y1845D01*
X490Y1844D02*
X502Y1844D01*
X1730Y1844D02*
X1762Y1844D01*
X1793Y1844D02*
X1799Y1844D01*
X1832Y1844D02*
X1839Y1844D01*
X490Y1843D02*
X502Y1843D01*
X1730Y1843D02*
X1762Y1843D01*
X1793Y1843D02*
X1799Y1843D01*
X1831Y1843D02*
X1838Y1843D01*
X490Y1842D02*
X501Y1842D01*
X1730Y1842D02*
X1761Y1842D01*
X1793Y1842D02*
X1799Y1842D01*
X1831Y1842D02*
X1838Y1842D01*
X490Y1841D02*
X497Y1841D01*
X1730Y1841D02*
X1760Y1841D01*
X1793Y1841D02*
X1799Y1841D01*
X1831Y1841D02*
X1837Y1841D01*
X490Y1840D02*
X497Y1840D01*
X1730Y1840D02*
X1759Y1840D01*
X1793Y1840D02*
X1799Y1840D01*
X1830Y1840D02*
X1837Y1840D01*
X490Y1839D02*
X497Y1839D01*
X1730Y1839D02*
X1757Y1839D01*
X1793Y1839D02*
X1799Y1839D01*
X1830Y1839D02*
X1836Y1839D01*
X490Y1838D02*
X497Y1838D01*
X1730Y1838D02*
X1736Y1838D01*
X1741Y1838D02*
X1749Y1838D01*
X1793Y1838D02*
X1799Y1838D01*
X1830Y1838D02*
X1836Y1838D01*
X490Y1837D02*
X497Y1837D01*
X1730Y1837D02*
X1736Y1837D01*
X1742Y1837D02*
X1749Y1837D01*
X1793Y1837D02*
X1799Y1837D01*
X1830Y1837D02*
X1836Y1837D01*
X490Y1836D02*
X497Y1836D01*
X1730Y1836D02*
X1736Y1836D01*
X1743Y1836D02*
X1750Y1836D01*
X1793Y1836D02*
X1799Y1836D01*
X1830Y1836D02*
X1836Y1836D01*
X490Y1835D02*
X497Y1835D01*
X1730Y1835D02*
X1736Y1835D01*
X1743Y1835D02*
X1751Y1835D01*
X1793Y1835D02*
X1799Y1835D01*
X1830Y1835D02*
X1836Y1835D01*
X490Y1834D02*
X542Y1834D01*
X1730Y1834D02*
X1736Y1834D01*
X1744Y1834D02*
X1751Y1834D01*
X1793Y1834D02*
X1799Y1834D01*
X1830Y1834D02*
X1836Y1834D01*
X490Y1833D02*
X543Y1833D01*
X1730Y1833D02*
X1736Y1833D01*
X1745Y1833D02*
X1752Y1833D01*
X1793Y1833D02*
X1799Y1833D01*
X1830Y1833D02*
X1836Y1833D01*
X490Y1832D02*
X544Y1832D01*
X1730Y1832D02*
X1736Y1832D01*
X1745Y1832D02*
X1752Y1832D01*
X1793Y1832D02*
X1799Y1832D01*
X1830Y1832D02*
X1837Y1832D01*
X490Y1831D02*
X544Y1831D01*
X1730Y1831D02*
X1736Y1831D01*
X1746Y1831D02*
X1753Y1831D01*
X1793Y1831D02*
X1799Y1831D01*
X1831Y1831D02*
X1837Y1831D01*
X490Y1830D02*
X543Y1830D01*
X1730Y1830D02*
X1736Y1830D01*
X1746Y1830D02*
X1753Y1830D01*
X1793Y1830D02*
X1799Y1830D01*
X1831Y1830D02*
X1837Y1830D01*
X490Y1829D02*
X543Y1829D01*
X1730Y1829D02*
X1736Y1829D01*
X1747Y1829D02*
X1754Y1829D01*
X1793Y1829D02*
X1799Y1829D01*
X1831Y1829D02*
X1838Y1829D01*
X490Y1828D02*
X541Y1828D01*
X1730Y1828D02*
X1736Y1828D01*
X1747Y1828D02*
X1755Y1828D01*
X1793Y1828D02*
X1799Y1828D01*
X1832Y1828D02*
X1839Y1828D01*
X490Y1827D02*
X497Y1827D01*
X1730Y1827D02*
X1736Y1827D01*
X1748Y1827D02*
X1755Y1827D01*
X1793Y1827D02*
X1799Y1827D01*
X1832Y1827D02*
X1839Y1827D01*
X490Y1826D02*
X497Y1826D01*
X1730Y1826D02*
X1736Y1826D01*
X1749Y1826D02*
X1756Y1826D01*
X1793Y1826D02*
X1799Y1826D01*
X1833Y1826D02*
X1840Y1826D01*
X490Y1825D02*
X497Y1825D01*
X1730Y1825D02*
X1736Y1825D01*
X1749Y1825D02*
X1756Y1825D01*
X1793Y1825D02*
X1799Y1825D01*
X1833Y1825D02*
X1840Y1825D01*
X490Y1824D02*
X497Y1824D01*
X1730Y1824D02*
X1736Y1824D01*
X1750Y1824D02*
X1757Y1824D01*
X1793Y1824D02*
X1799Y1824D01*
X1834Y1824D02*
X1841Y1824D01*
X490Y1823D02*
X497Y1823D01*
X1730Y1823D02*
X1736Y1823D01*
X1750Y1823D02*
X1758Y1823D01*
X1793Y1823D02*
X1799Y1823D01*
X1834Y1823D02*
X1841Y1823D01*
X490Y1822D02*
X497Y1822D01*
X1730Y1822D02*
X1736Y1822D01*
X1751Y1822D02*
X1758Y1822D01*
X1793Y1822D02*
X1799Y1822D01*
X1835Y1822D02*
X1842Y1822D01*
X490Y1821D02*
X497Y1821D01*
X1730Y1821D02*
X1736Y1821D01*
X1752Y1821D02*
X1759Y1821D01*
X1793Y1821D02*
X1799Y1821D01*
X1835Y1821D02*
X1842Y1821D01*
X490Y1820D02*
X501Y1820D01*
X1730Y1820D02*
X1736Y1820D01*
X1752Y1820D02*
X1759Y1820D01*
X1793Y1820D02*
X1799Y1820D01*
X1836Y1820D02*
X1843Y1820D01*
X490Y1819D02*
X502Y1819D01*
X1730Y1819D02*
X1736Y1819D01*
X1753Y1819D02*
X1760Y1819D01*
X1793Y1819D02*
X1799Y1819D01*
X1836Y1819D02*
X1843Y1819D01*
X490Y1818D02*
X502Y1818D01*
X1730Y1818D02*
X1736Y1818D01*
X1753Y1818D02*
X1760Y1818D01*
X1793Y1818D02*
X1799Y1818D01*
X1837Y1818D02*
X1844Y1818D01*
X490Y1817D02*
X502Y1817D01*
X1730Y1817D02*
X1736Y1817D01*
X1754Y1817D02*
X1761Y1817D01*
X1793Y1817D02*
X1799Y1817D01*
X1837Y1817D02*
X1844Y1817D01*
X490Y1816D02*
X502Y1816D01*
X1730Y1816D02*
X1736Y1816D01*
X1754Y1816D02*
X1762Y1816D01*
X1793Y1816D02*
X1799Y1816D01*
X1838Y1816D02*
X1845Y1816D01*
X490Y1815D02*
X501Y1815D01*
X1730Y1815D02*
X1736Y1815D01*
X1755Y1815D02*
X1762Y1815D01*
X1793Y1815D02*
X1799Y1815D01*
X1838Y1815D02*
X1862Y1815D01*
X491Y1814D02*
X499Y1814D01*
X1730Y1814D02*
X1736Y1814D01*
X1756Y1814D02*
X1763Y1814D01*
X1793Y1814D02*
X1799Y1814D01*
X1839Y1814D02*
X1863Y1814D01*
X1730Y1813D02*
X1736Y1813D01*
X1756Y1813D02*
X1763Y1813D01*
X1793Y1813D02*
X1799Y1813D01*
X1839Y1813D02*
X1863Y1813D01*
X1730Y1812D02*
X1736Y1812D01*
X1757Y1812D02*
X1763Y1812D01*
X1794Y1812D02*
X1799Y1812D01*
X1840Y1812D02*
X1863Y1812D01*
X1730Y1811D02*
X1736Y1811D01*
X1757Y1811D02*
X1763Y1811D01*
X1794Y1811D02*
X1799Y1811D01*
X1841Y1811D02*
X1863Y1811D01*
X1731Y1810D02*
X1735Y1810D01*
X1758Y1810D02*
X1762Y1810D01*
X1794Y1810D02*
X1799Y1810D01*
X1843Y1810D02*
X1862Y1810D01*
X1732Y1809D02*
X1734Y1809D01*
X1759Y1809D02*
X1761Y1809D01*
X1796Y1809D02*
X1797Y1809D01*
X1845Y1809D02*
X1861Y1809D01*
X492Y1798D02*
X542Y1798D01*
X491Y1797D02*
X543Y1797D01*
X491Y1796D02*
X543Y1796D01*
X491Y1795D02*
X544Y1795D01*
X491Y1794D02*
X543Y1794D01*
X491Y1793D02*
X543Y1793D01*
X492Y1792D02*
X542Y1792D01*
X514Y1791D02*
X520Y1791D01*
X514Y1790D02*
X520Y1790D01*
X514Y1789D02*
X520Y1789D01*
X514Y1788D02*
X520Y1788D01*
X514Y1787D02*
X520Y1787D01*
X514Y1786D02*
X520Y1786D01*
X514Y1785D02*
X520Y1785D01*
X514Y1784D02*
X520Y1784D01*
X514Y1783D02*
X520Y1783D01*
X514Y1782D02*
X520Y1782D01*
X514Y1781D02*
X520Y1781D01*
X514Y1780D02*
X520Y1780D01*
X514Y1779D02*
X520Y1779D01*
X514Y1778D02*
X520Y1778D01*
X514Y1777D02*
X520Y1777D01*
X514Y1776D02*
X520Y1776D01*
X514Y1775D02*
X520Y1775D01*
X514Y1774D02*
X520Y1774D01*
X514Y1773D02*
X520Y1773D01*
X514Y1772D02*
X520Y1772D01*
X494Y1771D02*
X540Y1771D01*
X492Y1770D02*
X542Y1770D01*
X491Y1769D02*
X543Y1769D01*
X491Y1768D02*
X544Y1768D01*
X491Y1767D02*
X544Y1767D01*
X491Y1766D02*
X543Y1766D01*
X492Y1765D02*
X543Y1765D01*
X494Y1764D02*
X540Y1764D01*
X514Y1748D02*
X521Y1748D01*
X511Y1747D02*
X523Y1747D01*
X509Y1746D02*
X525Y1746D01*
X507Y1745D02*
X527Y1745D01*
X505Y1744D02*
X529Y1744D01*
X503Y1743D02*
X531Y1743D01*
X501Y1742D02*
X534Y1742D01*
X499Y1741D02*
X514Y1741D01*
X520Y1741D02*
X536Y1741D01*
X497Y1740D02*
X511Y1740D01*
X523Y1740D02*
X538Y1740D01*
X495Y1739D02*
X509Y1739D01*
X525Y1739D02*
X539Y1739D01*
X494Y1738D02*
X507Y1738D01*
X527Y1738D02*
X540Y1738D01*
X493Y1737D02*
X505Y1737D01*
X529Y1737D02*
X541Y1737D01*
X492Y1736D02*
X503Y1736D01*
X531Y1736D02*
X542Y1736D01*
X492Y1735D02*
X502Y1735D01*
X533Y1735D02*
X543Y1735D01*
X491Y1734D02*
X500Y1734D01*
X535Y1734D02*
X543Y1734D01*
X491Y1733D02*
X498Y1733D01*
X536Y1733D02*
X543Y1733D01*
X491Y1732D02*
X497Y1732D01*
X537Y1732D02*
X543Y1732D01*
X491Y1731D02*
X497Y1731D01*
X538Y1731D02*
X544Y1731D01*
X490Y1730D02*
X497Y1730D01*
X538Y1730D02*
X544Y1730D01*
X490Y1729D02*
X497Y1729D01*
X538Y1729D02*
X544Y1729D01*
X490Y1728D02*
X497Y1728D01*
X537Y1728D02*
X544Y1728D01*
X490Y1727D02*
X544Y1727D01*
X490Y1726D02*
X544Y1726D01*
X490Y1725D02*
X544Y1725D01*
X490Y1724D02*
X544Y1724D01*
X490Y1723D02*
X544Y1723D01*
X490Y1722D02*
X544Y1722D01*
X490Y1721D02*
X544Y1721D01*
X490Y1720D02*
X497Y1720D01*
X538Y1720D02*
X544Y1720D01*
X490Y1719D02*
X497Y1719D01*
X538Y1719D02*
X544Y1719D01*
X490Y1718D02*
X497Y1718D01*
X538Y1718D02*
X544Y1718D01*
X491Y1717D02*
X496Y1717D01*
X538Y1717D02*
X544Y1717D01*
X491Y1716D02*
X496Y1716D01*
X538Y1716D02*
X543Y1716D01*
X492Y1715D02*
X495Y1715D01*
X539Y1715D02*
X542Y1715D01*
X1920Y1649D02*
X1926Y1649D01*
X1936Y1649D02*
X1941Y1649D01*
X1916Y1648D02*
X1927Y1648D01*
X1936Y1648D02*
X1945Y1648D01*
X1914Y1647D02*
X1927Y1647D01*
X1937Y1647D02*
X1947Y1647D01*
X1912Y1646D02*
X1928Y1646D01*
X1937Y1646D02*
X1949Y1646D01*
X1911Y1645D02*
X1928Y1645D01*
X1938Y1645D02*
X1950Y1645D01*
X1910Y1644D02*
X1929Y1644D01*
X1938Y1644D02*
X1951Y1644D01*
X1909Y1643D02*
X1929Y1643D01*
X1939Y1643D02*
X1952Y1643D01*
X1909Y1642D02*
X1929Y1642D01*
X1939Y1642D02*
X1953Y1642D01*
X1908Y1641D02*
X1918Y1641D01*
X1923Y1641D02*
X1930Y1641D01*
X1944Y1641D02*
X1954Y1641D01*
X1907Y1640D02*
X1916Y1640D01*
X1923Y1640D02*
X1930Y1640D01*
X1946Y1640D02*
X1955Y1640D01*
X1907Y1639D02*
X1915Y1639D01*
X1924Y1639D02*
X1931Y1639D01*
X1947Y1639D02*
X1955Y1639D01*
X1906Y1638D02*
X1914Y1638D01*
X1924Y1638D02*
X1931Y1638D01*
X1948Y1638D02*
X1956Y1638D01*
X1906Y1637D02*
X1913Y1637D01*
X1924Y1637D02*
X1932Y1637D01*
X1949Y1637D02*
X1956Y1637D01*
X1906Y1636D02*
X1913Y1636D01*
X1925Y1636D02*
X1932Y1636D01*
X1949Y1636D02*
X1956Y1636D01*
X1905Y1635D02*
X1912Y1635D01*
X1925Y1635D02*
X1933Y1635D01*
X1950Y1635D02*
X1956Y1635D01*
X1905Y1634D02*
X1912Y1634D01*
X1926Y1634D02*
X1933Y1634D01*
X1950Y1634D02*
X1957Y1634D01*
X1905Y1633D02*
X1912Y1633D01*
X1926Y1633D02*
X1933Y1633D01*
X1950Y1633D02*
X1957Y1633D01*
X1905Y1632D02*
X1912Y1632D01*
X1927Y1632D02*
X1934Y1632D01*
X1950Y1632D02*
X1957Y1632D01*
X1905Y1631D02*
X1912Y1631D01*
X1927Y1631D02*
X1934Y1631D01*
X1950Y1631D02*
X1957Y1631D01*
X1905Y1630D02*
X1912Y1630D01*
X1928Y1630D02*
X1935Y1630D01*
X1950Y1630D02*
X1957Y1630D01*
X1905Y1629D02*
X1912Y1629D01*
X1928Y1629D02*
X1935Y1629D01*
X1950Y1629D02*
X1957Y1629D01*
X1905Y1628D02*
X1912Y1628D01*
X1928Y1628D02*
X1936Y1628D01*
X1949Y1628D02*
X1956Y1628D01*
X1906Y1627D02*
X1913Y1627D01*
X1929Y1627D02*
X1936Y1627D01*
X1949Y1627D02*
X1956Y1627D01*
X1906Y1626D02*
X1913Y1626D01*
X1929Y1626D02*
X1937Y1626D01*
X1948Y1626D02*
X1956Y1626D01*
X1906Y1625D02*
X1914Y1625D01*
X1930Y1625D02*
X1937Y1625D01*
X1948Y1625D02*
X1956Y1625D01*
X1907Y1624D02*
X1915Y1624D01*
X1930Y1624D02*
X1937Y1624D01*
X1947Y1624D02*
X1955Y1624D01*
X1907Y1623D02*
X1916Y1623D01*
X1931Y1623D02*
X1938Y1623D01*
X1946Y1623D02*
X1955Y1623D01*
X1908Y1622D02*
X1918Y1622D01*
X1931Y1622D02*
X1938Y1622D01*
X1944Y1622D02*
X1954Y1622D01*
X1909Y1621D02*
X1953Y1621D01*
X1909Y1620D02*
X1952Y1620D01*
X1910Y1619D02*
X1952Y1619D01*
X1911Y1618D02*
X1950Y1618D01*
X1913Y1617D02*
X1949Y1617D01*
X1914Y1616D02*
X1948Y1616D01*
X1916Y1615D02*
X1946Y1615D01*
X1921Y1614D02*
X1941Y1614D01*
X271Y1603D02*
X318Y1603D01*
X269Y1602D02*
X320Y1602D01*
X1919Y1602D02*
X1922Y1602D01*
X268Y1601D02*
X321Y1601D01*
X1916Y1601D02*
X1923Y1601D01*
X268Y1600D02*
X321Y1600D01*
X1914Y1600D02*
X1923Y1600D01*
X268Y1599D02*
X321Y1599D01*
X1913Y1599D02*
X1923Y1599D01*
X268Y1598D02*
X321Y1598D01*
X1911Y1598D02*
X1924Y1598D01*
X268Y1597D02*
X321Y1597D01*
X1910Y1597D02*
X1924Y1597D01*
X268Y1596D02*
X274Y1596D01*
X285Y1596D02*
X292Y1596D01*
X315Y1596D02*
X321Y1596D01*
X1909Y1596D02*
X1925Y1596D01*
X268Y1595D02*
X274Y1595D01*
X285Y1595D02*
X291Y1595D01*
X315Y1595D02*
X321Y1595D01*
X1908Y1595D02*
X1925Y1595D01*
X268Y1594D02*
X274Y1594D01*
X285Y1594D02*
X291Y1594D01*
X316Y1594D02*
X320Y1594D01*
X1908Y1594D02*
X1918Y1594D01*
X268Y1593D02*
X274Y1593D01*
X285Y1593D02*
X291Y1593D01*
X317Y1593D02*
X319Y1593D01*
X1907Y1593D02*
X1916Y1593D01*
X268Y1592D02*
X274Y1592D01*
X285Y1592D02*
X291Y1592D01*
X1907Y1592D02*
X1915Y1592D01*
X268Y1591D02*
X274Y1591D01*
X285Y1591D02*
X291Y1591D01*
X1647Y1591D02*
X1692Y1591D01*
X1906Y1591D02*
X1914Y1591D01*
X268Y1590D02*
X274Y1590D01*
X285Y1590D02*
X291Y1590D01*
X1647Y1590D02*
X1692Y1590D01*
X1906Y1590D02*
X1913Y1590D01*
X268Y1589D02*
X274Y1589D01*
X285Y1589D02*
X291Y1589D01*
X1647Y1589D02*
X1692Y1589D01*
X1906Y1589D02*
X1913Y1589D01*
X268Y1588D02*
X274Y1588D01*
X285Y1588D02*
X291Y1588D01*
X1647Y1588D02*
X1692Y1588D01*
X1905Y1588D02*
X1912Y1588D01*
X268Y1587D02*
X274Y1587D01*
X285Y1587D02*
X291Y1587D01*
X1646Y1587D02*
X1693Y1587D01*
X1905Y1587D02*
X1912Y1587D01*
X268Y1586D02*
X274Y1586D01*
X285Y1586D02*
X291Y1586D01*
X1646Y1586D02*
X1693Y1586D01*
X1905Y1586D02*
X1912Y1586D01*
X268Y1585D02*
X274Y1585D01*
X285Y1585D02*
X291Y1585D01*
X1646Y1585D02*
X1693Y1585D01*
X1905Y1585D02*
X1912Y1585D01*
X268Y1584D02*
X274Y1584D01*
X285Y1584D02*
X291Y1584D01*
X1646Y1584D02*
X1693Y1584D01*
X1905Y1584D02*
X1912Y1584D01*
X268Y1583D02*
X274Y1583D01*
X285Y1583D02*
X291Y1583D01*
X1646Y1583D02*
X1693Y1583D01*
X1905Y1583D02*
X1912Y1583D01*
X268Y1582D02*
X274Y1582D01*
X285Y1582D02*
X291Y1582D01*
X1645Y1582D02*
X1694Y1582D01*
X1905Y1582D02*
X1912Y1582D01*
X268Y1581D02*
X274Y1581D01*
X285Y1581D02*
X291Y1581D01*
X1645Y1581D02*
X1694Y1581D01*
X1905Y1581D02*
X1912Y1581D01*
X268Y1580D02*
X274Y1580D01*
X285Y1580D02*
X291Y1580D01*
X1645Y1580D02*
X1694Y1580D01*
X1906Y1580D02*
X1913Y1580D01*
X268Y1579D02*
X274Y1579D01*
X285Y1579D02*
X291Y1579D01*
X1645Y1579D02*
X1694Y1579D01*
X1906Y1579D02*
X1913Y1579D01*
X268Y1578D02*
X274Y1578D01*
X285Y1578D02*
X291Y1578D01*
X1645Y1578D02*
X1694Y1578D01*
X1906Y1578D02*
X1914Y1578D01*
X268Y1577D02*
X274Y1577D01*
X285Y1577D02*
X291Y1577D01*
X1645Y1577D02*
X1695Y1577D01*
X1907Y1577D02*
X1915Y1577D01*
X268Y1576D02*
X274Y1576D01*
X285Y1576D02*
X291Y1576D01*
X1644Y1576D02*
X1695Y1576D01*
X1907Y1576D02*
X1916Y1576D01*
X268Y1575D02*
X291Y1575D01*
X1644Y1575D02*
X1695Y1575D01*
X1908Y1575D02*
X1919Y1575D01*
X268Y1574D02*
X291Y1574D01*
X1644Y1574D02*
X1695Y1574D01*
X1909Y1574D02*
X1954Y1574D01*
X268Y1573D02*
X291Y1573D01*
X1644Y1573D02*
X1695Y1573D01*
X1909Y1573D02*
X1954Y1573D01*
X268Y1572D02*
X291Y1572D01*
X1644Y1572D02*
X1695Y1572D01*
X1910Y1572D02*
X1955Y1572D01*
X268Y1571D02*
X291Y1571D01*
X1643Y1571D02*
X1696Y1571D01*
X1912Y1571D02*
X1955Y1571D01*
X268Y1570D02*
X291Y1570D01*
X1643Y1570D02*
X1696Y1570D01*
X1913Y1570D02*
X1955Y1570D01*
X270Y1569D02*
X290Y1569D01*
X1643Y1569D02*
X1696Y1569D01*
X1914Y1569D02*
X1956Y1569D01*
X1643Y1568D02*
X1696Y1568D01*
X1917Y1568D02*
X1956Y1568D01*
X1643Y1567D02*
X1696Y1567D01*
X1922Y1567D02*
X1956Y1567D01*
X1643Y1566D02*
X1697Y1566D01*
X1642Y1565D02*
X1697Y1565D01*
X1642Y1564D02*
X1697Y1564D01*
X1642Y1563D02*
X1697Y1563D01*
X1642Y1562D02*
X1697Y1562D01*
X1642Y1561D02*
X1697Y1561D01*
X1641Y1560D02*
X1698Y1560D01*
X1641Y1559D02*
X1698Y1559D01*
X1641Y1558D02*
X1698Y1558D01*
X1641Y1557D02*
X1698Y1557D01*
X1641Y1556D02*
X1698Y1556D01*
X1640Y1555D02*
X1699Y1555D01*
X1918Y1555D02*
X1954Y1555D01*
X1640Y1554D02*
X1699Y1554D01*
X1915Y1554D02*
X1954Y1554D01*
X293Y1553D02*
X296Y1553D01*
X1640Y1553D02*
X1699Y1553D01*
X1914Y1553D02*
X1955Y1553D01*
X289Y1552D02*
X299Y1552D01*
X1640Y1552D02*
X1699Y1552D01*
X1912Y1552D02*
X1955Y1552D01*
X287Y1551D02*
X302Y1551D01*
X1640Y1551D02*
X1699Y1551D01*
X1911Y1551D02*
X1955Y1551D01*
X285Y1550D02*
X304Y1550D01*
X1640Y1550D02*
X1700Y1550D01*
X1910Y1550D02*
X1956Y1550D01*
X283Y1549D02*
X306Y1549D01*
X1639Y1549D02*
X1700Y1549D01*
X1909Y1549D02*
X1956Y1549D01*
X281Y1548D02*
X308Y1548D01*
X1639Y1548D02*
X1700Y1548D01*
X1908Y1548D02*
X1931Y1548D01*
X279Y1547D02*
X310Y1547D01*
X1639Y1547D02*
X1700Y1547D01*
X1908Y1547D02*
X1918Y1547D01*
X1924Y1547D02*
X1931Y1547D01*
X277Y1546D02*
X293Y1546D01*
X296Y1546D02*
X312Y1546D01*
X1639Y1546D02*
X1700Y1546D01*
X1907Y1546D02*
X1916Y1546D01*
X1924Y1546D02*
X1931Y1546D01*
X275Y1545D02*
X290Y1545D01*
X299Y1545D02*
X314Y1545D01*
X1639Y1545D02*
X1700Y1545D01*
X1907Y1545D02*
X1915Y1545D01*
X1924Y1545D02*
X1932Y1545D01*
X273Y1544D02*
X288Y1544D01*
X301Y1544D02*
X316Y1544D01*
X1638Y1544D02*
X1701Y1544D01*
X1906Y1544D02*
X1914Y1544D01*
X1925Y1544D02*
X1932Y1544D01*
X1955Y1544D02*
X1955Y1544D01*
X272Y1543D02*
X286Y1543D01*
X303Y1543D02*
X317Y1543D01*
X1638Y1543D02*
X1701Y1543D01*
X1906Y1543D02*
X1913Y1543D01*
X1925Y1543D02*
X1932Y1543D01*
X1953Y1543D02*
X1955Y1543D01*
X271Y1542D02*
X284Y1542D01*
X305Y1542D02*
X318Y1542D01*
X1638Y1542D02*
X1701Y1542D01*
X1906Y1542D02*
X1913Y1542D01*
X1926Y1542D02*
X1933Y1542D01*
X1950Y1542D02*
X1956Y1542D01*
X270Y1541D02*
X282Y1541D01*
X307Y1541D02*
X319Y1541D01*
X1638Y1541D02*
X1701Y1541D01*
X1905Y1541D02*
X1912Y1541D01*
X1926Y1541D02*
X1933Y1541D01*
X1949Y1541D02*
X1956Y1541D01*
X269Y1540D02*
X280Y1540D01*
X309Y1540D02*
X320Y1540D01*
X1638Y1540D02*
X1701Y1540D01*
X1905Y1540D02*
X1912Y1540D01*
X1926Y1540D02*
X1934Y1540D01*
X1949Y1540D02*
X1956Y1540D01*
X269Y1539D02*
X278Y1539D01*
X311Y1539D02*
X320Y1539D01*
X1637Y1539D02*
X1702Y1539D01*
X1905Y1539D02*
X1912Y1539D01*
X1927Y1539D02*
X1934Y1539D01*
X1950Y1539D02*
X1957Y1539D01*
X268Y1538D02*
X276Y1538D01*
X313Y1538D02*
X320Y1538D01*
X1519Y1538D02*
X1519Y1538D01*
X1637Y1538D02*
X1702Y1538D01*
X1820Y1538D02*
X1820Y1538D01*
X1905Y1538D02*
X1912Y1538D01*
X1927Y1538D02*
X1934Y1538D01*
X1950Y1538D02*
X1957Y1538D01*
X268Y1537D02*
X274Y1537D01*
X314Y1537D02*
X321Y1537D01*
X1518Y1537D02*
X1521Y1537D01*
X1637Y1537D02*
X1702Y1537D01*
X1818Y1537D02*
X1821Y1537D01*
X1905Y1537D02*
X1912Y1537D01*
X1928Y1537D02*
X1935Y1537D01*
X1950Y1537D02*
X1957Y1537D01*
X268Y1536D02*
X274Y1536D01*
X315Y1536D02*
X321Y1536D01*
X1517Y1536D02*
X1522Y1536D01*
X1637Y1536D02*
X1702Y1536D01*
X1817Y1536D02*
X1822Y1536D01*
X1905Y1536D02*
X1912Y1536D01*
X1928Y1536D02*
X1935Y1536D01*
X1950Y1536D02*
X1957Y1536D01*
X268Y1535D02*
X274Y1535D01*
X315Y1535D02*
X321Y1535D01*
X1516Y1535D02*
X1524Y1535D01*
X1637Y1535D02*
X1702Y1535D01*
X1815Y1535D02*
X1823Y1535D01*
X1905Y1535D02*
X1912Y1535D01*
X1929Y1535D02*
X1936Y1535D01*
X1950Y1535D02*
X1957Y1535D01*
X268Y1534D02*
X274Y1534D01*
X315Y1534D02*
X321Y1534D01*
X1515Y1534D02*
X1525Y1534D01*
X1637Y1534D02*
X1703Y1534D01*
X1814Y1534D02*
X1824Y1534D01*
X1906Y1534D02*
X1912Y1534D01*
X1929Y1534D02*
X1936Y1534D01*
X1950Y1534D02*
X1957Y1534D01*
X268Y1533D02*
X274Y1533D01*
X315Y1533D02*
X321Y1533D01*
X1514Y1533D02*
X1527Y1533D01*
X1636Y1533D02*
X1703Y1533D01*
X1813Y1533D02*
X1825Y1533D01*
X1906Y1533D02*
X1913Y1533D01*
X1929Y1533D02*
X1937Y1533D01*
X1950Y1533D02*
X1956Y1533D01*
X268Y1532D02*
X321Y1532D01*
X1513Y1532D02*
X1528Y1532D01*
X1636Y1532D02*
X1703Y1532D01*
X1811Y1532D02*
X1826Y1532D01*
X1906Y1532D02*
X1914Y1532D01*
X1930Y1532D02*
X1937Y1532D01*
X1949Y1532D02*
X1956Y1532D01*
X268Y1531D02*
X321Y1531D01*
X1512Y1531D02*
X1529Y1531D01*
X1636Y1531D02*
X1703Y1531D01*
X1810Y1531D02*
X1827Y1531D01*
X1906Y1531D02*
X1914Y1531D01*
X1930Y1531D02*
X1938Y1531D01*
X1949Y1531D02*
X1956Y1531D01*
X268Y1530D02*
X321Y1530D01*
X1511Y1530D02*
X1531Y1530D01*
X1636Y1530D02*
X1703Y1530D01*
X1808Y1530D02*
X1828Y1530D01*
X1907Y1530D02*
X1915Y1530D01*
X1931Y1530D02*
X1938Y1530D01*
X1948Y1530D02*
X1956Y1530D01*
X268Y1529D02*
X321Y1529D01*
X1510Y1529D02*
X1532Y1529D01*
X1636Y1529D02*
X1703Y1529D01*
X1807Y1529D02*
X1829Y1529D01*
X1908Y1529D02*
X1917Y1529D01*
X1931Y1529D02*
X1939Y1529D01*
X1947Y1529D02*
X1955Y1529D01*
X268Y1528D02*
X321Y1528D01*
X1509Y1528D02*
X1534Y1528D01*
X1635Y1528D02*
X1706Y1528D01*
X1805Y1528D02*
X1830Y1528D01*
X1908Y1528D02*
X1919Y1528D01*
X1932Y1528D02*
X1941Y1528D01*
X1946Y1528D02*
X1955Y1528D01*
X268Y1527D02*
X321Y1527D01*
X1508Y1527D02*
X1535Y1527D01*
X1635Y1527D02*
X1710Y1527D01*
X1804Y1527D02*
X1831Y1527D01*
X1909Y1527D02*
X1923Y1527D01*
X1932Y1527D02*
X1954Y1527D01*
X268Y1526D02*
X321Y1526D01*
X1507Y1526D02*
X1537Y1526D01*
X1630Y1526D02*
X1715Y1526D01*
X1802Y1526D02*
X1832Y1526D01*
X1910Y1526D02*
X1923Y1526D01*
X1933Y1526D02*
X1954Y1526D01*
X268Y1525D02*
X274Y1525D01*
X315Y1525D02*
X321Y1525D01*
X1506Y1525D02*
X1538Y1525D01*
X1626Y1525D02*
X1718Y1525D01*
X1801Y1525D02*
X1833Y1525D01*
X1911Y1525D02*
X1924Y1525D01*
X1933Y1525D02*
X1953Y1525D01*
X268Y1524D02*
X274Y1524D01*
X315Y1524D02*
X321Y1524D01*
X1505Y1524D02*
X1540Y1524D01*
X1623Y1524D02*
X1722Y1524D01*
X1799Y1524D02*
X1834Y1524D01*
X1912Y1524D02*
X1924Y1524D01*
X1934Y1524D02*
X1952Y1524D01*
X268Y1523D02*
X274Y1523D01*
X315Y1523D02*
X321Y1523D01*
X1504Y1523D02*
X1541Y1523D01*
X1620Y1523D02*
X1725Y1523D01*
X1798Y1523D02*
X1835Y1523D01*
X1914Y1523D02*
X1925Y1523D01*
X1935Y1523D02*
X1951Y1523D01*
X268Y1522D02*
X274Y1522D01*
X315Y1522D02*
X321Y1522D01*
X1503Y1522D02*
X1543Y1522D01*
X1617Y1522D02*
X1728Y1522D01*
X1797Y1522D02*
X1836Y1522D01*
X1915Y1522D02*
X1925Y1522D01*
X1936Y1522D02*
X1950Y1522D01*
X268Y1521D02*
X274Y1521D01*
X315Y1521D02*
X321Y1521D01*
X1502Y1521D02*
X1544Y1521D01*
X1614Y1521D02*
X1731Y1521D01*
X1795Y1521D02*
X1837Y1521D01*
X1918Y1521D02*
X1926Y1521D01*
X1938Y1521D02*
X1948Y1521D01*
X268Y1520D02*
X273Y1520D01*
X316Y1520D02*
X320Y1520D01*
X1501Y1520D02*
X1545Y1520D01*
X1611Y1520D02*
X1734Y1520D01*
X1794Y1520D02*
X1838Y1520D01*
X1942Y1520D02*
X1944Y1520D01*
X270Y1519D02*
X272Y1519D01*
X317Y1519D02*
X319Y1519D01*
X1500Y1519D02*
X1547Y1519D01*
X1608Y1519D02*
X1736Y1519D01*
X1792Y1519D02*
X1839Y1519D01*
X1499Y1518D02*
X1548Y1518D01*
X1606Y1518D02*
X1739Y1518D01*
X1791Y1518D02*
X1840Y1518D01*
X1498Y1517D02*
X1550Y1517D01*
X1604Y1517D02*
X1741Y1517D01*
X1789Y1517D02*
X1841Y1517D01*
X1497Y1516D02*
X1551Y1516D01*
X1601Y1516D02*
X1743Y1516D01*
X1788Y1516D02*
X1842Y1516D01*
X1496Y1515D02*
X1553Y1515D01*
X1599Y1515D02*
X1746Y1515D01*
X1786Y1515D02*
X1843Y1515D01*
X1495Y1514D02*
X1554Y1514D01*
X1597Y1514D02*
X1748Y1514D01*
X1785Y1514D02*
X1844Y1514D01*
X1494Y1513D02*
X1556Y1513D01*
X1595Y1513D02*
X1750Y1513D01*
X1783Y1513D02*
X1845Y1513D01*
X1493Y1512D02*
X1557Y1512D01*
X1593Y1512D02*
X1752Y1512D01*
X1782Y1512D02*
X1846Y1512D01*
X1905Y1512D02*
X1948Y1512D01*
X1492Y1511D02*
X1559Y1511D01*
X1591Y1511D02*
X1754Y1511D01*
X1780Y1511D02*
X1847Y1511D01*
X1906Y1511D02*
X1950Y1511D01*
X1491Y1510D02*
X1560Y1510D01*
X1589Y1510D02*
X1756Y1510D01*
X1779Y1510D02*
X1848Y1510D01*
X1906Y1510D02*
X1952Y1510D01*
X1490Y1509D02*
X1561Y1509D01*
X1587Y1509D02*
X1757Y1509D01*
X1778Y1509D02*
X1849Y1509D01*
X1907Y1509D02*
X1953Y1509D01*
X1489Y1508D02*
X1563Y1508D01*
X1586Y1508D02*
X1759Y1508D01*
X1776Y1508D02*
X1850Y1508D01*
X1907Y1508D02*
X1954Y1508D01*
X1488Y1507D02*
X1564Y1507D01*
X1584Y1507D02*
X1761Y1507D01*
X1775Y1507D02*
X1851Y1507D01*
X1908Y1507D02*
X1955Y1507D01*
X1487Y1506D02*
X1566Y1506D01*
X1582Y1506D02*
X1763Y1506D01*
X1773Y1506D02*
X1852Y1506D01*
X1908Y1506D02*
X1955Y1506D01*
X1488Y1505D02*
X1567Y1505D01*
X1580Y1505D02*
X1764Y1505D01*
X1772Y1505D02*
X1851Y1505D01*
X1946Y1505D02*
X1956Y1505D01*
X1489Y1504D02*
X1569Y1504D01*
X1579Y1504D02*
X1766Y1504D01*
X1770Y1504D02*
X1850Y1504D01*
X1948Y1504D02*
X1956Y1504D01*
X1489Y1503D02*
X1570Y1503D01*
X1577Y1503D02*
X1850Y1503D01*
X1949Y1503D02*
X1956Y1503D01*
X1490Y1502D02*
X1572Y1502D01*
X1576Y1502D02*
X1849Y1502D01*
X1950Y1502D02*
X1957Y1502D01*
X1491Y1501D02*
X1848Y1501D01*
X1950Y1501D02*
X1957Y1501D01*
X1492Y1500D02*
X1848Y1500D01*
X1950Y1500D02*
X1957Y1500D01*
X1492Y1499D02*
X1847Y1499D01*
X1950Y1499D02*
X1957Y1499D01*
X1493Y1498D02*
X1846Y1498D01*
X1950Y1498D02*
X1957Y1498D01*
X1494Y1497D02*
X1845Y1497D01*
X1949Y1497D02*
X1956Y1497D01*
X1494Y1496D02*
X1845Y1496D01*
X1948Y1496D02*
X1956Y1496D01*
X1495Y1495D02*
X1844Y1495D01*
X1947Y1495D02*
X1956Y1495D01*
X1496Y1494D02*
X1843Y1494D01*
X1905Y1494D02*
X1955Y1494D01*
X1496Y1493D02*
X1843Y1493D01*
X1906Y1493D02*
X1955Y1493D01*
X1497Y1492D02*
X1842Y1492D01*
X1906Y1492D02*
X1954Y1492D01*
X1498Y1491D02*
X1841Y1491D01*
X1907Y1491D02*
X1953Y1491D01*
X1498Y1490D02*
X1841Y1490D01*
X1907Y1490D02*
X1954Y1490D01*
X1499Y1489D02*
X1840Y1489D01*
X1908Y1489D02*
X1955Y1489D01*
X1500Y1488D02*
X1839Y1488D01*
X1908Y1488D02*
X1955Y1488D01*
X1500Y1487D02*
X1839Y1487D01*
X1945Y1487D02*
X1956Y1487D01*
X1501Y1486D02*
X1838Y1486D01*
X1948Y1486D02*
X1956Y1486D01*
X1502Y1485D02*
X1837Y1485D01*
X1949Y1485D02*
X1956Y1485D01*
X1503Y1484D02*
X1837Y1484D01*
X1950Y1484D02*
X1957Y1484D01*
X1503Y1483D02*
X1836Y1483D01*
X1950Y1483D02*
X1957Y1483D01*
X1504Y1482D02*
X1835Y1482D01*
X1950Y1482D02*
X1957Y1482D01*
X1505Y1481D02*
X1834Y1481D01*
X1950Y1481D02*
X1957Y1481D01*
X1505Y1480D02*
X1834Y1480D01*
X1950Y1480D02*
X1957Y1480D01*
X1506Y1479D02*
X1833Y1479D01*
X1949Y1479D02*
X1957Y1479D01*
X2282Y1479D02*
X2304Y1479D01*
X1507Y1478D02*
X1832Y1478D01*
X1949Y1478D02*
X1956Y1478D01*
X2282Y1478D02*
X2305Y1478D01*
X1507Y1477D02*
X1832Y1477D01*
X1947Y1477D02*
X1956Y1477D01*
X2282Y1477D02*
X2306Y1477D01*
X1508Y1476D02*
X1831Y1476D01*
X1905Y1476D02*
X1956Y1476D01*
X2282Y1476D02*
X2307Y1476D01*
X1509Y1475D02*
X1830Y1475D01*
X1906Y1475D02*
X1955Y1475D01*
X2282Y1475D02*
X2308Y1475D01*
X1509Y1474D02*
X1830Y1474D01*
X1906Y1474D02*
X1954Y1474D01*
X2282Y1474D02*
X2309Y1474D01*
X1510Y1473D02*
X1829Y1473D01*
X1907Y1473D02*
X1954Y1473D01*
X2282Y1473D02*
X2310Y1473D01*
X1511Y1472D02*
X1828Y1472D01*
X1907Y1472D02*
X1952Y1472D01*
X2282Y1472D02*
X2288Y1472D01*
X2302Y1472D02*
X2310Y1472D01*
X1511Y1471D02*
X1828Y1471D01*
X1907Y1471D02*
X1951Y1471D01*
X2282Y1471D02*
X2288Y1471D01*
X2303Y1471D02*
X2311Y1471D01*
X1512Y1470D02*
X1827Y1470D01*
X1908Y1470D02*
X1949Y1470D01*
X2282Y1470D02*
X2288Y1470D01*
X2304Y1470D02*
X2312Y1470D01*
X1513Y1469D02*
X1826Y1469D01*
X1909Y1469D02*
X1944Y1469D01*
X2282Y1469D02*
X2288Y1469D01*
X2305Y1469D02*
X2313Y1469D01*
X1514Y1468D02*
X1826Y1468D01*
X2282Y1468D02*
X2288Y1468D01*
X2306Y1468D02*
X2314Y1468D01*
X1514Y1467D02*
X1825Y1467D01*
X2282Y1467D02*
X2288Y1467D01*
X2306Y1467D02*
X2315Y1467D01*
X1515Y1466D02*
X1824Y1466D01*
X2282Y1466D02*
X2288Y1466D01*
X2307Y1466D02*
X2332Y1466D01*
X1516Y1465D02*
X1824Y1465D01*
X2282Y1465D02*
X2288Y1465D01*
X2308Y1465D02*
X2334Y1465D01*
X1516Y1464D02*
X1823Y1464D01*
X2282Y1464D02*
X2288Y1464D01*
X2309Y1464D02*
X2335Y1464D01*
X1517Y1463D02*
X1822Y1463D01*
X2282Y1463D02*
X2288Y1463D01*
X2310Y1463D02*
X2335Y1463D01*
X1518Y1462D02*
X1821Y1462D01*
X2282Y1462D02*
X2288Y1462D01*
X2311Y1462D02*
X2335Y1462D01*
X1518Y1461D02*
X1821Y1461D01*
X1887Y1461D02*
X1944Y1461D01*
X2282Y1461D02*
X2288Y1461D01*
X2312Y1461D02*
X2334Y1461D01*
X137Y1460D02*
X154Y1460D01*
X1519Y1460D02*
X1820Y1460D01*
X1887Y1460D02*
X1947Y1460D01*
X2282Y1460D02*
X2288Y1460D01*
X2313Y1460D02*
X2334Y1460D01*
X107Y1459D02*
X155Y1459D01*
X1520Y1459D02*
X1819Y1459D01*
X1888Y1459D02*
X1948Y1459D01*
X2282Y1459D02*
X2288Y1459D01*
X102Y1458D02*
X156Y1458D01*
X1520Y1458D02*
X1819Y1458D01*
X1888Y1458D02*
X1950Y1458D01*
X2282Y1458D02*
X2288Y1458D01*
X100Y1457D02*
X157Y1457D01*
X1521Y1457D02*
X1818Y1457D01*
X1889Y1457D02*
X1951Y1457D01*
X2282Y1457D02*
X2288Y1457D01*
X98Y1456D02*
X157Y1456D01*
X1522Y1456D02*
X1817Y1456D01*
X1889Y1456D02*
X1952Y1456D01*
X2282Y1456D02*
X2288Y1456D01*
X97Y1455D02*
X158Y1455D01*
X1522Y1455D02*
X1817Y1455D01*
X1890Y1455D02*
X1953Y1455D01*
X2282Y1455D02*
X2288Y1455D01*
X95Y1454D02*
X158Y1454D01*
X1523Y1454D02*
X1817Y1454D01*
X1908Y1454D02*
X1920Y1454D01*
X1942Y1454D02*
X1954Y1454D01*
X2282Y1454D02*
X2288Y1454D01*
X94Y1453D02*
X157Y1453D01*
X1524Y1453D02*
X1818Y1453D01*
X1908Y1453D02*
X1917Y1453D01*
X1945Y1453D02*
X1954Y1453D01*
X2282Y1453D02*
X2288Y1453D01*
X94Y1452D02*
X157Y1452D01*
X1524Y1452D02*
X1818Y1452D01*
X1907Y1452D02*
X1916Y1452D01*
X1946Y1452D02*
X1955Y1452D01*
X2282Y1452D02*
X2289Y1452D01*
X93Y1451D02*
X156Y1451D01*
X1525Y1451D02*
X1819Y1451D01*
X1907Y1451D02*
X1915Y1451D01*
X1947Y1451D02*
X1955Y1451D01*
X2282Y1451D02*
X2290Y1451D01*
X92Y1450D02*
X155Y1450D01*
X1525Y1450D02*
X1820Y1450D01*
X1906Y1450D02*
X1914Y1450D01*
X1948Y1450D02*
X1956Y1450D01*
X2282Y1450D02*
X2290Y1450D01*
X92Y1449D02*
X154Y1449D01*
X1524Y1449D02*
X1820Y1449D01*
X1906Y1449D02*
X1913Y1449D01*
X1949Y1449D02*
X1956Y1449D01*
X2282Y1449D02*
X2291Y1449D01*
X91Y1448D02*
X141Y1448D01*
X1524Y1448D02*
X1821Y1448D01*
X1906Y1448D02*
X1913Y1448D01*
X1949Y1448D02*
X1956Y1448D01*
X2282Y1448D02*
X2291Y1448D01*
X91Y1447D02*
X112Y1447D01*
X1523Y1447D02*
X1822Y1447D01*
X1905Y1447D02*
X1912Y1447D01*
X1950Y1447D02*
X1956Y1447D01*
X2282Y1447D02*
X2290Y1447D01*
X91Y1446D02*
X104Y1446D01*
X1522Y1446D02*
X1822Y1446D01*
X1905Y1446D02*
X1912Y1446D01*
X1950Y1446D02*
X1957Y1446D01*
X2283Y1446D02*
X2289Y1446D01*
X90Y1445D02*
X103Y1445D01*
X1522Y1445D02*
X1823Y1445D01*
X1905Y1445D02*
X1912Y1445D01*
X1950Y1445D02*
X1957Y1445D01*
X90Y1444D02*
X102Y1444D01*
X1521Y1444D02*
X1823Y1444D01*
X1905Y1444D02*
X1912Y1444D01*
X1950Y1444D02*
X1957Y1444D01*
X90Y1443D02*
X101Y1443D01*
X1521Y1443D02*
X1824Y1443D01*
X1905Y1443D02*
X1912Y1443D01*
X1950Y1443D02*
X1957Y1443D01*
X90Y1442D02*
X101Y1442D01*
X1520Y1442D02*
X1825Y1442D01*
X1905Y1442D02*
X1912Y1442D01*
X1950Y1442D02*
X1957Y1442D01*
X90Y1441D02*
X101Y1441D01*
X1519Y1441D02*
X1825Y1441D01*
X1905Y1441D02*
X1912Y1441D01*
X1950Y1441D02*
X1957Y1441D01*
X90Y1440D02*
X101Y1440D01*
X1519Y1440D02*
X1826Y1440D01*
X1906Y1440D02*
X1912Y1440D01*
X1949Y1440D02*
X1956Y1440D01*
X90Y1439D02*
X101Y1439D01*
X1518Y1439D02*
X1659Y1439D01*
X1681Y1439D02*
X1826Y1439D01*
X1906Y1439D02*
X1913Y1439D01*
X1949Y1439D02*
X1956Y1439D01*
X90Y1438D02*
X101Y1438D01*
X1518Y1438D02*
X1653Y1438D01*
X1687Y1438D02*
X1827Y1438D01*
X1906Y1438D02*
X1914Y1438D01*
X1948Y1438D02*
X1956Y1438D01*
X90Y1437D02*
X101Y1437D01*
X1517Y1437D02*
X1649Y1437D01*
X1691Y1437D02*
X1827Y1437D01*
X1906Y1437D02*
X1914Y1437D01*
X1947Y1437D02*
X1955Y1437D01*
X90Y1436D02*
X101Y1436D01*
X1517Y1436D02*
X1645Y1436D01*
X1695Y1436D02*
X1828Y1436D01*
X1907Y1436D02*
X1916Y1436D01*
X1946Y1436D02*
X1955Y1436D01*
X90Y1435D02*
X101Y1435D01*
X1516Y1435D02*
X1642Y1435D01*
X1698Y1435D02*
X1827Y1435D01*
X1907Y1435D02*
X1917Y1435D01*
X1945Y1435D02*
X1954Y1435D01*
X90Y1434D02*
X101Y1434D01*
X1516Y1434D02*
X1639Y1434D01*
X1701Y1434D02*
X1825Y1434D01*
X1908Y1434D02*
X1920Y1434D01*
X1942Y1434D02*
X1954Y1434D01*
X90Y1433D02*
X101Y1433D01*
X1515Y1433D02*
X1637Y1433D01*
X1703Y1433D02*
X1822Y1433D01*
X1909Y1433D02*
X1953Y1433D01*
X90Y1432D02*
X101Y1432D01*
X1515Y1432D02*
X1635Y1432D01*
X1705Y1432D02*
X1820Y1432D01*
X1910Y1432D02*
X1952Y1432D01*
X90Y1431D02*
X102Y1431D01*
X1514Y1431D02*
X1632Y1431D01*
X1708Y1431D02*
X1817Y1431D01*
X1911Y1431D02*
X1951Y1431D01*
X90Y1430D02*
X102Y1430D01*
X1514Y1430D02*
X1630Y1430D01*
X1709Y1430D02*
X1815Y1430D01*
X1912Y1430D02*
X1950Y1430D01*
X90Y1429D02*
X103Y1429D01*
X1513Y1429D02*
X1629Y1429D01*
X1711Y1429D02*
X1813Y1429D01*
X1913Y1429D02*
X1949Y1429D01*
X2329Y1429D02*
X2334Y1429D01*
X91Y1428D02*
X104Y1428D01*
X1513Y1428D02*
X1627Y1428D01*
X1713Y1428D02*
X1810Y1428D01*
X1915Y1428D02*
X1947Y1428D01*
X2325Y1428D02*
X2335Y1428D01*
X91Y1427D02*
X104Y1427D01*
X1512Y1427D02*
X1625Y1427D01*
X1715Y1427D02*
X1808Y1427D01*
X1918Y1427D02*
X1944Y1427D01*
X2322Y1427D02*
X2335Y1427D01*
X92Y1426D02*
X105Y1426D01*
X1512Y1426D02*
X1624Y1426D01*
X1716Y1426D02*
X1805Y1426D01*
X2318Y1426D02*
X2335Y1426D01*
X92Y1425D02*
X106Y1425D01*
X1512Y1425D02*
X1622Y1425D01*
X1718Y1425D02*
X1803Y1425D01*
X2315Y1425D02*
X2335Y1425D01*
X93Y1424D02*
X106Y1424D01*
X1511Y1424D02*
X1621Y1424D01*
X1719Y1424D02*
X1800Y1424D01*
X2312Y1424D02*
X2334Y1424D01*
X93Y1423D02*
X107Y1423D01*
X1511Y1423D02*
X1619Y1423D01*
X1721Y1423D02*
X1798Y1423D01*
X2308Y1423D02*
X2332Y1423D01*
X94Y1422D02*
X108Y1422D01*
X1510Y1422D02*
X1618Y1422D01*
X1722Y1422D02*
X1796Y1422D01*
X2305Y1422D02*
X2329Y1422D01*
X95Y1421D02*
X108Y1421D01*
X1510Y1421D02*
X1617Y1421D01*
X1723Y1421D02*
X1793Y1421D01*
X2301Y1421D02*
X2325Y1421D01*
X95Y1420D02*
X109Y1420D01*
X1509Y1420D02*
X1615Y1420D01*
X1724Y1420D02*
X1791Y1420D01*
X2298Y1420D02*
X2323Y1420D01*
X96Y1419D02*
X110Y1419D01*
X1509Y1419D02*
X1614Y1419D01*
X1726Y1419D02*
X1788Y1419D01*
X2294Y1419D02*
X2323Y1419D01*
X97Y1418D02*
X110Y1418D01*
X1509Y1418D02*
X1613Y1418D01*
X1727Y1418D02*
X1786Y1418D01*
X2291Y1418D02*
X2315Y1418D01*
X2317Y1418D02*
X2323Y1418D01*
X97Y1417D02*
X111Y1417D01*
X1508Y1417D02*
X1612Y1417D01*
X1728Y1417D02*
X1784Y1417D01*
X2288Y1417D02*
X2312Y1417D01*
X2317Y1417D02*
X2323Y1417D01*
X98Y1416D02*
X111Y1416D01*
X1508Y1416D02*
X1611Y1416D01*
X1729Y1416D02*
X1781Y1416D01*
X2284Y1416D02*
X2308Y1416D01*
X2317Y1416D02*
X2323Y1416D01*
X99Y1415D02*
X112Y1415D01*
X1508Y1415D02*
X1610Y1415D01*
X1730Y1415D02*
X1779Y1415D01*
X2283Y1415D02*
X2305Y1415D01*
X2317Y1415D02*
X2323Y1415D01*
X99Y1414D02*
X113Y1414D01*
X1507Y1414D02*
X1609Y1414D01*
X1731Y1414D02*
X1776Y1414D01*
X1918Y1414D02*
X1922Y1414D01*
X2282Y1414D02*
X2301Y1414D01*
X2317Y1414D02*
X2323Y1414D01*
X100Y1413D02*
X113Y1413D01*
X1507Y1413D02*
X1608Y1413D01*
X1732Y1413D02*
X1774Y1413D01*
X1915Y1413D02*
X1923Y1413D01*
X2282Y1413D02*
X2298Y1413D01*
X2317Y1413D02*
X2323Y1413D01*
X94Y1412D02*
X154Y1412D01*
X1507Y1412D02*
X1607Y1412D01*
X1733Y1412D02*
X1771Y1412D01*
X1913Y1412D02*
X1923Y1412D01*
X2282Y1412D02*
X2299Y1412D01*
X2317Y1412D02*
X2323Y1412D01*
X92Y1411D02*
X155Y1411D01*
X1506Y1411D02*
X1606Y1411D01*
X1734Y1411D02*
X1769Y1411D01*
X1912Y1411D02*
X1924Y1411D01*
X2282Y1411D02*
X2302Y1411D01*
X2317Y1411D02*
X2323Y1411D01*
X91Y1410D02*
X156Y1410D01*
X1506Y1410D02*
X1605Y1410D01*
X1734Y1410D02*
X1767Y1410D01*
X1911Y1410D02*
X1924Y1410D01*
X2283Y1410D02*
X2306Y1410D01*
X2317Y1410D02*
X2323Y1410D01*
X90Y1409D02*
X157Y1409D01*
X1506Y1409D02*
X1605Y1409D01*
X1735Y1409D02*
X1764Y1409D01*
X1910Y1409D02*
X1925Y1409D01*
X2285Y1409D02*
X2309Y1409D01*
X2317Y1409D02*
X2323Y1409D01*
X90Y1408D02*
X157Y1408D01*
X1505Y1408D02*
X1604Y1408D01*
X1736Y1408D02*
X1762Y1408D01*
X1909Y1408D02*
X1925Y1408D01*
X2289Y1408D02*
X2313Y1408D01*
X2317Y1408D02*
X2323Y1408D01*
X90Y1407D02*
X158Y1407D01*
X1505Y1407D02*
X1603Y1407D01*
X1737Y1407D02*
X1759Y1407D01*
X1908Y1407D02*
X1920Y1407D01*
X2292Y1407D02*
X2323Y1407D01*
X90Y1406D02*
X158Y1406D01*
X1505Y1406D02*
X1602Y1406D01*
X1738Y1406D02*
X1757Y1406D01*
X1908Y1406D02*
X1917Y1406D01*
X2296Y1406D02*
X2323Y1406D01*
X90Y1405D02*
X157Y1405D01*
X1504Y1405D02*
X1602Y1405D01*
X1738Y1405D02*
X1755Y1405D01*
X1907Y1405D02*
X1916Y1405D01*
X2299Y1405D02*
X2323Y1405D01*
X90Y1404D02*
X157Y1404D01*
X1504Y1404D02*
X1601Y1404D01*
X1739Y1404D02*
X1752Y1404D01*
X1906Y1404D02*
X1914Y1404D01*
X2302Y1404D02*
X2326Y1404D01*
X91Y1403D02*
X156Y1403D01*
X1504Y1403D02*
X1600Y1403D01*
X1740Y1403D02*
X1750Y1403D01*
X1906Y1403D02*
X1914Y1403D01*
X2306Y1403D02*
X2330Y1403D01*
X92Y1402D02*
X156Y1402D01*
X1503Y1402D02*
X1599Y1402D01*
X1740Y1402D02*
X1747Y1402D01*
X1906Y1402D02*
X1913Y1402D01*
X2309Y1402D02*
X2333Y1402D01*
X93Y1401D02*
X154Y1401D01*
X1503Y1401D02*
X1599Y1401D01*
X1741Y1401D02*
X1745Y1401D01*
X1906Y1401D02*
X1913Y1401D01*
X2313Y1401D02*
X2334Y1401D01*
X1503Y1400D02*
X1598Y1400D01*
X1742Y1400D02*
X1742Y1400D01*
X1905Y1400D02*
X1912Y1400D01*
X2316Y1400D02*
X2335Y1400D01*
X1503Y1399D02*
X1598Y1399D01*
X1905Y1399D02*
X1912Y1399D01*
X2319Y1399D02*
X2335Y1399D01*
X1502Y1398D02*
X1597Y1398D01*
X1905Y1398D02*
X1912Y1398D01*
X2323Y1398D02*
X2335Y1398D01*
X1502Y1397D02*
X1596Y1397D01*
X1905Y1397D02*
X1912Y1397D01*
X2326Y1397D02*
X2334Y1397D01*
X1502Y1396D02*
X1596Y1396D01*
X1905Y1396D02*
X1912Y1396D01*
X2330Y1396D02*
X2333Y1396D01*
X1502Y1395D02*
X1595Y1395D01*
X1905Y1395D02*
X1912Y1395D01*
X1502Y1394D02*
X1595Y1394D01*
X1905Y1394D02*
X1912Y1394D01*
X1501Y1393D02*
X1594Y1393D01*
X1906Y1393D02*
X1913Y1393D01*
X1501Y1392D02*
X1594Y1392D01*
X1906Y1392D02*
X1913Y1392D01*
X1501Y1391D02*
X1593Y1391D01*
X1906Y1391D02*
X1914Y1391D01*
X1496Y1390D02*
X1593Y1390D01*
X1907Y1390D02*
X1915Y1390D01*
X1491Y1389D02*
X1592Y1389D01*
X1907Y1389D02*
X1916Y1389D01*
X1486Y1388D02*
X1592Y1388D01*
X1908Y1388D02*
X1917Y1388D01*
X1480Y1387D02*
X1592Y1387D01*
X1908Y1387D02*
X1920Y1387D01*
X1475Y1386D02*
X1591Y1386D01*
X1909Y1386D02*
X1954Y1386D01*
X1469Y1385D02*
X1591Y1385D01*
X1910Y1385D02*
X1954Y1385D01*
X1464Y1384D02*
X1590Y1384D01*
X1911Y1384D02*
X1955Y1384D01*
X1459Y1383D02*
X1590Y1383D01*
X1912Y1383D02*
X1955Y1383D01*
X1453Y1382D02*
X1590Y1382D01*
X1913Y1382D02*
X1956Y1382D01*
X1448Y1381D02*
X1589Y1381D01*
X1915Y1381D02*
X1956Y1381D01*
X1443Y1380D02*
X1589Y1380D01*
X1918Y1380D02*
X1956Y1380D01*
X1437Y1379D02*
X1589Y1379D01*
X1434Y1378D02*
X1589Y1378D01*
X1434Y1377D02*
X1588Y1377D01*
X1434Y1376D02*
X1588Y1376D01*
X1434Y1375D02*
X1588Y1375D01*
X1434Y1374D02*
X1588Y1374D01*
X108Y1373D02*
X128Y1373D01*
X150Y1373D02*
X154Y1373D01*
X1434Y1373D02*
X1587Y1373D01*
X105Y1372D02*
X130Y1372D01*
X149Y1372D02*
X155Y1372D01*
X1434Y1372D02*
X1587Y1372D01*
X103Y1371D02*
X130Y1371D01*
X148Y1371D02*
X156Y1371D01*
X1434Y1371D02*
X1587Y1371D01*
X101Y1370D02*
X131Y1370D01*
X147Y1370D02*
X157Y1370D01*
X1434Y1370D02*
X1587Y1370D01*
X100Y1369D02*
X132Y1369D01*
X147Y1369D02*
X157Y1369D01*
X1434Y1369D02*
X1587Y1369D01*
X99Y1368D02*
X132Y1368D01*
X146Y1368D02*
X157Y1368D01*
X1434Y1368D02*
X1586Y1368D01*
X98Y1367D02*
X132Y1367D01*
X146Y1367D02*
X158Y1367D01*
X1434Y1367D02*
X1586Y1367D01*
X1917Y1367D02*
X1954Y1367D01*
X97Y1366D02*
X132Y1366D01*
X146Y1366D02*
X158Y1366D01*
X1434Y1366D02*
X1586Y1366D01*
X1915Y1366D02*
X1954Y1366D01*
X96Y1365D02*
X132Y1365D01*
X146Y1365D02*
X158Y1365D01*
X1434Y1365D02*
X1586Y1365D01*
X1913Y1365D02*
X1955Y1365D01*
X95Y1364D02*
X132Y1364D01*
X146Y1364D02*
X158Y1364D01*
X1434Y1364D02*
X1586Y1364D01*
X1912Y1364D02*
X1955Y1364D01*
X94Y1363D02*
X132Y1363D01*
X146Y1363D02*
X158Y1363D01*
X1434Y1363D02*
X1586Y1363D01*
X1910Y1363D02*
X1956Y1363D01*
X94Y1362D02*
X132Y1362D01*
X146Y1362D02*
X158Y1362D01*
X1434Y1362D02*
X1586Y1362D01*
X1910Y1362D02*
X1956Y1362D01*
X93Y1361D02*
X109Y1361D01*
X120Y1361D02*
X132Y1361D01*
X146Y1361D02*
X158Y1361D01*
X1434Y1361D02*
X1586Y1361D01*
X1909Y1361D02*
X1957Y1361D01*
X92Y1360D02*
X107Y1360D01*
X121Y1360D02*
X132Y1360D01*
X146Y1360D02*
X158Y1360D01*
X1434Y1360D02*
X1586Y1360D01*
X1908Y1360D02*
X1919Y1360D01*
X1923Y1360D02*
X1931Y1360D01*
X92Y1359D02*
X106Y1359D01*
X121Y1359D02*
X132Y1359D01*
X146Y1359D02*
X158Y1359D01*
X1434Y1359D02*
X1586Y1359D01*
X1907Y1359D02*
X1917Y1359D01*
X1924Y1359D02*
X1931Y1359D01*
X91Y1358D02*
X105Y1358D01*
X121Y1358D02*
X132Y1358D01*
X146Y1358D02*
X158Y1358D01*
X1434Y1358D02*
X1586Y1358D01*
X1907Y1358D02*
X1915Y1358D01*
X1924Y1358D02*
X1931Y1358D01*
X91Y1357D02*
X104Y1357D01*
X121Y1357D02*
X132Y1357D01*
X146Y1357D02*
X158Y1357D01*
X1434Y1357D02*
X1585Y1357D01*
X1906Y1357D02*
X1914Y1357D01*
X1925Y1357D02*
X1932Y1357D01*
X91Y1356D02*
X103Y1356D01*
X121Y1356D02*
X132Y1356D01*
X146Y1356D02*
X158Y1356D01*
X1434Y1356D02*
X1585Y1356D01*
X1906Y1356D02*
X1914Y1356D01*
X1925Y1356D02*
X1932Y1356D01*
X1954Y1356D02*
X1955Y1356D01*
X90Y1355D02*
X102Y1355D01*
X121Y1355D02*
X132Y1355D01*
X146Y1355D02*
X158Y1355D01*
X1434Y1355D02*
X1585Y1355D01*
X1906Y1355D02*
X1913Y1355D01*
X1925Y1355D02*
X1933Y1355D01*
X1952Y1355D02*
X1956Y1355D01*
X90Y1354D02*
X102Y1354D01*
X121Y1354D02*
X132Y1354D01*
X146Y1354D02*
X158Y1354D01*
X1434Y1354D02*
X1585Y1354D01*
X1905Y1354D02*
X1912Y1354D01*
X1926Y1354D02*
X1933Y1354D01*
X1949Y1354D02*
X1956Y1354D01*
X90Y1353D02*
X101Y1353D01*
X121Y1353D02*
X132Y1353D01*
X146Y1353D02*
X158Y1353D01*
X1434Y1353D02*
X1586Y1353D01*
X1905Y1353D02*
X1912Y1353D01*
X1926Y1353D02*
X1933Y1353D01*
X1949Y1353D02*
X1956Y1353D01*
X90Y1352D02*
X101Y1352D01*
X121Y1352D02*
X132Y1352D01*
X146Y1352D02*
X158Y1352D01*
X1434Y1352D02*
X1586Y1352D01*
X1905Y1352D02*
X1912Y1352D01*
X1927Y1352D02*
X1934Y1352D01*
X1950Y1352D02*
X1956Y1352D01*
X90Y1351D02*
X101Y1351D01*
X121Y1351D02*
X132Y1351D01*
X146Y1351D02*
X158Y1351D01*
X1434Y1351D02*
X1586Y1351D01*
X1905Y1351D02*
X1912Y1351D01*
X1927Y1351D02*
X1934Y1351D01*
X1950Y1351D02*
X1957Y1351D01*
X90Y1350D02*
X101Y1350D01*
X121Y1350D02*
X132Y1350D01*
X146Y1350D02*
X158Y1350D01*
X1434Y1350D02*
X1586Y1350D01*
X1905Y1350D02*
X1912Y1350D01*
X1927Y1350D02*
X1935Y1350D01*
X1950Y1350D02*
X1957Y1350D01*
X90Y1349D02*
X101Y1349D01*
X121Y1349D02*
X132Y1349D01*
X146Y1349D02*
X158Y1349D01*
X1434Y1349D02*
X1586Y1349D01*
X1905Y1349D02*
X1912Y1349D01*
X1928Y1349D02*
X1935Y1349D01*
X1950Y1349D02*
X1957Y1349D01*
X90Y1348D02*
X101Y1348D01*
X121Y1348D02*
X132Y1348D01*
X146Y1348D02*
X158Y1348D01*
X1434Y1348D02*
X1586Y1348D01*
X1905Y1348D02*
X1912Y1348D01*
X1928Y1348D02*
X1935Y1348D01*
X1950Y1348D02*
X1957Y1348D01*
X90Y1347D02*
X101Y1347D01*
X121Y1347D02*
X132Y1347D01*
X146Y1347D02*
X158Y1347D01*
X1434Y1347D02*
X1586Y1347D01*
X1905Y1347D02*
X1912Y1347D01*
X1929Y1347D02*
X1936Y1347D01*
X1950Y1347D02*
X1957Y1347D01*
X90Y1346D02*
X101Y1346D01*
X121Y1346D02*
X132Y1346D01*
X146Y1346D02*
X158Y1346D01*
X1434Y1346D02*
X1586Y1346D01*
X1906Y1346D02*
X1913Y1346D01*
X1929Y1346D02*
X1936Y1346D01*
X1950Y1346D02*
X1957Y1346D01*
X90Y1345D02*
X101Y1345D01*
X121Y1345D02*
X132Y1345D01*
X146Y1345D02*
X158Y1345D01*
X1434Y1345D02*
X1586Y1345D01*
X1906Y1345D02*
X1913Y1345D01*
X1930Y1345D02*
X1937Y1345D01*
X1950Y1345D02*
X1956Y1345D01*
X90Y1344D02*
X101Y1344D01*
X121Y1344D02*
X132Y1344D01*
X146Y1344D02*
X158Y1344D01*
X1434Y1344D02*
X1586Y1344D01*
X1906Y1344D02*
X1914Y1344D01*
X1930Y1344D02*
X1937Y1344D01*
X1949Y1344D02*
X1956Y1344D01*
X90Y1343D02*
X101Y1343D01*
X121Y1343D02*
X132Y1343D01*
X146Y1343D02*
X158Y1343D01*
X1434Y1343D02*
X1587Y1343D01*
X1907Y1343D02*
X1915Y1343D01*
X1930Y1343D02*
X1938Y1343D01*
X1949Y1343D02*
X1956Y1343D01*
X90Y1342D02*
X101Y1342D01*
X121Y1342D02*
X132Y1342D01*
X146Y1342D02*
X158Y1342D01*
X1434Y1342D02*
X1587Y1342D01*
X1907Y1342D02*
X1916Y1342D01*
X1931Y1342D02*
X1939Y1342D01*
X1948Y1342D02*
X1956Y1342D01*
X90Y1341D02*
X101Y1341D01*
X121Y1341D02*
X132Y1341D01*
X146Y1341D02*
X158Y1341D01*
X1434Y1341D02*
X1587Y1341D01*
X1908Y1341D02*
X1918Y1341D01*
X1931Y1341D02*
X1940Y1341D01*
X1947Y1341D02*
X1955Y1341D01*
X90Y1340D02*
X101Y1340D01*
X121Y1340D02*
X132Y1340D01*
X146Y1340D02*
X158Y1340D01*
X1434Y1340D02*
X1587Y1340D01*
X1908Y1340D02*
X1922Y1340D01*
X1932Y1340D02*
X1955Y1340D01*
X90Y1339D02*
X101Y1339D01*
X121Y1339D02*
X132Y1339D01*
X146Y1339D02*
X158Y1339D01*
X1434Y1339D02*
X1587Y1339D01*
X1909Y1339D02*
X1923Y1339D01*
X1932Y1339D02*
X1954Y1339D01*
X90Y1338D02*
X101Y1338D01*
X121Y1338D02*
X132Y1338D01*
X146Y1338D02*
X158Y1338D01*
X1434Y1338D02*
X1587Y1338D01*
X1910Y1338D02*
X1923Y1338D01*
X1933Y1338D02*
X1953Y1338D01*
X90Y1337D02*
X101Y1337D01*
X121Y1337D02*
X132Y1337D01*
X146Y1337D02*
X158Y1337D01*
X1434Y1337D02*
X1588Y1337D01*
X1912Y1337D02*
X1924Y1337D01*
X1934Y1337D02*
X1952Y1337D01*
X90Y1336D02*
X101Y1336D01*
X121Y1336D02*
X132Y1336D01*
X146Y1336D02*
X158Y1336D01*
X1434Y1336D02*
X1588Y1336D01*
X1913Y1336D02*
X1924Y1336D01*
X1934Y1336D02*
X1952Y1336D01*
X90Y1335D02*
X101Y1335D01*
X121Y1335D02*
X132Y1335D01*
X146Y1335D02*
X158Y1335D01*
X1434Y1335D02*
X1588Y1335D01*
X1914Y1335D02*
X1925Y1335D01*
X1936Y1335D02*
X1950Y1335D01*
X90Y1334D02*
X101Y1334D01*
X121Y1334D02*
X132Y1334D01*
X146Y1334D02*
X157Y1334D01*
X1434Y1334D02*
X1588Y1334D01*
X1916Y1334D02*
X1925Y1334D01*
X1937Y1334D02*
X1949Y1334D01*
X90Y1333D02*
X102Y1333D01*
X121Y1333D02*
X132Y1333D01*
X146Y1333D02*
X157Y1333D01*
X1435Y1333D02*
X1589Y1333D01*
X1919Y1333D02*
X1926Y1333D01*
X1939Y1333D02*
X1947Y1333D01*
X90Y1332D02*
X102Y1332D01*
X121Y1332D02*
X132Y1332D01*
X145Y1332D02*
X157Y1332D01*
X1439Y1332D02*
X1589Y1332D01*
X90Y1331D02*
X103Y1331D01*
X121Y1331D02*
X132Y1331D01*
X144Y1331D02*
X157Y1331D01*
X1444Y1331D02*
X1589Y1331D01*
X91Y1330D02*
X104Y1330D01*
X121Y1330D02*
X132Y1330D01*
X143Y1330D02*
X157Y1330D01*
X1450Y1330D02*
X1589Y1330D01*
X91Y1329D02*
X105Y1329D01*
X121Y1329D02*
X132Y1329D01*
X143Y1329D02*
X156Y1329D01*
X1455Y1329D02*
X1590Y1329D01*
X92Y1328D02*
X106Y1328D01*
X121Y1328D02*
X132Y1328D01*
X142Y1328D02*
X156Y1328D01*
X1461Y1328D02*
X1590Y1328D01*
X92Y1327D02*
X107Y1327D01*
X121Y1327D02*
X132Y1327D01*
X141Y1327D02*
X155Y1327D01*
X1466Y1327D02*
X1591Y1327D01*
X93Y1326D02*
X108Y1326D01*
X121Y1326D02*
X132Y1326D01*
X139Y1326D02*
X155Y1326D01*
X1471Y1326D02*
X1591Y1326D01*
X93Y1325D02*
X154Y1325D01*
X1477Y1325D02*
X1591Y1325D01*
X94Y1324D02*
X153Y1324D01*
X1482Y1324D02*
X1592Y1324D01*
X95Y1323D02*
X153Y1323D01*
X1488Y1323D02*
X1592Y1323D01*
X96Y1322D02*
X152Y1322D01*
X1493Y1322D02*
X1593Y1322D01*
X97Y1321D02*
X151Y1321D01*
X1498Y1321D02*
X1593Y1321D01*
X1923Y1321D02*
X1953Y1321D01*
X97Y1320D02*
X150Y1320D01*
X1501Y1320D02*
X1593Y1320D01*
X1917Y1320D02*
X1954Y1320D01*
X98Y1319D02*
X149Y1319D01*
X1501Y1319D02*
X1594Y1319D01*
X1915Y1319D02*
X1954Y1319D01*
X99Y1318D02*
X148Y1318D01*
X1501Y1318D02*
X1594Y1318D01*
X1913Y1318D02*
X1955Y1318D01*
X101Y1317D02*
X147Y1317D01*
X1502Y1317D02*
X1595Y1317D01*
X1912Y1317D02*
X1955Y1317D01*
X102Y1316D02*
X146Y1316D01*
X1502Y1316D02*
X1595Y1316D01*
X1911Y1316D02*
X1956Y1316D01*
X104Y1315D02*
X144Y1315D01*
X1502Y1315D02*
X1596Y1315D01*
X1910Y1315D02*
X1956Y1315D01*
X106Y1314D02*
X141Y1314D01*
X1502Y1314D02*
X1597Y1314D01*
X1909Y1314D02*
X1957Y1314D01*
X1503Y1313D02*
X1597Y1313D01*
X1908Y1313D02*
X1919Y1313D01*
X1503Y1312D02*
X1598Y1312D01*
X1907Y1312D02*
X1917Y1312D01*
X1503Y1311D02*
X1598Y1311D01*
X1742Y1311D02*
X1743Y1311D01*
X1907Y1311D02*
X1915Y1311D01*
X1503Y1310D02*
X1599Y1310D01*
X1741Y1310D02*
X1746Y1310D01*
X1906Y1310D02*
X1914Y1310D01*
X1504Y1309D02*
X1600Y1309D01*
X1740Y1309D02*
X1748Y1309D01*
X1906Y1309D02*
X1914Y1309D01*
X1504Y1308D02*
X1600Y1308D01*
X1740Y1308D02*
X1751Y1308D01*
X1906Y1308D02*
X1913Y1308D01*
X1504Y1307D02*
X1601Y1307D01*
X1739Y1307D02*
X1753Y1307D01*
X1905Y1307D02*
X1912Y1307D01*
X1504Y1306D02*
X1602Y1306D01*
X1738Y1306D02*
X1755Y1306D01*
X1905Y1306D02*
X1912Y1306D01*
X1505Y1305D02*
X1603Y1305D01*
X1737Y1305D02*
X1758Y1305D01*
X1905Y1305D02*
X1912Y1305D01*
X1505Y1304D02*
X1603Y1304D01*
X1737Y1304D02*
X1760Y1304D01*
X1905Y1304D02*
X1912Y1304D01*
X1505Y1303D02*
X1604Y1303D01*
X1736Y1303D02*
X1763Y1303D01*
X1905Y1303D02*
X1912Y1303D01*
X1506Y1302D02*
X1605Y1302D01*
X1735Y1302D02*
X1765Y1302D01*
X1905Y1302D02*
X1912Y1302D01*
X1506Y1301D02*
X1606Y1301D01*
X1734Y1301D02*
X1768Y1301D01*
X1905Y1301D02*
X1912Y1301D01*
X1506Y1300D02*
X1607Y1300D01*
X1733Y1300D02*
X1770Y1300D01*
X1905Y1300D02*
X1912Y1300D01*
X1507Y1299D02*
X1608Y1299D01*
X1732Y1299D02*
X1772Y1299D01*
X1906Y1299D02*
X1913Y1299D01*
X1507Y1298D02*
X1608Y1298D01*
X1731Y1298D02*
X1775Y1298D01*
X1906Y1298D02*
X1913Y1298D01*
X1507Y1297D02*
X1609Y1297D01*
X1730Y1297D02*
X1777Y1297D01*
X1906Y1297D02*
X1914Y1297D01*
X1508Y1296D02*
X1610Y1296D01*
X1729Y1296D02*
X1780Y1296D01*
X1907Y1296D02*
X1915Y1296D01*
X1508Y1295D02*
X1611Y1295D01*
X1728Y1295D02*
X1782Y1295D01*
X1907Y1295D02*
X1916Y1295D01*
X1508Y1294D02*
X1613Y1294D01*
X1727Y1294D02*
X1784Y1294D01*
X1908Y1294D02*
X1918Y1294D01*
X1509Y1293D02*
X1614Y1293D01*
X1726Y1293D02*
X1787Y1293D01*
X1887Y1293D02*
X1953Y1293D01*
X1509Y1292D02*
X1615Y1292D01*
X1725Y1292D02*
X1789Y1292D01*
X1887Y1292D02*
X1954Y1292D01*
X1510Y1291D02*
X1616Y1291D01*
X1724Y1291D02*
X1792Y1291D01*
X1888Y1291D02*
X1954Y1291D01*
X1510Y1290D02*
X1617Y1290D01*
X1723Y1290D02*
X1794Y1290D01*
X1888Y1290D02*
X1955Y1290D01*
X1510Y1289D02*
X1619Y1289D01*
X1721Y1289D02*
X1797Y1289D01*
X1888Y1289D02*
X1955Y1289D01*
X1511Y1288D02*
X1620Y1288D01*
X1720Y1288D02*
X1799Y1288D01*
X1889Y1288D02*
X1956Y1288D01*
X1511Y1287D02*
X1621Y1287D01*
X1719Y1287D02*
X1801Y1287D01*
X1889Y1287D02*
X1956Y1287D01*
X69Y1286D02*
X153Y1286D01*
X1512Y1286D02*
X1623Y1286D01*
X1717Y1286D02*
X1804Y1286D01*
X1890Y1286D02*
X1957Y1286D01*
X67Y1285D02*
X155Y1285D01*
X1512Y1285D02*
X1624Y1285D01*
X1716Y1285D02*
X1806Y1285D01*
X66Y1284D02*
X156Y1284D01*
X1513Y1284D02*
X1626Y1284D01*
X1714Y1284D02*
X1809Y1284D01*
X65Y1283D02*
X157Y1283D01*
X1513Y1283D02*
X1627Y1283D01*
X1712Y1283D02*
X1811Y1283D01*
X64Y1282D02*
X157Y1282D01*
X1513Y1282D02*
X1629Y1282D01*
X1711Y1282D02*
X1813Y1282D01*
X64Y1281D02*
X157Y1281D01*
X1514Y1281D02*
X1631Y1281D01*
X1709Y1281D02*
X1816Y1281D01*
X64Y1280D02*
X158Y1280D01*
X1514Y1280D02*
X1633Y1280D01*
X1707Y1280D02*
X1818Y1280D01*
X64Y1279D02*
X157Y1279D01*
X1515Y1279D02*
X1635Y1279D01*
X1705Y1279D02*
X1821Y1279D01*
X64Y1278D02*
X157Y1278D01*
X1515Y1278D02*
X1638Y1278D01*
X1702Y1278D02*
X1823Y1278D01*
X65Y1277D02*
X157Y1277D01*
X1516Y1277D02*
X1640Y1277D01*
X1700Y1277D02*
X1826Y1277D01*
X66Y1276D02*
X156Y1276D01*
X1516Y1276D02*
X1643Y1276D01*
X1697Y1276D02*
X1828Y1276D01*
X67Y1275D02*
X155Y1275D01*
X1517Y1275D02*
X1646Y1275D01*
X1694Y1275D02*
X1828Y1275D01*
X70Y1274D02*
X151Y1274D01*
X1517Y1274D02*
X1650Y1274D01*
X1690Y1274D02*
X1827Y1274D01*
X97Y1273D02*
X113Y1273D01*
X135Y1273D02*
X150Y1273D01*
X1518Y1273D02*
X1655Y1273D01*
X1685Y1273D02*
X1827Y1273D01*
X96Y1272D02*
X112Y1272D01*
X136Y1272D02*
X151Y1272D01*
X1519Y1272D02*
X1663Y1272D01*
X1677Y1272D02*
X1826Y1272D01*
X96Y1271D02*
X111Y1271D01*
X137Y1271D02*
X152Y1271D01*
X1519Y1271D02*
X1825Y1271D01*
X95Y1270D02*
X110Y1270D01*
X137Y1270D02*
X153Y1270D01*
X1520Y1270D02*
X1825Y1270D01*
X94Y1269D02*
X109Y1269D01*
X138Y1269D02*
X154Y1269D01*
X1520Y1269D02*
X1824Y1269D01*
X93Y1268D02*
X108Y1268D01*
X139Y1268D02*
X154Y1268D01*
X1521Y1268D02*
X1824Y1268D01*
X93Y1267D02*
X107Y1267D01*
X140Y1267D02*
X155Y1267D01*
X1521Y1267D02*
X1823Y1267D01*
X92Y1266D02*
X106Y1266D01*
X141Y1266D02*
X156Y1266D01*
X1522Y1266D02*
X1823Y1266D01*
X91Y1265D02*
X106Y1265D01*
X142Y1265D02*
X156Y1265D01*
X1523Y1265D02*
X1822Y1265D01*
X91Y1264D02*
X105Y1264D01*
X143Y1264D02*
X156Y1264D01*
X1523Y1264D02*
X1821Y1264D01*
X91Y1263D02*
X104Y1263D01*
X143Y1263D02*
X157Y1263D01*
X1524Y1263D02*
X1821Y1263D01*
X90Y1262D02*
X103Y1262D01*
X144Y1262D02*
X157Y1262D01*
X1524Y1262D02*
X1820Y1262D01*
X90Y1261D02*
X102Y1261D01*
X145Y1261D02*
X157Y1261D01*
X1525Y1261D02*
X1820Y1261D01*
X90Y1260D02*
X102Y1260D01*
X146Y1260D02*
X157Y1260D01*
X1525Y1260D02*
X1819Y1260D01*
X90Y1259D02*
X101Y1259D01*
X146Y1259D02*
X157Y1259D01*
X1524Y1259D02*
X1818Y1259D01*
X90Y1258D02*
X101Y1258D01*
X146Y1258D02*
X158Y1258D01*
X1524Y1258D02*
X1818Y1258D01*
X90Y1257D02*
X101Y1257D01*
X146Y1257D02*
X158Y1257D01*
X1523Y1257D02*
X1817Y1257D01*
X90Y1256D02*
X101Y1256D01*
X146Y1256D02*
X158Y1256D01*
X1522Y1256D02*
X1817Y1256D01*
X90Y1255D02*
X101Y1255D01*
X146Y1255D02*
X158Y1255D01*
X1521Y1255D02*
X1818Y1255D01*
X90Y1254D02*
X101Y1254D01*
X146Y1254D02*
X158Y1254D01*
X1521Y1254D02*
X1818Y1254D01*
X90Y1253D02*
X101Y1253D01*
X146Y1253D02*
X158Y1253D01*
X1520Y1253D02*
X1819Y1253D01*
X90Y1252D02*
X101Y1252D01*
X146Y1252D02*
X158Y1252D01*
X496Y1252D02*
X539Y1252D01*
X1519Y1252D02*
X1820Y1252D01*
X90Y1251D02*
X101Y1251D01*
X146Y1251D02*
X158Y1251D01*
X494Y1251D02*
X541Y1251D01*
X1519Y1251D02*
X1820Y1251D01*
X90Y1250D02*
X101Y1250D01*
X146Y1250D02*
X158Y1250D01*
X493Y1250D02*
X542Y1250D01*
X1518Y1250D02*
X1821Y1250D01*
X90Y1249D02*
X101Y1249D01*
X146Y1249D02*
X158Y1249D01*
X492Y1249D02*
X543Y1249D01*
X1517Y1249D02*
X1822Y1249D01*
X90Y1248D02*
X101Y1248D01*
X146Y1248D02*
X158Y1248D01*
X492Y1248D02*
X544Y1248D01*
X1517Y1248D02*
X1822Y1248D01*
X90Y1247D02*
X101Y1247D01*
X146Y1247D02*
X157Y1247D01*
X491Y1247D02*
X544Y1247D01*
X1516Y1247D02*
X1823Y1247D01*
X90Y1246D02*
X102Y1246D01*
X146Y1246D02*
X157Y1246D01*
X491Y1246D02*
X544Y1246D01*
X1515Y1246D02*
X1824Y1246D01*
X90Y1245D02*
X102Y1245D01*
X145Y1245D02*
X157Y1245D01*
X491Y1245D02*
X497Y1245D01*
X538Y1245D02*
X544Y1245D01*
X1515Y1245D02*
X1824Y1245D01*
X90Y1244D02*
X103Y1244D01*
X144Y1244D02*
X157Y1244D01*
X491Y1244D02*
X497Y1244D01*
X538Y1244D02*
X544Y1244D01*
X1514Y1244D02*
X1825Y1244D01*
X91Y1243D02*
X104Y1243D01*
X144Y1243D02*
X157Y1243D01*
X491Y1243D02*
X497Y1243D01*
X538Y1243D02*
X544Y1243D01*
X1513Y1243D02*
X1826Y1243D01*
X91Y1242D02*
X105Y1242D01*
X143Y1242D02*
X156Y1242D01*
X491Y1242D02*
X497Y1242D01*
X538Y1242D02*
X544Y1242D01*
X1513Y1242D02*
X1827Y1242D01*
X1921Y1242D02*
X1953Y1242D01*
X91Y1241D02*
X105Y1241D01*
X142Y1241D02*
X156Y1241D01*
X491Y1241D02*
X497Y1241D01*
X538Y1241D02*
X544Y1241D01*
X1512Y1241D02*
X1827Y1241D01*
X1915Y1241D02*
X1953Y1241D01*
X92Y1240D02*
X106Y1240D01*
X141Y1240D02*
X155Y1240D01*
X491Y1240D02*
X497Y1240D01*
X538Y1240D02*
X544Y1240D01*
X1511Y1240D02*
X1828Y1240D01*
X1913Y1240D02*
X1954Y1240D01*
X92Y1239D02*
X108Y1239D01*
X140Y1239D02*
X155Y1239D01*
X491Y1239D02*
X497Y1239D01*
X538Y1239D02*
X544Y1239D01*
X1511Y1239D02*
X1829Y1239D01*
X1911Y1239D02*
X1954Y1239D01*
X93Y1238D02*
X154Y1238D01*
X491Y1238D02*
X497Y1238D01*
X538Y1238D02*
X544Y1238D01*
X1510Y1238D02*
X1829Y1238D01*
X1910Y1238D02*
X1955Y1238D01*
X94Y1237D02*
X154Y1237D01*
X491Y1237D02*
X497Y1237D01*
X538Y1237D02*
X544Y1237D01*
X1509Y1237D02*
X1830Y1237D01*
X1908Y1237D02*
X1955Y1237D01*
X95Y1236D02*
X153Y1236D01*
X491Y1236D02*
X497Y1236D01*
X538Y1236D02*
X544Y1236D01*
X1508Y1236D02*
X1831Y1236D01*
X1907Y1236D02*
X1956Y1236D01*
X96Y1235D02*
X152Y1235D01*
X491Y1235D02*
X497Y1235D01*
X538Y1235D02*
X544Y1235D01*
X1508Y1235D02*
X1831Y1235D01*
X1907Y1235D02*
X1956Y1235D01*
X96Y1234D02*
X151Y1234D01*
X491Y1234D02*
X497Y1234D01*
X538Y1234D02*
X544Y1234D01*
X1507Y1234D02*
X1832Y1234D01*
X1906Y1234D02*
X1957Y1234D01*
X97Y1233D02*
X150Y1233D01*
X491Y1233D02*
X497Y1233D01*
X538Y1233D02*
X544Y1233D01*
X1506Y1233D02*
X1833Y1233D01*
X1905Y1233D02*
X1957Y1233D01*
X98Y1232D02*
X149Y1232D01*
X491Y1232D02*
X497Y1232D01*
X538Y1232D02*
X544Y1232D01*
X1506Y1232D02*
X1833Y1232D01*
X1905Y1232D02*
X1957Y1232D01*
X99Y1231D02*
X148Y1231D01*
X491Y1231D02*
X497Y1231D01*
X538Y1231D02*
X544Y1231D01*
X1505Y1231D02*
X1834Y1231D01*
X1904Y1231D02*
X1918Y1231D01*
X100Y1230D02*
X147Y1230D01*
X491Y1230D02*
X497Y1230D01*
X538Y1230D02*
X544Y1230D01*
X1504Y1230D02*
X1835Y1230D01*
X1903Y1230D02*
X1916Y1230D01*
X102Y1229D02*
X146Y1229D01*
X491Y1229D02*
X497Y1229D01*
X538Y1229D02*
X544Y1229D01*
X1504Y1229D02*
X1835Y1229D01*
X1903Y1229D02*
X1914Y1229D01*
X103Y1228D02*
X144Y1228D01*
X491Y1228D02*
X497Y1228D01*
X538Y1228D02*
X544Y1228D01*
X1503Y1228D02*
X1836Y1228D01*
X1903Y1228D02*
X1914Y1228D01*
X105Y1227D02*
X142Y1227D01*
X491Y1227D02*
X497Y1227D01*
X538Y1227D02*
X544Y1227D01*
X1502Y1227D02*
X1837Y1227D01*
X1903Y1227D02*
X1913Y1227D01*
X110Y1226D02*
X137Y1226D01*
X491Y1226D02*
X497Y1226D01*
X538Y1226D02*
X544Y1226D01*
X1502Y1226D02*
X1837Y1226D01*
X1902Y1226D02*
X1912Y1226D01*
X491Y1225D02*
X497Y1225D01*
X538Y1225D02*
X544Y1225D01*
X1501Y1225D02*
X1838Y1225D01*
X1902Y1225D02*
X1912Y1225D01*
X491Y1224D02*
X544Y1224D01*
X1500Y1224D02*
X1839Y1224D01*
X1902Y1224D02*
X1912Y1224D01*
X491Y1223D02*
X544Y1223D01*
X1500Y1223D02*
X1840Y1223D01*
X1902Y1223D02*
X1912Y1223D01*
X492Y1222D02*
X544Y1222D01*
X1499Y1222D02*
X1840Y1222D01*
X1902Y1222D02*
X1912Y1222D01*
X492Y1221D02*
X543Y1221D01*
X1498Y1221D02*
X1841Y1221D01*
X1902Y1221D02*
X1912Y1221D01*
X493Y1220D02*
X542Y1220D01*
X1497Y1220D02*
X1842Y1220D01*
X1902Y1220D02*
X1912Y1220D01*
X494Y1219D02*
X541Y1219D01*
X1497Y1219D02*
X1842Y1219D01*
X1902Y1219D02*
X1913Y1219D01*
X496Y1218D02*
X539Y1218D01*
X1496Y1218D02*
X1843Y1218D01*
X1903Y1218D02*
X1913Y1218D01*
X1495Y1217D02*
X1844Y1217D01*
X1903Y1217D02*
X1914Y1217D01*
X1495Y1216D02*
X1844Y1216D01*
X1903Y1216D02*
X1915Y1216D01*
X1494Y1215D02*
X1845Y1215D01*
X1904Y1215D02*
X1917Y1215D01*
X1493Y1214D02*
X1846Y1214D01*
X1904Y1214D02*
X1953Y1214D01*
X1493Y1213D02*
X1846Y1213D01*
X1905Y1213D02*
X1953Y1213D01*
X1492Y1212D02*
X1847Y1212D01*
X1905Y1212D02*
X1954Y1212D01*
X1491Y1211D02*
X1848Y1211D01*
X1906Y1211D02*
X1954Y1211D01*
X1491Y1210D02*
X1573Y1210D01*
X1575Y1210D02*
X1848Y1210D01*
X1907Y1210D02*
X1955Y1210D01*
X1490Y1209D02*
X1571Y1209D01*
X1576Y1209D02*
X1849Y1209D01*
X1908Y1209D02*
X1955Y1209D01*
X1489Y1208D02*
X1570Y1208D01*
X1578Y1208D02*
X1767Y1208D01*
X1769Y1208D02*
X1850Y1208D01*
X1909Y1208D02*
X1956Y1208D01*
X1489Y1207D02*
X1568Y1207D01*
X1580Y1207D02*
X1765Y1207D01*
X1771Y1207D02*
X1851Y1207D01*
X1910Y1207D02*
X1956Y1207D01*
X1488Y1206D02*
X1567Y1206D01*
X1581Y1206D02*
X1763Y1206D01*
X1772Y1206D02*
X1851Y1206D01*
X1912Y1206D02*
X1957Y1206D01*
X1488Y1205D02*
X1565Y1205D01*
X1583Y1205D02*
X1762Y1205D01*
X1774Y1205D02*
X1852Y1205D01*
X1914Y1205D02*
X1957Y1205D01*
X1488Y1204D02*
X1564Y1204D01*
X1585Y1204D02*
X1760Y1204D01*
X1775Y1204D02*
X1851Y1204D01*
X1917Y1204D02*
X1957Y1204D01*
X1489Y1203D02*
X1562Y1203D01*
X1586Y1203D02*
X1758Y1203D01*
X1777Y1203D02*
X1850Y1203D01*
X523Y1202D02*
X542Y1202D01*
X1490Y1202D02*
X1561Y1202D01*
X1588Y1202D02*
X1757Y1202D01*
X1778Y1202D02*
X1849Y1202D01*
X521Y1201D02*
X543Y1201D01*
X1491Y1201D02*
X1559Y1201D01*
X1590Y1201D02*
X1755Y1201D01*
X1780Y1201D02*
X1848Y1201D01*
X521Y1200D02*
X544Y1200D01*
X1492Y1200D02*
X1558Y1200D01*
X1592Y1200D02*
X1753Y1200D01*
X1781Y1200D02*
X1847Y1200D01*
X108Y1199D02*
X111Y1199D01*
X521Y1199D02*
X544Y1199D01*
X1493Y1199D02*
X1557Y1199D01*
X1594Y1199D02*
X1751Y1199D01*
X1783Y1199D02*
X1846Y1199D01*
X102Y1198D02*
X114Y1198D01*
X521Y1198D02*
X544Y1198D01*
X1494Y1198D02*
X1555Y1198D01*
X1596Y1198D02*
X1749Y1198D01*
X1784Y1198D02*
X1845Y1198D01*
X100Y1197D02*
X115Y1197D01*
X521Y1197D02*
X544Y1197D01*
X1495Y1197D02*
X1554Y1197D01*
X1598Y1197D02*
X1747Y1197D01*
X1785Y1197D02*
X1844Y1197D01*
X98Y1196D02*
X115Y1196D01*
X522Y1196D02*
X544Y1196D01*
X1496Y1196D02*
X1552Y1196D01*
X1600Y1196D02*
X1745Y1196D01*
X1787Y1196D02*
X1843Y1196D01*
X97Y1195D02*
X116Y1195D01*
X538Y1195D02*
X544Y1195D01*
X1497Y1195D02*
X1551Y1195D01*
X1602Y1195D02*
X1742Y1195D01*
X1788Y1195D02*
X1842Y1195D01*
X96Y1194D02*
X116Y1194D01*
X538Y1194D02*
X544Y1194D01*
X1498Y1194D02*
X1549Y1194D01*
X1604Y1194D02*
X1740Y1194D01*
X1790Y1194D02*
X1841Y1194D01*
X95Y1193D02*
X116Y1193D01*
X538Y1193D02*
X544Y1193D01*
X1499Y1193D02*
X1548Y1193D01*
X1607Y1193D02*
X1738Y1193D01*
X1791Y1193D02*
X1840Y1193D01*
X94Y1192D02*
X116Y1192D01*
X538Y1192D02*
X544Y1192D01*
X1500Y1192D02*
X1546Y1192D01*
X1609Y1192D02*
X1735Y1192D01*
X1793Y1192D02*
X1839Y1192D01*
X1916Y1192D02*
X1926Y1192D01*
X1932Y1192D02*
X1942Y1192D01*
X93Y1191D02*
X116Y1191D01*
X538Y1191D02*
X544Y1191D01*
X1501Y1191D02*
X1545Y1191D01*
X1612Y1191D02*
X1733Y1191D01*
X1794Y1191D02*
X1838Y1191D01*
X1913Y1191D02*
X1926Y1191D01*
X1933Y1191D02*
X1945Y1191D01*
X92Y1190D02*
X116Y1190D01*
X538Y1190D02*
X544Y1190D01*
X1502Y1190D02*
X1543Y1190D01*
X1615Y1190D02*
X1730Y1190D01*
X1796Y1190D02*
X1837Y1190D01*
X1911Y1190D02*
X1927Y1190D01*
X1933Y1190D02*
X1947Y1190D01*
X92Y1189D02*
X115Y1189D01*
X538Y1189D02*
X544Y1189D01*
X1503Y1189D02*
X1542Y1189D01*
X1618Y1189D02*
X1727Y1189D01*
X1797Y1189D02*
X1836Y1189D01*
X1910Y1189D02*
X1927Y1189D01*
X1934Y1189D02*
X1948Y1189D01*
X91Y1188D02*
X114Y1188D01*
X491Y1188D02*
X544Y1188D01*
X1504Y1188D02*
X1541Y1188D01*
X1621Y1188D02*
X1724Y1188D01*
X1799Y1188D02*
X1835Y1188D01*
X1909Y1188D02*
X1928Y1188D01*
X1934Y1188D02*
X1950Y1188D01*
X91Y1187D02*
X112Y1187D01*
X491Y1187D02*
X544Y1187D01*
X1505Y1187D02*
X1539Y1187D01*
X1624Y1187D02*
X1721Y1187D01*
X1800Y1187D02*
X1834Y1187D01*
X1908Y1187D02*
X1928Y1187D01*
X1935Y1187D02*
X1951Y1187D01*
X2316Y1187D02*
X2323Y1187D01*
X91Y1186D02*
X104Y1186D01*
X491Y1186D02*
X544Y1186D01*
X1506Y1186D02*
X1538Y1186D01*
X1628Y1186D02*
X1717Y1186D01*
X1801Y1186D02*
X1833Y1186D01*
X1907Y1186D02*
X1929Y1186D01*
X1935Y1186D02*
X1952Y1186D01*
X2295Y1186D02*
X2325Y1186D01*
X90Y1185D02*
X103Y1185D01*
X491Y1185D02*
X544Y1185D01*
X1507Y1185D02*
X1536Y1185D01*
X1632Y1185D02*
X1713Y1185D01*
X1803Y1185D02*
X1832Y1185D01*
X1906Y1185D02*
X1929Y1185D01*
X1936Y1185D02*
X1953Y1185D01*
X2292Y1185D02*
X2325Y1185D01*
X90Y1184D02*
X102Y1184D01*
X491Y1184D02*
X544Y1184D01*
X1508Y1184D02*
X1535Y1184D01*
X1635Y1184D02*
X1708Y1184D01*
X1804Y1184D02*
X1831Y1184D01*
X1905Y1184D02*
X1930Y1184D01*
X1936Y1184D02*
X1954Y1184D01*
X2291Y1184D02*
X2325Y1184D01*
X90Y1183D02*
X101Y1183D01*
X491Y1183D02*
X544Y1183D01*
X1509Y1183D02*
X1533Y1183D01*
X1636Y1183D02*
X1704Y1183D01*
X1806Y1183D02*
X1830Y1183D01*
X1905Y1183D02*
X1930Y1183D01*
X1936Y1183D02*
X1954Y1183D01*
X2290Y1183D02*
X2325Y1183D01*
X90Y1182D02*
X101Y1182D01*
X491Y1182D02*
X544Y1182D01*
X1510Y1182D02*
X1532Y1182D01*
X1636Y1182D02*
X1703Y1182D01*
X1807Y1182D02*
X1829Y1182D01*
X1904Y1182D02*
X1930Y1182D01*
X1940Y1182D02*
X1955Y1182D01*
X2289Y1182D02*
X2325Y1182D01*
X90Y1181D02*
X101Y1181D01*
X491Y1181D02*
X497Y1181D01*
X538Y1181D02*
X544Y1181D01*
X1511Y1181D02*
X1530Y1181D01*
X1636Y1181D02*
X1703Y1181D01*
X1809Y1181D02*
X1828Y1181D01*
X1904Y1181D02*
X1916Y1181D01*
X1920Y1181D02*
X1931Y1181D01*
X1943Y1181D02*
X1955Y1181D01*
X2288Y1181D02*
X2324Y1181D01*
X90Y1180D02*
X101Y1180D01*
X491Y1180D02*
X497Y1180D01*
X538Y1180D02*
X544Y1180D01*
X1512Y1180D02*
X1529Y1180D01*
X1636Y1180D02*
X1703Y1180D01*
X1810Y1180D02*
X1827Y1180D01*
X1903Y1180D02*
X1915Y1180D01*
X1921Y1180D02*
X1931Y1180D01*
X1944Y1180D02*
X1956Y1180D01*
X2288Y1180D02*
X2314Y1180D01*
X90Y1179D02*
X101Y1179D01*
X491Y1179D02*
X497Y1179D01*
X538Y1179D02*
X544Y1179D01*
X1513Y1179D02*
X1527Y1179D01*
X1636Y1179D02*
X1703Y1179D01*
X1812Y1179D02*
X1826Y1179D01*
X1903Y1179D02*
X1914Y1179D01*
X1921Y1179D02*
X1932Y1179D01*
X1945Y1179D02*
X1956Y1179D01*
X2288Y1179D02*
X2295Y1179D01*
X90Y1178D02*
X101Y1178D01*
X491Y1178D02*
X497Y1178D01*
X538Y1178D02*
X544Y1178D01*
X1514Y1178D02*
X1526Y1178D01*
X1636Y1178D02*
X1703Y1178D01*
X1813Y1178D02*
X1825Y1178D01*
X1903Y1178D02*
X1913Y1178D01*
X1922Y1178D02*
X1932Y1178D01*
X1946Y1178D02*
X1956Y1178D01*
X2287Y1178D02*
X2294Y1178D01*
X90Y1177D02*
X101Y1177D01*
X491Y1177D02*
X497Y1177D01*
X538Y1177D02*
X544Y1177D01*
X1515Y1177D02*
X1524Y1177D01*
X1637Y1177D02*
X1702Y1177D01*
X1815Y1177D02*
X1824Y1177D01*
X1902Y1177D02*
X1913Y1177D01*
X1922Y1177D02*
X1933Y1177D01*
X1946Y1177D02*
X1956Y1177D01*
X2287Y1177D02*
X2293Y1177D01*
X90Y1176D02*
X101Y1176D01*
X491Y1176D02*
X497Y1176D01*
X538Y1176D02*
X544Y1176D01*
X1516Y1176D02*
X1523Y1176D01*
X1637Y1176D02*
X1702Y1176D01*
X1816Y1176D02*
X1823Y1176D01*
X1902Y1176D02*
X1912Y1176D01*
X1923Y1176D02*
X1933Y1176D01*
X1947Y1176D02*
X1957Y1176D01*
X2287Y1176D02*
X2293Y1176D01*
X90Y1175D02*
X101Y1175D01*
X491Y1175D02*
X497Y1175D01*
X538Y1175D02*
X544Y1175D01*
X1517Y1175D02*
X1522Y1175D01*
X1637Y1175D02*
X1702Y1175D01*
X1817Y1175D02*
X1822Y1175D01*
X1902Y1175D02*
X1912Y1175D01*
X1923Y1175D02*
X1934Y1175D01*
X1947Y1175D02*
X1957Y1175D01*
X2287Y1175D02*
X2293Y1175D01*
X90Y1174D02*
X101Y1174D01*
X491Y1174D02*
X497Y1174D01*
X538Y1174D02*
X544Y1174D01*
X1518Y1174D02*
X1520Y1174D01*
X1637Y1174D02*
X1702Y1174D01*
X1819Y1174D02*
X1821Y1174D01*
X1902Y1174D02*
X1912Y1174D01*
X1923Y1174D02*
X1934Y1174D01*
X1947Y1174D02*
X1957Y1174D01*
X2287Y1174D02*
X2293Y1174D01*
X90Y1173D02*
X101Y1173D01*
X491Y1173D02*
X497Y1173D01*
X538Y1173D02*
X544Y1173D01*
X1637Y1173D02*
X1702Y1173D01*
X1902Y1173D02*
X1912Y1173D01*
X1924Y1173D02*
X1935Y1173D01*
X1947Y1173D02*
X1957Y1173D01*
X2287Y1173D02*
X2293Y1173D01*
X90Y1172D02*
X101Y1172D01*
X491Y1172D02*
X497Y1172D01*
X538Y1172D02*
X544Y1172D01*
X1638Y1172D02*
X1702Y1172D01*
X1902Y1172D02*
X1912Y1172D01*
X1924Y1172D02*
X1935Y1172D01*
X1947Y1172D02*
X1957Y1172D01*
X2287Y1172D02*
X2293Y1172D01*
X90Y1171D02*
X101Y1171D01*
X491Y1171D02*
X497Y1171D01*
X538Y1171D02*
X544Y1171D01*
X1638Y1171D02*
X1701Y1171D01*
X1902Y1171D02*
X1912Y1171D01*
X1925Y1171D02*
X1935Y1171D01*
X1947Y1171D02*
X1957Y1171D01*
X2287Y1171D02*
X2293Y1171D01*
X90Y1170D02*
X102Y1170D01*
X491Y1170D02*
X497Y1170D01*
X538Y1170D02*
X544Y1170D01*
X1638Y1170D02*
X1701Y1170D01*
X1902Y1170D02*
X1912Y1170D01*
X1925Y1170D02*
X1936Y1170D01*
X1946Y1170D02*
X1957Y1170D01*
X2287Y1170D02*
X2294Y1170D01*
X90Y1169D02*
X103Y1169D01*
X492Y1169D02*
X496Y1169D01*
X539Y1169D02*
X543Y1169D01*
X1638Y1169D02*
X1701Y1169D01*
X1903Y1169D02*
X1913Y1169D01*
X1926Y1169D02*
X1936Y1169D01*
X1946Y1169D02*
X1956Y1169D01*
X2288Y1169D02*
X2294Y1169D01*
X90Y1168D02*
X104Y1168D01*
X493Y1168D02*
X495Y1168D01*
X541Y1168D02*
X542Y1168D01*
X1638Y1168D02*
X1701Y1168D01*
X1903Y1168D02*
X1914Y1168D01*
X1926Y1168D02*
X1937Y1168D01*
X1945Y1168D02*
X1956Y1168D01*
X2288Y1168D02*
X2295Y1168D01*
X90Y1167D02*
X105Y1167D01*
X1638Y1167D02*
X1701Y1167D01*
X1903Y1167D02*
X1915Y1167D01*
X1927Y1167D02*
X1937Y1167D01*
X1944Y1167D02*
X1956Y1167D01*
X2288Y1167D02*
X2296Y1167D01*
X90Y1166D02*
X105Y1166D01*
X1639Y1166D02*
X1700Y1166D01*
X1904Y1166D02*
X1916Y1166D01*
X1927Y1166D02*
X1938Y1166D01*
X1943Y1166D02*
X1955Y1166D01*
X2289Y1166D02*
X2296Y1166D01*
X91Y1165D02*
X106Y1165D01*
X1639Y1165D02*
X1700Y1165D01*
X1904Y1165D02*
X1918Y1165D01*
X1927Y1165D02*
X1955Y1165D01*
X2290Y1165D02*
X2297Y1165D01*
X92Y1164D02*
X107Y1164D01*
X1639Y1164D02*
X1700Y1164D01*
X1905Y1164D02*
X1954Y1164D01*
X2290Y1164D02*
X2298Y1164D01*
X93Y1163D02*
X108Y1163D01*
X1639Y1163D02*
X1700Y1163D01*
X1905Y1163D02*
X1954Y1163D01*
X2291Y1163D02*
X2298Y1163D01*
X94Y1162D02*
X109Y1162D01*
X1639Y1162D02*
X1700Y1162D01*
X1906Y1162D02*
X1953Y1162D01*
X2292Y1162D02*
X2299Y1162D01*
X94Y1161D02*
X110Y1161D01*
X1640Y1161D02*
X1699Y1161D01*
X1907Y1161D02*
X1952Y1161D01*
X2292Y1161D02*
X2300Y1161D01*
X95Y1160D02*
X111Y1160D01*
X1640Y1160D02*
X1699Y1160D01*
X1908Y1160D02*
X1951Y1160D01*
X2293Y1160D02*
X2300Y1160D01*
X96Y1159D02*
X111Y1159D01*
X1640Y1159D02*
X1699Y1159D01*
X1909Y1159D02*
X1950Y1159D01*
X2289Y1159D02*
X2324Y1159D01*
X97Y1158D02*
X112Y1158D01*
X1640Y1158D02*
X1699Y1158D01*
X1910Y1158D02*
X1949Y1158D01*
X2288Y1158D02*
X2325Y1158D01*
X98Y1157D02*
X113Y1157D01*
X1640Y1157D02*
X1699Y1157D01*
X1911Y1157D02*
X1948Y1157D01*
X2287Y1157D02*
X2325Y1157D01*
X99Y1156D02*
X114Y1156D01*
X1641Y1156D02*
X1699Y1156D01*
X1913Y1156D02*
X1946Y1156D01*
X2287Y1156D02*
X2325Y1156D01*
X100Y1155D02*
X115Y1155D01*
X1641Y1155D02*
X1698Y1155D01*
X1916Y1155D02*
X1943Y1155D01*
X2287Y1155D02*
X2325Y1155D01*
X100Y1154D02*
X116Y1154D01*
X1641Y1154D02*
X1698Y1154D01*
X2288Y1154D02*
X2325Y1154D01*
X101Y1153D02*
X117Y1153D01*
X1641Y1153D02*
X1698Y1153D01*
X2289Y1153D02*
X2323Y1153D01*
X102Y1152D02*
X117Y1152D01*
X523Y1152D02*
X542Y1152D01*
X1641Y1152D02*
X1698Y1152D01*
X102Y1151D02*
X119Y1151D01*
X521Y1151D02*
X543Y1151D01*
X1641Y1151D02*
X1698Y1151D01*
X93Y1150D02*
X154Y1150D01*
X521Y1150D02*
X544Y1150D01*
X1642Y1150D02*
X1697Y1150D01*
X92Y1149D02*
X156Y1149D01*
X521Y1149D02*
X544Y1149D01*
X1642Y1149D02*
X1697Y1149D01*
X91Y1148D02*
X157Y1148D01*
X521Y1148D02*
X544Y1148D01*
X1642Y1148D02*
X1697Y1148D01*
X90Y1147D02*
X157Y1147D01*
X521Y1147D02*
X544Y1147D01*
X1642Y1147D02*
X1697Y1147D01*
X90Y1146D02*
X157Y1146D01*
X522Y1146D02*
X544Y1146D01*
X1642Y1146D02*
X1697Y1146D01*
X90Y1145D02*
X158Y1145D01*
X538Y1145D02*
X544Y1145D01*
X1643Y1145D02*
X1696Y1145D01*
X90Y1144D02*
X157Y1144D01*
X538Y1144D02*
X544Y1144D01*
X1643Y1144D02*
X1696Y1144D01*
X90Y1143D02*
X157Y1143D01*
X538Y1143D02*
X544Y1143D01*
X1643Y1143D02*
X1696Y1143D01*
X1917Y1143D02*
X1942Y1143D01*
X91Y1142D02*
X157Y1142D01*
X538Y1142D02*
X544Y1142D01*
X1643Y1142D02*
X1696Y1142D01*
X1914Y1142D02*
X1945Y1142D01*
X91Y1141D02*
X156Y1141D01*
X538Y1141D02*
X544Y1141D01*
X1643Y1141D02*
X1696Y1141D01*
X1912Y1141D02*
X1947Y1141D01*
X92Y1140D02*
X155Y1140D01*
X538Y1140D02*
X544Y1140D01*
X1644Y1140D02*
X1696Y1140D01*
X1910Y1140D02*
X1949Y1140D01*
X94Y1139D02*
X153Y1139D01*
X538Y1139D02*
X544Y1139D01*
X1644Y1139D02*
X1695Y1139D01*
X1909Y1139D02*
X1950Y1139D01*
X491Y1138D02*
X544Y1138D01*
X1644Y1138D02*
X1695Y1138D01*
X1908Y1138D02*
X1951Y1138D01*
X491Y1137D02*
X544Y1137D01*
X1644Y1137D02*
X1695Y1137D01*
X1907Y1137D02*
X1952Y1137D01*
X491Y1136D02*
X544Y1136D01*
X1644Y1136D02*
X1695Y1136D01*
X1906Y1136D02*
X1953Y1136D01*
X491Y1135D02*
X544Y1135D01*
X1644Y1135D02*
X1695Y1135D01*
X1905Y1135D02*
X1954Y1135D01*
X491Y1134D02*
X544Y1134D01*
X1645Y1134D02*
X1694Y1134D01*
X1905Y1134D02*
X1954Y1134D01*
X491Y1133D02*
X544Y1133D01*
X1645Y1133D02*
X1694Y1133D01*
X1904Y1133D02*
X1955Y1133D01*
X2321Y1133D02*
X2324Y1133D01*
X491Y1132D02*
X544Y1132D01*
X1645Y1132D02*
X1694Y1132D01*
X1904Y1132D02*
X1917Y1132D01*
X1942Y1132D02*
X1955Y1132D01*
X2320Y1132D02*
X2325Y1132D01*
X491Y1131D02*
X497Y1131D01*
X538Y1131D02*
X544Y1131D01*
X1645Y1131D02*
X1694Y1131D01*
X1903Y1131D02*
X1915Y1131D01*
X1944Y1131D02*
X1956Y1131D01*
X2320Y1131D02*
X2325Y1131D01*
X491Y1130D02*
X497Y1130D01*
X538Y1130D02*
X544Y1130D01*
X1645Y1130D02*
X1694Y1130D01*
X1903Y1130D02*
X1914Y1130D01*
X1945Y1130D02*
X1956Y1130D01*
X2320Y1130D02*
X2326Y1130D01*
X491Y1129D02*
X497Y1129D01*
X538Y1129D02*
X544Y1129D01*
X1646Y1129D02*
X1694Y1129D01*
X1903Y1129D02*
X1913Y1129D01*
X1946Y1129D02*
X1956Y1129D01*
X2319Y1129D02*
X2326Y1129D01*
X491Y1128D02*
X497Y1128D01*
X538Y1128D02*
X544Y1128D01*
X1646Y1128D02*
X1693Y1128D01*
X1902Y1128D02*
X1913Y1128D01*
X1946Y1128D02*
X1956Y1128D01*
X2319Y1128D02*
X2326Y1128D01*
X491Y1127D02*
X497Y1127D01*
X538Y1127D02*
X544Y1127D01*
X1646Y1127D02*
X1693Y1127D01*
X1902Y1127D02*
X1912Y1127D01*
X1947Y1127D02*
X1957Y1127D01*
X2319Y1127D02*
X2326Y1127D01*
X491Y1126D02*
X497Y1126D01*
X538Y1126D02*
X544Y1126D01*
X1646Y1126D02*
X1693Y1126D01*
X1902Y1126D02*
X1912Y1126D01*
X1947Y1126D02*
X1957Y1126D01*
X2319Y1126D02*
X2326Y1126D01*
X491Y1125D02*
X497Y1125D01*
X538Y1125D02*
X544Y1125D01*
X1646Y1125D02*
X1693Y1125D01*
X1902Y1125D02*
X1912Y1125D01*
X1947Y1125D02*
X1957Y1125D01*
X2319Y1125D02*
X2326Y1125D01*
X491Y1124D02*
X497Y1124D01*
X538Y1124D02*
X544Y1124D01*
X1646Y1124D02*
X1693Y1124D01*
X1902Y1124D02*
X1912Y1124D01*
X1947Y1124D02*
X1957Y1124D01*
X2319Y1124D02*
X2326Y1124D01*
X491Y1123D02*
X497Y1123D01*
X538Y1123D02*
X544Y1123D01*
X1647Y1123D02*
X1692Y1123D01*
X1902Y1123D02*
X1912Y1123D01*
X1947Y1123D02*
X1957Y1123D01*
X2271Y1123D02*
X2277Y1123D01*
X2289Y1123D02*
X2326Y1123D01*
X491Y1122D02*
X497Y1122D01*
X538Y1122D02*
X544Y1122D01*
X1647Y1122D02*
X1692Y1122D01*
X1902Y1122D02*
X1912Y1122D01*
X1947Y1122D02*
X1957Y1122D01*
X2270Y1122D02*
X2278Y1122D01*
X2288Y1122D02*
X2326Y1122D01*
X491Y1121D02*
X497Y1121D01*
X538Y1121D02*
X544Y1121D01*
X1647Y1121D02*
X1692Y1121D01*
X1902Y1121D02*
X1912Y1121D01*
X1946Y1121D02*
X1957Y1121D01*
X2270Y1121D02*
X2278Y1121D01*
X2287Y1121D02*
X2326Y1121D01*
X491Y1120D02*
X497Y1120D01*
X538Y1120D02*
X544Y1120D01*
X1648Y1120D02*
X1691Y1120D01*
X1903Y1120D02*
X1913Y1120D01*
X1946Y1120D02*
X1956Y1120D01*
X2269Y1120D02*
X2278Y1120D01*
X2287Y1120D02*
X2326Y1120D01*
X492Y1119D02*
X496Y1119D01*
X539Y1119D02*
X543Y1119D01*
X1903Y1119D02*
X1913Y1119D01*
X1945Y1119D02*
X1956Y1119D01*
X2269Y1119D02*
X2278Y1119D01*
X2287Y1119D02*
X2326Y1119D01*
X493Y1118D02*
X495Y1118D01*
X541Y1118D02*
X542Y1118D01*
X1903Y1118D02*
X1914Y1118D01*
X1944Y1118D02*
X1956Y1118D01*
X2269Y1118D02*
X2278Y1118D01*
X2287Y1118D02*
X2326Y1118D01*
X1903Y1117D02*
X1915Y1117D01*
X1943Y1117D02*
X1955Y1117D01*
X2269Y1117D02*
X2278Y1117D01*
X2287Y1117D02*
X2326Y1117D01*
X1904Y1116D02*
X1917Y1116D01*
X1942Y1116D02*
X1955Y1116D01*
X2270Y1116D02*
X2278Y1116D01*
X2287Y1116D02*
X2293Y1116D01*
X2319Y1116D02*
X2326Y1116D01*
X1904Y1115D02*
X1972Y1115D01*
X2270Y1115D02*
X2278Y1115D01*
X2287Y1115D02*
X2293Y1115D01*
X2319Y1115D02*
X2326Y1115D01*
X1905Y1114D02*
X1972Y1114D01*
X2271Y1114D02*
X2277Y1114D01*
X2287Y1114D02*
X2293Y1114D01*
X2319Y1114D02*
X2326Y1114D01*
X1906Y1113D02*
X1973Y1113D01*
X2287Y1113D02*
X2293Y1113D01*
X2319Y1113D02*
X2326Y1113D01*
X1906Y1112D02*
X1973Y1112D01*
X2287Y1112D02*
X2293Y1112D01*
X2319Y1112D02*
X2326Y1112D01*
X128Y1111D02*
X154Y1111D01*
X1907Y1111D02*
X1973Y1111D01*
X2287Y1111D02*
X2293Y1111D01*
X2319Y1111D02*
X2326Y1111D01*
X105Y1110D02*
X156Y1110D01*
X1908Y1110D02*
X1974Y1110D01*
X2287Y1110D02*
X2293Y1110D01*
X2319Y1110D02*
X2326Y1110D01*
X101Y1109D02*
X156Y1109D01*
X1910Y1109D02*
X1974Y1109D01*
X2287Y1109D02*
X2293Y1109D01*
X2320Y1109D02*
X2325Y1109D01*
X99Y1108D02*
X157Y1108D01*
X1911Y1108D02*
X1975Y1108D01*
X2288Y1108D02*
X2293Y1108D01*
X2320Y1108D02*
X2325Y1108D01*
X98Y1107D02*
X157Y1107D01*
X1913Y1107D02*
X1975Y1107D01*
X2288Y1107D02*
X2292Y1107D01*
X2321Y1107D02*
X2324Y1107D01*
X96Y1106D02*
X158Y1106D01*
X1915Y1106D02*
X1976Y1106D01*
X95Y1105D02*
X158Y1105D01*
X1920Y1105D02*
X1976Y1105D01*
X94Y1104D02*
X157Y1104D01*
X93Y1103D02*
X157Y1103D01*
X93Y1102D02*
X156Y1102D01*
X493Y1102D02*
X495Y1102D01*
X519Y1102D02*
X539Y1102D01*
X92Y1101D02*
X155Y1101D01*
X194Y1101D02*
X254Y1101D01*
X492Y1101D02*
X496Y1101D01*
X518Y1101D02*
X541Y1101D01*
X92Y1100D02*
X154Y1100D01*
X191Y1100D02*
X257Y1100D01*
X491Y1100D02*
X497Y1100D01*
X516Y1100D02*
X542Y1100D01*
X91Y1099D02*
X152Y1099D01*
X189Y1099D02*
X258Y1099D01*
X491Y1099D02*
X497Y1099D01*
X516Y1099D02*
X543Y1099D01*
X91Y1098D02*
X109Y1098D01*
X116Y1098D02*
X130Y1098D01*
X139Y1098D02*
X152Y1098D01*
X188Y1098D02*
X259Y1098D01*
X491Y1098D02*
X497Y1098D01*
X515Y1098D02*
X544Y1098D01*
X90Y1097D02*
X104Y1097D01*
X116Y1097D02*
X129Y1097D01*
X140Y1097D02*
X153Y1097D01*
X187Y1097D02*
X260Y1097D01*
X491Y1097D02*
X497Y1097D01*
X515Y1097D02*
X544Y1097D01*
X90Y1096D02*
X102Y1096D01*
X116Y1096D02*
X128Y1096D01*
X140Y1096D02*
X154Y1096D01*
X187Y1096D02*
X261Y1096D01*
X491Y1096D02*
X497Y1096D01*
X515Y1096D02*
X544Y1096D01*
X90Y1095D02*
X102Y1095D01*
X116Y1095D02*
X127Y1095D01*
X141Y1095D02*
X154Y1095D01*
X186Y1095D02*
X261Y1095D01*
X491Y1095D02*
X497Y1095D01*
X515Y1095D02*
X521Y1095D01*
X538Y1095D02*
X544Y1095D01*
X90Y1094D02*
X101Y1094D01*
X116Y1094D02*
X127Y1094D01*
X142Y1094D02*
X155Y1094D01*
X186Y1094D02*
X262Y1094D01*
X491Y1094D02*
X497Y1094D01*
X515Y1094D02*
X521Y1094D01*
X538Y1094D02*
X544Y1094D01*
X1920Y1094D02*
X1939Y1094D01*
X90Y1093D02*
X101Y1093D01*
X115Y1093D02*
X127Y1093D01*
X142Y1093D02*
X155Y1093D01*
X185Y1093D02*
X262Y1093D01*
X491Y1093D02*
X497Y1093D01*
X515Y1093D02*
X521Y1093D01*
X538Y1093D02*
X544Y1093D01*
X1915Y1093D02*
X1944Y1093D01*
X90Y1092D02*
X101Y1092D01*
X115Y1092D02*
X127Y1092D01*
X143Y1092D02*
X156Y1092D01*
X185Y1092D02*
X262Y1092D01*
X491Y1092D02*
X497Y1092D01*
X515Y1092D02*
X521Y1092D01*
X538Y1092D02*
X544Y1092D01*
X1913Y1092D02*
X1946Y1092D01*
X90Y1091D02*
X101Y1091D01*
X115Y1091D02*
X127Y1091D01*
X143Y1091D02*
X157Y1091D01*
X185Y1091D02*
X195Y1091D01*
X253Y1091D02*
X262Y1091D01*
X491Y1091D02*
X497Y1091D01*
X515Y1091D02*
X521Y1091D01*
X538Y1091D02*
X544Y1091D01*
X1911Y1091D02*
X1948Y1091D01*
X90Y1090D02*
X101Y1090D01*
X115Y1090D02*
X127Y1090D01*
X144Y1090D02*
X157Y1090D01*
X185Y1090D02*
X194Y1090D01*
X253Y1090D02*
X262Y1090D01*
X491Y1090D02*
X497Y1090D01*
X515Y1090D02*
X521Y1090D01*
X538Y1090D02*
X544Y1090D01*
X1910Y1090D02*
X1949Y1090D01*
X90Y1089D02*
X101Y1089D01*
X115Y1089D02*
X127Y1089D01*
X145Y1089D02*
X157Y1089D01*
X185Y1089D02*
X194Y1089D01*
X253Y1089D02*
X262Y1089D01*
X491Y1089D02*
X497Y1089D01*
X515Y1089D02*
X521Y1089D01*
X538Y1089D02*
X544Y1089D01*
X1908Y1089D02*
X1951Y1089D01*
X90Y1088D02*
X101Y1088D01*
X115Y1088D02*
X127Y1088D01*
X145Y1088D02*
X158Y1088D01*
X185Y1088D02*
X194Y1088D01*
X253Y1088D02*
X262Y1088D01*
X491Y1088D02*
X497Y1088D01*
X515Y1088D02*
X521Y1088D01*
X538Y1088D02*
X544Y1088D01*
X1907Y1088D02*
X1952Y1088D01*
X90Y1087D02*
X101Y1087D01*
X115Y1087D02*
X127Y1087D01*
X146Y1087D02*
X158Y1087D01*
X185Y1087D02*
X194Y1087D01*
X253Y1087D02*
X262Y1087D01*
X491Y1087D02*
X497Y1087D01*
X515Y1087D02*
X521Y1087D01*
X538Y1087D02*
X544Y1087D01*
X1907Y1087D02*
X1952Y1087D01*
X2275Y1087D02*
X2288Y1087D01*
X90Y1086D02*
X101Y1086D01*
X115Y1086D02*
X127Y1086D01*
X146Y1086D02*
X158Y1086D01*
X185Y1086D02*
X194Y1086D01*
X253Y1086D02*
X262Y1086D01*
X491Y1086D02*
X497Y1086D01*
X515Y1086D02*
X521Y1086D01*
X538Y1086D02*
X544Y1086D01*
X1906Y1086D02*
X1953Y1086D01*
X2273Y1086D02*
X2291Y1086D01*
X90Y1085D02*
X101Y1085D01*
X115Y1085D02*
X127Y1085D01*
X146Y1085D02*
X158Y1085D01*
X185Y1085D02*
X194Y1085D01*
X253Y1085D02*
X262Y1085D01*
X491Y1085D02*
X497Y1085D01*
X515Y1085D02*
X521Y1085D01*
X538Y1085D02*
X544Y1085D01*
X1905Y1085D02*
X1954Y1085D01*
X2273Y1085D02*
X2293Y1085D01*
X90Y1084D02*
X101Y1084D01*
X115Y1084D02*
X127Y1084D01*
X146Y1084D02*
X158Y1084D01*
X185Y1084D02*
X194Y1084D01*
X253Y1084D02*
X262Y1084D01*
X491Y1084D02*
X497Y1084D01*
X515Y1084D02*
X521Y1084D01*
X538Y1084D02*
X544Y1084D01*
X1904Y1084D02*
X1954Y1084D01*
X2272Y1084D02*
X2296Y1084D01*
X90Y1083D02*
X101Y1083D01*
X115Y1083D02*
X127Y1083D01*
X146Y1083D02*
X158Y1083D01*
X185Y1083D02*
X194Y1083D01*
X253Y1083D02*
X262Y1083D01*
X491Y1083D02*
X497Y1083D01*
X515Y1083D02*
X521Y1083D01*
X538Y1083D02*
X544Y1083D01*
X1904Y1083D02*
X1918Y1083D01*
X1941Y1083D02*
X1955Y1083D01*
X2273Y1083D02*
X2298Y1083D01*
X90Y1082D02*
X101Y1082D01*
X115Y1082D02*
X127Y1082D01*
X146Y1082D02*
X158Y1082D01*
X185Y1082D02*
X194Y1082D01*
X253Y1082D02*
X262Y1082D01*
X491Y1082D02*
X497Y1082D01*
X514Y1082D02*
X521Y1082D01*
X538Y1082D02*
X544Y1082D01*
X1903Y1082D02*
X1916Y1082D01*
X1943Y1082D02*
X1955Y1082D01*
X2273Y1082D02*
X2301Y1082D01*
X90Y1081D02*
X101Y1081D01*
X115Y1081D02*
X127Y1081D01*
X146Y1081D02*
X158Y1081D01*
X185Y1081D02*
X194Y1081D01*
X253Y1081D02*
X262Y1081D01*
X491Y1081D02*
X521Y1081D01*
X538Y1081D02*
X544Y1081D01*
X1903Y1081D02*
X1914Y1081D01*
X1945Y1081D02*
X1956Y1081D01*
X2274Y1081D02*
X2304Y1081D01*
X90Y1080D02*
X101Y1080D01*
X115Y1080D02*
X127Y1080D01*
X146Y1080D02*
X158Y1080D01*
X185Y1080D02*
X194Y1080D01*
X253Y1080D02*
X262Y1080D01*
X491Y1080D02*
X521Y1080D01*
X538Y1080D02*
X544Y1080D01*
X1903Y1080D02*
X1914Y1080D01*
X1945Y1080D02*
X1956Y1080D01*
X2288Y1080D02*
X2306Y1080D01*
X90Y1079D02*
X101Y1079D01*
X115Y1079D02*
X127Y1079D01*
X146Y1079D02*
X158Y1079D01*
X185Y1079D02*
X194Y1079D01*
X253Y1079D02*
X262Y1079D01*
X491Y1079D02*
X521Y1079D01*
X538Y1079D02*
X544Y1079D01*
X1903Y1079D02*
X1913Y1079D01*
X1946Y1079D02*
X1956Y1079D01*
X2290Y1079D02*
X2309Y1079D01*
X90Y1078D02*
X101Y1078D01*
X115Y1078D02*
X127Y1078D01*
X146Y1078D02*
X158Y1078D01*
X185Y1078D02*
X194Y1078D01*
X253Y1078D02*
X262Y1078D01*
X491Y1078D02*
X521Y1078D01*
X538Y1078D02*
X544Y1078D01*
X1902Y1078D02*
X1912Y1078D01*
X1947Y1078D02*
X1957Y1078D01*
X2293Y1078D02*
X2311Y1078D01*
X90Y1077D02*
X101Y1077D01*
X115Y1077D02*
X127Y1077D01*
X146Y1077D02*
X158Y1077D01*
X185Y1077D02*
X194Y1077D01*
X253Y1077D02*
X262Y1077D01*
X491Y1077D02*
X521Y1077D01*
X537Y1077D02*
X544Y1077D01*
X1902Y1077D02*
X1912Y1077D01*
X1947Y1077D02*
X1957Y1077D01*
X2295Y1077D02*
X2314Y1077D01*
X90Y1076D02*
X101Y1076D01*
X115Y1076D02*
X127Y1076D01*
X146Y1076D02*
X158Y1076D01*
X185Y1076D02*
X194Y1076D01*
X253Y1076D02*
X262Y1076D01*
X491Y1076D02*
X521Y1076D01*
X537Y1076D02*
X544Y1076D01*
X1902Y1076D02*
X1912Y1076D01*
X1947Y1076D02*
X1957Y1076D01*
X2298Y1076D02*
X2316Y1076D01*
X90Y1075D02*
X101Y1075D01*
X115Y1075D02*
X127Y1075D01*
X146Y1075D02*
X158Y1075D01*
X185Y1075D02*
X194Y1075D01*
X253Y1075D02*
X262Y1075D01*
X491Y1075D02*
X520Y1075D01*
X537Y1075D02*
X543Y1075D01*
X1902Y1075D02*
X1912Y1075D01*
X1947Y1075D02*
X1957Y1075D01*
X2301Y1075D02*
X2319Y1075D01*
X90Y1074D02*
X101Y1074D01*
X115Y1074D02*
X127Y1074D01*
X146Y1074D02*
X158Y1074D01*
X185Y1074D02*
X194Y1074D01*
X253Y1074D02*
X262Y1074D01*
X536Y1074D02*
X543Y1074D01*
X1902Y1074D02*
X1912Y1074D01*
X1947Y1074D02*
X1957Y1074D01*
X2303Y1074D02*
X2322Y1074D01*
X90Y1073D02*
X101Y1073D01*
X115Y1073D02*
X127Y1073D01*
X146Y1073D02*
X158Y1073D01*
X185Y1073D02*
X194Y1073D01*
X253Y1073D02*
X262Y1073D01*
X536Y1073D02*
X542Y1073D01*
X1902Y1073D02*
X1912Y1073D01*
X1947Y1073D02*
X1957Y1073D01*
X2306Y1073D02*
X2324Y1073D01*
X90Y1072D02*
X101Y1072D01*
X115Y1072D02*
X127Y1072D01*
X146Y1072D02*
X158Y1072D01*
X185Y1072D02*
X194Y1072D01*
X253Y1072D02*
X262Y1072D01*
X535Y1072D02*
X542Y1072D01*
X1902Y1072D02*
X1912Y1072D01*
X1947Y1072D02*
X1957Y1072D01*
X2308Y1072D02*
X2325Y1072D01*
X90Y1071D02*
X101Y1071D01*
X115Y1071D02*
X127Y1071D01*
X146Y1071D02*
X158Y1071D01*
X185Y1071D02*
X194Y1071D01*
X253Y1071D02*
X262Y1071D01*
X535Y1071D02*
X542Y1071D01*
X1902Y1071D02*
X1913Y1071D01*
X1946Y1071D02*
X1956Y1071D01*
X2311Y1071D02*
X2325Y1071D01*
X90Y1070D02*
X101Y1070D01*
X115Y1070D02*
X127Y1070D01*
X146Y1070D02*
X158Y1070D01*
X185Y1070D02*
X194Y1070D01*
X253Y1070D02*
X262Y1070D01*
X536Y1070D02*
X541Y1070D01*
X1903Y1070D02*
X1913Y1070D01*
X1946Y1070D02*
X1956Y1070D01*
X2313Y1070D02*
X2325Y1070D01*
X90Y1069D02*
X101Y1069D01*
X116Y1069D02*
X127Y1069D01*
X146Y1069D02*
X158Y1069D01*
X185Y1069D02*
X194Y1069D01*
X253Y1069D02*
X262Y1069D01*
X536Y1069D02*
X540Y1069D01*
X1903Y1069D02*
X1914Y1069D01*
X1945Y1069D02*
X1956Y1069D01*
X2311Y1069D02*
X2325Y1069D01*
X90Y1068D02*
X101Y1068D01*
X116Y1068D02*
X127Y1068D01*
X146Y1068D02*
X157Y1068D01*
X185Y1068D02*
X194Y1068D01*
X253Y1068D02*
X262Y1068D01*
X538Y1068D02*
X539Y1068D01*
X1903Y1068D02*
X1915Y1068D01*
X1944Y1068D02*
X1956Y1068D01*
X2308Y1068D02*
X2325Y1068D01*
X90Y1067D02*
X100Y1067D01*
X116Y1067D02*
X127Y1067D01*
X146Y1067D02*
X157Y1067D01*
X185Y1067D02*
X194Y1067D01*
X253Y1067D02*
X262Y1067D01*
X1904Y1067D02*
X1917Y1067D01*
X1942Y1067D02*
X1955Y1067D01*
X2305Y1067D02*
X2324Y1067D01*
X91Y1066D02*
X100Y1066D01*
X116Y1066D02*
X128Y1066D01*
X145Y1066D02*
X157Y1066D01*
X185Y1066D02*
X194Y1066D01*
X253Y1066D02*
X262Y1066D01*
X1904Y1066D02*
X1955Y1066D01*
X2303Y1066D02*
X2321Y1066D01*
X92Y1065D02*
X99Y1065D01*
X116Y1065D02*
X129Y1065D01*
X144Y1065D02*
X157Y1065D01*
X185Y1065D02*
X194Y1065D01*
X253Y1065D02*
X262Y1065D01*
X1905Y1065D02*
X1954Y1065D01*
X2300Y1065D02*
X2319Y1065D01*
X94Y1064D02*
X97Y1064D01*
X116Y1064D02*
X131Y1064D01*
X142Y1064D02*
X157Y1064D01*
X185Y1064D02*
X194Y1064D01*
X253Y1064D02*
X262Y1064D01*
X1905Y1064D02*
X1954Y1064D01*
X2298Y1064D02*
X2316Y1064D01*
X117Y1063D02*
X156Y1063D01*
X185Y1063D02*
X194Y1063D01*
X253Y1063D02*
X262Y1063D01*
X1906Y1063D02*
X1953Y1063D01*
X2295Y1063D02*
X2314Y1063D01*
X117Y1062D02*
X156Y1062D01*
X185Y1062D02*
X194Y1062D01*
X253Y1062D02*
X262Y1062D01*
X1907Y1062D02*
X1952Y1062D01*
X2293Y1062D02*
X2311Y1062D01*
X118Y1061D02*
X155Y1061D01*
X185Y1061D02*
X262Y1061D01*
X1908Y1061D02*
X1951Y1061D01*
X2290Y1061D02*
X2309Y1061D01*
X118Y1060D02*
X155Y1060D01*
X185Y1060D02*
X262Y1060D01*
X1909Y1060D02*
X1950Y1060D01*
X2288Y1060D02*
X2306Y1060D01*
X119Y1059D02*
X154Y1059D01*
X186Y1059D02*
X262Y1059D01*
X1910Y1059D02*
X1949Y1059D01*
X2274Y1059D02*
X2303Y1059D01*
X120Y1058D02*
X153Y1058D01*
X186Y1058D02*
X262Y1058D01*
X1912Y1058D02*
X1947Y1058D01*
X2273Y1058D02*
X2301Y1058D01*
X121Y1057D02*
X152Y1057D01*
X186Y1057D02*
X261Y1057D01*
X1914Y1057D02*
X1945Y1057D01*
X2273Y1057D02*
X2298Y1057D01*
X122Y1056D02*
X151Y1056D01*
X187Y1056D02*
X261Y1056D01*
X1917Y1056D02*
X1942Y1056D01*
X2272Y1056D02*
X2296Y1056D01*
X123Y1055D02*
X150Y1055D01*
X188Y1055D02*
X260Y1055D01*
X2273Y1055D02*
X2293Y1055D01*
X125Y1054D02*
X148Y1054D01*
X189Y1054D02*
X259Y1054D01*
X2273Y1054D02*
X2291Y1054D01*
X126Y1053D02*
X147Y1053D01*
X190Y1053D02*
X257Y1053D01*
X2275Y1053D02*
X2288Y1053D01*
X130Y1052D02*
X143Y1052D01*
X192Y1052D02*
X255Y1052D01*
X68Y1024D02*
X72Y1024D01*
X115Y1024D02*
X144Y1024D01*
X66Y1023D02*
X73Y1023D01*
X115Y1023D02*
X147Y1023D01*
X65Y1022D02*
X74Y1022D01*
X115Y1022D02*
X148Y1022D01*
X65Y1021D02*
X75Y1021D01*
X115Y1021D02*
X150Y1021D01*
X64Y1020D02*
X75Y1020D01*
X115Y1020D02*
X151Y1020D01*
X64Y1019D02*
X75Y1019D01*
X115Y1019D02*
X152Y1019D01*
X64Y1018D02*
X75Y1018D01*
X115Y1018D02*
X153Y1018D01*
X64Y1017D02*
X75Y1017D01*
X115Y1017D02*
X154Y1017D01*
X64Y1016D02*
X75Y1016D01*
X115Y1016D02*
X155Y1016D01*
X64Y1015D02*
X75Y1015D01*
X115Y1015D02*
X155Y1015D01*
X64Y1014D02*
X75Y1014D01*
X115Y1014D02*
X156Y1014D01*
X235Y1014D02*
X246Y1014D01*
X64Y1013D02*
X75Y1013D01*
X115Y1013D02*
X156Y1013D01*
X234Y1013D02*
X248Y1013D01*
X64Y1012D02*
X75Y1012D01*
X115Y1012D02*
X127Y1012D01*
X142Y1012D02*
X157Y1012D01*
X233Y1012D02*
X249Y1012D01*
X64Y1011D02*
X75Y1011D01*
X115Y1011D02*
X127Y1011D01*
X144Y1011D02*
X157Y1011D01*
X232Y1011D02*
X249Y1011D01*
X64Y1010D02*
X75Y1010D01*
X115Y1010D02*
X127Y1010D01*
X145Y1010D02*
X157Y1010D01*
X232Y1010D02*
X249Y1010D01*
X64Y1009D02*
X75Y1009D01*
X115Y1009D02*
X127Y1009D01*
X146Y1009D02*
X157Y1009D01*
X232Y1009D02*
X250Y1009D01*
X64Y1008D02*
X75Y1008D01*
X115Y1008D02*
X127Y1008D01*
X146Y1008D02*
X157Y1008D01*
X232Y1008D02*
X250Y1008D01*
X64Y1007D02*
X75Y1007D01*
X115Y1007D02*
X127Y1007D01*
X146Y1007D02*
X157Y1007D01*
X232Y1007D02*
X250Y1007D01*
X64Y1006D02*
X75Y1006D01*
X115Y1006D02*
X127Y1006D01*
X146Y1006D02*
X158Y1006D01*
X232Y1006D02*
X250Y1006D01*
X64Y1005D02*
X75Y1005D01*
X115Y1005D02*
X127Y1005D01*
X146Y1005D02*
X158Y1005D01*
X232Y1005D02*
X250Y1005D01*
X64Y1004D02*
X75Y1004D01*
X115Y1004D02*
X127Y1004D01*
X146Y1004D02*
X158Y1004D01*
X232Y1004D02*
X250Y1004D01*
X64Y1003D02*
X75Y1003D01*
X115Y1003D02*
X127Y1003D01*
X146Y1003D02*
X158Y1003D01*
X232Y1003D02*
X250Y1003D01*
X64Y1002D02*
X75Y1002D01*
X115Y1002D02*
X127Y1002D01*
X146Y1002D02*
X158Y1002D01*
X232Y1002D02*
X250Y1002D01*
X530Y1002D02*
X542Y1002D01*
X64Y1001D02*
X75Y1001D01*
X115Y1001D02*
X127Y1001D01*
X146Y1001D02*
X158Y1001D01*
X232Y1001D02*
X250Y1001D01*
X513Y1001D02*
X543Y1001D01*
X64Y1000D02*
X75Y1000D01*
X115Y1000D02*
X127Y1000D01*
X146Y1000D02*
X158Y1000D01*
X232Y1000D02*
X250Y1000D01*
X511Y1000D02*
X544Y1000D01*
X64Y999D02*
X76Y999D01*
X116Y999D02*
X127Y999D01*
X146Y999D02*
X158Y999D01*
X232Y999D02*
X249Y999D01*
X509Y999D02*
X544Y999D01*
X64Y998D02*
X76Y998D01*
X116Y998D02*
X126Y998D01*
X146Y998D02*
X158Y998D01*
X232Y998D02*
X249Y998D01*
X508Y998D02*
X544Y998D01*
X64Y997D02*
X76Y997D01*
X117Y997D02*
X126Y997D01*
X146Y997D02*
X158Y997D01*
X233Y997D02*
X249Y997D01*
X508Y997D02*
X544Y997D01*
X65Y996D02*
X77Y996D01*
X117Y996D02*
X125Y996D01*
X146Y996D02*
X158Y996D01*
X233Y996D02*
X248Y996D01*
X507Y996D02*
X543Y996D01*
X65Y995D02*
X79Y995D01*
X119Y995D02*
X123Y995D01*
X146Y995D02*
X158Y995D01*
X234Y995D02*
X247Y995D01*
X507Y995D02*
X541Y995D01*
X65Y994D02*
X80Y994D01*
X146Y994D02*
X158Y994D01*
X506Y994D02*
X514Y994D01*
X521Y994D02*
X528Y994D01*
X534Y994D02*
X542Y994D01*
X66Y993D02*
X81Y993D01*
X146Y993D02*
X158Y993D01*
X506Y993D02*
X512Y993D01*
X521Y993D02*
X527Y993D01*
X535Y993D02*
X542Y993D01*
X66Y992D02*
X82Y992D01*
X146Y992D02*
X158Y992D01*
X506Y992D02*
X512Y992D01*
X520Y992D02*
X527Y992D01*
X536Y992D02*
X543Y992D01*
X67Y991D02*
X84Y991D01*
X146Y991D02*
X158Y991D01*
X506Y991D02*
X512Y991D01*
X520Y991D02*
X526Y991D01*
X536Y991D02*
X543Y991D01*
X67Y990D02*
X85Y990D01*
X146Y990D02*
X158Y990D01*
X506Y990D02*
X512Y990D01*
X520Y990D02*
X526Y990D01*
X537Y990D02*
X544Y990D01*
X68Y989D02*
X86Y989D01*
X146Y989D02*
X158Y989D01*
X506Y989D02*
X512Y989D01*
X520Y989D02*
X526Y989D01*
X537Y989D02*
X544Y989D01*
X69Y988D02*
X87Y988D01*
X146Y988D02*
X158Y988D01*
X506Y988D02*
X512Y988D01*
X520Y988D02*
X526Y988D01*
X538Y988D02*
X544Y988D01*
X70Y987D02*
X89Y987D01*
X146Y987D02*
X158Y987D01*
X506Y987D02*
X512Y987D01*
X520Y987D02*
X526Y987D01*
X538Y987D02*
X544Y987D01*
X71Y986D02*
X90Y986D01*
X146Y986D02*
X158Y986D01*
X506Y986D02*
X512Y986D01*
X520Y986D02*
X526Y986D01*
X538Y986D02*
X544Y986D01*
X72Y985D02*
X91Y985D01*
X146Y985D02*
X158Y985D01*
X506Y985D02*
X512Y985D01*
X520Y985D02*
X526Y985D01*
X538Y985D02*
X544Y985D01*
X74Y984D02*
X93Y984D01*
X146Y984D02*
X158Y984D01*
X506Y984D02*
X512Y984D01*
X520Y984D02*
X526Y984D01*
X538Y984D02*
X544Y984D01*
X75Y983D02*
X94Y983D01*
X146Y983D02*
X158Y983D01*
X506Y983D02*
X512Y983D01*
X520Y983D02*
X526Y983D01*
X538Y983D02*
X544Y983D01*
X76Y982D02*
X95Y982D01*
X146Y982D02*
X158Y982D01*
X506Y982D02*
X512Y982D01*
X520Y982D02*
X526Y982D01*
X538Y982D02*
X544Y982D01*
X77Y981D02*
X96Y981D01*
X146Y981D02*
X157Y981D01*
X506Y981D02*
X512Y981D01*
X520Y981D02*
X526Y981D01*
X538Y981D02*
X544Y981D01*
X79Y980D02*
X98Y980D01*
X146Y980D02*
X157Y980D01*
X506Y980D02*
X512Y980D01*
X520Y980D02*
X526Y980D01*
X538Y980D02*
X544Y980D01*
X80Y979D02*
X99Y979D01*
X145Y979D02*
X157Y979D01*
X506Y979D02*
X512Y979D01*
X520Y979D02*
X526Y979D01*
X538Y979D02*
X544Y979D01*
X81Y978D02*
X101Y978D01*
X144Y978D02*
X157Y978D01*
X506Y978D02*
X512Y978D01*
X520Y978D02*
X527Y978D01*
X538Y978D02*
X544Y978D01*
X83Y977D02*
X103Y977D01*
X142Y977D02*
X157Y977D01*
X506Y977D02*
X512Y977D01*
X521Y977D02*
X527Y977D01*
X538Y977D02*
X544Y977D01*
X84Y976D02*
X156Y976D01*
X507Y976D02*
X511Y976D01*
X521Y976D02*
X527Y976D01*
X537Y976D02*
X544Y976D01*
X85Y975D02*
X156Y975D01*
X508Y975D02*
X510Y975D01*
X521Y975D02*
X529Y975D01*
X536Y975D02*
X544Y975D01*
X87Y974D02*
X155Y974D01*
X521Y974D02*
X543Y974D01*
X88Y973D02*
X155Y973D01*
X522Y973D02*
X543Y973D01*
X89Y972D02*
X154Y972D01*
X523Y972D02*
X542Y972D01*
X90Y971D02*
X153Y971D01*
X523Y971D02*
X541Y971D01*
X92Y970D02*
X152Y970D01*
X525Y970D02*
X540Y970D01*
X93Y969D02*
X151Y969D01*
X526Y969D02*
X539Y969D01*
X95Y968D02*
X150Y968D01*
X529Y968D02*
X536Y968D01*
X96Y967D02*
X149Y967D01*
X99Y966D02*
X147Y966D01*
X102Y965D02*
X144Y965D01*
X232Y957D02*
X258Y957D01*
X230Y956D02*
X260Y956D01*
X229Y955D02*
X261Y955D01*
X228Y954D02*
X262Y954D01*
X228Y953D02*
X262Y953D01*
X228Y952D02*
X262Y952D01*
X228Y951D02*
X262Y951D01*
X228Y950D02*
X262Y950D01*
X229Y949D02*
X262Y949D01*
X230Y948D02*
X262Y948D01*
X539Y948D02*
X543Y948D01*
X253Y947D02*
X262Y947D01*
X539Y947D02*
X544Y947D01*
X253Y946D02*
X262Y946D01*
X538Y946D02*
X544Y946D01*
X253Y945D02*
X262Y945D01*
X538Y945D02*
X544Y945D01*
X253Y944D02*
X262Y944D01*
X538Y944D02*
X544Y944D01*
X253Y943D02*
X262Y943D01*
X538Y943D02*
X544Y943D01*
X253Y942D02*
X262Y942D01*
X538Y942D02*
X544Y942D01*
X253Y941D02*
X262Y941D01*
X538Y941D02*
X544Y941D01*
X253Y940D02*
X262Y940D01*
X538Y940D02*
X544Y940D01*
X253Y939D02*
X262Y939D01*
X538Y939D02*
X544Y939D01*
X253Y938D02*
X262Y938D01*
X490Y938D02*
X495Y938D01*
X507Y938D02*
X544Y938D01*
X185Y937D02*
X262Y937D01*
X489Y937D02*
X496Y937D01*
X506Y937D02*
X544Y937D01*
X185Y936D02*
X262Y936D01*
X488Y936D02*
X497Y936D01*
X506Y936D02*
X544Y936D01*
X185Y935D02*
X262Y935D01*
X488Y935D02*
X497Y935D01*
X506Y935D02*
X544Y935D01*
X185Y934D02*
X262Y934D01*
X488Y934D02*
X497Y934D01*
X506Y934D02*
X544Y934D01*
X185Y933D02*
X262Y933D01*
X488Y933D02*
X497Y933D01*
X506Y933D02*
X544Y933D01*
X185Y932D02*
X262Y932D01*
X488Y932D02*
X497Y932D01*
X506Y932D02*
X544Y932D01*
X185Y931D02*
X262Y931D01*
X488Y931D02*
X497Y931D01*
X506Y931D02*
X512Y931D01*
X538Y931D02*
X544Y931D01*
X185Y930D02*
X262Y930D01*
X489Y930D02*
X497Y930D01*
X506Y930D02*
X512Y930D01*
X538Y930D02*
X544Y930D01*
X185Y929D02*
X262Y929D01*
X489Y929D02*
X496Y929D01*
X506Y929D02*
X512Y929D01*
X538Y929D02*
X544Y929D01*
X185Y928D02*
X262Y928D01*
X506Y928D02*
X512Y928D01*
X538Y928D02*
X544Y928D01*
X185Y927D02*
X195Y927D01*
X253Y927D02*
X262Y927D01*
X506Y927D02*
X512Y927D01*
X538Y927D02*
X544Y927D01*
X185Y926D02*
X194Y926D01*
X253Y926D02*
X262Y926D01*
X506Y926D02*
X512Y926D01*
X538Y926D02*
X544Y926D01*
X185Y925D02*
X194Y925D01*
X253Y925D02*
X262Y925D01*
X506Y925D02*
X512Y925D01*
X538Y925D02*
X544Y925D01*
X185Y924D02*
X194Y924D01*
X253Y924D02*
X262Y924D01*
X506Y924D02*
X512Y924D01*
X538Y924D02*
X544Y924D01*
X185Y923D02*
X194Y923D01*
X253Y923D02*
X262Y923D01*
X506Y923D02*
X511Y923D01*
X539Y923D02*
X544Y923D01*
X185Y922D02*
X194Y922D01*
X253Y922D02*
X262Y922D01*
X507Y922D02*
X510Y922D01*
X540Y922D02*
X543Y922D01*
X185Y921D02*
X194Y921D01*
X253Y921D02*
X262Y921D01*
X185Y920D02*
X194Y920D01*
X253Y920D02*
X262Y920D01*
X185Y919D02*
X194Y919D01*
X253Y919D02*
X262Y919D01*
X185Y918D02*
X194Y918D01*
X253Y918D02*
X262Y918D01*
X185Y917D02*
X194Y917D01*
X253Y917D02*
X262Y917D01*
X185Y916D02*
X194Y916D01*
X253Y916D02*
X262Y916D01*
X185Y915D02*
X194Y915D01*
X253Y915D02*
X262Y915D01*
X185Y914D02*
X194Y914D01*
X253Y914D02*
X262Y914D01*
X185Y913D02*
X194Y913D01*
X253Y913D02*
X262Y913D01*
X185Y912D02*
X194Y912D01*
X253Y912D02*
X262Y912D01*
X186Y911D02*
X194Y911D01*
X253Y911D02*
X262Y911D01*
X186Y910D02*
X194Y910D01*
X254Y910D02*
X262Y910D01*
X187Y909D02*
X193Y909D01*
X255Y909D02*
X261Y909D01*
X188Y908D02*
X191Y908D01*
X256Y908D02*
X259Y908D01*
X540Y902D02*
X542Y902D01*
X539Y901D02*
X543Y901D01*
X538Y900D02*
X544Y900D01*
X537Y899D02*
X544Y899D01*
X507Y898D02*
X511Y898D01*
X536Y898D02*
X544Y898D01*
X506Y897D02*
X512Y897D01*
X535Y897D02*
X544Y897D01*
X506Y896D02*
X512Y896D01*
X535Y896D02*
X543Y896D01*
X506Y895D02*
X513Y895D01*
X534Y895D02*
X542Y895D01*
X506Y894D02*
X514Y894D01*
X533Y894D02*
X541Y894D01*
X507Y893D02*
X515Y893D01*
X532Y893D02*
X540Y893D01*
X508Y892D02*
X516Y892D01*
X531Y892D02*
X539Y892D01*
X508Y891D02*
X517Y891D01*
X530Y891D02*
X539Y891D01*
X509Y890D02*
X518Y890D01*
X529Y890D02*
X538Y890D01*
X510Y889D02*
X518Y889D01*
X529Y889D02*
X537Y889D01*
X511Y888D02*
X519Y888D01*
X528Y888D02*
X536Y888D01*
X512Y887D02*
X520Y887D01*
X527Y887D02*
X535Y887D01*
X513Y886D02*
X521Y886D01*
X526Y886D02*
X534Y886D01*
X514Y885D02*
X522Y885D01*
X525Y885D02*
X533Y885D01*
X514Y884D02*
X533Y884D01*
X515Y883D02*
X532Y883D01*
X516Y882D02*
X531Y882D01*
X517Y881D02*
X530Y881D01*
X518Y880D02*
X529Y880D01*
X519Y879D02*
X528Y879D01*
X520Y878D02*
X528Y878D01*
X520Y877D02*
X529Y877D01*
X521Y876D02*
X530Y876D01*
X522Y875D02*
X531Y875D01*
X492Y874D02*
X543Y874D01*
X491Y873D02*
X544Y873D01*
X491Y872D02*
X544Y872D01*
X491Y871D02*
X544Y871D01*
X491Y870D02*
X544Y870D01*
X492Y869D02*
X543Y869D01*
X494Y868D02*
X541Y868D01*
X515Y852D02*
X535Y852D01*
X513Y851D02*
X537Y851D01*
X148Y850D02*
X153Y850D01*
X512Y850D02*
X538Y850D01*
X117Y849D02*
X155Y849D01*
X511Y849D02*
X539Y849D01*
X103Y848D02*
X156Y848D01*
X510Y848D02*
X540Y848D01*
X100Y847D02*
X157Y847D01*
X509Y847D02*
X541Y847D01*
X98Y846D02*
X157Y846D01*
X508Y846D02*
X542Y846D01*
X97Y845D02*
X157Y845D01*
X507Y845D02*
X516Y845D01*
X534Y845D02*
X543Y845D01*
X96Y844D02*
X158Y844D01*
X507Y844D02*
X514Y844D01*
X535Y844D02*
X543Y844D01*
X95Y843D02*
X157Y843D01*
X506Y843D02*
X513Y843D01*
X536Y843D02*
X544Y843D01*
X94Y842D02*
X157Y842D01*
X506Y842D02*
X513Y842D01*
X537Y842D02*
X544Y842D01*
X93Y841D02*
X157Y841D01*
X506Y841D02*
X512Y841D01*
X538Y841D02*
X544Y841D01*
X92Y840D02*
X156Y840D01*
X506Y840D02*
X512Y840D01*
X538Y840D02*
X544Y840D01*
X92Y839D02*
X155Y839D01*
X506Y839D02*
X512Y839D01*
X538Y839D02*
X544Y839D01*
X91Y838D02*
X151Y838D01*
X506Y838D02*
X512Y838D01*
X538Y838D02*
X544Y838D01*
X91Y837D02*
X122Y837D01*
X506Y837D02*
X512Y837D01*
X538Y837D02*
X544Y837D01*
X91Y836D02*
X105Y836D01*
X506Y836D02*
X512Y836D01*
X538Y836D02*
X544Y836D01*
X90Y835D02*
X103Y835D01*
X506Y835D02*
X512Y835D01*
X538Y835D02*
X544Y835D01*
X90Y834D02*
X102Y834D01*
X506Y834D02*
X512Y834D01*
X538Y834D02*
X544Y834D01*
X90Y833D02*
X102Y833D01*
X506Y833D02*
X512Y833D01*
X538Y833D02*
X544Y833D01*
X90Y832D02*
X101Y832D01*
X506Y832D02*
X512Y832D01*
X538Y832D02*
X544Y832D01*
X90Y831D02*
X101Y831D01*
X506Y831D02*
X512Y831D01*
X538Y831D02*
X544Y831D01*
X90Y830D02*
X101Y830D01*
X506Y830D02*
X512Y830D01*
X538Y830D02*
X544Y830D01*
X90Y829D02*
X101Y829D01*
X506Y829D02*
X512Y829D01*
X538Y829D02*
X544Y829D01*
X90Y828D02*
X101Y828D01*
X506Y828D02*
X513Y828D01*
X537Y828D02*
X544Y828D01*
X90Y827D02*
X101Y827D01*
X506Y827D02*
X514Y827D01*
X536Y827D02*
X543Y827D01*
X90Y826D02*
X101Y826D01*
X507Y826D02*
X515Y826D01*
X535Y826D02*
X543Y826D01*
X90Y825D02*
X101Y825D01*
X508Y825D02*
X517Y825D01*
X533Y825D02*
X542Y825D01*
X90Y824D02*
X101Y824D01*
X508Y824D02*
X542Y824D01*
X90Y823D02*
X101Y823D01*
X509Y823D02*
X541Y823D01*
X90Y822D02*
X101Y822D01*
X510Y822D02*
X540Y822D01*
X90Y821D02*
X102Y821D01*
X511Y821D02*
X539Y821D01*
X90Y820D02*
X102Y820D01*
X512Y820D02*
X538Y820D01*
X90Y819D02*
X103Y819D01*
X514Y819D02*
X536Y819D01*
X91Y818D02*
X104Y818D01*
X517Y818D02*
X533Y818D01*
X91Y817D02*
X104Y817D01*
X92Y816D02*
X105Y816D01*
X92Y815D02*
X105Y815D01*
X93Y814D02*
X106Y814D01*
X93Y813D02*
X107Y813D01*
X189Y813D02*
X208Y813D01*
X94Y812D02*
X107Y812D01*
X187Y812D02*
X211Y812D01*
X94Y811D02*
X108Y811D01*
X186Y811D02*
X213Y811D01*
X95Y810D02*
X109Y810D01*
X186Y810D02*
X216Y810D01*
X96Y809D02*
X109Y809D01*
X185Y809D02*
X218Y809D01*
X96Y808D02*
X110Y808D01*
X185Y808D02*
X221Y808D01*
X97Y807D02*
X111Y807D01*
X185Y807D02*
X223Y807D01*
X98Y806D02*
X111Y806D01*
X186Y806D02*
X226Y806D01*
X98Y805D02*
X112Y805D01*
X187Y805D02*
X229Y805D01*
X99Y804D02*
X113Y804D01*
X188Y804D02*
X231Y804D01*
X100Y803D02*
X113Y803D01*
X207Y803D02*
X234Y803D01*
X94Y802D02*
X153Y802D01*
X209Y802D02*
X236Y802D01*
X493Y802D02*
X544Y802D01*
X93Y801D02*
X155Y801D01*
X212Y801D02*
X239Y801D01*
X492Y801D02*
X544Y801D01*
X91Y800D02*
X156Y800D01*
X214Y800D02*
X241Y800D01*
X491Y800D02*
X544Y800D01*
X91Y799D02*
X157Y799D01*
X217Y799D02*
X244Y799D01*
X491Y799D02*
X544Y799D01*
X90Y798D02*
X157Y798D01*
X220Y798D02*
X246Y798D01*
X491Y798D02*
X544Y798D01*
X90Y797D02*
X157Y797D01*
X222Y797D02*
X249Y797D01*
X492Y797D02*
X544Y797D01*
X90Y796D02*
X158Y796D01*
X225Y796D02*
X252Y796D01*
X493Y796D02*
X544Y796D01*
X90Y795D02*
X157Y795D01*
X227Y795D02*
X254Y795D01*
X532Y795D02*
X544Y795D01*
X90Y794D02*
X157Y794D01*
X230Y794D02*
X257Y794D01*
X529Y794D02*
X544Y794D01*
X91Y793D02*
X157Y793D01*
X232Y793D02*
X259Y793D01*
X527Y793D02*
X544Y793D01*
X91Y792D02*
X156Y792D01*
X235Y792D02*
X261Y792D01*
X525Y792D02*
X542Y792D01*
X93Y791D02*
X155Y791D01*
X237Y791D02*
X262Y791D01*
X523Y791D02*
X539Y791D01*
X95Y790D02*
X152Y790D01*
X240Y790D02*
X262Y790D01*
X520Y790D02*
X537Y790D01*
X243Y789D02*
X262Y789D01*
X518Y789D02*
X535Y789D01*
X243Y788D02*
X262Y788D01*
X516Y788D02*
X532Y788D01*
X241Y787D02*
X262Y787D01*
X514Y787D02*
X530Y787D01*
X238Y786D02*
X262Y786D01*
X511Y786D02*
X528Y786D01*
X235Y785D02*
X261Y785D01*
X509Y785D02*
X526Y785D01*
X233Y784D02*
X260Y784D01*
X507Y784D02*
X523Y784D01*
X230Y783D02*
X258Y783D01*
X504Y783D02*
X521Y783D01*
X228Y782D02*
X255Y782D01*
X502Y782D02*
X519Y782D01*
X225Y781D02*
X252Y781D01*
X500Y781D02*
X516Y781D01*
X223Y780D02*
X250Y780D01*
X498Y780D02*
X514Y780D01*
X220Y779D02*
X247Y779D01*
X495Y779D02*
X512Y779D01*
X218Y778D02*
X245Y778D01*
X493Y778D02*
X510Y778D01*
X215Y777D02*
X242Y777D01*
X491Y777D02*
X507Y777D01*
X212Y776D02*
X240Y776D01*
X491Y776D02*
X505Y776D01*
X210Y775D02*
X237Y775D01*
X491Y775D02*
X504Y775D01*
X207Y774D02*
X234Y774D01*
X491Y774D02*
X543Y774D01*
X188Y773D02*
X232Y773D01*
X491Y773D02*
X544Y773D01*
X187Y772D02*
X229Y772D01*
X491Y772D02*
X544Y772D01*
X186Y771D02*
X227Y771D01*
X491Y771D02*
X544Y771D01*
X186Y770D02*
X224Y770D01*
X491Y770D02*
X544Y770D01*
X185Y769D02*
X222Y769D01*
X491Y769D02*
X543Y769D01*
X185Y768D02*
X219Y768D01*
X491Y768D02*
X541Y768D01*
X186Y767D02*
X216Y767D01*
X186Y766D02*
X214Y766D01*
X187Y765D02*
X211Y765D01*
X188Y764D02*
X209Y764D01*
X150Y763D02*
X152Y763D01*
X121Y762D02*
X155Y762D01*
X104Y761D02*
X156Y761D01*
X101Y760D02*
X157Y760D01*
X99Y759D02*
X157Y759D01*
X97Y758D02*
X157Y758D01*
X96Y757D02*
X158Y757D01*
X95Y756D02*
X157Y756D01*
X94Y755D02*
X157Y755D01*
X93Y754D02*
X157Y754D01*
X93Y753D02*
X156Y753D01*
X92Y752D02*
X155Y752D01*
X2411Y752D02*
X2414Y752D01*
X91Y751D02*
X153Y751D01*
X2410Y751D02*
X2415Y751D01*
X91Y750D02*
X131Y750D01*
X139Y750D02*
X152Y750D01*
X2410Y750D02*
X2416Y750D01*
X91Y749D02*
X107Y749D01*
X116Y749D02*
X129Y749D01*
X139Y749D02*
X153Y749D01*
X2410Y749D02*
X2416Y749D01*
X90Y748D02*
X104Y748D01*
X116Y748D02*
X128Y748D01*
X140Y748D02*
X153Y748D01*
X2410Y748D02*
X2416Y748D01*
X90Y747D02*
X102Y747D01*
X116Y747D02*
X128Y747D01*
X141Y747D02*
X154Y747D01*
X2410Y747D02*
X2416Y747D01*
X90Y746D02*
X102Y746D01*
X116Y746D02*
X127Y746D01*
X141Y746D02*
X154Y746D01*
X2410Y746D02*
X2416Y746D01*
X90Y745D02*
X101Y745D01*
X116Y745D02*
X127Y745D01*
X142Y745D02*
X155Y745D01*
X2410Y745D02*
X2416Y745D01*
X90Y744D02*
X101Y744D01*
X115Y744D02*
X127Y744D01*
X142Y744D02*
X155Y744D01*
X2410Y744D02*
X2416Y744D01*
X90Y743D02*
X101Y743D01*
X115Y743D02*
X127Y743D01*
X143Y743D02*
X156Y743D01*
X2410Y743D02*
X2416Y743D01*
X90Y742D02*
X101Y742D01*
X115Y742D02*
X127Y742D01*
X143Y742D02*
X157Y742D01*
X2365Y742D02*
X2416Y742D01*
X90Y741D02*
X101Y741D01*
X115Y741D02*
X127Y741D01*
X144Y741D02*
X157Y741D01*
X2364Y741D02*
X2416Y741D01*
X90Y740D02*
X101Y740D01*
X115Y740D02*
X127Y740D01*
X145Y740D02*
X157Y740D01*
X2363Y740D02*
X2416Y740D01*
X90Y739D02*
X101Y739D01*
X115Y739D02*
X127Y739D01*
X145Y739D02*
X158Y739D01*
X2363Y739D02*
X2416Y739D01*
X90Y738D02*
X101Y738D01*
X115Y738D02*
X127Y738D01*
X146Y738D02*
X158Y738D01*
X2363Y738D02*
X2416Y738D01*
X90Y737D02*
X101Y737D01*
X115Y737D02*
X127Y737D01*
X146Y737D02*
X158Y737D01*
X2363Y737D02*
X2416Y737D01*
X90Y736D02*
X101Y736D01*
X115Y736D02*
X127Y736D01*
X146Y736D02*
X158Y736D01*
X2363Y736D02*
X2416Y736D01*
X90Y735D02*
X101Y735D01*
X115Y735D02*
X127Y735D01*
X146Y735D02*
X158Y735D01*
X2363Y735D02*
X2369Y735D01*
X2409Y735D02*
X2416Y735D01*
X90Y734D02*
X101Y734D01*
X115Y734D02*
X127Y734D01*
X146Y734D02*
X158Y734D01*
X2363Y734D02*
X2369Y734D01*
X2410Y734D02*
X2416Y734D01*
X90Y733D02*
X101Y733D01*
X115Y733D02*
X127Y733D01*
X146Y733D02*
X158Y733D01*
X2363Y733D02*
X2369Y733D01*
X2410Y733D02*
X2416Y733D01*
X90Y732D02*
X101Y732D01*
X115Y732D02*
X127Y732D01*
X146Y732D02*
X158Y732D01*
X2363Y732D02*
X2369Y732D01*
X2410Y732D02*
X2416Y732D01*
X90Y731D02*
X101Y731D01*
X115Y731D02*
X127Y731D01*
X146Y731D02*
X158Y731D01*
X2363Y731D02*
X2369Y731D01*
X2410Y731D02*
X2416Y731D01*
X90Y730D02*
X101Y730D01*
X115Y730D02*
X127Y730D01*
X146Y730D02*
X158Y730D01*
X2363Y730D02*
X2369Y730D01*
X2410Y730D02*
X2416Y730D01*
X90Y729D02*
X101Y729D01*
X115Y729D02*
X127Y729D01*
X146Y729D02*
X158Y729D01*
X2363Y729D02*
X2369Y729D01*
X2410Y729D02*
X2416Y729D01*
X90Y728D02*
X101Y728D01*
X115Y728D02*
X127Y728D01*
X146Y728D02*
X158Y728D01*
X2363Y728D02*
X2369Y728D01*
X2410Y728D02*
X2416Y728D01*
X90Y727D02*
X101Y727D01*
X115Y727D02*
X127Y727D01*
X146Y727D02*
X158Y727D01*
X2363Y727D02*
X2368Y727D01*
X2410Y727D02*
X2415Y727D01*
X90Y726D02*
X101Y726D01*
X115Y726D02*
X127Y726D01*
X146Y726D02*
X158Y726D01*
X2364Y726D02*
X2368Y726D01*
X2411Y726D02*
X2415Y726D01*
X90Y725D02*
X101Y725D01*
X115Y725D02*
X127Y725D01*
X146Y725D02*
X158Y725D01*
X2365Y725D02*
X2366Y725D01*
X2412Y725D02*
X2413Y725D01*
X90Y724D02*
X101Y724D01*
X115Y724D02*
X127Y724D01*
X146Y724D02*
X158Y724D01*
X90Y723D02*
X101Y723D01*
X115Y723D02*
X127Y723D01*
X146Y723D02*
X158Y723D01*
X90Y722D02*
X101Y722D01*
X115Y722D02*
X127Y722D01*
X146Y722D02*
X158Y722D01*
X90Y721D02*
X101Y721D01*
X115Y721D02*
X127Y721D01*
X146Y721D02*
X158Y721D01*
X90Y720D02*
X101Y720D01*
X116Y720D02*
X127Y720D01*
X146Y720D02*
X157Y720D01*
X90Y719D02*
X101Y719D01*
X116Y719D02*
X127Y719D01*
X146Y719D02*
X157Y719D01*
X91Y718D02*
X100Y718D01*
X116Y718D02*
X128Y718D01*
X145Y718D02*
X157Y718D01*
X91Y717D02*
X100Y717D01*
X116Y717D02*
X128Y717D01*
X145Y717D02*
X157Y717D01*
X92Y716D02*
X98Y716D01*
X116Y716D02*
X130Y716D01*
X144Y716D02*
X157Y716D01*
X94Y715D02*
X97Y715D01*
X116Y715D02*
X157Y715D01*
X117Y714D02*
X156Y714D01*
X117Y713D02*
X156Y713D01*
X118Y712D02*
X155Y712D01*
X118Y711D02*
X155Y711D01*
X119Y710D02*
X154Y710D01*
X120Y709D02*
X153Y709D01*
X121Y708D02*
X152Y708D01*
X122Y707D02*
X151Y707D01*
X123Y706D02*
X150Y706D01*
X125Y705D02*
X148Y705D01*
X127Y704D02*
X146Y704D01*
X131Y703D02*
X142Y703D01*
X2411Y702D02*
X2414Y702D01*
X2410Y701D02*
X2415Y701D01*
X2410Y700D02*
X2416Y700D01*
X2410Y699D02*
X2416Y699D01*
X2410Y698D02*
X2416Y698D01*
X2410Y697D02*
X2416Y697D01*
X2410Y696D02*
X2416Y696D01*
X2410Y695D02*
X2416Y695D01*
X2410Y694D02*
X2416Y694D01*
X1880Y693D02*
X1898Y693D01*
X1924Y693D02*
X1924Y693D01*
X2410Y693D02*
X2416Y693D01*
X1878Y692D02*
X1900Y692D01*
X1922Y692D02*
X1926Y692D01*
X2362Y692D02*
X2366Y692D01*
X2380Y692D02*
X2416Y692D01*
X1876Y691D02*
X1902Y691D01*
X1922Y691D02*
X1927Y691D01*
X2361Y691D02*
X2368Y691D01*
X2378Y691D02*
X2416Y691D01*
X1668Y690D02*
X1713Y690D01*
X1875Y690D02*
X1902Y690D01*
X1921Y690D02*
X1927Y690D01*
X2360Y690D02*
X2368Y690D01*
X2378Y690D02*
X2416Y690D01*
X1667Y689D02*
X1714Y689D01*
X1875Y689D02*
X1903Y689D01*
X1921Y689D02*
X1927Y689D01*
X2360Y689D02*
X2369Y689D01*
X2377Y689D02*
X2416Y689D01*
X1666Y688D02*
X1715Y688D01*
X1874Y688D02*
X1903Y688D01*
X1921Y688D02*
X1927Y688D01*
X2360Y688D02*
X2369Y688D01*
X2377Y688D02*
X2416Y688D01*
X1665Y687D02*
X1716Y687D01*
X1874Y687D02*
X1904Y687D01*
X1921Y687D02*
X1927Y687D01*
X2360Y687D02*
X2369Y687D01*
X2377Y687D02*
X2416Y687D01*
X1664Y686D02*
X1717Y686D01*
X1874Y686D02*
X1881Y686D01*
X1897Y686D02*
X1904Y686D01*
X1921Y686D02*
X1927Y686D01*
X2360Y686D02*
X2369Y686D01*
X2377Y686D02*
X2416Y686D01*
X1664Y685D02*
X1717Y685D01*
X1874Y685D02*
X1880Y685D01*
X1898Y685D02*
X1904Y685D01*
X1921Y685D02*
X1927Y685D01*
X2200Y685D02*
X2220Y685D01*
X2360Y685D02*
X2369Y685D01*
X2377Y685D02*
X2383Y685D01*
X2410Y685D02*
X2416Y685D01*
X1664Y684D02*
X1717Y684D01*
X1874Y684D02*
X1880Y684D01*
X1898Y684D02*
X1904Y684D01*
X1921Y684D02*
X1927Y684D01*
X2199Y684D02*
X2221Y684D01*
X2360Y684D02*
X2368Y684D01*
X2377Y684D02*
X2383Y684D01*
X2410Y684D02*
X2416Y684D01*
X1664Y683D02*
X1670Y683D01*
X1711Y683D02*
X1717Y683D01*
X1874Y683D02*
X1880Y683D01*
X1898Y683D02*
X1904Y683D01*
X1921Y683D02*
X1927Y683D01*
X2199Y683D02*
X2222Y683D01*
X2361Y683D02*
X2368Y683D01*
X2377Y683D02*
X2383Y683D01*
X2410Y683D02*
X2416Y683D01*
X1664Y682D02*
X1670Y682D01*
X1711Y682D02*
X1717Y682D01*
X1874Y682D02*
X1880Y682D01*
X1898Y682D02*
X1904Y682D01*
X1921Y682D02*
X1927Y682D01*
X2198Y682D02*
X2222Y682D01*
X2362Y682D02*
X2366Y682D01*
X2377Y682D02*
X2383Y682D01*
X2410Y682D02*
X2416Y682D01*
X1664Y681D02*
X1670Y681D01*
X1711Y681D02*
X1717Y681D01*
X1874Y681D02*
X1880Y681D01*
X1898Y681D02*
X1904Y681D01*
X1921Y681D02*
X1927Y681D01*
X2198Y681D02*
X2222Y681D01*
X2377Y681D02*
X2383Y681D01*
X2410Y681D02*
X2416Y681D01*
X1664Y680D02*
X1670Y680D01*
X1711Y680D02*
X1717Y680D01*
X1874Y680D02*
X1880Y680D01*
X1898Y680D02*
X1904Y680D01*
X1921Y680D02*
X1927Y680D01*
X2198Y680D02*
X2222Y680D01*
X2377Y680D02*
X2383Y680D01*
X2410Y680D02*
X2416Y680D01*
X1664Y679D02*
X1670Y679D01*
X1711Y679D02*
X1717Y679D01*
X1874Y679D02*
X1880Y679D01*
X1898Y679D02*
X1904Y679D01*
X1921Y679D02*
X1927Y679D01*
X2198Y679D02*
X2222Y679D01*
X2377Y679D02*
X2383Y679D01*
X2410Y679D02*
X2416Y679D01*
X1664Y678D02*
X1670Y678D01*
X1711Y678D02*
X1717Y678D01*
X1874Y678D02*
X1880Y678D01*
X1898Y678D02*
X1904Y678D01*
X1921Y678D02*
X1927Y678D01*
X2198Y678D02*
X2204Y678D01*
X2216Y678D02*
X2222Y678D01*
X2377Y678D02*
X2383Y678D01*
X2410Y678D02*
X2416Y678D01*
X1664Y677D02*
X1670Y677D01*
X1711Y677D02*
X1717Y677D01*
X1874Y677D02*
X1880Y677D01*
X1898Y677D02*
X1904Y677D01*
X1921Y677D02*
X1927Y677D01*
X2198Y677D02*
X2204Y677D01*
X2216Y677D02*
X2222Y677D01*
X2378Y677D02*
X2383Y677D01*
X2410Y677D02*
X2415Y677D01*
X1664Y676D02*
X1670Y676D01*
X1711Y676D02*
X1717Y676D01*
X1874Y676D02*
X1880Y676D01*
X1898Y676D02*
X1904Y676D01*
X1921Y676D02*
X1927Y676D01*
X2198Y676D02*
X2204Y676D01*
X2216Y676D02*
X2222Y676D01*
X2378Y676D02*
X2382Y676D01*
X2411Y676D02*
X2415Y676D01*
X106Y675D02*
X141Y675D01*
X1664Y675D02*
X1670Y675D01*
X1711Y675D02*
X1717Y675D01*
X1874Y675D02*
X1880Y675D01*
X1898Y675D02*
X1904Y675D01*
X1921Y675D02*
X1927Y675D01*
X2198Y675D02*
X2204Y675D01*
X2216Y675D02*
X2222Y675D01*
X2380Y675D02*
X2380Y675D01*
X2413Y675D02*
X2413Y675D01*
X104Y674D02*
X144Y674D01*
X1664Y674D02*
X1670Y674D01*
X1711Y674D02*
X1717Y674D01*
X1874Y674D02*
X1880Y674D01*
X1898Y674D02*
X1904Y674D01*
X1921Y674D02*
X1927Y674D01*
X2198Y674D02*
X2204Y674D01*
X2216Y674D02*
X2222Y674D01*
X102Y673D02*
X145Y673D01*
X1664Y673D02*
X1670Y673D01*
X1711Y673D02*
X1717Y673D01*
X1874Y673D02*
X1880Y673D01*
X1898Y673D02*
X1904Y673D01*
X1921Y673D02*
X1927Y673D01*
X2198Y673D02*
X2204Y673D01*
X2216Y673D02*
X2222Y673D01*
X101Y672D02*
X147Y672D01*
X1664Y672D02*
X1670Y672D01*
X1711Y672D02*
X1717Y672D01*
X1874Y672D02*
X1880Y672D01*
X1898Y672D02*
X1904Y672D01*
X1921Y672D02*
X1927Y672D01*
X2198Y672D02*
X2204Y672D01*
X2216Y672D02*
X2222Y672D01*
X100Y671D02*
X148Y671D01*
X1664Y671D02*
X1670Y671D01*
X1711Y671D02*
X1717Y671D01*
X1874Y671D02*
X1880Y671D01*
X1898Y671D02*
X1904Y671D01*
X1921Y671D02*
X1927Y671D01*
X2198Y671D02*
X2204Y671D01*
X2216Y671D02*
X2222Y671D01*
X98Y670D02*
X149Y670D01*
X1664Y670D02*
X1670Y670D01*
X1711Y670D02*
X1717Y670D01*
X1874Y670D02*
X1880Y670D01*
X1898Y670D02*
X1904Y670D01*
X1921Y670D02*
X1927Y670D01*
X2198Y670D02*
X2204Y670D01*
X2216Y670D02*
X2222Y670D01*
X97Y669D02*
X150Y669D01*
X1664Y669D02*
X1670Y669D01*
X1711Y669D02*
X1717Y669D01*
X1874Y669D02*
X1880Y669D01*
X1898Y669D02*
X1904Y669D01*
X1921Y669D02*
X1927Y669D01*
X2198Y669D02*
X2204Y669D01*
X2216Y669D02*
X2222Y669D01*
X97Y668D02*
X151Y668D01*
X1664Y668D02*
X1670Y668D01*
X1711Y668D02*
X1717Y668D01*
X1874Y668D02*
X1880Y668D01*
X1898Y668D02*
X1904Y668D01*
X1921Y668D02*
X1927Y668D01*
X2198Y668D02*
X2204Y668D01*
X2216Y668D02*
X2222Y668D01*
X96Y667D02*
X152Y667D01*
X1664Y667D02*
X1670Y667D01*
X1711Y667D02*
X1717Y667D01*
X1874Y667D02*
X1880Y667D01*
X1898Y667D02*
X1904Y667D01*
X1921Y667D02*
X1927Y667D01*
X2198Y667D02*
X2204Y667D01*
X2216Y667D02*
X2222Y667D01*
X95Y666D02*
X152Y666D01*
X1664Y666D02*
X1670Y666D01*
X1711Y666D02*
X1717Y666D01*
X1874Y666D02*
X1880Y666D01*
X1898Y666D02*
X1904Y666D01*
X1921Y666D02*
X1927Y666D01*
X2198Y666D02*
X2204Y666D01*
X2216Y666D02*
X2222Y666D01*
X94Y665D02*
X153Y665D01*
X1664Y665D02*
X1670Y665D01*
X1711Y665D02*
X1717Y665D01*
X1874Y665D02*
X1880Y665D01*
X1898Y665D02*
X1927Y665D01*
X2198Y665D02*
X2204Y665D01*
X2216Y665D02*
X2222Y665D01*
X93Y664D02*
X154Y664D01*
X1664Y664D02*
X1670Y664D01*
X1711Y664D02*
X1717Y664D01*
X1874Y664D02*
X1880Y664D01*
X1898Y664D02*
X1927Y664D01*
X2198Y664D02*
X2204Y664D01*
X2216Y664D02*
X2222Y664D01*
X93Y663D02*
X108Y663D01*
X139Y663D02*
X155Y663D01*
X1664Y663D02*
X1670Y663D01*
X1711Y663D02*
X1717Y663D01*
X1874Y663D02*
X1880Y663D01*
X1898Y663D02*
X1927Y663D01*
X2198Y663D02*
X2204Y663D01*
X2216Y663D02*
X2222Y663D01*
X92Y662D02*
X107Y662D01*
X141Y662D02*
X155Y662D01*
X1664Y662D02*
X1717Y662D01*
X1874Y662D02*
X1880Y662D01*
X1899Y662D02*
X1927Y662D01*
X2198Y662D02*
X2204Y662D01*
X2216Y662D02*
X2222Y662D01*
X92Y661D02*
X106Y661D01*
X142Y661D02*
X156Y661D01*
X1664Y661D02*
X1717Y661D01*
X1874Y661D02*
X1880Y661D01*
X1900Y661D02*
X1927Y661D01*
X2171Y661D02*
X2172Y661D01*
X2198Y661D02*
X2204Y661D01*
X2216Y661D02*
X2222Y661D01*
X91Y660D02*
X105Y660D01*
X142Y660D02*
X156Y660D01*
X1665Y660D02*
X1716Y660D01*
X1875Y660D02*
X1879Y660D01*
X1901Y660D02*
X1927Y660D01*
X2170Y660D02*
X2174Y660D01*
X2198Y660D02*
X2204Y660D01*
X2216Y660D02*
X2222Y660D01*
X91Y659D02*
X104Y659D01*
X143Y659D02*
X157Y659D01*
X1665Y659D02*
X1716Y659D01*
X1876Y659D02*
X1878Y659D01*
X1902Y659D02*
X1927Y659D01*
X2169Y659D02*
X2175Y659D01*
X2198Y659D02*
X2204Y659D01*
X2216Y659D02*
X2222Y659D01*
X90Y658D02*
X103Y658D01*
X144Y658D02*
X157Y658D01*
X1666Y658D02*
X1715Y658D01*
X2169Y658D02*
X2175Y658D01*
X2198Y658D02*
X2205Y658D01*
X2216Y658D02*
X2222Y658D01*
X90Y657D02*
X102Y657D01*
X145Y657D02*
X157Y657D01*
X1667Y657D02*
X1714Y657D01*
X2169Y657D02*
X2222Y657D01*
X90Y656D02*
X102Y656D01*
X146Y656D02*
X157Y656D01*
X1670Y656D02*
X1711Y656D01*
X2169Y656D02*
X2222Y656D01*
X2389Y656D02*
X2404Y656D01*
X90Y655D02*
X101Y655D01*
X146Y655D02*
X157Y655D01*
X2169Y655D02*
X2222Y655D01*
X2385Y655D02*
X2408Y655D01*
X90Y654D02*
X101Y654D01*
X146Y654D02*
X157Y654D01*
X2169Y654D02*
X2222Y654D01*
X2384Y654D02*
X2409Y654D01*
X90Y653D02*
X101Y653D01*
X146Y653D02*
X158Y653D01*
X2169Y653D02*
X2222Y653D01*
X2383Y653D02*
X2410Y653D01*
X90Y652D02*
X101Y652D01*
X146Y652D02*
X158Y652D01*
X2170Y652D02*
X2221Y652D01*
X2382Y652D02*
X2411Y652D01*
X90Y651D02*
X101Y651D01*
X146Y651D02*
X158Y651D01*
X2171Y651D02*
X2220Y651D01*
X2381Y651D02*
X2412Y651D01*
X90Y650D02*
X101Y650D01*
X146Y650D02*
X158Y650D01*
X2380Y650D02*
X2413Y650D01*
X90Y649D02*
X101Y649D01*
X146Y649D02*
X158Y649D01*
X2379Y649D02*
X2389Y649D01*
X2404Y649D02*
X2414Y649D01*
X90Y648D02*
X101Y648D01*
X146Y648D02*
X158Y648D01*
X2379Y648D02*
X2386Y648D01*
X2406Y648D02*
X2414Y648D01*
X90Y647D02*
X101Y647D01*
X146Y647D02*
X158Y647D01*
X2378Y647D02*
X2385Y647D01*
X2407Y647D02*
X2415Y647D01*
X90Y646D02*
X101Y646D01*
X146Y646D02*
X158Y646D01*
X2378Y646D02*
X2384Y646D01*
X2408Y646D02*
X2415Y646D01*
X90Y645D02*
X101Y645D01*
X146Y645D02*
X158Y645D01*
X2377Y645D02*
X2384Y645D01*
X2409Y645D02*
X2416Y645D01*
X90Y644D02*
X101Y644D01*
X146Y644D02*
X158Y644D01*
X2377Y644D02*
X2384Y644D01*
X2410Y644D02*
X2416Y644D01*
X90Y643D02*
X101Y643D01*
X146Y643D02*
X157Y643D01*
X1924Y643D02*
X1925Y643D01*
X2377Y643D02*
X2383Y643D01*
X2410Y643D02*
X2416Y643D01*
X90Y642D02*
X101Y642D01*
X146Y642D02*
X157Y642D01*
X1921Y642D02*
X1926Y642D01*
X2377Y642D02*
X2383Y642D01*
X2410Y642D02*
X2416Y642D01*
X90Y641D02*
X102Y641D01*
X145Y641D02*
X157Y641D01*
X1917Y641D02*
X1927Y641D01*
X2377Y641D02*
X2383Y641D01*
X2410Y641D02*
X2416Y641D01*
X90Y640D02*
X103Y640D01*
X145Y640D02*
X157Y640D01*
X1712Y640D02*
X1715Y640D01*
X1914Y640D02*
X1927Y640D01*
X2377Y640D02*
X2383Y640D01*
X2410Y640D02*
X2416Y640D01*
X91Y639D02*
X104Y639D01*
X144Y639D02*
X157Y639D01*
X1709Y639D02*
X1716Y639D01*
X1910Y639D02*
X1927Y639D01*
X2377Y639D02*
X2383Y639D01*
X2410Y639D02*
X2416Y639D01*
X91Y638D02*
X104Y638D01*
X143Y638D02*
X156Y638D01*
X1706Y638D02*
X1717Y638D01*
X1907Y638D02*
X1927Y638D01*
X2377Y638D02*
X2383Y638D01*
X2410Y638D02*
X2416Y638D01*
X91Y637D02*
X105Y637D01*
X142Y637D02*
X156Y637D01*
X1702Y637D02*
X1717Y637D01*
X1904Y637D02*
X1926Y637D01*
X2377Y637D02*
X2383Y637D01*
X2410Y637D02*
X2416Y637D01*
X92Y636D02*
X106Y636D01*
X141Y636D02*
X156Y636D01*
X1699Y636D02*
X1717Y636D01*
X1900Y636D02*
X1924Y636D01*
X2377Y636D02*
X2383Y636D01*
X2410Y636D02*
X2416Y636D01*
X92Y635D02*
X107Y635D01*
X140Y635D02*
X155Y635D01*
X1695Y635D02*
X1716Y635D01*
X1897Y635D02*
X1921Y635D01*
X2218Y635D02*
X2220Y635D01*
X2377Y635D02*
X2383Y635D01*
X2410Y635D02*
X2416Y635D01*
X93Y634D02*
X108Y634D01*
X139Y634D02*
X155Y634D01*
X1692Y634D02*
X1715Y634D01*
X1893Y634D02*
X1917Y634D01*
X2214Y634D02*
X2221Y634D01*
X2377Y634D02*
X2383Y634D01*
X2410Y634D02*
X2416Y634D01*
X93Y633D02*
X109Y633D01*
X139Y633D02*
X154Y633D01*
X1688Y633D02*
X1712Y633D01*
X1890Y633D02*
X1916Y633D01*
X2211Y633D02*
X2222Y633D01*
X2377Y633D02*
X2384Y633D01*
X2409Y633D02*
X2416Y633D01*
X94Y632D02*
X110Y632D01*
X138Y632D02*
X153Y632D01*
X1685Y632D02*
X1709Y632D01*
X1886Y632D02*
X1916Y632D01*
X2208Y632D02*
X2222Y632D01*
X2378Y632D02*
X2384Y632D01*
X2409Y632D02*
X2415Y632D01*
X95Y631D02*
X110Y631D01*
X137Y631D02*
X152Y631D01*
X1682Y631D02*
X1706Y631D01*
X1883Y631D02*
X1907Y631D01*
X1909Y631D02*
X1916Y631D01*
X2204Y631D02*
X2222Y631D01*
X2378Y631D02*
X2385Y631D01*
X2408Y631D02*
X2415Y631D01*
X96Y630D02*
X111Y630D01*
X136Y630D02*
X151Y630D01*
X1678Y630D02*
X1705Y630D01*
X1880Y630D02*
X1904Y630D01*
X1910Y630D02*
X1916Y630D01*
X2201Y630D02*
X2221Y630D01*
X2378Y630D02*
X2386Y630D01*
X2407Y630D02*
X2415Y630D01*
X97Y629D02*
X112Y629D01*
X135Y629D02*
X151Y629D01*
X1675Y629D02*
X1705Y629D01*
X1876Y629D02*
X1900Y629D01*
X1910Y629D02*
X1916Y629D01*
X2197Y629D02*
X2220Y629D01*
X2379Y629D02*
X2387Y629D01*
X2406Y629D02*
X2414Y629D01*
X97Y628D02*
X114Y628D01*
X133Y628D02*
X150Y628D01*
X1671Y628D02*
X1695Y628D01*
X1699Y628D02*
X1705Y628D01*
X1875Y628D02*
X1897Y628D01*
X1910Y628D02*
X1916Y628D01*
X2194Y628D02*
X2218Y628D01*
X2380Y628D02*
X2413Y628D01*
X67Y627D02*
X154Y627D01*
X1668Y627D02*
X1692Y627D01*
X1699Y627D02*
X1705Y627D01*
X1874Y627D02*
X1893Y627D01*
X1910Y627D02*
X1916Y627D01*
X2190Y627D02*
X2214Y627D01*
X2380Y627D02*
X2413Y627D01*
X66Y626D02*
X156Y626D01*
X1665Y626D02*
X1689Y626D01*
X1699Y626D02*
X1705Y626D01*
X1874Y626D02*
X1890Y626D01*
X1910Y626D02*
X1916Y626D01*
X2187Y626D02*
X2211Y626D01*
X2381Y626D02*
X2412Y626D01*
X65Y625D02*
X156Y625D01*
X1664Y625D02*
X1685Y625D01*
X1699Y625D02*
X1705Y625D01*
X1874Y625D02*
X1892Y625D01*
X1910Y625D02*
X1916Y625D01*
X2184Y625D02*
X2210Y625D01*
X2382Y625D02*
X2411Y625D01*
X65Y624D02*
X157Y624D01*
X1664Y624D02*
X1682Y624D01*
X1699Y624D02*
X1705Y624D01*
X1875Y624D02*
X1895Y624D01*
X1910Y624D02*
X1916Y624D01*
X2180Y624D02*
X2210Y624D01*
X2383Y624D02*
X2410Y624D01*
X64Y623D02*
X157Y623D01*
X1664Y623D02*
X1680Y623D01*
X1699Y623D02*
X1705Y623D01*
X1876Y623D02*
X1899Y623D01*
X1910Y623D02*
X1916Y623D01*
X2177Y623D02*
X2201Y623D01*
X2204Y623D02*
X2210Y623D01*
X2385Y623D02*
X2409Y623D01*
X64Y622D02*
X158Y622D01*
X1664Y622D02*
X1683Y622D01*
X1699Y622D02*
X1705Y622D01*
X1878Y622D02*
X1902Y622D01*
X1910Y622D02*
X1916Y622D01*
X2173Y622D02*
X2197Y622D01*
X2204Y622D02*
X2210Y622D01*
X2387Y622D02*
X2406Y622D01*
X64Y621D02*
X158Y621D01*
X1665Y621D02*
X1686Y621D01*
X1699Y621D02*
X1705Y621D01*
X1882Y621D02*
X1906Y621D01*
X1910Y621D02*
X1916Y621D01*
X2171Y621D02*
X2194Y621D01*
X2204Y621D02*
X2210Y621D01*
X64Y620D02*
X157Y620D01*
X1666Y620D02*
X1690Y620D01*
X1699Y620D02*
X1705Y620D01*
X1885Y620D02*
X1916Y620D01*
X2170Y620D02*
X2191Y620D01*
X2204Y620D02*
X2210Y620D01*
X65Y619D02*
X157Y619D01*
X1669Y619D02*
X1693Y619D01*
X1699Y619D02*
X1705Y619D01*
X1888Y619D02*
X1916Y619D01*
X2169Y619D02*
X2187Y619D01*
X2204Y619D02*
X2210Y619D01*
X65Y618D02*
X156Y618D01*
X1673Y618D02*
X1697Y618D01*
X1699Y618D02*
X1705Y618D01*
X1892Y618D02*
X1916Y618D01*
X2169Y618D02*
X2185Y618D01*
X2204Y618D02*
X2210Y618D01*
X66Y617D02*
X155Y617D01*
X1676Y617D02*
X1705Y617D01*
X1895Y617D02*
X1919Y617D01*
X2169Y617D02*
X2187Y617D01*
X2204Y617D02*
X2210Y617D01*
X68Y616D02*
X154Y616D01*
X1680Y616D02*
X1705Y616D01*
X1899Y616D02*
X1923Y616D01*
X2170Y616D02*
X2191Y616D01*
X2204Y616D02*
X2210Y616D01*
X1683Y615D02*
X1707Y615D01*
X1902Y615D02*
X1926Y615D01*
X2171Y615D02*
X2194Y615D01*
X2204Y615D02*
X2210Y615D01*
X1686Y614D02*
X1710Y614D01*
X1905Y614D02*
X1927Y614D01*
X2174Y614D02*
X2198Y614D01*
X2204Y614D02*
X2210Y614D01*
X1690Y613D02*
X1714Y613D01*
X1909Y613D02*
X1927Y613D01*
X2177Y613D02*
X2201Y613D01*
X2204Y613D02*
X2210Y613D01*
X1693Y612D02*
X1716Y612D01*
X1912Y612D02*
X1927Y612D01*
X2181Y612D02*
X2210Y612D01*
X1697Y611D02*
X1717Y611D01*
X1916Y611D02*
X1927Y611D01*
X2184Y611D02*
X2210Y611D01*
X1700Y610D02*
X1717Y610D01*
X1919Y610D02*
X1927Y610D01*
X2187Y610D02*
X2211Y610D01*
X1703Y609D02*
X1717Y609D01*
X1923Y609D02*
X1926Y609D01*
X2191Y609D02*
X2215Y609D01*
X1707Y608D02*
X1717Y608D01*
X2194Y608D02*
X2218Y608D01*
X1710Y607D02*
X1716Y607D01*
X2198Y607D02*
X2221Y607D01*
X1714Y606D02*
X1715Y606D01*
X2201Y606D02*
X2222Y606D01*
X2371Y606D02*
X2371Y606D01*
X2408Y606D02*
X2408Y606D01*
X2205Y605D02*
X2222Y605D01*
X2368Y605D02*
X2373Y605D01*
X2405Y605D02*
X2412Y605D01*
X2208Y604D02*
X2222Y604D01*
X2366Y604D02*
X2374Y604D01*
X2403Y604D02*
X2413Y604D01*
X2211Y603D02*
X2222Y603D01*
X2365Y603D02*
X2374Y603D01*
X2402Y603D02*
X2414Y603D01*
X2215Y602D02*
X2221Y602D01*
X2364Y602D02*
X2374Y602D01*
X2401Y602D02*
X2415Y602D01*
X2218Y601D02*
X2220Y601D01*
X2364Y601D02*
X2374Y601D01*
X2400Y601D02*
X2415Y601D01*
X2363Y600D02*
X2373Y600D01*
X2398Y600D02*
X2415Y600D01*
X2363Y599D02*
X2371Y599D01*
X2397Y599D02*
X2416Y599D01*
X2363Y598D02*
X2369Y598D01*
X2396Y598D02*
X2406Y598D01*
X2410Y598D02*
X2416Y598D01*
X2363Y597D02*
X2369Y597D01*
X2394Y597D02*
X2405Y597D01*
X2410Y597D02*
X2416Y597D01*
X2363Y596D02*
X2369Y596D01*
X2393Y596D02*
X2404Y596D01*
X2410Y596D02*
X2416Y596D01*
X2363Y595D02*
X2369Y595D01*
X2392Y595D02*
X2403Y595D01*
X2410Y595D02*
X2416Y595D01*
X2363Y594D02*
X2369Y594D01*
X2391Y594D02*
X2401Y594D01*
X2410Y594D02*
X2416Y594D01*
X2363Y593D02*
X2369Y593D01*
X2389Y593D02*
X2400Y593D01*
X2410Y593D02*
X2416Y593D01*
X2363Y592D02*
X2369Y592D01*
X2388Y592D02*
X2399Y592D01*
X2410Y592D02*
X2416Y592D01*
X2363Y591D02*
X2369Y591D01*
X2387Y591D02*
X2397Y591D01*
X2410Y591D02*
X2416Y591D01*
X2363Y590D02*
X2369Y590D01*
X2386Y590D02*
X2396Y590D01*
X2410Y590D02*
X2416Y590D01*
X2363Y589D02*
X2369Y589D01*
X2384Y589D02*
X2395Y589D01*
X2410Y589D02*
X2416Y589D01*
X103Y588D02*
X113Y588D01*
X2363Y588D02*
X2369Y588D01*
X2383Y588D02*
X2394Y588D01*
X2410Y588D02*
X2416Y588D01*
X100Y587D02*
X114Y587D01*
X2363Y587D02*
X2369Y587D01*
X2382Y587D02*
X2392Y587D01*
X2410Y587D02*
X2416Y587D01*
X99Y586D02*
X115Y586D01*
X2363Y586D02*
X2369Y586D01*
X2380Y586D02*
X2391Y586D01*
X2410Y586D02*
X2416Y586D01*
X97Y585D02*
X116Y585D01*
X2363Y585D02*
X2369Y585D01*
X2379Y585D02*
X2390Y585D01*
X2410Y585D02*
X2416Y585D01*
X96Y584D02*
X116Y584D01*
X2363Y584D02*
X2369Y584D01*
X2378Y584D02*
X2388Y584D01*
X2410Y584D02*
X2416Y584D01*
X95Y583D02*
X116Y583D01*
X2363Y583D02*
X2369Y583D01*
X2377Y583D02*
X2387Y583D01*
X2410Y583D02*
X2416Y583D01*
X94Y582D02*
X116Y582D01*
X2363Y582D02*
X2369Y582D01*
X2375Y582D02*
X2386Y582D01*
X2410Y582D02*
X2416Y582D01*
X93Y581D02*
X116Y581D01*
X2363Y581D02*
X2369Y581D01*
X2374Y581D02*
X2385Y581D01*
X2410Y581D02*
X2416Y581D01*
X93Y580D02*
X116Y580D01*
X2363Y580D02*
X2369Y580D01*
X2373Y580D02*
X2383Y580D01*
X2409Y580D02*
X2416Y580D01*
X92Y579D02*
X115Y579D01*
X2363Y579D02*
X2369Y579D01*
X2371Y579D02*
X2382Y579D01*
X2409Y579D02*
X2416Y579D01*
X91Y578D02*
X114Y578D01*
X2363Y578D02*
X2381Y578D01*
X2406Y578D02*
X2415Y578D01*
X91Y577D02*
X113Y577D01*
X2363Y577D02*
X2379Y577D01*
X2405Y577D02*
X2415Y577D01*
X91Y576D02*
X105Y576D01*
X2363Y576D02*
X2378Y576D01*
X2404Y576D02*
X2414Y576D01*
X90Y575D02*
X103Y575D01*
X2364Y575D02*
X2377Y575D01*
X2404Y575D02*
X2414Y575D01*
X90Y574D02*
X102Y574D01*
X2365Y574D02*
X2376Y574D01*
X2404Y574D02*
X2413Y574D01*
X90Y573D02*
X102Y573D01*
X2366Y573D02*
X2374Y573D01*
X2404Y573D02*
X2411Y573D01*
X90Y572D02*
X101Y572D01*
X2368Y572D02*
X2372Y572D01*
X2406Y572D02*
X2409Y572D01*
X90Y571D02*
X101Y571D01*
X90Y570D02*
X101Y570D01*
X90Y569D02*
X101Y569D01*
X90Y568D02*
X101Y568D01*
X90Y567D02*
X101Y567D01*
X90Y566D02*
X101Y566D01*
X90Y565D02*
X101Y565D01*
X90Y564D02*
X101Y564D01*
X90Y563D02*
X101Y563D01*
X90Y562D02*
X101Y562D01*
X90Y561D02*
X101Y561D01*
X90Y560D02*
X102Y560D01*
X90Y559D02*
X102Y559D01*
X90Y558D02*
X103Y558D01*
X90Y557D02*
X104Y557D01*
X90Y556D02*
X105Y556D01*
X91Y555D02*
X106Y555D01*
X92Y554D02*
X107Y554D01*
X92Y553D02*
X108Y553D01*
X93Y552D02*
X109Y552D01*
X94Y551D02*
X109Y551D01*
X95Y550D02*
X110Y550D01*
X96Y549D02*
X111Y549D01*
X97Y548D02*
X112Y548D01*
X98Y547D02*
X113Y547D01*
X98Y546D02*
X114Y546D01*
X99Y545D02*
X115Y545D01*
X100Y544D02*
X115Y544D01*
X101Y543D02*
X116Y543D01*
X102Y542D02*
X117Y542D01*
X103Y541D02*
X118Y541D01*
X93Y540D02*
X154Y540D01*
X92Y539D02*
X155Y539D01*
X91Y538D02*
X156Y538D01*
X90Y537D02*
X157Y537D01*
X90Y536D02*
X157Y536D01*
X90Y535D02*
X158Y535D01*
X90Y534D02*
X158Y534D01*
X90Y533D02*
X157Y533D01*
X90Y532D02*
X157Y532D01*
X91Y531D02*
X156Y531D01*
X92Y530D02*
X156Y530D01*
X93Y529D02*
X154Y529D01*
X68Y501D02*
X143Y501D01*
X66Y500D02*
X146Y500D01*
X65Y499D02*
X148Y499D01*
X65Y498D02*
X150Y498D01*
X64Y497D02*
X151Y497D01*
X64Y496D02*
X152Y496D01*
X64Y495D02*
X153Y495D01*
X64Y494D02*
X154Y494D01*
X65Y493D02*
X155Y493D01*
X65Y492D02*
X155Y492D01*
X66Y491D02*
X156Y491D01*
X67Y490D02*
X156Y490D01*
X142Y489D02*
X157Y489D01*
X144Y488D02*
X157Y488D01*
X145Y487D02*
X157Y487D01*
X145Y486D02*
X157Y486D01*
X146Y485D02*
X157Y485D01*
X146Y484D02*
X157Y484D01*
X146Y483D02*
X158Y483D01*
X146Y482D02*
X158Y482D01*
X146Y481D02*
X158Y481D01*
X146Y480D02*
X158Y480D01*
X146Y479D02*
X158Y479D01*
X146Y478D02*
X158Y478D01*
X146Y477D02*
X158Y477D01*
X146Y476D02*
X158Y476D01*
X146Y475D02*
X158Y475D01*
X146Y474D02*
X158Y474D01*
X146Y473D02*
X158Y473D01*
X146Y472D02*
X158Y472D01*
X146Y471D02*
X158Y471D01*
X146Y470D02*
X158Y470D01*
X146Y469D02*
X158Y469D01*
X146Y468D02*
X158Y468D01*
X146Y467D02*
X158Y467D01*
X146Y466D02*
X158Y466D01*
X146Y465D02*
X158Y465D01*
X146Y464D02*
X158Y464D01*
X146Y463D02*
X158Y463D01*
X146Y462D02*
X158Y462D01*
X146Y461D02*
X158Y461D01*
X146Y460D02*
X158Y460D01*
X146Y459D02*
X158Y459D01*
X146Y458D02*
X157Y458D01*
X146Y457D02*
X157Y457D01*
X145Y456D02*
X157Y456D01*
X144Y455D02*
X157Y455D01*
X143Y454D02*
X157Y454D01*
X68Y453D02*
X156Y453D01*
X66Y452D02*
X156Y452D01*
X66Y451D02*
X155Y451D01*
X65Y450D02*
X155Y450D01*
X64Y449D02*
X154Y449D01*
X64Y448D02*
X153Y448D01*
X64Y447D02*
X153Y447D01*
X64Y446D02*
X151Y446D01*
X65Y445D02*
X150Y445D01*
X65Y444D02*
X149Y444D01*
X66Y443D02*
X147Y443D01*
X67Y442D02*
X144Y442D01*
X499Y364D02*
X518Y364D01*
X497Y363D02*
X520Y363D01*
X496Y362D02*
X521Y362D01*
X495Y361D02*
X522Y361D01*
X494Y360D02*
X522Y360D01*
X494Y359D02*
X523Y359D01*
X494Y358D02*
X523Y358D01*
X472Y357D02*
X500Y357D01*
X517Y357D02*
X523Y357D01*
X471Y356D02*
X499Y356D01*
X517Y356D02*
X523Y356D01*
X470Y355D02*
X499Y355D01*
X517Y355D02*
X523Y355D01*
X470Y354D02*
X499Y354D01*
X517Y354D02*
X523Y354D01*
X470Y353D02*
X499Y353D01*
X517Y353D02*
X523Y353D01*
X470Y352D02*
X499Y352D01*
X517Y352D02*
X523Y352D01*
X470Y351D02*
X499Y351D01*
X517Y351D02*
X523Y351D01*
X470Y350D02*
X476Y350D01*
X493Y350D02*
X499Y350D01*
X517Y350D02*
X523Y350D01*
X470Y349D02*
X476Y349D01*
X493Y349D02*
X499Y349D01*
X517Y349D02*
X523Y349D01*
X470Y348D02*
X476Y348D01*
X493Y348D02*
X499Y348D01*
X517Y348D02*
X523Y348D01*
X470Y347D02*
X476Y347D01*
X493Y347D02*
X499Y347D01*
X517Y347D02*
X523Y347D01*
X470Y346D02*
X476Y346D01*
X493Y346D02*
X499Y346D01*
X517Y346D02*
X523Y346D01*
X470Y345D02*
X476Y345D01*
X493Y345D02*
X499Y345D01*
X517Y345D02*
X523Y345D01*
X470Y344D02*
X476Y344D01*
X493Y344D02*
X499Y344D01*
X517Y344D02*
X523Y344D01*
X470Y343D02*
X499Y343D01*
X517Y343D02*
X523Y343D01*
X470Y342D02*
X499Y342D01*
X517Y342D02*
X523Y342D01*
X470Y341D02*
X499Y341D01*
X517Y341D02*
X523Y341D01*
X470Y340D02*
X499Y340D01*
X517Y340D02*
X523Y340D01*
X470Y339D02*
X499Y339D01*
X517Y339D02*
X523Y339D01*
X471Y338D02*
X499Y338D01*
X517Y338D02*
X523Y338D01*
X472Y337D02*
X500Y337D01*
X517Y337D02*
X523Y337D01*
X493Y336D02*
X523Y336D01*
X494Y335D02*
X523Y335D01*
X494Y334D02*
X523Y334D01*
X494Y333D02*
X522Y333D01*
X495Y332D02*
X521Y332D01*
X496Y331D02*
X520Y331D01*
X498Y330D02*
X518Y330D01*
X495Y314D02*
X498Y314D01*
X491Y313D02*
X502Y313D01*
X489Y312D02*
X504Y312D01*
X487Y311D02*
X506Y311D01*
X485Y310D02*
X508Y310D01*
X483Y309D02*
X510Y309D01*
X481Y308D02*
X512Y308D01*
X479Y307D02*
X494Y307D01*
X498Y307D02*
X514Y307D01*
X477Y306D02*
X492Y306D01*
X501Y306D02*
X516Y306D01*
X475Y305D02*
X490Y305D01*
X503Y305D02*
X518Y305D01*
X474Y304D02*
X488Y304D01*
X505Y304D02*
X519Y304D01*
X473Y303D02*
X486Y303D01*
X507Y303D02*
X520Y303D01*
X472Y302D02*
X484Y302D01*
X509Y302D02*
X521Y302D01*
X471Y301D02*
X482Y301D01*
X511Y301D02*
X522Y301D01*
X471Y300D02*
X480Y300D01*
X513Y300D02*
X522Y300D01*
X470Y299D02*
X478Y299D01*
X515Y299D02*
X523Y299D01*
X470Y298D02*
X477Y298D01*
X516Y298D02*
X523Y298D01*
X470Y297D02*
X476Y297D01*
X517Y297D02*
X523Y297D01*
X470Y296D02*
X476Y296D01*
X517Y296D02*
X523Y296D01*
X470Y295D02*
X476Y295D01*
X517Y295D02*
X523Y295D01*
X470Y294D02*
X476Y294D01*
X517Y294D02*
X523Y294D01*
X470Y293D02*
X523Y293D01*
X470Y292D02*
X523Y292D01*
X470Y291D02*
X523Y291D01*
X470Y290D02*
X523Y290D01*
X470Y289D02*
X523Y289D01*
X470Y288D02*
X523Y288D01*
X470Y287D02*
X523Y287D01*
X470Y286D02*
X476Y286D01*
X517Y286D02*
X523Y286D01*
X470Y285D02*
X476Y285D01*
X517Y285D02*
X523Y285D01*
X470Y284D02*
X476Y284D01*
X517Y284D02*
X523Y284D01*
X470Y283D02*
X476Y283D01*
X517Y283D02*
X523Y283D01*
X470Y282D02*
X476Y282D01*
X517Y282D02*
X523Y282D01*
X471Y281D02*
X475Y281D01*
X518Y281D02*
X522Y281D01*
X472Y280D02*
X474Y280D01*
X519Y280D02*
X521Y280D01*
X2113Y280D02*
X2133Y280D01*
X2112Y279D02*
X2134Y279D01*
X2112Y278D02*
X2135Y278D01*
X2111Y277D02*
X2135Y277D01*
X2111Y276D02*
X2135Y276D01*
X2112Y275D02*
X2135Y275D01*
X2113Y274D02*
X2135Y274D01*
X2129Y273D02*
X2135Y273D01*
X2129Y272D02*
X2135Y272D01*
X2129Y271D02*
X2135Y271D01*
X2129Y270D02*
X2135Y270D01*
X2129Y269D02*
X2135Y269D01*
X2129Y268D02*
X2135Y268D01*
X2129Y267D02*
X2135Y267D01*
X2082Y266D02*
X2135Y266D01*
X2082Y265D02*
X2135Y265D01*
X2082Y264D02*
X2135Y264D01*
X2082Y263D02*
X2135Y263D01*
X2082Y262D02*
X2135Y262D01*
X2082Y261D02*
X2135Y261D01*
X2082Y260D02*
X2135Y260D01*
X2082Y259D02*
X2088Y259D01*
X2129Y259D02*
X2135Y259D01*
X2082Y258D02*
X2088Y258D01*
X2129Y258D02*
X2135Y258D01*
X2082Y257D02*
X2088Y257D01*
X2129Y257D02*
X2135Y257D01*
X2082Y256D02*
X2088Y256D01*
X2129Y256D02*
X2135Y256D01*
X2082Y255D02*
X2088Y255D01*
X2129Y255D02*
X2135Y255D01*
X2082Y254D02*
X2088Y254D01*
X2129Y254D02*
X2135Y254D01*
X2082Y253D02*
X2088Y253D01*
X2129Y253D02*
X2135Y253D01*
X2082Y252D02*
X2088Y252D01*
X2129Y252D02*
X2135Y252D01*
X2082Y251D02*
X2088Y251D01*
X2129Y251D02*
X2135Y251D01*
X2082Y250D02*
X2088Y250D01*
X2129Y250D02*
X2135Y250D01*
X2082Y249D02*
X2088Y249D01*
X2129Y249D02*
X2135Y249D01*
X2082Y248D02*
X2088Y248D01*
X2129Y248D02*
X2135Y248D01*
X2083Y247D02*
X2087Y247D01*
X2130Y247D02*
X2134Y247D01*
X2084Y246D02*
X2086Y246D01*
X2131Y246D02*
X2133Y246D01*
X2131Y230D02*
X2133Y230D01*
X2128Y229D02*
X2134Y229D01*
X2124Y228D02*
X2135Y228D01*
X2121Y227D02*
X2135Y227D01*
X2117Y226D02*
X2135Y226D01*
X2114Y225D02*
X2134Y225D01*
X2110Y224D02*
X2133Y224D01*
X2107Y223D02*
X2131Y223D01*
X2104Y222D02*
X2127Y222D01*
X2100Y221D02*
X2124Y221D01*
X2097Y220D02*
X2123Y220D01*
X2093Y219D02*
X2123Y219D01*
X2090Y218D02*
X2114Y218D01*
X2117Y218D02*
X2123Y218D01*
X2086Y217D02*
X2111Y217D01*
X2117Y217D02*
X2123Y217D01*
X2084Y216D02*
X2107Y216D01*
X2117Y216D02*
X2123Y216D01*
X2082Y215D02*
X2104Y215D01*
X2117Y215D02*
X2123Y215D01*
X2082Y214D02*
X2100Y214D01*
X2117Y214D02*
X2123Y214D01*
X2082Y213D02*
X2098Y213D01*
X2117Y213D02*
X2123Y213D01*
X2082Y212D02*
X2100Y212D01*
X2117Y212D02*
X2123Y212D01*
X2083Y211D02*
X2104Y211D01*
X2117Y211D02*
X2123Y211D01*
X2084Y210D02*
X2107Y210D01*
X2117Y210D02*
X2123Y210D01*
X2087Y209D02*
X2111Y209D01*
X2117Y209D02*
X2123Y209D01*
X2090Y208D02*
X2114Y208D01*
X2117Y208D02*
X2123Y208D01*
X2093Y207D02*
X2123Y207D01*
X2097Y206D02*
X2123Y206D01*
X2100Y205D02*
X2124Y205D01*
X2104Y204D02*
X2128Y204D01*
X2107Y203D02*
X2131Y203D01*
X2110Y202D02*
X2134Y202D01*
X2114Y201D02*
X2134Y201D01*
X2117Y200D02*
X2135Y200D01*
X2121Y199D02*
X2135Y199D01*
X2124Y198D02*
X2135Y198D01*
X2128Y197D02*
X2134Y197D01*
X2131Y196D02*
X2133Y196D01*
X651Y156D02*
X655Y156D01*
X650Y155D02*
X657Y155D01*
X649Y154D02*
X657Y154D01*
X649Y153D02*
X658Y153D01*
X649Y152D02*
X658Y152D01*
X649Y151D02*
X658Y151D01*
X649Y150D02*
X658Y150D01*
X649Y149D02*
X658Y149D01*
X649Y148D02*
X658Y148D01*
X649Y147D02*
X658Y147D01*
X649Y146D02*
X658Y146D01*
X649Y145D02*
X658Y145D01*
X649Y144D02*
X658Y144D01*
X649Y143D02*
X658Y143D01*
X649Y142D02*
X658Y142D01*
X649Y141D02*
X658Y141D01*
X649Y140D02*
X658Y140D01*
X649Y139D02*
X658Y139D01*
X649Y138D02*
X658Y138D01*
X649Y137D02*
X658Y137D01*
X649Y136D02*
X658Y136D01*
X290Y135D02*
X294Y135D01*
X332Y135D02*
X336Y135D01*
X362Y135D02*
X366Y135D01*
X404Y135D02*
X408Y135D01*
X434Y135D02*
X438Y135D01*
X476Y135D02*
X480Y135D01*
X579Y135D02*
X582Y135D01*
X591Y135D02*
X597Y135D01*
X611Y135D02*
X616Y135D01*
X649Y135D02*
X658Y135D01*
X686Y135D02*
X690Y135D01*
X723Y135D02*
X726Y135D01*
X735Y135D02*
X741Y135D01*
X755Y135D02*
X760Y135D01*
X807Y135D02*
X827Y135D01*
X951Y135D02*
X971Y135D01*
X1011Y135D02*
X1015Y135D01*
X1031Y135D02*
X1047Y135D01*
X1095Y135D02*
X1110Y135D01*
X1123Y135D02*
X1127Y135D01*
X289Y134D02*
X295Y134D01*
X331Y134D02*
X337Y134D01*
X361Y134D02*
X367Y134D01*
X403Y134D02*
X409Y134D01*
X433Y134D02*
X439Y134D01*
X475Y134D02*
X481Y134D01*
X577Y134D02*
X584Y134D01*
X588Y134D02*
X600Y134D01*
X608Y134D02*
X618Y134D01*
X649Y134D02*
X658Y134D01*
X685Y134D02*
X691Y134D01*
X721Y134D02*
X727Y134D01*
X732Y134D02*
X743Y134D01*
X752Y134D02*
X762Y134D01*
X804Y134D02*
X830Y134D01*
X948Y134D02*
X973Y134D01*
X1010Y134D02*
X1016Y134D01*
X1030Y134D02*
X1049Y134D01*
X1092Y134D02*
X1112Y134D01*
X1122Y134D02*
X1128Y134D01*
X288Y133D02*
X296Y133D01*
X330Y133D02*
X338Y133D01*
X360Y133D02*
X368Y133D01*
X402Y133D02*
X410Y133D01*
X432Y133D02*
X440Y133D01*
X474Y133D02*
X482Y133D01*
X577Y133D02*
X584Y133D01*
X587Y133D02*
X601Y133D01*
X607Y133D02*
X620Y133D01*
X649Y133D02*
X658Y133D01*
X683Y133D02*
X692Y133D01*
X721Y133D02*
X728Y133D01*
X731Y133D02*
X745Y133D01*
X751Y133D02*
X764Y133D01*
X803Y133D02*
X831Y133D01*
X947Y133D02*
X975Y133D01*
X1009Y133D02*
X1017Y133D01*
X1028Y133D02*
X1051Y133D01*
X1091Y133D02*
X1114Y133D01*
X1121Y133D02*
X1129Y133D01*
X288Y132D02*
X297Y132D01*
X330Y132D02*
X338Y132D01*
X360Y132D02*
X369Y132D01*
X402Y132D02*
X410Y132D01*
X432Y132D02*
X440Y132D01*
X474Y132D02*
X482Y132D01*
X576Y132D02*
X602Y132D01*
X605Y132D02*
X621Y132D01*
X649Y132D02*
X658Y132D01*
X682Y132D02*
X692Y132D01*
X720Y132D02*
X746Y132D01*
X749Y132D02*
X765Y132D01*
X801Y132D02*
X833Y132D01*
X945Y132D02*
X976Y132D01*
X1009Y132D02*
X1017Y132D01*
X1027Y132D02*
X1052Y132D01*
X1089Y132D02*
X1115Y132D01*
X1120Y132D02*
X1129Y132D01*
X288Y131D02*
X297Y131D01*
X330Y131D02*
X339Y131D01*
X360Y131D02*
X369Y131D01*
X402Y131D02*
X411Y131D01*
X432Y131D02*
X441Y131D01*
X474Y131D02*
X482Y131D01*
X576Y131D02*
X622Y131D01*
X649Y131D02*
X658Y131D01*
X681Y131D02*
X692Y131D01*
X720Y131D02*
X766Y131D01*
X800Y131D02*
X834Y131D01*
X944Y131D02*
X978Y131D01*
X1009Y131D02*
X1018Y131D01*
X1026Y131D02*
X1053Y131D01*
X1088Y131D02*
X1117Y131D01*
X1120Y131D02*
X1129Y131D01*
X288Y130D02*
X297Y130D01*
X329Y130D02*
X339Y130D01*
X360Y130D02*
X369Y130D01*
X401Y130D02*
X411Y130D01*
X432Y130D02*
X441Y130D01*
X473Y130D02*
X483Y130D01*
X576Y130D02*
X623Y130D01*
X649Y130D02*
X658Y130D01*
X680Y130D02*
X692Y130D01*
X720Y130D02*
X767Y130D01*
X799Y130D02*
X835Y130D01*
X943Y130D02*
X979Y130D01*
X1009Y130D02*
X1018Y130D01*
X1025Y130D02*
X1054Y130D01*
X1087Y130D02*
X1118Y130D01*
X1120Y130D02*
X1129Y130D01*
X288Y129D02*
X297Y129D01*
X329Y129D02*
X339Y129D01*
X360Y129D02*
X369Y129D01*
X401Y129D02*
X411Y129D01*
X432Y129D02*
X441Y129D01*
X473Y129D02*
X483Y129D01*
X576Y129D02*
X623Y129D01*
X649Y129D02*
X658Y129D01*
X679Y129D02*
X692Y129D01*
X720Y129D02*
X767Y129D01*
X798Y129D02*
X836Y129D01*
X942Y129D02*
X980Y129D01*
X1009Y129D02*
X1018Y129D01*
X1024Y129D02*
X1055Y129D01*
X1086Y129D02*
X1129Y129D01*
X288Y128D02*
X297Y128D01*
X329Y128D02*
X339Y128D01*
X360Y128D02*
X369Y128D01*
X401Y128D02*
X411Y128D01*
X432Y128D02*
X441Y128D01*
X473Y128D02*
X482Y128D01*
X576Y128D02*
X624Y128D01*
X649Y128D02*
X658Y128D01*
X678Y128D02*
X692Y128D01*
X720Y128D02*
X768Y128D01*
X797Y128D02*
X837Y128D01*
X941Y128D02*
X981Y128D01*
X1009Y128D02*
X1018Y128D01*
X1023Y128D02*
X1055Y128D01*
X1085Y128D02*
X1129Y128D01*
X288Y127D02*
X297Y127D01*
X329Y127D02*
X339Y127D01*
X360Y127D02*
X369Y127D01*
X401Y127D02*
X410Y127D01*
X432Y127D02*
X441Y127D01*
X473Y127D02*
X482Y127D01*
X576Y127D02*
X624Y127D01*
X649Y127D02*
X658Y127D01*
X676Y127D02*
X691Y127D01*
X720Y127D02*
X768Y127D01*
X796Y127D02*
X838Y127D01*
X940Y127D02*
X982Y127D01*
X1009Y127D02*
X1018Y127D01*
X1021Y127D02*
X1056Y127D01*
X1084Y127D02*
X1129Y127D01*
X288Y126D02*
X297Y126D01*
X329Y126D02*
X338Y126D01*
X360Y126D02*
X369Y126D01*
X401Y126D02*
X410Y126D01*
X432Y126D02*
X441Y126D01*
X473Y126D02*
X482Y126D01*
X576Y126D02*
X624Y126D01*
X649Y126D02*
X658Y126D01*
X675Y126D02*
X690Y126D01*
X720Y126D02*
X768Y126D01*
X795Y126D02*
X839Y126D01*
X939Y126D02*
X983Y126D01*
X1009Y126D02*
X1018Y126D01*
X1020Y126D02*
X1056Y126D01*
X1083Y126D02*
X1129Y126D01*
X288Y125D02*
X297Y125D01*
X329Y125D02*
X338Y125D01*
X360Y125D02*
X369Y125D01*
X401Y125D02*
X410Y125D01*
X432Y125D02*
X441Y125D01*
X473Y125D02*
X482Y125D01*
X576Y125D02*
X592Y125D01*
X596Y125D02*
X612Y125D01*
X615Y125D02*
X625Y125D01*
X649Y125D02*
X658Y125D01*
X674Y125D02*
X689Y125D01*
X720Y125D02*
X736Y125D01*
X740Y125D02*
X756Y125D01*
X759Y125D02*
X769Y125D01*
X795Y125D02*
X808Y125D01*
X826Y125D02*
X839Y125D01*
X939Y125D02*
X952Y125D01*
X970Y125D02*
X983Y125D01*
X1009Y125D02*
X1034Y125D01*
X1046Y125D02*
X1057Y125D01*
X1082Y125D02*
X1096Y125D01*
X1109Y125D02*
X1129Y125D01*
X288Y124D02*
X297Y124D01*
X329Y124D02*
X338Y124D01*
X360Y124D02*
X369Y124D01*
X401Y124D02*
X410Y124D01*
X432Y124D02*
X441Y124D01*
X473Y124D02*
X482Y124D01*
X576Y124D02*
X591Y124D01*
X596Y124D02*
X611Y124D01*
X616Y124D02*
X625Y124D01*
X649Y124D02*
X658Y124D01*
X673Y124D02*
X687Y124D01*
X720Y124D02*
X735Y124D01*
X740Y124D02*
X755Y124D01*
X760Y124D02*
X769Y124D01*
X794Y124D02*
X807Y124D01*
X828Y124D02*
X840Y124D01*
X938Y124D02*
X950Y124D01*
X972Y124D02*
X984Y124D01*
X1009Y124D02*
X1032Y124D01*
X1047Y124D02*
X1057Y124D01*
X1082Y124D02*
X1094Y124D01*
X1110Y124D02*
X1129Y124D01*
X288Y123D02*
X297Y123D01*
X329Y123D02*
X338Y123D01*
X360Y123D02*
X369Y123D01*
X401Y123D02*
X410Y123D01*
X432Y123D02*
X441Y123D01*
X473Y123D02*
X482Y123D01*
X576Y123D02*
X590Y123D01*
X597Y123D02*
X609Y123D01*
X616Y123D02*
X625Y123D01*
X649Y123D02*
X658Y123D01*
X672Y123D02*
X686Y123D01*
X720Y123D02*
X733Y123D01*
X740Y123D02*
X753Y123D01*
X760Y123D02*
X769Y123D01*
X794Y123D02*
X805Y123D01*
X829Y123D02*
X840Y123D01*
X938Y123D02*
X949Y123D01*
X973Y123D02*
X984Y123D01*
X1009Y123D02*
X1031Y123D01*
X1048Y123D02*
X1057Y123D01*
X1081Y123D02*
X1093Y123D01*
X1111Y123D02*
X1129Y123D01*
X288Y122D02*
X297Y122D01*
X329Y122D02*
X338Y122D01*
X360Y122D02*
X369Y122D01*
X401Y122D02*
X410Y122D01*
X432Y122D02*
X441Y122D01*
X473Y122D02*
X482Y122D01*
X576Y122D02*
X588Y122D01*
X597Y122D02*
X608Y122D01*
X616Y122D02*
X625Y122D01*
X649Y122D02*
X658Y122D01*
X671Y122D02*
X685Y122D01*
X720Y122D02*
X732Y122D01*
X740Y122D02*
X752Y122D01*
X760Y122D02*
X769Y122D01*
X793Y122D02*
X804Y122D01*
X830Y122D02*
X841Y122D01*
X937Y122D02*
X948Y122D01*
X974Y122D02*
X985Y122D01*
X1009Y122D02*
X1030Y122D01*
X1048Y122D02*
X1057Y122D01*
X1081Y122D02*
X1092Y122D01*
X1113Y122D02*
X1129Y122D01*
X288Y121D02*
X297Y121D01*
X329Y121D02*
X338Y121D01*
X360Y121D02*
X369Y121D01*
X401Y121D02*
X410Y121D01*
X432Y121D02*
X441Y121D01*
X473Y121D02*
X482Y121D01*
X576Y121D02*
X587Y121D01*
X597Y121D02*
X607Y121D01*
X616Y121D02*
X625Y121D01*
X649Y121D02*
X658Y121D01*
X669Y121D02*
X684Y121D01*
X720Y121D02*
X731Y121D01*
X740Y121D02*
X751Y121D01*
X760Y121D02*
X769Y121D01*
X793Y121D02*
X803Y121D01*
X831Y121D02*
X841Y121D01*
X937Y121D02*
X947Y121D01*
X975Y121D02*
X985Y121D01*
X1009Y121D02*
X1029Y121D01*
X1048Y121D02*
X1057Y121D01*
X1081Y121D02*
X1091Y121D01*
X1114Y121D02*
X1129Y121D01*
X288Y120D02*
X297Y120D01*
X329Y120D02*
X338Y120D01*
X360Y120D02*
X369Y120D01*
X401Y120D02*
X410Y120D01*
X432Y120D02*
X441Y120D01*
X473Y120D02*
X482Y120D01*
X576Y120D02*
X586Y120D01*
X597Y120D02*
X606Y120D01*
X616Y120D02*
X625Y120D01*
X649Y120D02*
X658Y120D01*
X668Y120D02*
X683Y120D01*
X720Y120D02*
X730Y120D01*
X740Y120D02*
X750Y120D01*
X760Y120D02*
X769Y120D01*
X793Y120D02*
X802Y120D01*
X832Y120D02*
X841Y120D01*
X937Y120D02*
X946Y120D01*
X976Y120D02*
X985Y120D01*
X1009Y120D02*
X1028Y120D01*
X1048Y120D02*
X1057Y120D01*
X1081Y120D02*
X1090Y120D01*
X1115Y120D02*
X1129Y120D01*
X288Y119D02*
X297Y119D01*
X329Y119D02*
X338Y119D01*
X360Y119D02*
X369Y119D01*
X401Y119D02*
X410Y119D01*
X432Y119D02*
X441Y119D01*
X473Y119D02*
X482Y119D01*
X576Y119D02*
X585Y119D01*
X597Y119D02*
X606Y119D01*
X616Y119D02*
X625Y119D01*
X649Y119D02*
X658Y119D01*
X667Y119D02*
X682Y119D01*
X720Y119D02*
X729Y119D01*
X740Y119D02*
X750Y119D01*
X760Y119D02*
X769Y119D01*
X793Y119D02*
X802Y119D01*
X832Y119D02*
X841Y119D01*
X937Y119D02*
X946Y119D01*
X976Y119D02*
X985Y119D01*
X1009Y119D02*
X1027Y119D01*
X1048Y119D02*
X1057Y119D01*
X1081Y119D02*
X1090Y119D01*
X1116Y119D02*
X1129Y119D01*
X288Y118D02*
X297Y118D01*
X311Y118D02*
X315Y118D01*
X329Y118D02*
X338Y118D01*
X360Y118D02*
X369Y118D01*
X383Y118D02*
X387Y118D01*
X401Y118D02*
X410Y118D01*
X432Y118D02*
X441Y118D01*
X455Y118D02*
X459Y118D01*
X473Y118D02*
X482Y118D01*
X576Y118D02*
X585Y118D01*
X597Y118D02*
X606Y118D01*
X616Y118D02*
X625Y118D01*
X649Y118D02*
X658Y118D01*
X666Y118D02*
X680Y118D01*
X720Y118D02*
X729Y118D01*
X740Y118D02*
X750Y118D01*
X760Y118D02*
X769Y118D01*
X793Y118D02*
X802Y118D01*
X832Y118D02*
X841Y118D01*
X937Y118D02*
X946Y118D01*
X976Y118D02*
X985Y118D01*
X1009Y118D02*
X1025Y118D01*
X1048Y118D02*
X1057Y118D01*
X1081Y118D02*
X1090Y118D01*
X1117Y118D02*
X1129Y118D01*
X288Y117D02*
X297Y117D01*
X310Y117D02*
X316Y117D01*
X329Y117D02*
X338Y117D01*
X360Y117D02*
X369Y117D01*
X382Y117D02*
X388Y117D01*
X401Y117D02*
X410Y117D01*
X432Y117D02*
X441Y117D01*
X454Y117D02*
X460Y117D01*
X473Y117D02*
X482Y117D01*
X576Y117D02*
X585Y117D01*
X597Y117D02*
X606Y117D01*
X616Y117D02*
X625Y117D01*
X649Y117D02*
X658Y117D01*
X665Y117D02*
X679Y117D01*
X720Y117D02*
X729Y117D01*
X740Y117D02*
X750Y117D01*
X760Y117D02*
X769Y117D01*
X793Y117D02*
X802Y117D01*
X832Y117D02*
X841Y117D01*
X937Y117D02*
X946Y117D01*
X976Y117D02*
X985Y117D01*
X1009Y117D02*
X1024Y117D01*
X1048Y117D02*
X1057Y117D01*
X1081Y117D02*
X1090Y117D01*
X1118Y117D02*
X1129Y117D01*
X288Y116D02*
X297Y116D01*
X309Y116D02*
X317Y116D01*
X329Y116D02*
X338Y116D01*
X360Y116D02*
X369Y116D01*
X381Y116D02*
X389Y116D01*
X401Y116D02*
X410Y116D01*
X432Y116D02*
X441Y116D01*
X453Y116D02*
X461Y116D01*
X473Y116D02*
X482Y116D01*
X576Y116D02*
X585Y116D01*
X597Y116D02*
X606Y116D01*
X616Y116D02*
X625Y116D01*
X649Y116D02*
X658Y116D01*
X663Y116D02*
X678Y116D01*
X720Y116D02*
X729Y116D01*
X740Y116D02*
X750Y116D01*
X760Y116D02*
X769Y116D01*
X793Y116D02*
X802Y116D01*
X832Y116D02*
X841Y116D01*
X937Y116D02*
X946Y116D01*
X976Y116D02*
X985Y116D01*
X1009Y116D02*
X1023Y116D01*
X1049Y116D02*
X1057Y116D01*
X1081Y116D02*
X1090Y116D01*
X1119Y116D02*
X1129Y116D01*
X288Y115D02*
X297Y115D01*
X309Y115D02*
X317Y115D01*
X329Y115D02*
X338Y115D01*
X360Y115D02*
X369Y115D01*
X381Y115D02*
X389Y115D01*
X401Y115D02*
X410Y115D01*
X432Y115D02*
X441Y115D01*
X453Y115D02*
X461Y115D01*
X473Y115D02*
X482Y115D01*
X576Y115D02*
X585Y115D01*
X597Y115D02*
X606Y115D01*
X616Y115D02*
X625Y115D01*
X649Y115D02*
X658Y115D01*
X662Y115D02*
X677Y115D01*
X720Y115D02*
X729Y115D01*
X740Y115D02*
X750Y115D01*
X760Y115D02*
X769Y115D01*
X793Y115D02*
X802Y115D01*
X832Y115D02*
X841Y115D01*
X937Y115D02*
X946Y115D01*
X976Y115D02*
X985Y115D01*
X1009Y115D02*
X1022Y115D01*
X1049Y115D02*
X1056Y115D01*
X1081Y115D02*
X1090Y115D01*
X1120Y115D02*
X1129Y115D01*
X288Y114D02*
X297Y114D01*
X309Y114D02*
X318Y114D01*
X329Y114D02*
X338Y114D01*
X360Y114D02*
X369Y114D01*
X381Y114D02*
X390Y114D01*
X401Y114D02*
X410Y114D01*
X432Y114D02*
X441Y114D01*
X453Y114D02*
X462Y114D01*
X473Y114D02*
X482Y114D01*
X576Y114D02*
X585Y114D01*
X597Y114D02*
X606Y114D01*
X616Y114D02*
X625Y114D01*
X649Y114D02*
X658Y114D01*
X661Y114D02*
X676Y114D01*
X720Y114D02*
X729Y114D01*
X740Y114D02*
X750Y114D01*
X760Y114D02*
X769Y114D01*
X793Y114D02*
X802Y114D01*
X832Y114D02*
X841Y114D01*
X937Y114D02*
X946Y114D01*
X976Y114D02*
X985Y114D01*
X1009Y114D02*
X1021Y114D01*
X1050Y114D02*
X1055Y114D01*
X1081Y114D02*
X1090Y114D01*
X1120Y114D02*
X1129Y114D01*
X288Y113D02*
X297Y113D01*
X309Y113D02*
X318Y113D01*
X329Y113D02*
X338Y113D01*
X360Y113D02*
X369Y113D01*
X381Y113D02*
X390Y113D01*
X401Y113D02*
X410Y113D01*
X432Y113D02*
X441Y113D01*
X453Y113D02*
X462Y113D01*
X473Y113D02*
X482Y113D01*
X576Y113D02*
X585Y113D01*
X597Y113D02*
X606Y113D01*
X616Y113D02*
X625Y113D01*
X649Y113D02*
X658Y113D01*
X660Y113D02*
X675Y113D01*
X720Y113D02*
X729Y113D01*
X740Y113D02*
X750Y113D01*
X760Y113D02*
X769Y113D01*
X793Y113D02*
X802Y113D01*
X832Y113D02*
X841Y113D01*
X937Y113D02*
X946Y113D01*
X976Y113D02*
X985Y113D01*
X1009Y113D02*
X1020Y113D01*
X1053Y113D02*
X1053Y113D01*
X1081Y113D02*
X1090Y113D01*
X1120Y113D02*
X1129Y113D01*
X288Y112D02*
X297Y112D01*
X309Y112D02*
X318Y112D01*
X329Y112D02*
X338Y112D01*
X360Y112D02*
X369Y112D01*
X381Y112D02*
X390Y112D01*
X401Y112D02*
X410Y112D01*
X432Y112D02*
X441Y112D01*
X453Y112D02*
X462Y112D01*
X473Y112D02*
X482Y112D01*
X576Y112D02*
X585Y112D01*
X597Y112D02*
X606Y112D01*
X616Y112D02*
X625Y112D01*
X649Y112D02*
X673Y112D01*
X720Y112D02*
X729Y112D01*
X740Y112D02*
X750Y112D01*
X760Y112D02*
X769Y112D01*
X793Y112D02*
X802Y112D01*
X832Y112D02*
X841Y112D01*
X937Y112D02*
X946Y112D01*
X976Y112D02*
X985Y112D01*
X1009Y112D02*
X1018Y112D01*
X1081Y112D02*
X1090Y112D01*
X1120Y112D02*
X1129Y112D01*
X288Y111D02*
X298Y111D01*
X309Y111D02*
X318Y111D01*
X329Y111D02*
X338Y111D01*
X360Y111D02*
X369Y111D01*
X381Y111D02*
X390Y111D01*
X401Y111D02*
X410Y111D01*
X432Y111D02*
X441Y111D01*
X453Y111D02*
X462Y111D01*
X473Y111D02*
X482Y111D01*
X576Y111D02*
X585Y111D01*
X597Y111D02*
X606Y111D01*
X616Y111D02*
X625Y111D01*
X649Y111D02*
X672Y111D01*
X720Y111D02*
X729Y111D01*
X740Y111D02*
X750Y111D01*
X760Y111D02*
X769Y111D01*
X793Y111D02*
X802Y111D01*
X832Y111D02*
X841Y111D01*
X937Y111D02*
X946Y111D01*
X976Y111D02*
X985Y111D01*
X1009Y111D02*
X1018Y111D01*
X1081Y111D02*
X1090Y111D01*
X1120Y111D02*
X1129Y111D01*
X288Y110D02*
X298Y110D01*
X309Y110D02*
X318Y110D01*
X329Y110D02*
X338Y110D01*
X360Y110D02*
X370Y110D01*
X381Y110D02*
X390Y110D01*
X401Y110D02*
X410Y110D01*
X432Y110D02*
X441Y110D01*
X453Y110D02*
X462Y110D01*
X473Y110D02*
X482Y110D01*
X524Y110D02*
X535Y110D01*
X576Y110D02*
X585Y110D01*
X597Y110D02*
X606Y110D01*
X616Y110D02*
X625Y110D01*
X649Y110D02*
X671Y110D01*
X720Y110D02*
X729Y110D01*
X740Y110D02*
X750Y110D01*
X760Y110D02*
X769Y110D01*
X793Y110D02*
X841Y110D01*
X883Y110D02*
X894Y110D01*
X937Y110D02*
X946Y110D01*
X976Y110D02*
X985Y110D01*
X1009Y110D02*
X1018Y110D01*
X1081Y110D02*
X1090Y110D01*
X1120Y110D02*
X1129Y110D01*
X288Y109D02*
X298Y109D01*
X309Y109D02*
X318Y109D01*
X329Y109D02*
X338Y109D01*
X360Y109D02*
X370Y109D01*
X381Y109D02*
X390Y109D01*
X401Y109D02*
X410Y109D01*
X432Y109D02*
X442Y109D01*
X453Y109D02*
X462Y109D01*
X473Y109D02*
X482Y109D01*
X521Y109D02*
X537Y109D01*
X576Y109D02*
X585Y109D01*
X597Y109D02*
X606Y109D01*
X616Y109D02*
X625Y109D01*
X649Y109D02*
X671Y109D01*
X720Y109D02*
X729Y109D01*
X740Y109D02*
X750Y109D01*
X760Y109D02*
X769Y109D01*
X793Y109D02*
X841Y109D01*
X881Y109D02*
X897Y109D01*
X937Y109D02*
X946Y109D01*
X976Y109D02*
X985Y109D01*
X1009Y109D02*
X1018Y109D01*
X1081Y109D02*
X1090Y109D01*
X1120Y109D02*
X1129Y109D01*
X288Y108D02*
X298Y108D01*
X309Y108D02*
X318Y108D01*
X329Y108D02*
X338Y108D01*
X360Y108D02*
X370Y108D01*
X381Y108D02*
X390Y108D01*
X401Y108D02*
X410Y108D01*
X432Y108D02*
X442Y108D01*
X453Y108D02*
X462Y108D01*
X473Y108D02*
X482Y108D01*
X521Y108D02*
X538Y108D01*
X576Y108D02*
X585Y108D01*
X597Y108D02*
X606Y108D01*
X616Y108D02*
X625Y108D01*
X649Y108D02*
X672Y108D01*
X720Y108D02*
X729Y108D01*
X740Y108D02*
X750Y108D01*
X760Y108D02*
X769Y108D01*
X793Y108D02*
X841Y108D01*
X880Y108D02*
X898Y108D01*
X937Y108D02*
X946Y108D01*
X976Y108D02*
X985Y108D01*
X1009Y108D02*
X1018Y108D01*
X1081Y108D02*
X1090Y108D01*
X1120Y108D02*
X1129Y108D01*
X289Y107D02*
X298Y107D01*
X309Y107D02*
X318Y107D01*
X329Y107D02*
X338Y107D01*
X361Y107D02*
X370Y107D01*
X381Y107D02*
X390Y107D01*
X401Y107D02*
X410Y107D01*
X432Y107D02*
X442Y107D01*
X453Y107D02*
X462Y107D01*
X473Y107D02*
X482Y107D01*
X520Y107D02*
X538Y107D01*
X576Y107D02*
X585Y107D01*
X597Y107D02*
X606Y107D01*
X616Y107D02*
X625Y107D01*
X649Y107D02*
X673Y107D01*
X720Y107D02*
X729Y107D01*
X740Y107D02*
X750Y107D01*
X760Y107D02*
X769Y107D01*
X793Y107D02*
X841Y107D01*
X880Y107D02*
X898Y107D01*
X937Y107D02*
X946Y107D01*
X976Y107D02*
X985Y107D01*
X1009Y107D02*
X1018Y107D01*
X1081Y107D02*
X1090Y107D01*
X1120Y107D02*
X1129Y107D01*
X289Y106D02*
X298Y106D01*
X309Y106D02*
X318Y106D01*
X329Y106D02*
X338Y106D01*
X361Y106D02*
X370Y106D01*
X381Y106D02*
X390Y106D01*
X401Y106D02*
X410Y106D01*
X433Y106D02*
X442Y106D01*
X453Y106D02*
X462Y106D01*
X473Y106D02*
X482Y106D01*
X520Y106D02*
X538Y106D01*
X576Y106D02*
X585Y106D01*
X597Y106D02*
X606Y106D01*
X616Y106D02*
X625Y106D01*
X649Y106D02*
X674Y106D01*
X720Y106D02*
X729Y106D01*
X740Y106D02*
X750Y106D01*
X760Y106D02*
X769Y106D01*
X793Y106D02*
X841Y106D01*
X880Y106D02*
X898Y106D01*
X937Y106D02*
X946Y106D01*
X976Y106D02*
X985Y106D01*
X1009Y106D02*
X1018Y106D01*
X1081Y106D02*
X1090Y106D01*
X1120Y106D02*
X1129Y106D01*
X289Y105D02*
X298Y105D01*
X309Y105D02*
X318Y105D01*
X329Y105D02*
X338Y105D01*
X361Y105D02*
X370Y105D01*
X381Y105D02*
X390Y105D01*
X401Y105D02*
X410Y105D01*
X433Y105D02*
X442Y105D01*
X453Y105D02*
X462Y105D01*
X473Y105D02*
X482Y105D01*
X520Y105D02*
X539Y105D01*
X576Y105D02*
X585Y105D01*
X597Y105D02*
X606Y105D01*
X616Y105D02*
X625Y105D01*
X649Y105D02*
X676Y105D01*
X720Y105D02*
X729Y105D01*
X740Y105D02*
X750Y105D01*
X760Y105D02*
X769Y105D01*
X793Y105D02*
X841Y105D01*
X879Y105D02*
X898Y105D01*
X937Y105D02*
X946Y105D01*
X976Y105D02*
X985Y105D01*
X1009Y105D02*
X1018Y105D01*
X1081Y105D02*
X1090Y105D01*
X1120Y105D02*
X1129Y105D01*
X289Y104D02*
X298Y104D01*
X309Y104D02*
X318Y104D01*
X329Y104D02*
X338Y104D01*
X361Y104D02*
X370Y104D01*
X381Y104D02*
X390Y104D01*
X401Y104D02*
X410Y104D01*
X433Y104D02*
X442Y104D01*
X453Y104D02*
X462Y104D01*
X473Y104D02*
X482Y104D01*
X520Y104D02*
X539Y104D01*
X576Y104D02*
X585Y104D01*
X597Y104D02*
X606Y104D01*
X616Y104D02*
X625Y104D01*
X649Y104D02*
X677Y104D01*
X720Y104D02*
X729Y104D01*
X740Y104D02*
X750Y104D01*
X760Y104D02*
X769Y104D01*
X793Y104D02*
X841Y104D01*
X879Y104D02*
X899Y104D01*
X937Y104D02*
X946Y104D01*
X976Y104D02*
X985Y104D01*
X1009Y104D02*
X1018Y104D01*
X1081Y104D02*
X1090Y104D01*
X1120Y104D02*
X1129Y104D01*
X289Y103D02*
X298Y103D01*
X309Y103D02*
X318Y103D01*
X329Y103D02*
X338Y103D01*
X361Y103D02*
X370Y103D01*
X381Y103D02*
X390Y103D01*
X401Y103D02*
X410Y103D01*
X433Y103D02*
X442Y103D01*
X453Y103D02*
X462Y103D01*
X473Y103D02*
X482Y103D01*
X520Y103D02*
X539Y103D01*
X576Y103D02*
X585Y103D01*
X597Y103D02*
X606Y103D01*
X616Y103D02*
X625Y103D01*
X649Y103D02*
X678Y103D01*
X720Y103D02*
X729Y103D01*
X740Y103D02*
X750Y103D01*
X760Y103D02*
X769Y103D01*
X793Y103D02*
X841Y103D01*
X879Y103D02*
X899Y103D01*
X937Y103D02*
X946Y103D01*
X976Y103D02*
X985Y103D01*
X1009Y103D02*
X1018Y103D01*
X1081Y103D02*
X1090Y103D01*
X1119Y103D02*
X1129Y103D01*
X289Y102D02*
X298Y102D01*
X308Y102D02*
X318Y102D01*
X329Y102D02*
X338Y102D01*
X361Y102D02*
X370Y102D01*
X380Y102D02*
X390Y102D01*
X401Y102D02*
X410Y102D01*
X433Y102D02*
X442Y102D01*
X452Y102D02*
X462Y102D01*
X472Y102D02*
X482Y102D01*
X520Y102D02*
X539Y102D01*
X576Y102D02*
X585Y102D01*
X597Y102D02*
X606Y102D01*
X616Y102D02*
X626Y102D01*
X649Y102D02*
X662Y102D01*
X665Y102D02*
X679Y102D01*
X720Y102D02*
X729Y102D01*
X740Y102D02*
X750Y102D01*
X760Y102D02*
X769Y102D01*
X793Y102D02*
X840Y102D01*
X879Y102D02*
X899Y102D01*
X937Y102D02*
X946Y102D01*
X976Y102D02*
X985Y102D01*
X1009Y102D02*
X1018Y102D01*
X1081Y102D02*
X1090Y102D01*
X1119Y102D02*
X1129Y102D01*
X289Y101D02*
X298Y101D01*
X308Y101D02*
X318Y101D01*
X328Y101D02*
X338Y101D01*
X361Y101D02*
X370Y101D01*
X380Y101D02*
X390Y101D01*
X400Y101D02*
X410Y101D01*
X433Y101D02*
X442Y101D01*
X452Y101D02*
X462Y101D01*
X472Y101D02*
X482Y101D01*
X520Y101D02*
X539Y101D01*
X576Y101D02*
X585Y101D01*
X597Y101D02*
X606Y101D01*
X617Y101D02*
X626Y101D01*
X649Y101D02*
X661Y101D01*
X666Y101D02*
X680Y101D01*
X720Y101D02*
X729Y101D01*
X740Y101D02*
X750Y101D01*
X760Y101D02*
X770Y101D01*
X793Y101D02*
X839Y101D01*
X879Y101D02*
X899Y101D01*
X937Y101D02*
X946Y101D01*
X976Y101D02*
X985Y101D01*
X1009Y101D02*
X1018Y101D01*
X1081Y101D02*
X1090Y101D01*
X1118Y101D02*
X1129Y101D01*
X289Y100D02*
X298Y100D01*
X307Y100D02*
X319Y100D01*
X328Y100D02*
X338Y100D01*
X361Y100D02*
X370Y100D01*
X379Y100D02*
X391Y100D01*
X400Y100D02*
X410Y100D01*
X433Y100D02*
X442Y100D01*
X451Y100D02*
X463Y100D01*
X472Y100D02*
X481Y100D01*
X520Y100D02*
X539Y100D01*
X576Y100D02*
X585Y100D01*
X597Y100D02*
X606Y100D01*
X617Y100D02*
X626Y100D01*
X649Y100D02*
X659Y100D01*
X667Y100D02*
X681Y100D01*
X720Y100D02*
X729Y100D01*
X740Y100D02*
X750Y100D01*
X760Y100D02*
X770Y100D01*
X793Y100D02*
X802Y100D01*
X879Y100D02*
X899Y100D01*
X937Y100D02*
X946Y100D01*
X976Y100D02*
X985Y100D01*
X1009Y100D02*
X1018Y100D01*
X1081Y100D02*
X1090Y100D01*
X1116Y100D02*
X1129Y100D01*
X289Y99D02*
X299Y99D01*
X307Y99D02*
X320Y99D01*
X328Y99D02*
X337Y99D01*
X361Y99D02*
X371Y99D01*
X379Y99D02*
X392Y99D01*
X400Y99D02*
X409Y99D01*
X433Y99D02*
X443Y99D01*
X451Y99D02*
X464Y99D01*
X472Y99D02*
X481Y99D01*
X520Y99D02*
X539Y99D01*
X576Y99D02*
X585Y99D01*
X597Y99D02*
X606Y99D01*
X617Y99D02*
X626Y99D01*
X649Y99D02*
X658Y99D01*
X668Y99D02*
X683Y99D01*
X720Y99D02*
X729Y99D01*
X740Y99D02*
X750Y99D01*
X761Y99D02*
X770Y99D01*
X793Y99D02*
X802Y99D01*
X879Y99D02*
X899Y99D01*
X937Y99D02*
X946Y99D01*
X976Y99D02*
X985Y99D01*
X1009Y99D02*
X1018Y99D01*
X1081Y99D02*
X1090Y99D01*
X1115Y99D02*
X1129Y99D01*
X289Y98D02*
X299Y98D01*
X306Y98D02*
X320Y98D01*
X327Y98D02*
X337Y98D01*
X361Y98D02*
X371Y98D01*
X378Y98D02*
X392Y98D01*
X399Y98D02*
X409Y98D01*
X433Y98D02*
X443Y98D01*
X450Y98D02*
X464Y98D01*
X471Y98D02*
X481Y98D01*
X520Y98D02*
X539Y98D01*
X576Y98D02*
X585Y98D01*
X597Y98D02*
X606Y98D01*
X617Y98D02*
X626Y98D01*
X649Y98D02*
X658Y98D01*
X669Y98D02*
X684Y98D01*
X720Y98D02*
X729Y98D01*
X740Y98D02*
X750Y98D01*
X761Y98D02*
X770Y98D01*
X793Y98D02*
X802Y98D01*
X879Y98D02*
X899Y98D01*
X937Y98D02*
X946Y98D01*
X976Y98D02*
X985Y98D01*
X1009Y98D02*
X1018Y98D01*
X1081Y98D02*
X1091Y98D01*
X1114Y98D02*
X1129Y98D01*
X290Y97D02*
X299Y97D01*
X306Y97D02*
X321Y97D01*
X327Y97D02*
X337Y97D01*
X362Y97D02*
X371Y97D01*
X378Y97D02*
X393Y97D01*
X399Y97D02*
X409Y97D01*
X434Y97D02*
X443Y97D01*
X450Y97D02*
X465Y97D01*
X471Y97D02*
X481Y97D01*
X520Y97D02*
X539Y97D01*
X576Y97D02*
X585Y97D01*
X597Y97D02*
X606Y97D01*
X617Y97D02*
X626Y97D01*
X649Y97D02*
X658Y97D01*
X670Y97D02*
X685Y97D01*
X720Y97D02*
X729Y97D01*
X740Y97D02*
X750Y97D01*
X761Y97D02*
X770Y97D01*
X793Y97D02*
X802Y97D01*
X879Y97D02*
X899Y97D01*
X937Y97D02*
X946Y97D01*
X976Y97D02*
X985Y97D01*
X1009Y97D02*
X1018Y97D01*
X1081Y97D02*
X1091Y97D01*
X1113Y97D02*
X1129Y97D01*
X290Y96D02*
X300Y96D01*
X305Y96D02*
X321Y96D01*
X327Y96D02*
X336Y96D01*
X362Y96D02*
X371Y96D01*
X377Y96D02*
X393Y96D01*
X399Y96D02*
X408Y96D01*
X434Y96D02*
X443Y96D01*
X449Y96D02*
X465Y96D01*
X471Y96D02*
X480Y96D01*
X520Y96D02*
X539Y96D01*
X576Y96D02*
X585Y96D01*
X597Y96D02*
X606Y96D01*
X617Y96D02*
X626Y96D01*
X649Y96D02*
X658Y96D01*
X672Y96D02*
X686Y96D01*
X720Y96D02*
X729Y96D01*
X740Y96D02*
X750Y96D01*
X761Y96D02*
X770Y96D01*
X793Y96D02*
X802Y96D01*
X880Y96D02*
X898Y96D01*
X937Y96D02*
X946Y96D01*
X976Y96D02*
X985Y96D01*
X1009Y96D02*
X1018Y96D01*
X1081Y96D02*
X1092Y96D01*
X1112Y96D02*
X1129Y96D01*
X290Y95D02*
X300Y95D01*
X304Y95D02*
X322Y95D01*
X327Y95D02*
X336Y95D01*
X362Y95D02*
X372Y95D01*
X376Y95D02*
X394Y95D01*
X399Y95D02*
X408Y95D01*
X434Y95D02*
X444Y95D01*
X448Y95D02*
X466Y95D01*
X470Y95D02*
X480Y95D01*
X520Y95D02*
X538Y95D01*
X576Y95D02*
X585Y95D01*
X597Y95D02*
X606Y95D01*
X617Y95D02*
X626Y95D01*
X649Y95D02*
X658Y95D01*
X673Y95D02*
X687Y95D01*
X720Y95D02*
X729Y95D01*
X740Y95D02*
X750Y95D01*
X761Y95D02*
X770Y95D01*
X793Y95D02*
X802Y95D01*
X880Y95D02*
X898Y95D01*
X937Y95D02*
X946Y95D01*
X976Y95D02*
X985Y95D01*
X1009Y95D02*
X1018Y95D01*
X1082Y95D02*
X1094Y95D01*
X1111Y95D02*
X1129Y95D01*
X291Y94D02*
X300Y94D01*
X304Y94D02*
X323Y94D01*
X326Y94D02*
X336Y94D01*
X363Y94D02*
X372Y94D01*
X376Y94D02*
X394Y94D01*
X398Y94D02*
X408Y94D01*
X435Y94D02*
X444Y94D01*
X448Y94D02*
X466Y94D01*
X470Y94D02*
X480Y94D01*
X520Y94D02*
X538Y94D01*
X576Y94D02*
X585Y94D01*
X597Y94D02*
X606Y94D01*
X617Y94D02*
X626Y94D01*
X649Y94D02*
X658Y94D01*
X674Y94D02*
X688Y94D01*
X720Y94D02*
X729Y94D01*
X740Y94D02*
X750Y94D01*
X761Y94D02*
X770Y94D01*
X793Y94D02*
X803Y94D01*
X880Y94D02*
X898Y94D01*
X937Y94D02*
X947Y94D01*
X975Y94D02*
X985Y94D01*
X1009Y94D02*
X1018Y94D01*
X1082Y94D02*
X1095Y94D01*
X1109Y94D02*
X1129Y94D01*
X291Y93D02*
X300Y93D01*
X303Y93D02*
X323Y93D01*
X326Y93D02*
X336Y93D01*
X363Y93D02*
X372Y93D01*
X375Y93D02*
X395Y93D01*
X398Y93D02*
X408Y93D01*
X435Y93D02*
X444Y93D01*
X447Y93D02*
X467Y93D01*
X470Y93D02*
X480Y93D01*
X521Y93D02*
X537Y93D01*
X576Y93D02*
X585Y93D01*
X597Y93D02*
X606Y93D01*
X617Y93D02*
X626Y93D01*
X649Y93D02*
X658Y93D01*
X675Y93D02*
X690Y93D01*
X720Y93D02*
X729Y93D01*
X740Y93D02*
X750Y93D01*
X761Y93D02*
X770Y93D01*
X793Y93D02*
X804Y93D01*
X881Y93D02*
X897Y93D01*
X937Y93D02*
X948Y93D01*
X974Y93D02*
X985Y93D01*
X1009Y93D02*
X1018Y93D01*
X1083Y93D02*
X1129Y93D01*
X291Y92D02*
X301Y92D01*
X303Y92D02*
X324Y92D01*
X326Y92D02*
X335Y92D01*
X363Y92D02*
X373Y92D01*
X375Y92D02*
X396Y92D01*
X398Y92D02*
X407Y92D01*
X435Y92D02*
X445Y92D01*
X447Y92D02*
X468Y92D01*
X470Y92D02*
X479Y92D01*
X523Y92D02*
X535Y92D01*
X576Y92D02*
X585Y92D01*
X597Y92D02*
X606Y92D01*
X617Y92D02*
X626Y92D01*
X649Y92D02*
X658Y92D01*
X676Y92D02*
X691Y92D01*
X720Y92D02*
X729Y92D01*
X740Y92D02*
X750Y92D01*
X761Y92D02*
X770Y92D01*
X793Y92D02*
X805Y92D01*
X883Y92D02*
X895Y92D01*
X937Y92D02*
X949Y92D01*
X973Y92D02*
X985Y92D01*
X1009Y92D02*
X1018Y92D01*
X1084Y92D02*
X1129Y92D01*
X292Y91D02*
X335Y91D01*
X363Y91D02*
X407Y91D01*
X435Y91D02*
X479Y91D01*
X576Y91D02*
X585Y91D01*
X597Y91D02*
X606Y91D01*
X617Y91D02*
X626Y91D01*
X649Y91D02*
X658Y91D01*
X677Y91D02*
X692Y91D01*
X720Y91D02*
X729Y91D01*
X740Y91D02*
X750Y91D01*
X761Y91D02*
X770Y91D01*
X794Y91D02*
X806Y91D01*
X938Y91D02*
X950Y91D01*
X972Y91D02*
X984Y91D01*
X1009Y91D02*
X1018Y91D01*
X1085Y91D02*
X1129Y91D01*
X292Y90D02*
X312Y90D01*
X314Y90D02*
X335Y90D01*
X364Y90D02*
X384Y90D01*
X386Y90D02*
X407Y90D01*
X436Y90D02*
X456Y90D01*
X458Y90D02*
X479Y90D01*
X576Y90D02*
X585Y90D01*
X597Y90D02*
X606Y90D01*
X617Y90D02*
X626Y90D01*
X649Y90D02*
X658Y90D01*
X679Y90D02*
X693Y90D01*
X720Y90D02*
X729Y90D01*
X740Y90D02*
X750Y90D01*
X761Y90D02*
X770Y90D01*
X794Y90D02*
X807Y90D01*
X938Y90D02*
X951Y90D01*
X971Y90D02*
X984Y90D01*
X1009Y90D02*
X1018Y90D01*
X1086Y90D02*
X1129Y90D01*
X292Y89D02*
X312Y89D01*
X315Y89D02*
X334Y89D01*
X364Y89D02*
X384Y89D01*
X387Y89D02*
X406Y89D01*
X436Y89D02*
X456Y89D01*
X459Y89D02*
X478Y89D01*
X576Y89D02*
X585Y89D01*
X597Y89D02*
X606Y89D01*
X617Y89D02*
X626Y89D01*
X649Y89D02*
X658Y89D01*
X680Y89D02*
X694Y89D01*
X720Y89D02*
X729Y89D01*
X740Y89D02*
X750Y89D01*
X761Y89D02*
X770Y89D01*
X795Y89D02*
X810Y89D01*
X939Y89D02*
X954Y89D01*
X968Y89D02*
X983Y89D01*
X1009Y89D02*
X1018Y89D01*
X1087Y89D02*
X1118Y89D01*
X1120Y89D02*
X1129Y89D01*
X292Y88D02*
X311Y88D01*
X315Y88D02*
X334Y88D01*
X364Y88D02*
X383Y88D01*
X387Y88D02*
X406Y88D01*
X436Y88D02*
X455Y88D01*
X459Y88D02*
X478Y88D01*
X576Y88D02*
X585Y88D01*
X597Y88D02*
X606Y88D01*
X617Y88D02*
X626Y88D01*
X649Y88D02*
X658Y88D01*
X681Y88D02*
X695Y88D01*
X720Y88D02*
X729Y88D01*
X740Y88D02*
X750Y88D01*
X761Y88D02*
X770Y88D01*
X796Y88D02*
X839Y88D01*
X939Y88D02*
X982Y88D01*
X1009Y88D02*
X1018Y88D01*
X1088Y88D02*
X1117Y88D01*
X1120Y88D02*
X1129Y88D01*
X293Y87D02*
X310Y87D01*
X316Y87D02*
X334Y87D01*
X365Y87D02*
X382Y87D01*
X388Y87D02*
X406Y87D01*
X437Y87D02*
X454Y87D01*
X460Y87D02*
X478Y87D01*
X576Y87D02*
X585Y87D01*
X597Y87D02*
X606Y87D01*
X617Y87D02*
X626Y87D01*
X649Y87D02*
X658Y87D01*
X682Y87D02*
X696Y87D01*
X720Y87D02*
X729Y87D01*
X740Y87D02*
X750Y87D01*
X761Y87D02*
X770Y87D01*
X796Y87D02*
X840Y87D01*
X940Y87D02*
X981Y87D01*
X1009Y87D02*
X1018Y87D01*
X1089Y87D02*
X1116Y87D01*
X1120Y87D02*
X1129Y87D01*
X293Y86D02*
X310Y86D01*
X317Y86D02*
X333Y86D01*
X365Y86D02*
X382Y86D01*
X389Y86D02*
X405Y86D01*
X437Y86D02*
X454Y86D01*
X460Y86D02*
X477Y86D01*
X576Y86D02*
X585Y86D01*
X597Y86D02*
X606Y86D01*
X617Y86D02*
X626Y86D01*
X649Y86D02*
X658Y86D01*
X683Y86D02*
X697Y86D01*
X720Y86D02*
X729Y86D01*
X740Y86D02*
X750Y86D01*
X761Y86D02*
X770Y86D01*
X797Y86D02*
X841Y86D01*
X941Y86D02*
X980Y86D01*
X1009Y86D02*
X1018Y86D01*
X1090Y86D02*
X1115Y86D01*
X1120Y86D02*
X1129Y86D01*
X293Y85D02*
X309Y85D01*
X317Y85D02*
X333Y85D01*
X365Y85D02*
X381Y85D01*
X389Y85D02*
X405Y85D01*
X437Y85D02*
X453Y85D01*
X461Y85D02*
X477Y85D01*
X576Y85D02*
X585Y85D01*
X597Y85D02*
X606Y85D01*
X617Y85D02*
X626Y85D01*
X649Y85D02*
X658Y85D01*
X684Y85D02*
X697Y85D01*
X720Y85D02*
X729Y85D01*
X740Y85D02*
X750Y85D01*
X761Y85D02*
X770Y85D01*
X798Y85D02*
X841Y85D01*
X942Y85D02*
X979Y85D01*
X1009Y85D02*
X1018Y85D01*
X1092Y85D02*
X1113Y85D01*
X1120Y85D02*
X1129Y85D01*
X294Y84D02*
X309Y84D01*
X318Y84D02*
X333Y84D01*
X365Y84D02*
X381Y84D01*
X390Y84D02*
X405Y84D01*
X437Y84D02*
X453Y84D01*
X462Y84D02*
X477Y84D01*
X576Y84D02*
X585Y84D01*
X597Y84D02*
X606Y84D01*
X617Y84D02*
X626Y84D01*
X649Y84D02*
X658Y84D01*
X686Y84D02*
X697Y84D01*
X720Y84D02*
X729Y84D01*
X740Y84D02*
X750Y84D01*
X761Y84D02*
X770Y84D01*
X800Y84D02*
X841Y84D01*
X944Y84D02*
X978Y84D01*
X1009Y84D02*
X1018Y84D01*
X1094Y84D02*
X1110Y84D01*
X1120Y84D02*
X1129Y84D01*
X294Y83D02*
X308Y83D01*
X318Y83D02*
X333Y83D01*
X366Y83D02*
X380Y83D01*
X390Y83D02*
X405Y83D01*
X438Y83D02*
X452Y83D01*
X462Y83D02*
X477Y83D01*
X576Y83D02*
X585Y83D01*
X597Y83D02*
X605Y83D01*
X617Y83D02*
X626Y83D01*
X649Y83D02*
X658Y83D01*
X687Y83D02*
X697Y83D01*
X720Y83D02*
X729Y83D01*
X741Y83D02*
X749Y83D01*
X761Y83D02*
X770Y83D01*
X801Y83D02*
X841Y83D01*
X945Y83D02*
X977Y83D01*
X1009Y83D02*
X1017Y83D01*
X1120Y83D02*
X1129Y83D01*
X294Y82D02*
X307Y82D01*
X319Y82D02*
X332Y82D01*
X366Y82D02*
X379Y82D01*
X391Y82D02*
X404Y82D01*
X438Y82D02*
X451Y82D01*
X463Y82D02*
X476Y82D01*
X576Y82D02*
X585Y82D01*
X597Y82D02*
X605Y82D01*
X618Y82D02*
X626Y82D01*
X649Y82D02*
X657Y82D01*
X688Y82D02*
X697Y82D01*
X720Y82D02*
X729Y82D01*
X741Y82D02*
X749Y82D01*
X762Y82D02*
X770Y82D01*
X802Y82D02*
X841Y82D01*
X946Y82D02*
X976Y82D01*
X1009Y82D02*
X1017Y82D01*
X1120Y82D02*
X1129Y82D01*
X295Y81D02*
X307Y81D01*
X320Y81D02*
X332Y81D01*
X367Y81D02*
X379Y81D01*
X391Y81D02*
X404Y81D01*
X439Y81D02*
X451Y81D01*
X463Y81D02*
X476Y81D01*
X577Y81D02*
X584Y81D01*
X598Y81D02*
X605Y81D01*
X618Y81D02*
X625Y81D01*
X650Y81D02*
X657Y81D01*
X689Y81D02*
X696Y81D01*
X721Y81D02*
X728Y81D01*
X742Y81D02*
X748Y81D01*
X762Y81D02*
X769Y81D01*
X804Y81D02*
X840Y81D01*
X948Y81D02*
X974Y81D01*
X1010Y81D02*
X1017Y81D01*
X1120Y81D02*
X1129Y81D01*
X296Y80D02*
X306Y80D01*
X320Y80D02*
X331Y80D01*
X368Y80D02*
X378Y80D01*
X392Y80D02*
X403Y80D01*
X440Y80D02*
X450Y80D01*
X464Y80D02*
X475Y80D01*
X578Y80D02*
X583Y80D01*
X599Y80D02*
X604Y80D01*
X619Y80D02*
X624Y80D01*
X651Y80D02*
X656Y80D01*
X690Y80D02*
X695Y80D01*
X722Y80D02*
X727Y80D01*
X743Y80D02*
X747Y80D01*
X763Y80D02*
X768Y80D01*
X806Y80D02*
X839Y80D01*
X950Y80D02*
X972Y80D01*
X1011Y80D02*
X1016Y80D01*
X1120Y80D02*
X1129Y80D01*
X298Y79D02*
X304Y79D01*
X323Y79D02*
X328Y79D01*
X370Y79D02*
X376Y79D01*
X395Y79D02*
X400Y79D01*
X442Y79D02*
X448Y79D01*
X467Y79D02*
X472Y79D01*
X580Y79D02*
X581Y79D01*
X601Y79D02*
X601Y79D01*
X622Y79D02*
X622Y79D01*
X653Y79D02*
X653Y79D01*
X693Y79D02*
X693Y79D01*
X724Y79D02*
X724Y79D01*
X745Y79D02*
X745Y79D01*
X766Y79D02*
X766Y79D01*
X809Y79D02*
X837Y79D01*
X954Y79D02*
X968Y79D01*
X1013Y79D02*
X1013Y79D01*
X1120Y79D02*
X1129Y79D01*
X1120Y78D02*
X1129Y78D01*
X1120Y77D02*
X1129Y77D01*
X1120Y76D02*
X1129Y76D01*
X1120Y75D02*
X1129Y75D01*
X1120Y74D02*
X1129Y74D01*
X1119Y73D02*
X1129Y73D01*
X1118Y72D02*
X1129Y72D01*
X1117Y71D02*
X1129Y71D01*
X1325Y71D02*
X1352Y71D01*
X1430Y71D02*
X1443Y71D01*
X1116Y70D02*
X1128Y70D01*
X1325Y70D02*
X1354Y70D01*
X1429Y70D02*
X1444Y70D01*
X1115Y69D02*
X1128Y69D01*
X1325Y69D02*
X1355Y69D01*
X1429Y69D02*
X1445Y69D01*
X1113Y68D02*
X1127Y68D01*
X1325Y68D02*
X1356Y68D01*
X1429Y68D02*
X1445Y68D01*
X1088Y67D02*
X1126Y67D01*
X1325Y67D02*
X1357Y67D01*
X1429Y67D02*
X1445Y67D01*
X1087Y66D02*
X1125Y66D01*
X1325Y66D02*
X1358Y66D01*
X1429Y66D02*
X1445Y66D01*
X1086Y65D02*
X1124Y65D01*
X1325Y65D02*
X1358Y65D01*
X1431Y65D02*
X1445Y65D01*
X1086Y64D02*
X1123Y64D01*
X1325Y64D02*
X1331Y64D01*
X1351Y64D02*
X1358Y64D01*
X1439Y64D02*
X1445Y64D01*
X1085Y63D02*
X1122Y63D01*
X1325Y63D02*
X1331Y63D01*
X1352Y63D02*
X1359Y63D01*
X1439Y63D02*
X1445Y63D01*
X1086Y62D02*
X1121Y62D01*
X1325Y62D02*
X1331Y62D01*
X1353Y62D02*
X1359Y62D01*
X1439Y62D02*
X1445Y62D01*
X1086Y61D02*
X1120Y61D01*
X1325Y61D02*
X1331Y61D01*
X1353Y61D02*
X1359Y61D01*
X1439Y61D02*
X1445Y61D01*
X1086Y60D02*
X1119Y60D01*
X1325Y60D02*
X1331Y60D01*
X1353Y60D02*
X1359Y60D01*
X1439Y60D02*
X1445Y60D01*
X1087Y59D02*
X1117Y59D01*
X1325Y59D02*
X1331Y59D01*
X1353Y59D02*
X1359Y59D01*
X1439Y59D02*
X1445Y59D01*
X1089Y58D02*
X1114Y58D01*
X1325Y58D02*
X1331Y58D01*
X1353Y58D02*
X1359Y58D01*
X1439Y58D02*
X1445Y58D01*
X1325Y57D02*
X1331Y57D01*
X1353Y57D02*
X1359Y57D01*
X1439Y57D02*
X1445Y57D01*
X1325Y56D02*
X1331Y56D01*
X1353Y56D02*
X1359Y56D01*
X1384Y56D02*
X1400Y56D01*
X1439Y56D02*
X1445Y56D01*
X1483Y56D02*
X1502Y56D01*
X1527Y56D02*
X1530Y56D01*
X1554Y56D02*
X1558Y56D01*
X1581Y56D02*
X1603Y56D01*
X1325Y55D02*
X1331Y55D01*
X1352Y55D02*
X1359Y55D01*
X1382Y55D02*
X1402Y55D01*
X1439Y55D02*
X1445Y55D01*
X1483Y55D02*
X1503Y55D01*
X1526Y55D02*
X1531Y55D01*
X1553Y55D02*
X1558Y55D01*
X1580Y55D02*
X1605Y55D01*
X1325Y54D02*
X1332Y54D01*
X1350Y54D02*
X1358Y54D01*
X1381Y54D02*
X1403Y54D01*
X1439Y54D02*
X1445Y54D01*
X1482Y54D02*
X1505Y54D01*
X1525Y54D02*
X1531Y54D01*
X1553Y54D02*
X1559Y54D01*
X1578Y54D02*
X1606Y54D01*
X1325Y53D02*
X1358Y53D01*
X1380Y53D02*
X1404Y53D01*
X1439Y53D02*
X1445Y53D01*
X1482Y53D02*
X1506Y53D01*
X1525Y53D02*
X1531Y53D01*
X1553Y53D02*
X1559Y53D01*
X1578Y53D02*
X1607Y53D01*
X1325Y52D02*
X1357Y52D01*
X1379Y52D02*
X1405Y52D01*
X1439Y52D02*
X1445Y52D01*
X1482Y52D02*
X1506Y52D01*
X1525Y52D02*
X1531Y52D01*
X1553Y52D02*
X1559Y52D01*
X1577Y52D02*
X1608Y52D01*
X1325Y51D02*
X1357Y51D01*
X1378Y51D02*
X1406Y51D01*
X1439Y51D02*
X1445Y51D01*
X1483Y51D02*
X1507Y51D01*
X1525Y51D02*
X1531Y51D01*
X1553Y51D02*
X1559Y51D01*
X1577Y51D02*
X1608Y51D01*
X1325Y50D02*
X1356Y50D01*
X1377Y50D02*
X1407Y50D01*
X1439Y50D02*
X1445Y50D01*
X1485Y50D02*
X1507Y50D01*
X1525Y50D02*
X1531Y50D01*
X1553Y50D02*
X1559Y50D01*
X1576Y50D02*
X1608Y50D01*
X1325Y49D02*
X1355Y49D01*
X1377Y49D02*
X1385Y49D01*
X1399Y49D02*
X1408Y49D01*
X1439Y49D02*
X1445Y49D01*
X1501Y49D02*
X1508Y49D01*
X1525Y49D02*
X1531Y49D01*
X1553Y49D02*
X1559Y49D01*
X1576Y49D02*
X1582Y49D01*
X1602Y49D02*
X1608Y49D01*
X1325Y48D02*
X1353Y48D01*
X1376Y48D02*
X1384Y48D01*
X1401Y48D02*
X1408Y48D01*
X1439Y48D02*
X1445Y48D01*
X1501Y48D02*
X1508Y48D01*
X1525Y48D02*
X1531Y48D01*
X1553Y48D02*
X1559Y48D01*
X1576Y48D02*
X1582Y48D01*
X1603Y48D02*
X1607Y48D01*
X1325Y47D02*
X1350Y47D01*
X1376Y47D02*
X1383Y47D01*
X1402Y47D02*
X1409Y47D01*
X1439Y47D02*
X1445Y47D01*
X1502Y47D02*
X1508Y47D01*
X1525Y47D02*
X1532Y47D01*
X1552Y47D02*
X1559Y47D01*
X1576Y47D02*
X1582Y47D01*
X1605Y47D02*
X1605Y47D01*
X1325Y46D02*
X1331Y46D01*
X1338Y46D02*
X1345Y46D01*
X1376Y46D02*
X1382Y46D01*
X1402Y46D02*
X1409Y46D01*
X1439Y46D02*
X1445Y46D01*
X1502Y46D02*
X1508Y46D01*
X1526Y46D02*
X1532Y46D01*
X1552Y46D02*
X1558Y46D01*
X1576Y46D02*
X1584Y46D01*
X1325Y45D02*
X1331Y45D01*
X1338Y45D02*
X1345Y45D01*
X1375Y45D02*
X1382Y45D01*
X1403Y45D02*
X1409Y45D01*
X1439Y45D02*
X1445Y45D01*
X1502Y45D02*
X1508Y45D01*
X1526Y45D02*
X1533Y45D01*
X1551Y45D02*
X1558Y45D01*
X1577Y45D02*
X1586Y45D01*
X1325Y44D02*
X1331Y44D01*
X1339Y44D02*
X1346Y44D01*
X1375Y44D02*
X1381Y44D01*
X1403Y44D02*
X1409Y44D01*
X1439Y44D02*
X1445Y44D01*
X1502Y44D02*
X1508Y44D01*
X1526Y44D02*
X1533Y44D01*
X1551Y44D02*
X1558Y44D01*
X1577Y44D02*
X1588Y44D01*
X1325Y43D02*
X1331Y43D01*
X1339Y43D02*
X1347Y43D01*
X1375Y43D02*
X1381Y43D01*
X1403Y43D02*
X1409Y43D01*
X1439Y43D02*
X1445Y43D01*
X1502Y43D02*
X1508Y43D01*
X1527Y43D02*
X1534Y43D01*
X1550Y43D02*
X1557Y43D01*
X1578Y43D02*
X1590Y43D01*
X1325Y42D02*
X1331Y42D01*
X1340Y42D02*
X1347Y42D01*
X1375Y42D02*
X1381Y42D01*
X1403Y42D02*
X1409Y42D01*
X1439Y42D02*
X1445Y42D01*
X1484Y42D02*
X1500Y42D01*
X1502Y42D02*
X1508Y42D01*
X1527Y42D02*
X1534Y42D01*
X1550Y42D02*
X1557Y42D01*
X1579Y42D02*
X1593Y42D01*
X1325Y41D02*
X1331Y41D01*
X1341Y41D02*
X1348Y41D01*
X1375Y41D02*
X1381Y41D01*
X1403Y41D02*
X1409Y41D01*
X1439Y41D02*
X1445Y41D01*
X1481Y41D02*
X1508Y41D01*
X1528Y41D02*
X1534Y41D01*
X1550Y41D02*
X1556Y41D01*
X1579Y41D02*
X1595Y41D01*
X1325Y40D02*
X1331Y40D01*
X1341Y40D02*
X1348Y40D01*
X1375Y40D02*
X1381Y40D01*
X1403Y40D02*
X1409Y40D01*
X1439Y40D02*
X1445Y40D01*
X1479Y40D02*
X1508Y40D01*
X1528Y40D02*
X1535Y40D01*
X1549Y40D02*
X1556Y40D01*
X1581Y40D02*
X1597Y40D01*
X1325Y39D02*
X1331Y39D01*
X1342Y39D02*
X1349Y39D01*
X1375Y39D02*
X1409Y39D01*
X1439Y39D02*
X1445Y39D01*
X1478Y39D02*
X1508Y39D01*
X1529Y39D02*
X1535Y39D01*
X1549Y39D02*
X1555Y39D01*
X1583Y39D02*
X1600Y39D01*
X1325Y38D02*
X1331Y38D01*
X1342Y38D02*
X1350Y38D01*
X1375Y38D02*
X1409Y38D01*
X1439Y38D02*
X1445Y38D01*
X1477Y38D02*
X1508Y38D01*
X1529Y38D02*
X1536Y38D01*
X1548Y38D02*
X1555Y38D01*
X1585Y38D02*
X1602Y38D01*
X1325Y37D02*
X1331Y37D01*
X1343Y37D02*
X1350Y37D01*
X1375Y37D02*
X1409Y37D01*
X1439Y37D02*
X1445Y37D01*
X1477Y37D02*
X1508Y37D01*
X1530Y37D02*
X1536Y37D01*
X1548Y37D02*
X1555Y37D01*
X1588Y37D02*
X1604Y37D01*
X1325Y36D02*
X1331Y36D01*
X1344Y36D02*
X1351Y36D01*
X1375Y36D02*
X1409Y36D01*
X1439Y36D02*
X1445Y36D01*
X1476Y36D02*
X1508Y36D01*
X1530Y36D02*
X1537Y36D01*
X1547Y36D02*
X1554Y36D01*
X1590Y36D02*
X1605Y36D01*
X1325Y35D02*
X1331Y35D01*
X1344Y35D02*
X1351Y35D01*
X1375Y35D02*
X1409Y35D01*
X1439Y35D02*
X1445Y35D01*
X1476Y35D02*
X1484Y35D01*
X1500Y35D02*
X1508Y35D01*
X1530Y35D02*
X1537Y35D01*
X1547Y35D02*
X1554Y35D01*
X1592Y35D02*
X1606Y35D01*
X1325Y34D02*
X1331Y34D01*
X1345Y34D02*
X1352Y34D01*
X1375Y34D02*
X1408Y34D01*
X1439Y34D02*
X1445Y34D01*
X1476Y34D02*
X1482Y34D01*
X1501Y34D02*
X1508Y34D01*
X1531Y34D02*
X1537Y34D01*
X1547Y34D02*
X1553Y34D01*
X1595Y34D02*
X1607Y34D01*
X1325Y33D02*
X1331Y33D01*
X1345Y33D02*
X1352Y33D01*
X1375Y33D02*
X1408Y33D01*
X1439Y33D02*
X1445Y33D01*
X1475Y33D02*
X1482Y33D01*
X1502Y33D02*
X1508Y33D01*
X1531Y33D02*
X1538Y33D01*
X1546Y33D02*
X1553Y33D01*
X1597Y33D02*
X1607Y33D01*
X1325Y32D02*
X1331Y32D01*
X1346Y32D02*
X1353Y32D01*
X1375Y32D02*
X1382Y32D01*
X1439Y32D02*
X1445Y32D01*
X1475Y32D02*
X1481Y32D01*
X1502Y32D02*
X1508Y32D01*
X1532Y32D02*
X1538Y32D01*
X1546Y32D02*
X1552Y32D01*
X1599Y32D02*
X1608Y32D01*
X1325Y31D02*
X1331Y31D01*
X1346Y31D02*
X1354Y31D01*
X1375Y31D02*
X1381Y31D01*
X1439Y31D02*
X1445Y31D01*
X1475Y31D02*
X1481Y31D01*
X1502Y31D02*
X1509Y31D01*
X1532Y31D02*
X1539Y31D01*
X1545Y31D02*
X1552Y31D01*
X1601Y31D02*
X1608Y31D01*
X1325Y30D02*
X1331Y30D01*
X1347Y30D02*
X1354Y30D01*
X1375Y30D02*
X1381Y30D01*
X1439Y30D02*
X1445Y30D01*
X1475Y30D02*
X1481Y30D01*
X1502Y30D02*
X1509Y30D01*
X1533Y30D02*
X1539Y30D01*
X1545Y30D02*
X1552Y30D01*
X1602Y30D02*
X1609Y30D01*
X1325Y29D02*
X1331Y29D01*
X1348Y29D02*
X1355Y29D01*
X1375Y29D02*
X1382Y29D01*
X1439Y29D02*
X1445Y29D01*
X1475Y29D02*
X1481Y29D01*
X1502Y29D02*
X1509Y29D01*
X1533Y29D02*
X1540Y29D01*
X1544Y29D02*
X1551Y29D01*
X1603Y29D02*
X1609Y29D01*
X1325Y28D02*
X1331Y28D01*
X1348Y28D02*
X1355Y28D01*
X1376Y28D02*
X1382Y28D01*
X1439Y28D02*
X1445Y28D01*
X1475Y28D02*
X1481Y28D01*
X1501Y28D02*
X1509Y28D01*
X1533Y28D02*
X1540Y28D01*
X1544Y28D02*
X1551Y28D01*
X1603Y28D02*
X1609Y28D01*
X1325Y27D02*
X1331Y27D01*
X1349Y27D02*
X1356Y27D01*
X1376Y27D02*
X1383Y27D01*
X1439Y27D02*
X1445Y27D01*
X1475Y27D02*
X1481Y27D01*
X1499Y27D02*
X1509Y27D01*
X1534Y27D02*
X1550Y27D01*
X1577Y27D02*
X1579Y27D01*
X1602Y27D02*
X1609Y27D01*
X1325Y26D02*
X1331Y26D01*
X1349Y26D02*
X1357Y26D01*
X1376Y26D02*
X1384Y26D01*
X1439Y26D02*
X1445Y26D01*
X1475Y26D02*
X1482Y26D01*
X1498Y26D02*
X1509Y26D01*
X1534Y26D02*
X1550Y26D01*
X1576Y26D02*
X1581Y26D01*
X1602Y26D02*
X1609Y26D01*
X1325Y25D02*
X1331Y25D01*
X1350Y25D02*
X1357Y25D01*
X1377Y25D02*
X1385Y25D01*
X1439Y25D02*
X1445Y25D01*
X1476Y25D02*
X1483Y25D01*
X1496Y25D02*
X1509Y25D01*
X1535Y25D02*
X1549Y25D01*
X1575Y25D02*
X1582Y25D01*
X1601Y25D02*
X1608Y25D01*
X1325Y24D02*
X1331Y24D01*
X1351Y24D02*
X1358Y24D01*
X1377Y24D02*
X1407Y24D01*
X1431Y24D02*
X1453Y24D01*
X1476Y24D02*
X1509Y24D01*
X1535Y24D02*
X1549Y24D01*
X1575Y24D02*
X1608Y24D01*
X1325Y23D02*
X1331Y23D01*
X1351Y23D02*
X1358Y23D01*
X1378Y23D02*
X1408Y23D01*
X1429Y23D02*
X1455Y23D01*
X1477Y23D02*
X1509Y23D01*
X1536Y23D02*
X1548Y23D01*
X1575Y23D02*
X1607Y23D01*
X1325Y22D02*
X1331Y22D01*
X1352Y22D02*
X1359Y22D01*
X1379Y22D02*
X1409Y22D01*
X1429Y22D02*
X1455Y22D01*
X1477Y22D02*
X1509Y22D01*
X1536Y22D02*
X1548Y22D01*
X1576Y22D02*
X1607Y22D01*
X1325Y21D02*
X1331Y21D01*
X1352Y21D02*
X1359Y21D01*
X1380Y21D02*
X1409Y21D01*
X1429Y21D02*
X1455Y21D01*
X1478Y21D02*
X1509Y21D01*
X1537Y21D02*
X1548Y21D01*
X1577Y21D02*
X1606Y21D01*
X1326Y20D02*
X1331Y20D01*
X1353Y20D02*
X1359Y20D01*
X1381Y20D02*
X1409Y20D01*
X1429Y20D02*
X1455Y20D01*
X1479Y20D02*
X1500Y20D01*
X1503Y20D02*
X1509Y20D01*
X1540Y20D02*
X1547Y20D01*
X1578Y20D02*
X1605Y20D01*
X1326Y19D02*
X1331Y19D01*
X1354Y19D02*
X1358Y19D01*
X1383Y19D02*
X1408Y19D01*
X1429Y19D02*
X1455Y19D01*
X1480Y19D02*
X1499Y19D01*
X1504Y19D02*
X1508Y19D01*
X1540Y19D02*
X1547Y19D01*
X1580Y19D02*
X1604Y19D01*
X1327Y18D02*
X1330Y18D01*
X1355Y18D02*
X1357Y18D01*
X1385Y18D02*
X1407Y18D01*
X1430Y18D02*
X1454Y18D01*
X1482Y18D02*
X1497Y18D01*
X1505Y18D02*
X1507Y18D01*
X1540Y18D02*
X1546Y18D01*
X1582Y18D02*
X1602Y18D01*
X1539Y17D02*
X1546Y17D01*
X1539Y16D02*
X1545Y16D01*
X1538Y15D02*
X1545Y15D01*
X1538Y14D02*
X1545Y14D01*
X1537Y13D02*
X1544Y13D01*
X1537Y12D02*
X1544Y12D01*
X1536Y11D02*
X1543Y11D01*
X1536Y10D02*
X1543Y10D01*
X1527Y9D02*
X1542Y9D01*
X1526Y8D02*
X1542Y8D01*
X1525Y7D02*
X1541Y7D01*
X1525Y6D02*
X1541Y6D01*
X1526Y5D02*
X1541Y5D01*
X1526Y4D02*
X1540Y4D01*
X1527Y3D02*
X1539Y3D01*
D02*
G04 End of Silk1*
M02*